<svg id="Layer_1" data-name="Layer 1" xmlns="http://www.w3.org/2000/svg" xmlns:xlink="http://www.w3.org/1999/xlink" viewBox="0 0 61.42 151.43"><defs><style>.cls-1{fill:url(#radial-gradient);}.cls-2{fill:#06033e;opacity:0.4;}.cls-12,.cls-2{isolation:isolate;}.cls-3{fill:url(#linear-gradient);}.cls-4{fill:url(#linear-gradient-2);}.cls-5{fill:url(#linear-gradient-3);}.cls-6{fill:url(#linear-gradient-4);}.cls-7{fill:url(#radial-gradient-2);}.cls-12,.cls-8{fill:#fff;}.cls-9{fill:#0c0a78;}.cls-10{fill:url(#linear-gradient-5);}.cls-11{fill:#e8975b;}.cls-12{opacity:0.5;}</style><radialGradient id="radial-gradient" cx="446.14" cy="424.4" r="171.46" gradientTransform="translate(-58.72 -118.5)" gradientUnits="userSpaceOnUse"><stop offset="0" stop-color="#e39a65"/><stop offset="0.15" stop-color="#a92ffb"/><stop offset="0.41" stop-color="#3919bb"/><stop offset="0.93" stop-color="#3919bb"/></radialGradient><linearGradient id="linear-gradient" x1="449.17" y1="403.14" x2="510.68" y2="403.14" gradientTransform="translate(-58.72 -118.5)" gradientUnits="userSpaceOnUse"><stop offset="0" stop-color="#e39a65"/><stop offset="0.25" stop-color="#a92ffb"/><stop offset="0.56" stop-color="#3919bb"/></linearGradient><linearGradient id="linear-gradient-2" x1="410.19" y1="388.76" x2="460.15" y2="388.76" gradientTransform="translate(-404.5 -319.67)" gradientUnits="userSpaceOnUse"><stop offset="0" stop-color="#4f1fec"/><stop offset="1" stop-color="#a92ffb"/></linearGradient><linearGradient id="linear-gradient-3" x1="409" y1="388.76" x2="458.96" y2="388.76" xlink:href="#linear-gradient-2"/><linearGradient id="linear-gradient-4" x1="454.95" y1="393.45" x2="517.95" y2="393.45" gradientTransform="translate(-58.72 -118.5)" gradientUnits="userSpaceOnUse"><stop offset="0" stop-color="#131060"/><stop offset="0.19" stop-color="#141062"/><stop offset="0.28" stop-color="#19106a"/><stop offset="0.36" stop-color="#221078"/><stop offset="0.42" stop-color="#2e0f8b"/><stop offset="0.48" stop-color="#3e0fa3"/><stop offset="0.54" stop-color="#510ec2"/><stop offset="0.58" stop-color="#680de5"/><stop offset="0.61" stop-color="#740df8"/><stop offset="0.62" stop-color="#7a14f0"/><stop offset="0.68" stop-color="#9b3cc3"/><stop offset="0.75" stop-color="#b75d9d"/><stop offset="0.81" stop-color="#cc7680"/><stop offset="0.88" stop-color="#dc886c"/><stop offset="0.94" stop-color="#e5935f"/><stop offset="1" stop-color="#e8975b"/></linearGradient><radialGradient id="radial-gradient-2" cx="441.5" cy="385.76" r="112.16" gradientTransform="translate(-58.72 -118.5)" gradientUnits="userSpaceOnUse"><stop offset="0" stop-color="#e39a65"/><stop offset="0.25" stop-color="#a92ffb"/><stop offset="0.74" stop-color="#3919bb"/></radialGradient><linearGradient id="linear-gradient-5" x1="475.97" y1="413.78" x2="484.68" y2="413.78" xlink:href="#linear-gradient-4"/></defs><path class="cls-1" d="M450.21,287.44h-58l5.4,62.8h0c0,3.49,2.31,7,6.92,9.64,9.22,5.33,24.17,5.33,33.39,0,4.61-2.66,6.91-6.15,6.91-9.64Z" transform="translate(-390.54 -212.45)"/><path class="cls-2" d="M450.21,287.44h-58l.89,10.34a22.47,22.47,0,0,0,5.37,4.83c11.09,7.36,29.38,8.77,41.86,3.48L438.4,352a9.19,9.19,0,0,1-2.07,5.48c-1.88,2.21-5.5,4.81-12.46,6.28a33,33,0,0,0,14-3.9c4.61-2.66,6.91-6.15,6.91-9.64l4.33-50.37h0Z" transform="translate(-390.54 -212.45)"/><ellipse class="cls-2" cx="30.67" cy="74.99" rx="29.01" ry="16.75"/><ellipse class="cls-2" cx="30.67" cy="69.09" rx="24.98" ry="14.42"/><path class="cls-3" d="M451.93,286.66h0v-.14l-.56-5.62V281c-.25-4.25-3.19-8.47-8.81-11.72-11.78-6.8-30.87-6.8-42.65,0-5.77,3.33-8.71,7.68-8.82,12h0l-.53,5v.47h0c-.32,4.77,2.67,9.6,9,13.24,12,6.93,31.48,6.93,43.49,0C449.3,296.33,452.29,291.46,451.93,286.66Z" transform="translate(-390.54 -212.45)"/><ellipse class="cls-4" cx="30.67" cy="69.09" rx="24.98" ry="14.42"/><ellipse class="cls-5" cx="29.48" cy="69.09" rx="24.98" ry="14.42"/><path class="cls-2" d="M406.5,273.49c9.76-5.63,25.58-5.63,35.33,0,.13.07.23.15.35.22a20.36,20.36,0,0,0-3.31-2.37c-9.76-5.63-25.58-5.63-35.33,0s-9.74,14.53-.35,20.18C396.92,285.93,398,278.39,406.5,273.49Z" transform="translate(-390.54 -212.45)"/><path class="cls-6" d="M403.54,273.85c9.75-5.64,25.57-5.64,35.33,0,4.33,2.49,6.73,5.68,7.22,8.94.61-4.09-1.79-8.31-7.22-11.45-9.76-5.63-25.58-5.63-35.33,0-5.43,3.14-7.84,7.36-7.22,11.45C396.81,279.53,399.21,276.34,403.54,273.85Z" transform="translate(-390.54 -212.45)"/><path class="cls-7" d="M442.71,269.37c-11.76-6.92-30.92-7.09-42.8-.37s-12,17.78-.22,24.71,30.93,7.1,42.81.38S454.47,276.3,442.71,269.37Zm-3.84,22.37a33,33,0,0,1-11.36,3.75l-.45-1.49a1.41,1.41,0,0,0-1.37-1h-9a1.41,1.41,0,0,0-1.37,1l-.45,1.49a33.14,33.14,0,0,1-11.36-3.75c-9.76-5.63-9.76-14.76,0-20.4s25.57-5.63,35.33,0,9.79,14.77,0,20.4Z" transform="translate(-390.54 -212.45)"/><path class="cls-8" d="M438.87,270.24c-9.76-5.63-25.58-5.63-35.33,0-5.12,3-7.54,6.87-7.3,10.74.23-3.51,2.65-7,7.3-9.67,9.75-5.63,25.57-5.63,35.33,0,4.64,2.68,7.07,6.16,7.29,9.67C446.41,277.24,444,273.24,438.87,270.24Z" transform="translate(-390.54 -212.45)"/><path class="cls-8" d="M442.5,293c-11.88,6.72-31,6.55-42.81-.38-5.59-3.3-8.5-7.53-8.73-11.79-.23,4.61,2.67,9.29,8.73,12.86,11.76,6.93,30.93,7.1,42.81.38,6.22-3.53,9.21-8.24,9-12.93C451.23,285.49,448.25,289.76,442.5,293Z" transform="translate(-390.54 -212.45)"/><rect class="cls-9" x="27.31" y="82.36" width="6.72" height="1.45" rx="0.65"/><path class="cls-10" d="M423.88,294.81h-5.36a.67.67,0,0,0-.68.66v.11a.28.28,0,0,0,0,.18.65.65,0,0,1,.64-.49h5.36a.68.68,0,0,1,.65.49v-.27A.67.67,0,0,0,423.88,294.81Z" transform="translate(-390.54 -212.45)"/><path class="cls-11" d="M422,343.8a4.65,4.65,0,1,1-9-2.38h0c.65-2.47,3-3.17,5.46-2.52S422.68,341.33,422,343.8Z" transform="translate(-390.54 -212.45)"/><path class="cls-11" d="M425.67,338.92a2.06,2.06,0,0,1-2.91,0,2,2,0,0,1-.07-2.83l.07-.07c.94-.91,2.71-1.36,3.5-.55S426.61,338,425.67,338.92Z" transform="translate(-390.54 -212.45)"/><path class="cls-11" d="M420.81,335a2.05,2.05,0,0,1-4.1-.19,2.36,2.36,0,0,1,.1-.53c.22-1.28,1.41-2.68,2.52-2.48S421.05,333.76,420.81,335Z" transform="translate(-390.54 -212.45)"/><path class="cls-11" d="M414.81,334.45A2,2,0,0,1,411,336c-.5-1.21-.25-3,.8-3.45S414.36,333.24,414.81,334.45Z" transform="translate(-390.54 -212.45)"/><path class="cls-12" d="M418.55,232.24s-8.07,12.07-.53,28.4,9.2,14.45,9.11,22.26a14.11,14.11,0,0,1-7.6,12.64h3.57s16.22-5.44,9.65-24.07" transform="translate(-390.54 -212.45)"/><path class="cls-12" d="M433.33,212.45s-9.25,20.66-6.22,30.85c0,0-2.45-6.48-2.55-8.46" transform="translate(-390.54 -212.45)"/></svg>