<svg id="Layer_1" data-name="Layer 1" xmlns="http://www.w3.org/2000/svg" width="1790.98" height="94.25" viewBox="0 0 1790.98 94.25"><defs><style>.cls-1{fill:#161f2c;opacity:0.54;}.cls-1,.cls-5{stroke:#fff;}.cls-1,.cls-2,.cls-4,.cls-5{stroke-miterlimit:10;}.cls-2,.cls-3{fill:#0e141c;}.cls-2,.cls-4{stroke:#02dac5;stroke-width:3px;}.cls-4{fill:none;}.cls-5{font-size:23px;fill:#fff;stroke-width:0.5px;font-family:MyriadPro-Regular, Myriad Pro;}</style></defs><line class="cls-1" x1="48.1" y1="23.55" x2="1724.99" y2="23.55"/><path class="cls-2" d="M-492.33-369.09a23.31,23.31,0,0,1-23.3,23.31,23.31,23.31,0,0,1-23.3-23.31" transform="translate(540.43 392.64)"/><path class="cls-3" d="M-538.93-369.09l21.18-21.17a3,3,0,0,1,4.24,0l21.18,21.17" transform="translate(540.43 392.64)"/><path class="cls-4" d="M-538.93-369.09l21.18-21.17a3,3,0,0,1,4.24,0l21.18,21.17" transform="translate(540.43 392.64)"/><path class="cls-2" d="M591.31-369.09A23.31,23.31,0,0,1,568-345.78a23.31,23.31,0,0,1-23.3-23.31" transform="translate(540.43 392.64)"/><path class="cls-3" d="M544.71-369.09l21.18-21.17a3,3,0,0,1,4.24,0l21.18,21.17" transform="translate(540.43 392.64)"/><path class="cls-4" d="M544.71-369.09l21.18-21.17a3,3,0,0,1,4.24,0l21.18,21.17" transform="translate(540.43 392.64)"/><path class="cls-2" d="M49.35-362.11a23.3,23.3,0,0,0-23.3-23.3,23.3,23.3,0,0,0-23.3,23.3" transform="translate(540.43 392.64)"/><path class="cls-3" d="M2.75-362.11l21.18,21.18a3,3,0,0,0,4.24,0l21.18-21.18" transform="translate(540.43 392.64)"/><path class="cls-4" d="M2.75-362.11l21.18,21.18a3,3,0,0,0,4.24,0l21.18-21.18" transform="translate(540.43 392.64)"/><path class="cls-2" d="M1207.86-362.11a23.3,23.3,0,0,0-23.3-23.3,23.3,23.3,0,0,0-23.3,23.3" transform="translate(540.43 392.64)"/><path class="cls-3" d="M1161.26-362.11l21.18,21.18a3,3,0,0,0,4.25,0l21.17-21.18" transform="translate(540.43 392.64)"/><path class="cls-4" d="M1161.26-362.11l21.18,21.18a3,3,0,0,0,4.25,0l21.17-21.18" transform="translate(540.43 392.64)"/><text class="cls-5" transform="translate(18.01 34.73)">1</text><text class="cls-5" transform="translate(559.72 33.42)">2</text><text class="cls-5" transform="translate(1101.89 33.14)">3</text><text class="cls-5" transform="translate(1717.6 34.08)">4</text></svg>