<svg id="Layer_1" data-name="Layer 1" xmlns="http://www.w3.org/2000/svg" viewBox="0 0 54.09 1749.79"><defs><style>.cls-1,.cls-4{fill:none;}.cls-1,.cls-6{stroke:#fff;}.cls-1,.cls-2,.cls-4,.cls-6{stroke-miterlimit:10;}.cls-1,.cls-5,.cls-6{isolation:isolate;}.cls-1{opacity:0.54;}.cls-2,.cls-3{fill:#0e141c;}.cls-2,.cls-4{stroke:#02dac5;stroke-width:3px;}.cls-5,.cls-6,.cls-7{font-size:23px;fill:#fff;font-family:ArialMT, Arial;}.cls-6{stroke-width:0.5px;}</style></defs><line class="cls-1" x1="30.54" y1="1701.69" x2="30.54" y2="24.8"/><path class="cls-2" d="M831.79,103.12a23.3,23.3,0,1,0,0,46.6" transform="translate(-801.25 1598.57)"/><path class="cls-3" d="M831.79,149.72,853,128.54a3,3,0,0,0,0-4.24l-21.17-21.18" transform="translate(-801.25 1598.57)"/><path class="cls-4" d="M831.79,149.72,853,128.54a3,3,0,0,0,0-4.24l-21.17-21.18" transform="translate(-801.25 1598.57)"/><path class="cls-2" d="M831.79-980.52a23.31,23.31,0,0,0-23.31,23.31,23.31,23.31,0,0,0,23.31,23.3" transform="translate(-801.25 1598.57)"/><path class="cls-3" d="M831.79-933.92,853-955.1a3,3,0,0,0,0-4.24l-21.17-21.18" transform="translate(-801.25 1598.57)"/><path class="cls-4" d="M831.79-933.92,853-955.1a3,3,0,0,0,0-4.24l-21.17-21.18" transform="translate(-801.25 1598.57)"/><path class="cls-2" d="M824.81-438.56a23.3,23.3,0,0,1,23.3,23.3,23.3,23.3,0,0,1-23.3,23.3" transform="translate(-801.25 1598.57)"/><path class="cls-3" d="M824.81-392l-21.18-21.18a3,3,0,0,1,0-4.24l21.18-21.18" transform="translate(-801.25 1598.57)"/><path class="cls-4" d="M824.81-392l-21.18-21.18a3,3,0,0,1,0-4.24l21.18-21.18" transform="translate(-801.25 1598.57)"/><path class="cls-2" d="M824.81-1597.07a23.3,23.3,0,0,1,23.3,23.3h0a23.3,23.3,0,0,1-23.3,23.3h0" transform="translate(-801.25 1598.57)"/><path class="cls-3" d="M824.81-1550.47l-21.18-21.18a3,3,0,0,1,0-4.24h0l21.18-21.17" transform="translate(-801.25 1598.57)"/><path class="cls-4" d="M824.81-1550.47l-21.18-21.18a3,3,0,0,1,0-4.24h0l21.18-21.17" transform="translate(-801.25 1598.57)"/><text class="cls-5" transform="translate(18.89 1732.44)">4</text><text class="cls-6" transform="translate(21.03 1190.88)">3</text><text class="cls-7" transform="translate(20.38 647.43)">2</text><text class="cls-7" transform="translate(22.11 32.48)">1</text></svg>