<svg id="Layer_1" data-name="Layer 1" xmlns="http://www.w3.org/2000/svg" viewBox="0 0 130.21 37"><defs><style>.cls-1{fill:#02dac5;}.cls-2,.cls-3{isolation:isolate;}.cls-3{font-size:34.19px;fill:#fff;font-family:AgencyFB-Reg, Agency FB;}.cls-4{fill:none;stroke:#fff;stroke-miterlimit:10;stroke-width:2px;}</style></defs><path class="cls-1" d="M28.66-143.81a11.12,11.12,0,0,0-2.36-2,12,12,0,0,0-4.45-1.62,18.64,18.64,0,0,0-2.48-.11H10.81c0-.09,0-.14.11-.15h.46c-.33,0-.59,0-.62-.43v-.18a3.75,3.75,0,0,0,0-.67.43.43,0,0,1,0-.16,1.14,1.14,0,0,0,0-.58v-.15a1.19,1.19,0,0,0,0-.53.38.38,0,0,1,0-.15,1.1,1.1,0,0,0,0-.57.43.43,0,0,1,0-.16,2.48,2.48,0,0,1,.18-.76c3.77,0,7.49-.24,11.22.12a14.54,14.54,0,0,1,8.72,4,.44.44,0,0,0,.35.34h0a2.83,2.83,0,0,0,.87,1,15,15,0,0,1,3.77,10.95A14.73,14.73,0,0,1,33.25-128a7.57,7.57,0,0,1-1.17,1.53,2.16,2.16,0,0,0-.8.87h0a.71.71,0,0,0-.46.45,1.89,1.89,0,0,1-.61.55.33.33,0,0,0-.33.26,14.76,14.76,0,0,1-7.09,3.12.92.92,0,0,0-.52,0c-.08,0,0,.09,0,0h0a.66.66,0,0,1,.27.06,7.9,7.9,0,0,1-2.11.23H7.34c-.38,0-.48-.08-.48-.46v-14.41c0-.43.1-.57.54-.55H11c.13,0,.32-.12.4.11a.33.33,0,0,0-.07.21v10.19c0,.13-.05.28.09.37H21a1.65,1.65,0,0,0,.7,0,.27.27,0,0,1-.26,0,.89.89,0,0,1,.6-.1c.07.08.17.06.25.06s0-.06,0-.08a13.26,13.26,0,0,0,4.18-1.75,10.43,10.43,0,0,0,3.67-4,10.72,10.72,0,0,0-.5-11.12c-.2-.31-.42-.62-.62-.92A.56.56,0,0,0,28.66-143.81Z" transform="translate(-6.86 156.89)"/><path class="cls-1" d="M28.3-135a8,8,0,0,1-6.62,6.38,51.77,51.77,0,0,1-5.71.1c-.5,0-1.15.22-1.44-.09s-.08-.93-.08-1.41v-5.55c0-.18-.08-.38.06-.56a1.1,1.1,0,0,1,.05.57v6.24a1,1,0,0,0,.15.67,1,1,0,0,1-.12-.58v-6.36c0-.2-.07-.43.17-.57h3.93c.26,0,.32.1.31.35v2.45c0,.18-.06.36.21.36a6.84,6.84,0,0,0,2.47-.24,3.48,3.48,0,0,0,2-4.41,3.17,3.17,0,0,0-.66-1.1l-.22-.26c-.06-.16-.14-.28-.33-.27a4.68,4.68,0,0,0-2.61-.68H7.55c-.52,0-.72-.05-.68-.66.07-1.13,0-2.26,0-3.4,0-.31,0-.48.43-.48H20.49a2.34,2.34,0,0,1,.87.1,22.86,22.86,0,0,1-2.62.07H18c-.08,0,0,.14,0,.07h0a35.57,35.57,0,0,1,4.13,0A7.05,7.05,0,0,1,26-142.21a.76.76,0,0,0,.45.46A7.09,7.09,0,0,1,28.33-138a1.32,1.32,0,0,0,0,.52.42.42,0,0,1,.06-.31,5.53,5.53,0,0,1,0,2.62.45.45,0,0,1-.06-.32A1.46,1.46,0,0,0,28.3-135Z" transform="translate(-6.86 156.89)"/><path class="cls-1" d="M9.07-147.53H7.39c-.36,0-.53-.11-.53-.49v-3.59c0-.35.13-.46.47-.45h3.24c.31.38.13.82.14,1.22v2.69c0,.42-.15.58-.58.56A2.69,2.69,0,0,0,9.07-147.53Z" transform="translate(-6.86 156.89)"/><path class="cls-1" d="M11.41-125.51c-.22-.13-.14-.34-.14-.52,0-3.38.05-6.75,0-10.12,0-.1.08-.12.16-.14v10.16C11.4-125.94,11.4-125.72,11.41-125.51Z" transform="translate(-6.86 156.89)"/><path class="cls-1" d="M9.07-147.53c.27-.22.59-.12.87-.1.46,0,.63-.1.63-.61V-152h.13a4.36,4.36,0,0,1-3.77,1.51q0,.53,0,1Z" transform="translate(-6.86 156.89)"/><path class="cls-1" d="M22.16-144.28c-.36.3-.73,0-1.11,0a19.65,19.65,0,0,1-3.16-.11h3.49A1.61,1.61,0,0,1,22.16-144.28Z" transform="translate(-6.86 156.89)"/><path class="cls-1" d="M10.72-147.55V-152a.13.13,0,0,1,.12,0,1.51,1.51,0,0,1,0,.79v-.89a.77.77,0,0,1,0,.56v-.56a.77.77,0,0,1,0,.56v-.57a.77.77,0,0,1,0,.56v-.55a.77.77,0,0,1,0,.56v-.54a1.31,1.31,0,0,1,0,.68v-.74h-.12Z" transform="translate(-6.86 156.89)"/><path class="cls-1" d="M32.15-146.57a1.36,1.36,0,0,1-.88-1A4.42,4.42,0,0,1,32.15-146.57Z" transform="translate(-6.86 156.89)"/><path class="cls-1" d="M31.39-125.59a1,1,0,0,1,.79-1A3.81,3.81,0,0,1,31.39-125.59Z" transform="translate(-6.86 156.89)"/><path class="cls-1" d="M26.46-141.74c-.32,0-.43-.16-.44-.47A1.17,1.17,0,0,1,26.46-141.74Z" transform="translate(-6.86 156.89)"/><path class="cls-1" d="M10.81-151.25V-152h.11A1,1,0,0,1,10.81-151.25Z" transform="translate(-6.86 156.89)"/><path class="cls-1" d="M30.89-125.14c-.06-.38.19-.42.46-.46A1.44,1.44,0,0,1,30.89-125.14Z" transform="translate(-6.86 156.89)"/><path class="cls-1" d="M28.32-137.81v.49c-.08-.25-.17-.48,0-.7Z" transform="translate(-6.86 156.89)"/><path class="cls-1" d="M28.3-135c-.19-.22-.06-.46,0-.7Z" transform="translate(-6.86 156.89)"/><path class="cls-1" d="M31.27-147.55c-.35,0-.37-.08-.35-.34A.68.68,0,0,1,31.27-147.55Z" transform="translate(-6.86 156.89)"/><path class="cls-1" d="M28.66-143.81c.34-.08.31.17.34.37Z" transform="translate(-6.86 156.89)"/><path class="cls-1" d="M22.55-139.33c.26-.09.39,0,.34.27Z" transform="translate(-6.86 156.89)"/><path class="cls-1" d="M22.27-125.65h.28c-.15,0-.34.32-.48,0Z" transform="translate(-6.86 156.89)"/><path class="cls-1" d="M30-124.34c-.05-.28.08-.35.33-.26Z" transform="translate(-6.86 156.89)"/><path class="cls-1" d="M22.67-121.2l-.52-.09c.33-.08.53-.12.71,0Z" transform="translate(-6.86 156.89)"/><path class="cls-1" d="M10.91-136.17H7.73c-.48,0-.62.14-.61.62v11.85a.58.58,0,0,1-.11-.49V-136c0-.46.09-.65.59-.63h3.31Z" transform="translate(-6.86 156.89)"/><path class="cls-1" d="M10.83-147.66v-.68c.08.54.41.6.87.59h8.72v.1Z" transform="translate(-6.86 156.89)"/><path class="cls-1" d="M20.39-125.26H11.67v-.08h8.72Z" transform="translate(-6.86 156.89)"/><path class="cls-1" d="M10.81-150.54v-.58a.38.38,0,0,1,0,.54Z" transform="translate(-6.86 156.89)"/><path class="cls-1" d="M10.81-149.85v-.57a.38.38,0,0,1,0,.54Z" transform="translate(-6.86 156.89)"/><path class="cls-1" d="M10.81-149.19v-.57a.38.38,0,0,1,0,.54Z" transform="translate(-6.86 156.89)"/><path class="cls-1" d="M10.81-148.47V-149a.38.38,0,0,1,0,.54Z" transform="translate(-6.86 156.89)"/><g class="cls-2"><text class="cls-3" transform="translate(36.78 30.16)"><tspan xml:space="preserve">  Dag</tspan></text></g><text class="cls-3" transform="translate(90.74 30.16)">Dev</text><line class="cls-4" x1="40" y1="4.7" x2="40" y2="35.98"/></svg>