<svg id="Layer_1" data-name="Layer 1" xmlns="http://www.w3.org/2000/svg" viewBox="0 0 33.31 35.83"><defs><style>.cls-1{fill:#64ffda;}</style></defs><path class="cls-1" d="M73.73,10.12A13.31,13.31,0,0,0,71,7.8,14.08,14.08,0,0,0,65.92,6a20.7,20.7,0,0,0-2.84-.13H53.26c0-.1,0-.16.13-.17h.52c-.37,0-.67,0-.71-.49V5a2.49,2.49,0,0,0,0-.77.54.54,0,0,1,0-.18,1.27,1.27,0,0,0,0-.67V3.16a1.26,1.26,0,0,0,0-.61.48.48,0,0,1,0-.17,1.23,1.23,0,0,0,0-.66.54.54,0,0,1,0-.18,3.25,3.25,0,0,1,.21-.87C57.7.67,62,.4,66.28.81a16.64,16.64,0,0,1,10,4.62.49.49,0,0,0,.4.39h0a3.27,3.27,0,0,0,1,1.09A17.2,17.2,0,0,1,82,19.46a16.74,16.74,0,0,1-3,8.85,8.51,8.51,0,0,1-1.35,1.75,2.58,2.58,0,0,0-.91,1h0a.81.81,0,0,0-.53.52,2,2,0,0,1-.7.62c-.22,0-.31.13-.38.3A16.89,16.89,0,0,1,67,36.08a1.22,1.22,0,0,0-.6,0c-.09,0,0,.11,0,0h0a.64.64,0,0,1,.31.07,8.56,8.56,0,0,1-2.42.26h-15c-.44,0-.54-.12-.54-.55V19.33c0-.49.12-.65.62-.63h4.11c.15,0,.36-.14.45.12a.43.43,0,0,0-.07.25V30.75c0,.15-.06.32.1.43H65a1.8,1.8,0,0,0,.8,0,.28.28,0,0,1-.3-.06,1,1,0,0,1,.69-.11c.08.09.19.06.29.07s0-.08,0-.1a15.41,15.41,0,0,0,4.79-2,12,12,0,0,0,4.21-4.62,12.27,12.27,0,0,0-.57-12.75c-.23-.36-.48-.71-.71-1.06A.61.61,0,0,0,73.73,10.12Z" transform="translate(-48.73 -0.58)"/><path class="cls-1" d="M73.32,20.21a9.1,9.1,0,0,1-7.59,7.32,59.62,59.62,0,0,1-6.55.12c-.57,0-1.32.25-1.65-.11s-.09-1.06-.1-1.61V19.56c0-.21-.09-.44.07-.64a1.2,1.2,0,0,1,.06.65v7.16a1.2,1.2,0,0,0,.13.77,1.28,1.28,0,0,1-.13-.67V19.54c0-.23-.08-.5.19-.66h4.51c.3,0,.36.12.35.4v2.81c0,.21-.06.42.25.42a8,8,0,0,0,2.88-.28,3.94,3.94,0,0,0,1.57-6.32l-.25-.3c-.07-.18-.16-.32-.38-.31a5.43,5.43,0,0,0-3-.77H49.52c-.59,0-.83-.06-.78-.76.08-1.3,0-2.6,0-3.9,0-.36,0-.55.49-.55H64.36a2.8,2.8,0,0,1,1,.11,25,25,0,0,1-3,.08h-.83c-.09,0,0,.16,0,.08h0a41.64,41.64,0,0,1,4.74,0A8.15,8.15,0,0,1,70.7,12a.84.84,0,0,0,.51.53,8.08,8.08,0,0,1,2.11,4.27,1.75,1.75,0,0,0,0,.6.47.47,0,0,1,.07-.36,6.09,6.09,0,0,1,0,3,.45.45,0,0,1-.07-.36A1.61,1.61,0,0,0,73.32,20.21Z" transform="translate(-48.73 -0.58)"/><path class="cls-1" d="M51.26,5.85H49.34c-.42,0-.61-.12-.61-.56V1.18c0-.41.15-.53.54-.52H53c.36.43.15.94.17,1.4V5.14c0,.49-.18.67-.67.64A3.35,3.35,0,0,0,51.26,5.85Z" transform="translate(-48.73 -0.58)"/><path class="cls-1" d="M54,31.11c-.25-.15-.16-.39-.16-.6,0-3.87.06-7.74-.06-11.6,0-.12.09-.14.18-.16V30.38C53.94,30.62,53.94,30.87,54,31.11Z" transform="translate(-48.73 -0.58)"/><path class="cls-1" d="M57.77,18.88a1.57,1.57,0,0,0-.13.77v7.09c0,.27-.09.58.4.75-.62.06-.52-.3-.52-.55v-8A.21.21,0,0,1,57.77,18.88Z" transform="translate(-48.73 -0.58)"/><path class="cls-1" d="M51.26,5.85c.31-.25.68-.13,1-.11.53,0,.73-.12.72-.7V.67h.15a5,5,0,0,1,.08,2,20.24,20.24,0,0,1-.05,3.21Z" transform="translate(-48.73 -0.58)"/><path class="cls-1" d="M66.28,9.58c-.42.35-.84,0-1.27,0a21,21,0,0,1-3.63-.13h4A1.83,1.83,0,0,1,66.28,9.58Z" transform="translate(-48.73 -0.58)"/><path class="cls-1" d="M53.16,5.83V.67a.15.15,0,0,1,.13,0,1.57,1.57,0,0,1,0,.91v.15a.82.82,0,0,1,0,.65v.15a.82.82,0,0,1,0,.65v.14a.82.82,0,0,1,0,.65v.15a.82.82,0,0,1,0,.65V5a1.47,1.47,0,0,1,0,.78.2.2,0,0,1,0,.11h-.13Z" transform="translate(-48.73 -0.58)"/><path class="cls-1" d="M77.73,7a1.51,1.51,0,0,1-1-1.09A5.17,5.17,0,0,1,77.73,7Z" transform="translate(-48.73 -0.58)"/><path class="cls-1" d="M76.86,31a1.19,1.19,0,0,1,.91-1A4.55,4.55,0,0,1,76.86,31Z" transform="translate(-48.73 -0.58)"/><path class="cls-1" d="M71.21,12.49c-.37,0-.49-.18-.51-.53A1.37,1.37,0,0,1,71.21,12.49Z" transform="translate(-48.73 -0.58)"/><path class="cls-1" d="M53.26,1.59V.68h.13A1.2,1.2,0,0,1,53.26,1.59Z" transform="translate(-48.73 -0.58)"/><path class="cls-1" d="M76.29,31.53c-.07-.43.22-.48.53-.52A1.55,1.55,0,0,1,76.29,31.53Z" transform="translate(-48.73 -0.58)"/><path class="cls-1" d="M73.34,17v.56c-.09-.28-.19-.55,0-.8Z" transform="translate(-48.73 -0.58)"/><path class="cls-1" d="M73.32,20.21c-.22-.25-.07-.53,0-.8v.8Z" transform="translate(-48.73 -0.58)"/><path class="cls-1" d="M65.46,31.11h.26c-.26.1-.51.21-.76,0Z" transform="translate(-48.73 -0.58)"/><path class="cls-1" d="M76.69,5.83c-.4-.06-.43-.09-.4-.39A.8.8,0,0,1,76.69,5.83Z" transform="translate(-48.73 -0.58)"/><path class="cls-1" d="M73.73,10.12c.39-.09.36.2.39.43Z" transform="translate(-48.73 -0.58)"/><path class="cls-1" d="M66.69,15.26c.29-.1.44,0,.38.31Z" transform="translate(-48.73 -0.58)"/><path class="cls-1" d="M66.4,31h.3c-.18,0-.39.37-.55,0Z" transform="translate(-48.73 -0.58)"/><path class="cls-1" d="M75.21,32.45c-.06-.32.09-.4.38-.3Z" transform="translate(-48.73 -0.58)"/><path class="cls-1" d="M66.86,36.05l-.59-.1c.38-.09.6-.14.81,0Z" transform="translate(-48.73 -0.58)"/><path class="cls-1" d="M53.38,18.88H49.69c-.55,0-.71.16-.7.71v13.6a.72.72,0,0,1-.13-.57V19.47c0-.53.11-.74.68-.72h3.84Z" transform="translate(-48.73 -0.58)"/><path class="cls-1" d="M53.28,5.71V4.93c.09.61.47.68,1,.67h10v.12Z" transform="translate(-48.73 -0.58)"/><path class="cls-1" d="M64.25,31.37h-10V31.3h10Z" transform="translate(-48.73 -0.58)"/><path class="cls-1" d="M53.26,2.39V1.74a.43.43,0,0,1,0,.62Z" transform="translate(-48.73 -0.58)"/><path class="cls-1" d="M53.26,3.19V2.54a.43.43,0,0,1,0,.62Z" transform="translate(-48.73 -0.58)"/><path class="cls-1" d="M53.26,4V3.3a.43.43,0,0,1,0,.62Z" transform="translate(-48.73 -0.58)"/><path class="cls-1" d="M53.26,4.78V4.13a.43.43,0,0,1,0,.62Z" transform="translate(-48.73 -0.58)"/></svg>