<svg xmlns="http://www.w3.org/2000/svg" xmlns:xlink="http://www.w3.org/1999/xlink" viewBox="0 0 24.14 23.62"><defs><style>.cls-1{isolation:isolate;}.cls-2{fill:url(#Degradado_sin_nombre_216);}.cls-3{fill:url(#Degradado_sin_nombre_215);}.cls-4{fill:url(#Degradado_sin_nombre_225);}.cls-5{fill:url(#Degradado_sin_nombre_239);}.cls-6{fill:url(#Degradado_sin_nombre_262);}.cls-7{fill:url(#Degradado_sin_nombre_256);}.cls-8{fill:#2956d4;}.cls-9{fill:url(#Degradado_sin_nombre_266);}.cls-10{fill:url(#Degradado_sin_nombre_273);}.cls-11,.cls-12,.cls-13,.cls-14,.cls-15,.cls-16,.cls-17{mix-blend-mode:color-dodge;}.cls-11{fill:url(#Degradado_sin_nombre_373);}.cls-12{fill:url(#Degradado_sin_nombre_373-2);}.cls-13{fill:url(#Degradado_sin_nombre_378);}.cls-14{fill:url(#Degradado_sin_nombre_373-3);}.cls-15{fill:url(#Degradado_sin_nombre_373-4);}.cls-16{fill:url(#Degradado_sin_nombre_378-2);}.cls-17{fill:url(#Degradado_sin_nombre_373-5);}</style><linearGradient id="Degradado_sin_nombre_216" x1="9.92" y1="7.68" x2="16.08" y2="-2.32" gradientUnits="userSpaceOnUse"><stop offset="0" stop-color="#8de0ff"/><stop offset="0.8" stop-color="#c8f0ff"/><stop offset="1" stop-color="#d7f4ff"/></linearGradient><linearGradient id="Degradado_sin_nombre_215" x1="15.61" y1="8.14" x2="19.57" y2="4.88" gradientUnits="userSpaceOnUse"><stop offset="0" stop-color="#24a4ef"/><stop offset="0.35" stop-color="#5fbef4"/><stop offset="1" stop-color="#d7f4ff"/></linearGradient><linearGradient id="Degradado_sin_nombre_225" x1="15.87" y1="15.11" x2="23.48" y2="15.62" gradientUnits="userSpaceOnUse"><stop offset="0" stop-color="#3060d7"/><stop offset="0.14" stop-color="#3566d9"/><stop offset="0.34" stop-color="#4278df"/><stop offset="0.57" stop-color="#5796e8"/><stop offset="0.82" stop-color="#75bff4"/><stop offset="1" stop-color="#8ee1ff"/></linearGradient><linearGradient id="Degradado_sin_nombre_239" x1="9.4" y1="2.64" x2="8.1" y2="0.61" gradientUnits="userSpaceOnUse"><stop offset="0" stop-color="#80cdf7"/><stop offset="1" stop-color="#d7f4ff"/></linearGradient><linearGradient id="Degradado_sin_nombre_262" y1="12.11" x2="6.3" y2="12.11" gradientUnits="userSpaceOnUse"><stop offset="0" stop-color="#5a99e9"/><stop offset="0.55" stop-color="#3c70dc"/><stop offset="1" stop-color="#2652d3"/></linearGradient><linearGradient id="Degradado_sin_nombre_256" x1="5.87" y1="18.32" x2="9.79" y2="7.96" gradientUnits="userSpaceOnUse"><stop offset="0" stop-color="#336bdb"/><stop offset="0.79" stop-color="#51a8ee"/></linearGradient><linearGradient id="Degradado_sin_nombre_266" x1="12.53" y1="19.95" x2="11.7" y2="24.24" gradientUnits="userSpaceOnUse"><stop offset="0" stop-color="#0d38b6"/><stop offset="1" stop-color="#3063c8"/></linearGradient><linearGradient id="Degradado_sin_nombre_273" x1="4.62" y1="18.74" x2="5.51" y2="17.86" gradientUnits="userSpaceOnUse"><stop offset="0" stop-color="#2d5cd6"/><stop offset="0.19" stop-color="#1f4fc3"/><stop offset="0.44" stop-color="#1142b1"/><stop offset="0.71" stop-color="#093aa6"/><stop offset="1" stop-color="#0638a2"/></linearGradient><linearGradient id="Degradado_sin_nombre_373" x1="350.86" y1="363.11" x2="359.25" y2="363.11" gradientTransform="translate(12.92 -12.2) rotate(2.01)" gradientUnits="userSpaceOnUse"><stop offset="0" stop-color="#73557a"/><stop offset="1"/></linearGradient><linearGradient id="Degradado_sin_nombre_373-2" x1="14.98" y1="5.05" x2="15.71" y2="5.05" gradientTransform="matrix(1, 0, 0, 1, 0, 0)" xlink:href="#Degradado_sin_nombre_373"/><linearGradient id="Degradado_sin_nombre_378" x1="3.95" y1="2.82" x2="15.03" y2="2.82" gradientUnits="userSpaceOnUse"><stop offset="0"/><stop offset="1" stop-color="#73557a"/></linearGradient><linearGradient id="Degradado_sin_nombre_373-3" x1="339.11" y1="361.03" x2="350.88" y2="361.03" gradientTransform="translate(559.86 -89.74) rotate(69.18)" xlink:href="#Degradado_sin_nombre_373"/><linearGradient id="Degradado_sin_nombre_373-4" x1="339.08" y1="365.32" x2="341.5" y2="365.32" gradientTransform="translate(69.35 -54.02) rotate(10.1)" xlink:href="#Degradado_sin_nombre_373"/><linearGradient id="Degradado_sin_nombre_378-2" x1="341.42" y1="367.55" x2="350.9" y2="367.55" gradientTransform="translate(338.28 -137.28) rotate(42.39)" xlink:href="#Degradado_sin_nombre_378"/><linearGradient id="Degradado_sin_nombre_373-5" x1="350.81" y1="368.85" x2="353.98" y2="368.85" gradientTransform="translate(110.48 -80.27) rotate(15.38)" xlink:href="#Degradado_sin_nombre_373"/></defs><g class="cls-1"><g id="Layer_1" data-name="Layer 1"><polygon class="cls-2" points="15.03 0 15.71 10.05 3.97 5.58 15.03 0"/><polygon class="cls-3" points="24.14 9.75 15.03 0 15.71 10.05 24.14 9.75"/><polygon class="cls-4" points="18.78 21.22 15.71 10.05 24.14 9.75 18.78 21.22"/><polygon class="cls-5" points="3.97 5.58 5.32 2.51 15.03 0 3.97 5.58"/><polygon class="cls-6" points="0 13.94 3.97 5.58 6.3 18.63 0 13.94"/><polygon class="cls-7" points="15.71 10.05 6.3 18.63 3.97 5.58 15.71 10.05"/><polygon class="cls-8" points="18.78 21.22 6.3 18.63 15.71 10.05 18.78 21.22"/><polygon class="cls-9" points="9.15 23.62 6.3 18.63 18.78 21.22 9.15 23.62"/><polygon class="cls-10" points="0 13.94 9.15 23.62 6.3 18.63 0 13.94"/><rect class="cls-11" x="350.86" y="363.06" width="8.39" height="0.1" transform="translate(-347.64 -340.57) rotate(-2.01)"/><polygon class="cls-12" points="15.61 10.05 14.98 0.05 15.07 0.04 15.71 10.04 15.61 10.05"/><polygon class="cls-13" points="4 5.63 3.95 5.54 14.99 0.01 15.03 0.1 4 5.63"/><rect class="cls-14" x="344.95" y="354.76" width="0.1" height="12.55" transform="translate(-450.23 201.99) rotate(-69.18)"/><rect class="cls-15" x="340.24" y="358.7" width="0.1" height="13.25" transform="translate(-393.96 -287.87) rotate(-10.1)"/><rect class="cls-16" x="339.79" y="367.5" width="12.74" height="0.1" transform="translate(-492.46 -23.77) rotate(-42.39)"/><rect class="cls-17" x="352.35" y="363.05" width="0.1" height="11.59" transform="translate(-420.38 -246.51) rotate(-15.38)"/></g></g></svg>