<svg id="Layer_1" data-name="Layer 1" xmlns="http://www.w3.org/2000/svg" xmlns:xlink="http://www.w3.org/1999/xlink" viewBox="0 0 723.78 506.46"><defs><style>.cls-1{fill:#83d2f9;}.cls-2{fill:#020230;opacity:0.6;}.cls-3{fill:url(#Áåçûìÿííûé_ãðàäèåíò_113);}.cls-4{fill:url(#Áåçûìÿííûé_ãðàäèåíò_109);}.cls-20,.cls-5{fill:#fff;}.cls-6,.cls-9{opacity:0.4;}.cls-7,.cls-9{fill:#06033e;}.cls-8{fill:url(#Áåçûìÿííûé_ãðàäèåíò_441);}.cls-10{fill:#e8975b;}.cls-11{fill:#f8359e;}.cls-12{fill:url(#Áåçûìÿííûé_ãðàäèåíò_199);}.cls-13{fill:url(#Áåçûìÿííûé_ãðàäèåíò_144);}.cls-14{fill:url(#Áåçûìÿííûé_ãðàäèåíò_483);}.cls-15{fill:url(#Áåçûìÿííûé_ãðàäèåíò_483-2);}.cls-16{fill:url(#Áåçûìÿííûé_ãðàäèåíò_193);}.cls-17{fill:url(#Áåçûìÿííûé_ãðàäèåíò_223);}.cls-18{fill:#0c0a78;}.cls-19{fill:url(#Áåçûìÿííûé_ãðàäèåíò_193-2);}.cls-20{opacity:0.5;}</style><radialGradient id="Áåçûìÿííûé_ãðàäèåíò_113" cx="431.13" cy="52.91" r="368.58" gradientUnits="userSpaceOnUse"><stop offset="0" stop-color="#e39a65"/><stop offset="0.47" stop-color="#a92ffb"/><stop offset="0.59" stop-color="#891cfb"/><stop offset="0.74" stop-color="#6507fa"/><stop offset="0.8" stop-color="#0d0c6f"/></radialGradient><radialGradient id="Áåçûìÿííûé_ãðàäèåíò_109" cx="207.1" cy="348.91" r="401.8" gradientUnits="userSpaceOnUse"><stop offset="0" stop-color="#e39a65"/><stop offset="0.47" stop-color="#a92ffb"/><stop offset="0.57" stop-color="#891cfb"/><stop offset="0.68" stop-color="#6507fa"/><stop offset="0.74" stop-color="#0d0c6f"/></radialGradient><linearGradient id="Áåçûìÿííûé_ãðàäèåíò_441" x1="373.32" y1="226.57" x2="668.73" y2="226.57" gradientUnits="userSpaceOnUse"><stop offset="0" stop-color="#3919bb"/><stop offset="1" stop-color="#6507fa"/></linearGradient><radialGradient id="Áåçûìÿííûé_ãðàäèåíò_199" cx="181.5" cy="193.25" r="272.93" gradientUnits="userSpaceOnUse"><stop offset="0" stop-color="#e39a65"/><stop offset="0.15" stop-color="#a92ffb"/><stop offset="0.41" stop-color="#3919bb"/><stop offset="0.93" stop-color="#3919bb"/></radialGradient><linearGradient id="Áåçûìÿííûé_ãðàäèåíò_144" x1="186.33" y1="159.44" x2="284.23" y2="159.44" gradientUnits="userSpaceOnUse"><stop offset="0" stop-color="#e39a65"/><stop offset="0.25" stop-color="#a92ffb"/><stop offset="0.56" stop-color="#3919bb"/></linearGradient><linearGradient id="Áåçûìÿííûé_ãðàäèåíò_483" x1="136.21" y1="109.97" x2="215.74" y2="109.97" gradientUnits="userSpaceOnUse"><stop offset="0" stop-color="#4f1fec"/><stop offset="1" stop-color="#a92ffb"/></linearGradient><linearGradient id="Áåçûìÿííûé_ãðàäèåíò_483-2" x1="134.32" y1="109.97" x2="213.86" y2="109.97" xlink:href="#Áåçûìÿííûé_ãðàäèåíò_483"/><linearGradient id="Áåçûìÿííûé_ãðàäèåíò_193" x1="195.52" y1="143.99" x2="295.8" y2="143.99" gradientUnits="userSpaceOnUse"><stop offset="0" stop-color="#131060"/><stop offset="0.19" stop-color="#141062"/><stop offset="0.28" stop-color="#19106a"/><stop offset="0.36" stop-color="#221078"/><stop offset="0.42" stop-color="#2e0f8b"/><stop offset="0.48" stop-color="#3e0fa3"/><stop offset="0.54" stop-color="#510ec2"/><stop offset="0.58" stop-color="#680de5"/><stop offset="0.61" stop-color="#740df8"/><stop offset="0.62" stop-color="#7a14f0"/><stop offset="0.68" stop-color="#9b3cc3"/><stop offset="0.75" stop-color="#b75d9d"/><stop offset="0.81" stop-color="#cc7680"/><stop offset="0.88" stop-color="#dc886c"/><stop offset="0.94" stop-color="#e5935f"/><stop offset="1" stop-color="#e8975b"/></linearGradient><radialGradient id="Áåçûìÿííûé_ãðàäèåíò_223" cx="174.11" cy="131.75" r="178.54" gradientUnits="userSpaceOnUse"><stop offset="0" stop-color="#e39a65"/><stop offset="0.25" stop-color="#a92ffb"/><stop offset="0.74" stop-color="#3919bb"/></radialGradient><linearGradient id="Áåçûìÿííûé_ãðàäèåíò_193-2" x1="228.98" y1="176.35" x2="242.86" y2="176.35" xlink:href="#Áåçûìÿííûé_ãðàäèåíò_193"/></defs><path class="cls-1" d="M756.17,475.31a11.56,11.56,0,0,1-5.75-1.54l-19.37-11.19a3.58,3.58,0,0,1,0-6.21l19.37-11.19a11.55,11.55,0,0,1,11.49,0l19.38,11.19a3.59,3.59,0,0,1,0,6.21l-19.37,11.19A11.56,11.56,0,0,1,756.17,475.31Zm0-28.59a8.4,8.4,0,0,0-4.21,1.12L732.59,459a.5.5,0,0,0-.26.45.48.48,0,0,0,.26.44L752,471.11h0a8.44,8.44,0,0,0,8.42,0l19.37-11.19a.48.48,0,0,0,.26-.44.5.5,0,0,0-.26-.45l-19.37-11.19A8.4,8.4,0,0,0,756.17,446.72Z" transform="translate(-59.3 -44.5)"/><path class="cls-1" d="M700.76,411.84a18.57,18.57,0,0,1-9.33-2.5l-33.34-19.25a5.06,5.06,0,0,1,0-8.77l33.34-19.25a18.69,18.69,0,0,1,18.67,0l33.34,19.25a5.07,5.07,0,0,1,0,8.77L710.1,409.34A18.71,18.71,0,0,1,700.76,411.84Zm-7.8-5.16a15.63,15.63,0,0,0,15.6,0l33.34-19.25a2,2,0,0,0,0-3.45l-33.34-19.25a15.63,15.63,0,0,0-15.6,0L659.62,384a2,2,0,0,0,0,3.45Z" transform="translate(-59.3 -44.5)"/><path class="cls-1" d="M104.51,442.13a18.66,18.66,0,0,1-9.33-2.49L61.84,420.39a5.06,5.06,0,0,1,0-8.78l33.34-19.25a18.74,18.74,0,0,1,18.67,0l33.34,19.25a5.07,5.07,0,0,1,0,8.78l-33.34,19.25A18.7,18.7,0,0,1,104.51,442.13Zm0-49.19a15.59,15.59,0,0,0-7.8,2.08L63.37,414.27a2,2,0,0,0,0,3.46L96.71,437h0a15.68,15.68,0,0,0,15.6,0l33.34-19.25a2,2,0,0,0,0-3.46L112.31,395A15.56,15.56,0,0,0,104.51,392.94Z" transform="translate(-59.3 -44.5)"/><path class="cls-2" d="M442.14,526.1,203.74,388.46c-3.47-2-3-5.51,1-7.82l153-88.34c4-2.32,10.09-2.57,13.56-.57l238.4,137.65c3.48,2,3,5.51-1,7.82l-153,88.34C451.69,527.86,445.62,528.11,442.14,526.1Z" transform="translate(-59.3 -44.5)"/><path class="cls-1" d="M447.61,551a15.27,15.27,0,0,1-7.51-1.75h0L168,392.11c-2.23-1.29-3.45-3.14-3.45-5.21,0-2.39,1.66-4.72,4.56-6.39L354.6,271.85c5.09-2.94,12.56-3.22,17-.65L643.7,428.29c2.23,1.28,3.45,3.13,3.45,5.21,0,2.39-1.66,4.71-4.56,6.38L457.12,548.55A19.47,19.47,0,0,1,447.61,551ZM364.15,272.53a16.61,16.61,0,0,0-8,2L170.67,383.17c-1.9,1.1-3,2.49-3,3.73a3.27,3.27,0,0,0,1.91,2.55L441.64,546.54h0c3.48,2,9.86,1.71,13.94-.65L641.05,437.23c1.9-1.1,3-2.49,3-3.73a3.27,3.27,0,0,0-1.91-2.55L370.08,273.86A12.2,12.2,0,0,0,364.15,272.53Z" transform="translate(-59.3 -44.5)"/><path class="cls-3" d="M673,198.62,435.55,61.52a6.15,6.15,0,0,0-4.84-.7h0l-4.39,1.53,1.54.37a7.63,7.63,0,0,0-1.45,2.71L372.68,239.8c-1.33,4.33.62,9.58,4.36,11.74L614.5,388.64a7,7,0,0,0,1.75.71l-.59,1.28,4.2-1.47h0a6.69,6.69,0,0,0,3.82-4.44l53.7-174.36C678.7,206,676.75,200.77,673,198.62Z" transform="translate(-59.3 -44.5)"/><path class="cls-4" d="M606,395.15l.08.1L371.53,259.83c-3.45-2-9.48-1.75-13.46.55L202.89,353h0a4.23,4.23,0,0,0,2.27,2.83L441.89,492.54c3.46,2,9.48,1.75,13.47-.55l151.93-87.72a6.11,6.11,0,0,0,3.22-3.75h0l1.45-6.9Z" transform="translate(-59.3 -44.5)"/><path class="cls-5" d="M608.72,401.14l-152.46,83c-4,2.17-10.05,2.41-13.51.53L205.2,355.36A4.29,4.29,0,0,1,203,353c-.46,1.5.21,3,2.16,4.06L442.75,486.39c3.46,1.88,9.51,1.65,13.51-.53l152.46-83c2.64-1.43,3.69-3.34,3.13-5A6,6,0,0,1,608.72,401.14Z" transform="translate(-59.3 -44.5)"/><g class="cls-6"><path class="cls-7" d="M317.46,326.33l-8-4.65c-.65-.37-.57-1,.18-1.45l9.5-5.49a2.78,2.78,0,0,1,2.52-.1l8.05,4.64c.65.38.56,1-.18,1.46l-9.5,5.48A2.78,2.78,0,0,1,317.46,326.33Z" transform="translate(-59.3 -44.5)"/><path class="cls-7" d="M329.89,333.51l-8.05-4.65c-.65-.38-.57-1,.18-1.46l9.5-5.48a2.81,2.81,0,0,1,2.52-.11l8,4.65c.65.37.56,1-.18,1.46l-9.5,5.48A2.81,2.81,0,0,1,329.89,333.51Z" transform="translate(-59.3 -44.5)"/><path class="cls-7" d="M342.32,340.68,334.27,336c-.65-.37-.57-1,.18-1.45l9.5-5.49a2.81,2.81,0,0,1,2.52-.1l8,4.65c.65.37.56,1-.18,1.45l-9.5,5.49A2.81,2.81,0,0,1,342.32,340.68Z" transform="translate(-59.3 -44.5)"/><path class="cls-7" d="M359.51,334.75l-8.05-4.64c-.65-.38-.57-1,.18-1.46l8-4.6a2.83,2.83,0,0,1,2.53-.11l8,4.65c.65.37.57,1-.18,1.46l-8,4.6A2.78,2.78,0,0,1,359.51,334.75Z" transform="translate(-59.3 -44.5)"/><path class="cls-7" d="M371.94,341.93l-8.05-4.65c-.65-.37-.57-1,.18-1.45l8-4.61a2.83,2.83,0,0,1,2.53-.1l8,4.65c.65.37.57,1-.18,1.45l-8,4.61A2.81,2.81,0,0,1,371.94,341.93Z" transform="translate(-59.3 -44.5)"/><path class="cls-7" d="M384.37,349.11l-8.05-4.65c-.65-.37-.57-1,.18-1.46l8-4.6a2.8,2.8,0,0,1,2.53-.1l8,4.64c.65.38.57,1-.18,1.46l-8,4.6A2.81,2.81,0,0,1,384.37,349.11Z" transform="translate(-59.3 -44.5)"/><path class="cls-7" d="M396.8,356.28l-8.05-4.64c-.65-.38-.57-1,.18-1.46l8-4.6a2.83,2.83,0,0,1,2.53-.11l8,4.65c.65.37.57,1-.18,1.45l-8,4.61A2.78,2.78,0,0,1,396.8,356.28Z" transform="translate(-59.3 -44.5)"/><path class="cls-7" d="M409.23,363.46l-8.05-4.65c-.65-.37-.57-1,.18-1.45l8-4.61a2.81,2.81,0,0,1,2.52-.1l8,4.65c.65.37.57,1-.18,1.45l-8,4.61A2.81,2.81,0,0,1,409.23,363.46Z" transform="translate(-59.3 -44.5)"/><path class="cls-7" d="M421.66,370.64,413.61,366c-.65-.37-.57-1,.18-1.46l8-4.6a2.81,2.81,0,0,1,2.52-.11l8.05,4.65c.65.38.57,1-.18,1.46l-8,4.6A2.81,2.81,0,0,1,421.66,370.64Z" transform="translate(-59.3 -44.5)"/><path class="cls-7" d="M434.09,377.81l-8-4.64c-.65-.38-.57-1,.18-1.46l8-4.6a2.78,2.78,0,0,1,2.52-.11l8.05,4.65c.65.37.57,1-.18,1.45l-8,4.61A2.78,2.78,0,0,1,434.09,377.81Z" transform="translate(-59.3 -44.5)"/><path class="cls-7" d="M446.52,385l-8-4.65c-.65-.37-.57-1,.18-1.45l8-4.61a2.78,2.78,0,0,1,2.52-.1l8.05,4.64c.65.38.57,1-.18,1.46l-8,4.6A2.78,2.78,0,0,1,446.52,385Z" transform="translate(-59.3 -44.5)"/><path class="cls-7" d="M459,392.17l-8.05-4.65c-.65-.37-.57-1,.18-1.46l8-4.6a2.81,2.81,0,0,1,2.52-.11l8.05,4.65c.65.37.57,1-.18,1.46l-8,4.6A2.81,2.81,0,0,1,459,392.17Z" transform="translate(-59.3 -44.5)"/><path class="cls-7" d="M471.38,399.34l-8.05-4.65c-.65-.37-.57-1,.18-1.45l8-4.61a2.81,2.81,0,0,1,2.52-.1l8.05,4.65c.65.37.57,1-.18,1.45l-8,4.61A2.81,2.81,0,0,1,471.38,399.34Z" transform="translate(-59.3 -44.5)"/><path class="cls-7" d="M377.82,331.36l-8.05-4.65c-.64-.37-.56-1,.18-1.46l8-4.6a2.78,2.78,0,0,1,2.52-.1l8.05,4.64c.65.38.56,1-.18,1.46l-8,4.6A2.81,2.81,0,0,1,377.82,331.36Z" transform="translate(-59.3 -44.5)"/><path class="cls-7" d="M365.21,324.07l-8-4.64c-.65-.38-.57-1,.18-1.46l8-4.6a2.83,2.83,0,0,1,2.53-.11l8,4.65c.65.37.57,1-.18,1.45l-8,4.61A2.78,2.78,0,0,1,365.21,324.07Z" transform="translate(-59.3 -44.5)"/><path class="cls-7" d="M352.57,316.78l-17.33-10c-.65-.37-.57-1,.18-1.46l8-4.6a2.78,2.78,0,0,1,2.52-.1l17.34,10c.64.38.56,1-.18,1.46l-8,4.6A2.81,2.81,0,0,1,352.57,316.78Z" transform="translate(-59.3 -44.5)"/><path class="cls-7" d="M361.4,307.91l-14.06-8.13c-.65-.37-.57-1,.18-1.45l8-4.61a2.81,2.81,0,0,1,2.52-.1l14.07,8.12c.65.37.57,1-.18,1.46l-8,4.6A2.81,2.81,0,0,1,361.4,307.91Z" transform="translate(-59.3 -44.5)"/><path class="cls-7" d="M390.25,338.53l-8.05-4.64c-.64-.38-.56-1,.18-1.46l8-4.6a2.81,2.81,0,0,1,2.52-.11l8.05,4.65c.65.37.56,1-.18,1.45l-8,4.61A2.78,2.78,0,0,1,390.25,338.53Z" transform="translate(-59.3 -44.5)"/><path class="cls-7" d="M402.68,345.71l-8.05-4.65c-.64-.37-.56-1,.18-1.45l8-4.61a2.81,2.81,0,0,1,2.52-.1l8.05,4.65c.64.37.56,1-.18,1.45l-8,4.61A2.81,2.81,0,0,1,402.68,345.71Z" transform="translate(-59.3 -44.5)"/><path class="cls-7" d="M415.11,352.89l-8.05-4.65c-.64-.37-.56-1,.18-1.46l8-4.6a2.81,2.81,0,0,1,2.52-.11l8.05,4.65c.64.37.56,1-.18,1.46l-8,4.6A2.81,2.81,0,0,1,415.11,352.89Z" transform="translate(-59.3 -44.5)"/><path class="cls-7" d="M427.54,360.06l-8.05-4.64c-.64-.38-.56-1,.18-1.46l8-4.6a2.78,2.78,0,0,1,2.52-.11l8.05,4.65c.64.37.56,1-.18,1.45l-8,4.61A2.78,2.78,0,0,1,427.54,360.06Z" transform="translate(-59.3 -44.5)"/><path class="cls-7" d="M440,367.24l-8.05-4.65c-.64-.37-.56-1,.18-1.45l8-4.61a2.78,2.78,0,0,1,2.52-.1l8,4.64c.64.38.56,1-.18,1.46l-8,4.6A2.78,2.78,0,0,1,440,367.24Z" transform="translate(-59.3 -44.5)"/><path class="cls-7" d="M452.4,374.42l-8-4.65c-.64-.37-.56-1,.18-1.46l8-4.6a2.81,2.81,0,0,1,2.52-.11l8.05,4.65c.64.37.56,1-.18,1.46l-8,4.6A2.81,2.81,0,0,1,452.4,374.42Z" transform="translate(-59.3 -44.5)"/><path class="cls-7" d="M464.83,381.59l-8.05-4.65c-.64-.37-.56-1,.18-1.45l8-4.61a2.81,2.81,0,0,1,2.52-.1l8.05,4.65c.64.37.56,1-.18,1.45l-8,4.61A2.81,2.81,0,0,1,464.83,381.59Z" transform="translate(-59.3 -44.5)"/><path class="cls-7" d="M477.26,388.77l-8.05-4.65c-.65-.37-.56-1,.18-1.45l8-4.61a2.78,2.78,0,0,1,2.52-.1l8.05,4.64c.64.38.56,1-.18,1.46l-8,4.6A2.81,2.81,0,0,1,477.26,388.77Z" transform="translate(-59.3 -44.5)"/><path class="cls-7" d="M489.69,395.94l-8.05-4.64c-.65-.38-.56-1,.18-1.46l8-4.6a2.81,2.81,0,0,1,2.52-.11l8.05,4.65c.64.37.56,1-.18,1.46l-8,4.6A2.78,2.78,0,0,1,489.69,395.94Z" transform="translate(-59.3 -44.5)"/><path class="cls-7" d="M511.79,408.7l-17.56-10.14c-.65-.37-.57-1,.18-1.45l8-4.61a2.81,2.81,0,0,1,2.52-.1l17.56,10.14c.65.37.57,1-.18,1.45l-8,4.61A2.78,2.78,0,0,1,511.79,408.7Z" transform="translate(-59.3 -44.5)"/><path class="cls-7" d="M536,394.73l-14.83-8.56c-.64-.37-.56-1,.18-1.45l8-4.61a2.81,2.81,0,0,1,2.52-.1l14.82,8.56c.65.37.57,1-.18,1.45l-8,4.61A2.81,2.81,0,0,1,536,394.73Z" transform="translate(-59.3 -44.5)"/><path class="cls-7" d="M412,337.13l-8-4.65c-.65-.37-.57-1,.18-1.45l8-4.61a2.78,2.78,0,0,1,2.52-.1L422.7,331c.64.38.56,1-.18,1.46l-8,4.61A2.81,2.81,0,0,1,412,337.13Z" transform="translate(-59.3 -44.5)"/><path class="cls-7" d="M399.28,329.77l-8-4.64c-.65-.38-.56-1,.18-1.46l8-4.6a2.81,2.81,0,0,1,2.52-.11l8,4.65c.64.37.56,1-.18,1.46l-8,4.6A2.78,2.78,0,0,1,399.28,329.77Z" transform="translate(-59.3 -44.5)"/><path class="cls-7" d="M386.54,322.42l-8.05-4.65c-.64-.37-.56-1,.18-1.45l8-4.61a2.81,2.81,0,0,1,2.52-.1l8.05,4.65c.64.37.56,1-.18,1.45l-8,4.61A2.81,2.81,0,0,1,386.54,322.42Z" transform="translate(-59.3 -44.5)"/><path class="cls-7" d="M373.8,315.06l-8.05-4.64c-.64-.38-.56-1,.18-1.46l8-4.6a2.81,2.81,0,0,1,2.52-.11l8.05,4.65c.65.37.56,1-.18,1.46l-8,4.6A2.78,2.78,0,0,1,373.8,315.06Z" transform="translate(-59.3 -44.5)"/><path class="cls-7" d="M424.45,344.31l-8.05-4.65c-.65-.37-.57-1,.18-1.46l8-4.6a2.81,2.81,0,0,1,2.52-.11l8.05,4.65c.64.37.56,1-.19,1.46l-8,4.6A2.81,2.81,0,0,1,424.45,344.31Z" transform="translate(-59.3 -44.5)"/><path class="cls-7" d="M436.88,351.48l-8.05-4.64c-.65-.38-.57-1,.18-1.46l8-4.6a2.78,2.78,0,0,1,2.52-.11l8.05,4.65c.64.37.56,1-.19,1.45l-8,4.61A2.78,2.78,0,0,1,436.88,351.48Z" transform="translate(-59.3 -44.5)"/><path class="cls-7" d="M449.31,358.66,441.26,354c-.65-.37-.57-1,.18-1.45l8-4.61a2.78,2.78,0,0,1,2.52-.1l8.05,4.64c.64.38.56,1-.19,1.46l-8,4.6A2.81,2.81,0,0,1,449.31,358.66Z" transform="translate(-59.3 -44.5)"/><path class="cls-7" d="M461.74,365.83l-8.05-4.64c-.65-.38-.57-1,.18-1.46l8-4.6a2.81,2.81,0,0,1,2.52-.11l8.05,4.65c.64.37.56,1-.19,1.46l-8,4.6A2.78,2.78,0,0,1,461.74,365.83Z" transform="translate(-59.3 -44.5)"/><path class="cls-7" d="M474.17,373l-8.05-4.65c-.65-.37-.57-1,.18-1.45l8-4.61a2.83,2.83,0,0,1,2.53-.1l8,4.65c.65.37.57,1-.18,1.45l-8,4.61A2.81,2.81,0,0,1,474.17,373Z" transform="translate(-59.3 -44.5)"/><path class="cls-7" d="M486.6,380.19l-8.05-4.65c-.65-.37-.57-1,.18-1.46l8-4.6a2.8,2.8,0,0,1,2.53-.1l8,4.64c.65.38.57,1-.18,1.46l-8,4.6A2.81,2.81,0,0,1,486.6,380.19Z" transform="translate(-59.3 -44.5)"/><path class="cls-7" d="M499,387.36l-8-4.64c-.65-.38-.57-1,.18-1.46l8-4.6a2.83,2.83,0,0,1,2.53-.11l8,4.65c.65.37.57,1-.18,1.45l-8,4.61A2.78,2.78,0,0,1,499,387.36Z" transform="translate(-59.3 -44.5)"/><path class="cls-7" d="M511.46,394.54l-8-4.65c-.65-.37-.57-1,.18-1.45l8-4.61a2.83,2.83,0,0,1,2.53-.1l8,4.65c.65.37.57,1-.18,1.45l-8,4.61A2.81,2.81,0,0,1,511.46,394.54Z" transform="translate(-59.3 -44.5)"/><path class="cls-7" d="M523.89,401.72l-8-4.65c-.65-.37-.57-1,.18-1.46l8-4.6a2.83,2.83,0,0,1,2.53-.11l8,4.65c.65.38.57,1-.18,1.46l-8,4.6A2.81,2.81,0,0,1,523.89,401.72Z" transform="translate(-59.3 -44.5)"/><path class="cls-7" d="M405.47,319.38l-8.05-4.65c-.64-.37-.56-1,.19-1.45l8-4.61a2.78,2.78,0,0,1,2.52-.1l8,4.64c.65.38.57,1-.18,1.46l-8,4.6A2.78,2.78,0,0,1,405.47,319.38Z" transform="translate(-59.3 -44.5)"/><path class="cls-7" d="M393.11,312.24l-8.05-4.65c-.65-.37-.57-1,.18-1.45l8-4.61a2.78,2.78,0,0,1,2.52-.1l8,4.64c.65.38.57,1-.18,1.46l-8,4.6A2.81,2.81,0,0,1,393.11,312.24Z" transform="translate(-59.3 -44.5)"/><path class="cls-7" d="M380.74,305.1l-8.05-4.65c-.65-.37-.57-1,.18-1.45l8-4.61a2.78,2.78,0,0,1,2.52-.1l8.05,4.64c.64.38.56,1-.19,1.46l-8,4.6A2.81,2.81,0,0,1,380.74,305.1Z" transform="translate(-59.3 -44.5)"/><path class="cls-7" d="M368.37,298l-8.05-4.65c-.65-.37-.56-1,.18-1.46l8-4.6a2.78,2.78,0,0,1,2.52-.1l8.05,4.64c.64.38.56,1-.18,1.46l-8,4.6A2.81,2.81,0,0,1,368.37,298Z" transform="translate(-59.3 -44.5)"/><path class="cls-7" d="M381.09,290.61,373,286c-.65-.38-.57-1,.18-1.46l2.64-1.52a2.78,2.78,0,0,1,2.52-.1l8.05,4.64c.64.38.56,1-.18,1.46l-2.64,1.52A2.78,2.78,0,0,1,381.09,290.61Z" transform="translate(-59.3 -44.5)"/><path class="cls-7" d="M397.23,299.93l-8.05-4.64c-.65-.38-.57-1,.18-1.46l2.64-1.52a2.81,2.81,0,0,1,2.52-.11l8.05,4.65c.64.37.56,1-.18,1.46l-2.64,1.52A2.78,2.78,0,0,1,397.23,299.93Z" transform="translate(-59.3 -44.5)"/><path class="cls-7" d="M409.54,307l-8-4.64c-.65-.38-.57-1,.18-1.46l2.63-1.52a2.81,2.81,0,0,1,2.52-.11l8.05,4.65c.65.37.57,1-.18,1.46l-2.63,1.52A2.8,2.8,0,0,1,409.54,307Z" transform="translate(-59.3 -44.5)"/><path class="cls-7" d="M421.86,314.15l-8.05-4.64c-.64-.38-.56-1,.18-1.46l2.64-1.52a2.78,2.78,0,0,1,2.52-.1l8.05,4.64c.65.38.56,1-.18,1.46l-2.64,1.52A2.78,2.78,0,0,1,421.86,314.15Z" transform="translate(-59.3 -44.5)"/><path class="cls-7" d="M434.18,321.27l-8.05-4.65c-.65-.37-.57-1,.18-1.46l2.64-1.52a2.78,2.78,0,0,1,2.52-.1l8,4.64c.64.38.56,1-.19,1.46l-2.63,1.52A2.81,2.81,0,0,1,434.18,321.27Z" transform="translate(-59.3 -44.5)"/><path class="cls-7" d="M502.94,361l-8.05-4.64c-.65-.38-.57-1,.18-1.46l2.64-1.52a2.78,2.78,0,0,1,2.52-.1l8,4.64c.64.38.56,1-.18,1.46l-2.64,1.52A2.78,2.78,0,0,1,502.94,361Z" transform="translate(-59.3 -44.5)"/><path class="cls-7" d="M515.25,368.08l-8-4.65c-.65-.37-.57-1,.18-1.46l2.63-1.52a2.78,2.78,0,0,1,2.52-.1l8.05,4.64c.65.38.57,1-.18,1.46L517.78,368A2.83,2.83,0,0,1,515.25,368.08Z" transform="translate(-59.3 -44.5)"/><path class="cls-7" d="M527.57,375.19l-8.05-4.65c-.64-.37-.56-1,.18-1.46l2.64-1.52a2.78,2.78,0,0,1,2.52-.1l8,4.64c.65.38.56,1-.18,1.46l-2.64,1.52A2.81,2.81,0,0,1,527.57,375.19Z" transform="translate(-59.3 -44.5)"/><path class="cls-7" d="M539.89,382.3l-8-4.65c-.65-.37-.57-1,.18-1.46l2.64-1.52a2.78,2.78,0,0,1,2.52-.1l8.05,4.65c.64.37.56,1-.19,1.45l-2.63,1.52A2.81,2.81,0,0,1,539.89,382.3Z" transform="translate(-59.3 -44.5)"/><path class="cls-7" d="M417.9,326.56l-8-4.65c-.64-.37-.56-1,.19-1.46l8-4.6a2.81,2.81,0,0,1,2.52-.11l8.05,4.65c.65.37.57,1-.18,1.46l-8,4.6A2.81,2.81,0,0,1,417.9,326.56Z" transform="translate(-59.3 -44.5)"/><path class="cls-7" d="M430.33,333.73l-8.05-4.65c-.64-.37-.56-1,.19-1.45l8-4.61a2.81,2.81,0,0,1,2.52-.1l8.05,4.65c.65.37.57,1-.18,1.45l-8,4.61A2.78,2.78,0,0,1,430.33,333.73Z" transform="translate(-59.3 -44.5)"/><path class="cls-7" d="M442.76,340.91l-8.05-4.65c-.64-.37-.56-1,.19-1.45l8-4.61a2.78,2.78,0,0,1,2.52-.1l8.05,4.64c.65.38.57,1-.18,1.46l-8,4.6A2.81,2.81,0,0,1,442.76,340.91Z" transform="translate(-59.3 -44.5)"/><path class="cls-7" d="M455.19,348.08l-8.05-4.64c-.64-.38-.56-1,.18-1.46l8-4.6a2.81,2.81,0,0,1,2.52-.11l8.05,4.65c.65.37.57,1-.18,1.46l-8,4.6A2.78,2.78,0,0,1,455.19,348.08Z" transform="translate(-59.3 -44.5)"/><path class="cls-7" d="M467.62,355.26l-8.05-4.65c-.64-.37-.56-1,.18-1.45l8-4.61a2.81,2.81,0,0,1,2.52-.1l8.05,4.65c.65.37.57,1-.18,1.45l-8,4.61A2.81,2.81,0,0,1,467.62,355.26Z" transform="translate(-59.3 -44.5)"/><path class="cls-7" d="M480.05,362.44,472,357.79c-.64-.37-.56-1,.18-1.46l8-4.6a2.78,2.78,0,0,1,2.52-.1l8.05,4.64c.65.38.56,1-.18,1.46l-8,4.6A2.81,2.81,0,0,1,480.05,362.44Z" transform="translate(-59.3 -44.5)"/><path class="cls-7" d="M492.48,369.61,484.43,365c-.64-.38-.56-1,.18-1.46l8-4.6a2.81,2.81,0,0,1,2.52-.11l8.05,4.65c.65.37.56,1-.18,1.45l-8,4.61A2.78,2.78,0,0,1,492.48,369.61Z" transform="translate(-59.3 -44.5)"/><path class="cls-7" d="M504.91,376.79l-8.05-4.65c-.64-.37-.56-1,.18-1.45l8-4.61a2.81,2.81,0,0,1,2.52-.1l8.05,4.65c.65.37.56,1-.18,1.45l-8,4.61A2.81,2.81,0,0,1,504.91,376.79Z" transform="translate(-59.3 -44.5)"/><path class="cls-7" d="M517.34,384l-8.05-4.65c-.64-.37-.56-1,.18-1.46l8-4.6a2.81,2.81,0,0,1,2.52-.11l8,4.65c.65.37.56,1-.18,1.46l-8,4.6A2.81,2.81,0,0,1,517.34,384Z" transform="translate(-59.3 -44.5)"/><path class="cls-7" d="M346.84,327.44l-23.7-13.68c-.65-.38-.57-1,.18-1.46l8-4.6a2.78,2.78,0,0,1,2.52-.11l23.71,13.69c.64.37.56,1-.18,1.45l-8,4.61A2.81,2.81,0,0,1,346.84,327.44Z" transform="translate(-59.3 -44.5)"/><path class="cls-7" d="M499.54,415.6l-23.7-13.68c-.65-.37-.57-1,.18-1.46l8-4.6a2.83,2.83,0,0,1,2.53-.11l23.7,13.69c.65.37.57,1-.18,1.46l-8,4.6A2.78,2.78,0,0,1,499.54,415.6Z" transform="translate(-59.3 -44.5)"/><path class="cls-7" d="M449.83,402.76l-8-4.65c-.65-.37-.57-1,.18-1.46l9.5-5.48a2.78,2.78,0,0,1,2.52-.1l8.05,4.64c.64.38.56,1-.18,1.46l-9.5,5.48A2.83,2.83,0,0,1,449.83,402.76Z" transform="translate(-59.3 -44.5)"/><path class="cls-7" d="M359.57,350.64l-12.87-7.43c-.65-.37-.57-1,.18-1.46l9.5-5.48a2.78,2.78,0,0,1,2.52-.1l12.87,7.43c.65.37.57,1-.18,1.45l-9.5,5.49A2.78,2.78,0,0,1,359.57,350.64Z" transform="translate(-59.3 -44.5)"/><path class="cls-7" d="M437.86,395.84,425,388.41c-.65-.37-.57-1,.18-1.45l9.5-5.49a2.78,2.78,0,0,1,2.52-.1l12.87,7.43c.65.37.57,1-.18,1.45l-9.5,5.49A2.78,2.78,0,0,1,437.86,395.84Z" transform="translate(-59.3 -44.5)"/><path class="cls-7" d="M377.5,361l-12.87-7.44c-.65-.37-.56-1,.18-1.45l9.5-5.49a2.81,2.81,0,0,1,2.52-.1L389.71,354c.64.37.56,1-.19,1.46l-9.5,5.48A2.81,2.81,0,0,1,377.5,361Z" transform="translate(-59.3 -44.5)"/><path class="cls-7" d="M376.92,346.57l56,32.31a.77.77,0,0,1,0,1.45l-9.69,5.6a2.8,2.8,0,0,1-2.52,0l-56-32.32Z" transform="translate(-59.3 -44.5)"/><path class="cls-7" d="M484.57,415.77l9,5.17c.53.31.46.84-.15,1.2l-3.89,2.24a2.31,2.31,0,0,1-2.06.09l-9-5.18c-.53-.3-.46-.84.15-1.19l3.89-2.25A2.28,2.28,0,0,1,484.57,415.77Z" transform="translate(-59.3 -44.5)"/><path class="cls-7" d="M472,408.53l9,5.18c.53.3.46.84-.15,1.19L477,417.15a2.28,2.28,0,0,1-2.06.08l-9-5.17c-.53-.31-.46-.84.15-1.2l3.88-2.24A2.33,2.33,0,0,1,472,408.53Z" transform="translate(-59.3 -44.5)"/><path class="cls-7" d="M459.61,401.36l9,5.17c.53.31.46.84-.15,1.2L464.54,410a2.31,2.31,0,0,1-2.06.09l-9-5.18c-.53-.31-.46-.84.15-1.19l3.88-2.25A2.3,2.3,0,0,1,459.61,401.36Z" transform="translate(-59.3 -44.5)"/><path class="cls-7" d="M478.91,404.57l9,5.18c.53.3.46.84-.15,1.19l-3.88,2.24a2.3,2.3,0,0,1-2.07.09l-9-5.18c-.53-.3-.46-.84.15-1.19l3.89-2.24A2.27,2.27,0,0,1,478.91,404.57Z" transform="translate(-59.3 -44.5)"/></g><g class="cls-6"><path class="cls-7" d="M317.46,326.33l-8-4.65c-.65-.37-.57-1,.18-1.45l9.5-5.49a2.78,2.78,0,0,1,2.52-.1l8.05,4.64c.65.38.56,1-.18,1.46l-9.5,5.48A2.78,2.78,0,0,1,317.46,326.33Z" transform="translate(-59.3 -44.5)"/><path class="cls-7" d="M329.89,333.51l-8.05-4.65c-.65-.38-.57-1,.18-1.46l9.5-5.48a2.81,2.81,0,0,1,2.52-.11l8,4.65c.65.37.56,1-.18,1.46l-9.5,5.48A2.81,2.81,0,0,1,329.89,333.51Z" transform="translate(-59.3 -44.5)"/><path class="cls-7" d="M342.32,340.68,334.27,336c-.65-.37-.57-1,.18-1.45l9.5-5.49a2.81,2.81,0,0,1,2.52-.1l8,4.65c.65.37.56,1-.18,1.45l-9.5,5.49A2.81,2.81,0,0,1,342.32,340.68Z" transform="translate(-59.3 -44.5)"/><path class="cls-7" d="M359.51,334.75l-8.05-4.64c-.65-.38-.57-1,.18-1.46l8-4.6a2.83,2.83,0,0,1,2.53-.11l8,4.65c.65.37.57,1-.18,1.46l-8,4.6A2.78,2.78,0,0,1,359.51,334.75Z" transform="translate(-59.3 -44.5)"/><path class="cls-7" d="M371.94,341.93l-8.05-4.65c-.65-.37-.57-1,.18-1.45l8-4.61a2.83,2.83,0,0,1,2.53-.1l8,4.65c.65.37.57,1-.18,1.45l-8,4.61A2.81,2.81,0,0,1,371.94,341.93Z" transform="translate(-59.3 -44.5)"/><path class="cls-7" d="M384.37,349.11l-8.05-4.65c-.65-.37-.57-1,.18-1.46l8-4.6a2.8,2.8,0,0,1,2.53-.1l8,4.64c.65.38.57,1-.18,1.46l-8,4.6A2.81,2.81,0,0,1,384.37,349.11Z" transform="translate(-59.3 -44.5)"/><path class="cls-7" d="M396.8,356.28l-8.05-4.64c-.65-.38-.57-1,.18-1.46l8-4.6a2.83,2.83,0,0,1,2.53-.11l8,4.65c.65.37.57,1-.18,1.45l-8,4.61A2.78,2.78,0,0,1,396.8,356.28Z" transform="translate(-59.3 -44.5)"/><path class="cls-7" d="M409.23,363.46l-8.05-4.65c-.65-.37-.57-1,.18-1.45l8-4.61a2.81,2.81,0,0,1,2.52-.1l8,4.65c.65.37.57,1-.18,1.45l-8,4.61A2.81,2.81,0,0,1,409.23,363.46Z" transform="translate(-59.3 -44.5)"/><path class="cls-7" d="M421.66,370.64,413.61,366c-.65-.37-.57-1,.18-1.46l8-4.6a2.81,2.81,0,0,1,2.52-.11l8.05,4.65c.65.38.57,1-.18,1.46l-8,4.6A2.81,2.81,0,0,1,421.66,370.64Z" transform="translate(-59.3 -44.5)"/><path class="cls-7" d="M434.09,377.81l-8-4.64c-.65-.38-.57-1,.18-1.46l8-4.6a2.78,2.78,0,0,1,2.52-.11l8.05,4.65c.65.37.57,1-.18,1.45l-8,4.61A2.78,2.78,0,0,1,434.09,377.81Z" transform="translate(-59.3 -44.5)"/><path class="cls-7" d="M446.52,385l-8-4.65c-.65-.37-.57-1,.18-1.45l8-4.61a2.78,2.78,0,0,1,2.52-.1l8.05,4.64c.65.38.57,1-.18,1.46l-8,4.6A2.78,2.78,0,0,1,446.52,385Z" transform="translate(-59.3 -44.5)"/><path class="cls-7" d="M459,392.17l-8.05-4.65c-.65-.37-.57-1,.18-1.46l8-4.6a2.81,2.81,0,0,1,2.52-.11l8.05,4.65c.65.37.57,1-.18,1.46l-8,4.6A2.81,2.81,0,0,1,459,392.17Z" transform="translate(-59.3 -44.5)"/><path class="cls-7" d="M471.38,399.34l-8.05-4.65c-.65-.37-.57-1,.18-1.45l8-4.61a2.81,2.81,0,0,1,2.52-.1l8.05,4.65c.65.37.57,1-.18,1.45l-8,4.61A2.81,2.81,0,0,1,471.38,399.34Z" transform="translate(-59.3 -44.5)"/><path class="cls-7" d="M377.82,331.36l-8.05-4.65c-.64-.37-.56-1,.18-1.46l8-4.6a2.78,2.78,0,0,1,2.52-.1l8.05,4.64c.65.38.56,1-.18,1.46l-8,4.6A2.81,2.81,0,0,1,377.82,331.36Z" transform="translate(-59.3 -44.5)"/><path class="cls-7" d="M365.21,324.07l-8-4.64c-.65-.38-.57-1,.18-1.46l8-4.6a2.83,2.83,0,0,1,2.53-.11l8,4.65c.65.37.57,1-.18,1.45l-8,4.61A2.78,2.78,0,0,1,365.21,324.07Z" transform="translate(-59.3 -44.5)"/><path class="cls-7" d="M352.57,316.78l-17.33-10c-.65-.37-.57-1,.18-1.46l8-4.6a2.78,2.78,0,0,1,2.52-.1l17.34,10c.64.38.56,1-.18,1.46l-8,4.6A2.81,2.81,0,0,1,352.57,316.78Z" transform="translate(-59.3 -44.5)"/><path class="cls-7" d="M361.4,307.91l-14.06-8.13c-.65-.37-.57-1,.18-1.45l8-4.61a2.81,2.81,0,0,1,2.52-.1l14.07,8.12c.65.37.57,1-.18,1.46l-8,4.6A2.81,2.81,0,0,1,361.4,307.91Z" transform="translate(-59.3 -44.5)"/><path class="cls-7" d="M390.25,338.53l-8.05-4.64c-.64-.38-.56-1,.18-1.46l8-4.6a2.81,2.81,0,0,1,2.52-.11l8.05,4.65c.65.37.56,1-.18,1.45l-8,4.61A2.78,2.78,0,0,1,390.25,338.53Z" transform="translate(-59.3 -44.5)"/><path class="cls-7" d="M402.68,345.71l-8.05-4.65c-.64-.37-.56-1,.18-1.45l8-4.61a2.81,2.81,0,0,1,2.52-.1l8.05,4.65c.64.37.56,1-.18,1.45l-8,4.61A2.81,2.81,0,0,1,402.68,345.71Z" transform="translate(-59.3 -44.5)"/><path class="cls-7" d="M415.11,352.89l-8.05-4.65c-.64-.37-.56-1,.18-1.46l8-4.6a2.81,2.81,0,0,1,2.52-.11l8.05,4.65c.64.37.56,1-.18,1.46l-8,4.6A2.81,2.81,0,0,1,415.11,352.89Z" transform="translate(-59.3 -44.5)"/><path class="cls-7" d="M427.54,360.06l-8.05-4.64c-.64-.38-.56-1,.18-1.46l8-4.6a2.78,2.78,0,0,1,2.52-.11l8.05,4.65c.64.37.56,1-.18,1.45l-8,4.61A2.78,2.78,0,0,1,427.54,360.06Z" transform="translate(-59.3 -44.5)"/><path class="cls-7" d="M440,367.24l-8.05-4.65c-.64-.37-.56-1,.18-1.45l8-4.61a2.78,2.78,0,0,1,2.52-.1l8,4.64c.64.38.56,1-.18,1.46l-8,4.6A2.78,2.78,0,0,1,440,367.24Z" transform="translate(-59.3 -44.5)"/><path class="cls-7" d="M452.4,374.42l-8-4.65c-.64-.37-.56-1,.18-1.46l8-4.6a2.81,2.81,0,0,1,2.52-.11l8.05,4.65c.64.37.56,1-.18,1.46l-8,4.6A2.81,2.81,0,0,1,452.4,374.42Z" transform="translate(-59.3 -44.5)"/><path class="cls-7" d="M464.83,381.59l-8.05-4.65c-.64-.37-.56-1,.18-1.45l8-4.61a2.81,2.81,0,0,1,2.52-.1l8.05,4.65c.64.37.56,1-.18,1.45l-8,4.61A2.81,2.81,0,0,1,464.83,381.59Z" transform="translate(-59.3 -44.5)"/><path class="cls-7" d="M477.26,388.77l-8.05-4.65c-.65-.37-.56-1,.18-1.45l8-4.61a2.78,2.78,0,0,1,2.52-.1l8.05,4.64c.64.38.56,1-.18,1.46l-8,4.6A2.81,2.81,0,0,1,477.26,388.77Z" transform="translate(-59.3 -44.5)"/><path class="cls-7" d="M489.69,395.94l-8.05-4.64c-.65-.38-.56-1,.18-1.46l8-4.6a2.81,2.81,0,0,1,2.52-.11l8.05,4.65c.64.37.56,1-.18,1.46l-8,4.6A2.78,2.78,0,0,1,489.69,395.94Z" transform="translate(-59.3 -44.5)"/><path class="cls-7" d="M511.79,408.7l-17.56-10.14c-.65-.37-.57-1,.18-1.45l8-4.61a2.81,2.81,0,0,1,2.52-.1l17.56,10.14c.65.37.57,1-.18,1.45l-8,4.61A2.78,2.78,0,0,1,511.79,408.7Z" transform="translate(-59.3 -44.5)"/><path class="cls-7" d="M536,394.73l-14.83-8.56c-.64-.37-.56-1,.18-1.45l8-4.61a2.81,2.81,0,0,1,2.52-.1l14.82,8.56c.65.37.57,1-.18,1.45l-8,4.61A2.81,2.81,0,0,1,536,394.73Z" transform="translate(-59.3 -44.5)"/><path class="cls-7" d="M412,337.13l-8-4.65c-.65-.37-.57-1,.18-1.45l8-4.61a2.78,2.78,0,0,1,2.52-.1L422.7,331c.64.38.56,1-.18,1.46l-8,4.61A2.81,2.81,0,0,1,412,337.13Z" transform="translate(-59.3 -44.5)"/><path class="cls-7" d="M399.28,329.77l-8-4.64c-.65-.38-.56-1,.18-1.46l8-4.6a2.81,2.81,0,0,1,2.52-.11l8,4.65c.64.37.56,1-.18,1.46l-8,4.6A2.78,2.78,0,0,1,399.28,329.77Z" transform="translate(-59.3 -44.5)"/><path class="cls-7" d="M386.54,322.42l-8.05-4.65c-.64-.37-.56-1,.18-1.45l8-4.61a2.81,2.81,0,0,1,2.52-.1l8.05,4.65c.64.37.56,1-.18,1.45l-8,4.61A2.81,2.81,0,0,1,386.54,322.42Z" transform="translate(-59.3 -44.5)"/><path class="cls-7" d="M373.8,315.06l-8.05-4.64c-.64-.38-.56-1,.18-1.46l8-4.6a2.81,2.81,0,0,1,2.52-.11l8.05,4.65c.65.37.56,1-.18,1.46l-8,4.6A2.78,2.78,0,0,1,373.8,315.06Z" transform="translate(-59.3 -44.5)"/><path class="cls-7" d="M424.45,344.31l-8.05-4.65c-.65-.37-.57-1,.18-1.46l8-4.6a2.81,2.81,0,0,1,2.52-.11l8.05,4.65c.64.37.56,1-.19,1.46l-8,4.6A2.81,2.81,0,0,1,424.45,344.31Z" transform="translate(-59.3 -44.5)"/><path class="cls-7" d="M436.88,351.48l-8.05-4.64c-.65-.38-.57-1,.18-1.46l8-4.6a2.78,2.78,0,0,1,2.52-.11l8.05,4.65c.64.37.56,1-.19,1.45l-8,4.61A2.78,2.78,0,0,1,436.88,351.48Z" transform="translate(-59.3 -44.5)"/><path class="cls-7" d="M449.31,358.66,441.26,354c-.65-.37-.57-1,.18-1.45l8-4.61a2.78,2.78,0,0,1,2.52-.1l8.05,4.64c.64.38.56,1-.19,1.46l-8,4.6A2.81,2.81,0,0,1,449.31,358.66Z" transform="translate(-59.3 -44.5)"/><path class="cls-7" d="M461.74,365.83l-8.05-4.64c-.65-.38-.57-1,.18-1.46l8-4.6a2.81,2.81,0,0,1,2.52-.11l8.05,4.65c.64.37.56,1-.19,1.46l-8,4.6A2.78,2.78,0,0,1,461.74,365.83Z" transform="translate(-59.3 -44.5)"/><path class="cls-7" d="M474.17,373l-8.05-4.65c-.65-.37-.57-1,.18-1.45l8-4.61a2.83,2.83,0,0,1,2.53-.1l8,4.65c.65.37.57,1-.18,1.45l-8,4.61A2.81,2.81,0,0,1,474.17,373Z" transform="translate(-59.3 -44.5)"/><path class="cls-7" d="M486.6,380.19l-8.05-4.65c-.65-.37-.57-1,.18-1.46l8-4.6a2.8,2.8,0,0,1,2.53-.1l8,4.64c.65.38.57,1-.18,1.46l-8,4.6A2.81,2.81,0,0,1,486.6,380.19Z" transform="translate(-59.3 -44.5)"/><path class="cls-7" d="M499,387.36l-8-4.64c-.65-.38-.57-1,.18-1.46l8-4.6a2.83,2.83,0,0,1,2.53-.11l8,4.65c.65.37.57,1-.18,1.45l-8,4.61A2.78,2.78,0,0,1,499,387.36Z" transform="translate(-59.3 -44.5)"/><path class="cls-7" d="M511.46,394.54l-8-4.65c-.65-.37-.57-1,.18-1.45l8-4.61a2.83,2.83,0,0,1,2.53-.1l8,4.65c.65.37.57,1-.18,1.45l-8,4.61A2.81,2.81,0,0,1,511.46,394.54Z" transform="translate(-59.3 -44.5)"/><path class="cls-7" d="M523.89,401.72l-8-4.65c-.65-.37-.57-1,.18-1.46l8-4.6a2.83,2.83,0,0,1,2.53-.11l8,4.65c.65.38.57,1-.18,1.46l-8,4.6A2.81,2.81,0,0,1,523.89,401.72Z" transform="translate(-59.3 -44.5)"/><path class="cls-7" d="M405.47,319.38l-8.05-4.65c-.64-.37-.56-1,.19-1.45l8-4.61a2.78,2.78,0,0,1,2.52-.1l8,4.64c.65.38.57,1-.18,1.46l-8,4.6A2.78,2.78,0,0,1,405.47,319.38Z" transform="translate(-59.3 -44.5)"/><path class="cls-7" d="M393.11,312.24l-8.05-4.65c-.65-.37-.57-1,.18-1.45l8-4.61a2.78,2.78,0,0,1,2.52-.1l8,4.64c.65.38.57,1-.18,1.46l-8,4.6A2.81,2.81,0,0,1,393.11,312.24Z" transform="translate(-59.3 -44.5)"/><path class="cls-7" d="M380.74,305.1l-8.05-4.65c-.65-.37-.57-1,.18-1.45l8-4.61a2.78,2.78,0,0,1,2.52-.1l8.05,4.64c.64.38.56,1-.19,1.46l-8,4.6A2.81,2.81,0,0,1,380.74,305.1Z" transform="translate(-59.3 -44.5)"/><path class="cls-7" d="M368.37,298l-8.05-4.65c-.65-.37-.56-1,.18-1.46l8-4.6a2.78,2.78,0,0,1,2.52-.1l8.05,4.64c.64.38.56,1-.18,1.46l-8,4.6A2.81,2.81,0,0,1,368.37,298Z" transform="translate(-59.3 -44.5)"/><path class="cls-7" d="M381.09,290.61,373,286c-.65-.38-.57-1,.18-1.46l2.64-1.52a2.78,2.78,0,0,1,2.52-.1l8.05,4.64c.64.38.56,1-.18,1.46l-2.64,1.52A2.78,2.78,0,0,1,381.09,290.61Z" transform="translate(-59.3 -44.5)"/><path class="cls-7" d="M397.23,299.93l-8.05-4.64c-.65-.38-.57-1,.18-1.46l2.64-1.52a2.81,2.81,0,0,1,2.52-.11l8.05,4.65c.64.37.56,1-.18,1.46l-2.64,1.52A2.78,2.78,0,0,1,397.23,299.93Z" transform="translate(-59.3 -44.5)"/><path class="cls-7" d="M409.54,307l-8-4.64c-.65-.38-.57-1,.18-1.46l2.63-1.52a2.81,2.81,0,0,1,2.52-.11l8.05,4.65c.65.37.57,1-.18,1.46l-2.63,1.52A2.8,2.8,0,0,1,409.54,307Z" transform="translate(-59.3 -44.5)"/><path class="cls-7" d="M421.86,314.15l-8.05-4.64c-.64-.38-.56-1,.18-1.46l2.64-1.52a2.78,2.78,0,0,1,2.52-.1l8.05,4.64c.65.38.56,1-.18,1.46l-2.64,1.52A2.78,2.78,0,0,1,421.86,314.15Z" transform="translate(-59.3 -44.5)"/><path class="cls-7" d="M434.18,321.27l-8.05-4.65c-.65-.37-.57-1,.18-1.46l2.64-1.52a2.78,2.78,0,0,1,2.52-.1l8,4.64c.64.38.56,1-.19,1.46l-2.63,1.52A2.81,2.81,0,0,1,434.18,321.27Z" transform="translate(-59.3 -44.5)"/><path class="cls-7" d="M502.94,361l-8.05-4.64c-.65-.38-.57-1,.18-1.46l2.64-1.52a2.78,2.78,0,0,1,2.52-.1l8,4.64c.64.38.56,1-.18,1.46l-2.64,1.52A2.78,2.78,0,0,1,502.94,361Z" transform="translate(-59.3 -44.5)"/><path class="cls-7" d="M515.25,368.08l-8-4.65c-.65-.37-.57-1,.18-1.46l2.63-1.52a2.78,2.78,0,0,1,2.52-.1l8.05,4.64c.65.38.57,1-.18,1.46L517.78,368A2.83,2.83,0,0,1,515.25,368.08Z" transform="translate(-59.3 -44.5)"/><path class="cls-7" d="M527.57,375.19l-8.05-4.65c-.64-.37-.56-1,.18-1.46l2.64-1.52a2.78,2.78,0,0,1,2.52-.1l8,4.64c.65.38.56,1-.18,1.46l-2.64,1.52A2.81,2.81,0,0,1,527.57,375.19Z" transform="translate(-59.3 -44.5)"/><path class="cls-7" d="M539.89,382.3l-8-4.65c-.65-.37-.57-1,.18-1.46l2.64-1.52a2.78,2.78,0,0,1,2.52-.1l8.05,4.65c.64.37.56,1-.19,1.45l-2.63,1.52A2.81,2.81,0,0,1,539.89,382.3Z" transform="translate(-59.3 -44.5)"/><path class="cls-7" d="M417.9,326.56l-8-4.65c-.64-.37-.56-1,.19-1.46l8-4.6a2.81,2.81,0,0,1,2.52-.11l8.05,4.65c.65.37.57,1-.18,1.46l-8,4.6A2.81,2.81,0,0,1,417.9,326.56Z" transform="translate(-59.3 -44.5)"/><path class="cls-7" d="M430.33,333.73l-8.05-4.65c-.64-.37-.56-1,.19-1.45l8-4.61a2.81,2.81,0,0,1,2.52-.1l8.05,4.65c.65.37.57,1-.18,1.45l-8,4.61A2.78,2.78,0,0,1,430.33,333.73Z" transform="translate(-59.3 -44.5)"/><path class="cls-7" d="M442.76,340.91l-8.05-4.65c-.64-.37-.56-1,.19-1.45l8-4.61a2.78,2.78,0,0,1,2.52-.1l8.05,4.64c.65.38.57,1-.18,1.46l-8,4.6A2.81,2.81,0,0,1,442.76,340.91Z" transform="translate(-59.3 -44.5)"/><path class="cls-7" d="M455.19,348.08l-8.05-4.64c-.64-.38-.56-1,.18-1.46l8-4.6a2.81,2.81,0,0,1,2.52-.11l8.05,4.65c.65.37.57,1-.18,1.46l-8,4.6A2.78,2.78,0,0,1,455.19,348.08Z" transform="translate(-59.3 -44.5)"/><path class="cls-7" d="M467.62,355.26l-8.05-4.65c-.64-.37-.56-1,.18-1.45l8-4.61a2.81,2.81,0,0,1,2.52-.1l8.05,4.65c.65.37.57,1-.18,1.45l-8,4.61A2.81,2.81,0,0,1,467.62,355.26Z" transform="translate(-59.3 -44.5)"/><path class="cls-7" d="M480.05,362.44,472,357.79c-.64-.37-.56-1,.18-1.46l8-4.6a2.78,2.78,0,0,1,2.52-.1l8.05,4.64c.65.38.56,1-.18,1.46l-8,4.6A2.81,2.81,0,0,1,480.05,362.44Z" transform="translate(-59.3 -44.5)"/><path class="cls-7" d="M492.48,369.61,484.43,365c-.64-.38-.56-1,.18-1.46l8-4.6a2.81,2.81,0,0,1,2.52-.11l8.05,4.65c.65.37.56,1-.18,1.45l-8,4.61A2.78,2.78,0,0,1,492.48,369.61Z" transform="translate(-59.3 -44.5)"/><path class="cls-7" d="M504.91,376.79l-8.05-4.65c-.64-.37-.56-1,.18-1.45l8-4.61a2.81,2.81,0,0,1,2.52-.1l8.05,4.65c.65.37.56,1-.18,1.45l-8,4.61A2.81,2.81,0,0,1,504.91,376.79Z" transform="translate(-59.3 -44.5)"/><path class="cls-7" d="M517.34,384l-8.05-4.65c-.64-.37-.56-1,.18-1.46l8-4.6a2.81,2.81,0,0,1,2.52-.11l8,4.65c.65.37.56,1-.18,1.46l-8,4.6A2.81,2.81,0,0,1,517.34,384Z" transform="translate(-59.3 -44.5)"/><path class="cls-7" d="M346.84,327.44l-23.7-13.68c-.65-.38-.57-1,.18-1.46l8-4.6a2.78,2.78,0,0,1,2.52-.11l23.71,13.69c.64.37.56,1-.18,1.45l-8,4.61A2.81,2.81,0,0,1,346.84,327.44Z" transform="translate(-59.3 -44.5)"/><path class="cls-7" d="M499.54,415.6l-23.7-13.68c-.65-.37-.57-1,.18-1.46l8-4.6a2.83,2.83,0,0,1,2.53-.11l23.7,13.69c.65.37.57,1-.18,1.46l-8,4.6A2.78,2.78,0,0,1,499.54,415.6Z" transform="translate(-59.3 -44.5)"/><path class="cls-7" d="M449.83,402.76l-8-4.65c-.65-.37-.57-1,.18-1.46l9.5-5.48a2.78,2.78,0,0,1,2.52-.1l8.05,4.64c.64.38.56,1-.18,1.46l-9.5,5.48A2.83,2.83,0,0,1,449.83,402.76Z" transform="translate(-59.3 -44.5)"/><path class="cls-7" d="M359.57,350.64l-12.87-7.43c-.65-.37-.57-1,.18-1.46l9.5-5.48a2.78,2.78,0,0,1,2.52-.1l12.87,7.43c.65.37.57,1-.18,1.45l-9.5,5.49A2.78,2.78,0,0,1,359.57,350.64Z" transform="translate(-59.3 -44.5)"/><path class="cls-7" d="M437.86,395.84,425,388.41c-.65-.37-.57-1,.18-1.45l9.5-5.49a2.78,2.78,0,0,1,2.52-.1l12.87,7.43c.65.37.57,1-.18,1.45l-9.5,5.49A2.78,2.78,0,0,1,437.86,395.84Z" transform="translate(-59.3 -44.5)"/><path class="cls-7" d="M377.5,361l-12.87-7.44c-.65-.37-.56-1,.18-1.45l9.5-5.49a2.81,2.81,0,0,1,2.52-.1L389.71,354c.64.37.56,1-.19,1.46l-9.5,5.48A2.81,2.81,0,0,1,377.5,361Z" transform="translate(-59.3 -44.5)"/><path class="cls-7" d="M376.92,346.57l56,32.31a.77.77,0,0,1,0,1.45l-9.69,5.6a2.8,2.8,0,0,1-2.52,0l-56-32.32Z" transform="translate(-59.3 -44.5)"/><path class="cls-7" d="M484.57,415.77l9,5.17c.53.31.46.84-.15,1.2l-3.89,2.24a2.31,2.31,0,0,1-2.06.09l-9-5.18c-.53-.3-.46-.84.15-1.19l3.89-2.25A2.28,2.28,0,0,1,484.57,415.77Z" transform="translate(-59.3 -44.5)"/><path class="cls-7" d="M472,408.53l9,5.18c.53.3.46.84-.15,1.19L477,417.15a2.28,2.28,0,0,1-2.06.08l-9-5.17c-.53-.31-.46-.84.15-1.2l3.88-2.24A2.33,2.33,0,0,1,472,408.53Z" transform="translate(-59.3 -44.5)"/><path class="cls-7" d="M459.61,401.36l9,5.17c.53.31.46.84-.15,1.2L464.54,410a2.31,2.31,0,0,1-2.06.09l-9-5.18c-.53-.31-.46-.84.15-1.19l3.88-2.25A2.3,2.3,0,0,1,459.61,401.36Z" transform="translate(-59.3 -44.5)"/><path class="cls-7" d="M478.91,404.57l9,5.18c.53.3.46.84-.15,1.19l-3.88,2.24a2.3,2.3,0,0,1-2.07.09l-9-5.18c-.53-.3-.46-.84.15-1.19l3.89-2.24A2.27,2.27,0,0,1,478.91,404.57Z" transform="translate(-59.3 -44.5)"/></g><path class="cls-8" d="M608.21,384,377.89,250.86c-3.58-2.07-5.44-7.09-4.17-11.23L425.06,72.94c1.28-4.14,5.2-5.82,8.78-3.75L664.17,202.28c3.57,2.06,5.43,7.09,4.16,11.22L617,380.19C615.72,384.33,611.79,386,608.21,384Z" transform="translate(-59.3 -44.5)"/><path class="cls-9" d="M608.21,384,377.89,250.86c-3.58-2.07-5.44-7.09-4.17-11.23L425.06,72.94c1.28-4.14,5.2-5.82,8.78-3.75L664.17,202.28c3.57,2.06,5.43,7.09,4.16,11.22L617,380.19C615.72,384.33,611.79,386,608.21,384Z" transform="translate(-59.3 -44.5)"/><path class="cls-9" d="M378.12,429.26a11.67,11.67,0,0,1-5.77-1.36h0l-62.47-36.07a4.51,4.51,0,0,1-2.57-3.85c0-1.77,1.26-3.51,3.44-4.77l32.16-18.57c3.93-2.27,9.7-2.49,13.13-.51l62.47,36.07a4.51,4.51,0,0,1,2.57,3.85c0,1.77-1.26,3.51-3.44,4.77L385.48,427.4A15.07,15.07,0,0,1,378.12,429.26ZM350.3,364.62a13.47,13.47,0,0,0-6.49,1.59l-32.15,18.57c-1.62.93-2.55,2.1-2.55,3.21a2.86,2.86,0,0,0,1.67,2.29l62.47,36.06c2.83,1.64,8,1.41,11.33-.5l32.15-18.57c1.62-.93,2.55-2.1,2.55-3.21a2.86,2.86,0,0,0-1.67-2.29l-62.47-36.06A9.84,9.84,0,0,0,350.3,364.62Z" transform="translate(-59.3 -44.5)"/><path class="cls-7" d="M593,362.09,402.08,251.89a8.46,8.46,0,0,1-3.5-9.43l43.16-140.15c1.07-3.48,4.37-4.89,7.37-3.15L640,209.35a8.46,8.46,0,0,1,3.5,9.43L600.32,358.93C599.25,362.41,596,363.82,593,362.09Z" transform="translate(-59.3 -44.5)"/><path class="cls-5" d="M640,209.35,449.11,99.16a4.74,4.74,0,0,0-5.37.18,5.12,5.12,0,0,1,2.76.7l190.87,110.2a8.47,8.47,0,0,1,3.5,9.43L597.7,359.82a5.72,5.72,0,0,1-2,3,5.06,5.06,0,0,0,4.62-3.86l43.16-140.15A8.46,8.46,0,0,0,640,209.35Z" transform="translate(-59.3 -44.5)"/><path class="cls-5" d="M495.6,172.68l-11.8-6.81a3.09,3.09,0,0,1-1.31-3.4h0a1.75,1.75,0,0,1,2.65-1.1l11.8,6.81a3.09,3.09,0,0,1,1.32,3.4h0A1.75,1.75,0,0,1,495.6,172.68Z" transform="translate(-59.3 -44.5)"/><path class="cls-5" d="M523.71,188.91l-17.4-10a3.08,3.08,0,0,1-1.31-3.39h0a1.74,1.74,0,0,1,2.65-1.1l17.4,10a3.07,3.07,0,0,1,1.31,3.39h0A1.74,1.74,0,0,1,523.71,188.91Z" transform="translate(-59.3 -44.5)"/><path class="cls-5" d="M471.8,225.22,460,218.4a3.08,3.08,0,0,1-1.31-3.39h0a1.75,1.75,0,0,1,2.66-1.1l11.8,6.81a3.08,3.08,0,0,1,1.31,3.39h0A1.76,1.76,0,0,1,471.8,225.22Z" transform="translate(-59.3 -44.5)"/><path class="cls-5" d="M496.86,239.68l-17.4-10a3.09,3.09,0,0,1-1.31-3.4h0a1.75,1.75,0,0,1,2.65-1.1l17.4,10.05a3.07,3.07,0,0,1,1.31,3.39h0A1.74,1.74,0,0,1,496.86,239.68Z" transform="translate(-59.3 -44.5)"/><path class="cls-5" d="M460.25,163.32l-7.37-4.26a3.08,3.08,0,0,1-1.31-3.39h0a1.74,1.74,0,0,1,2.65-1.1l7.38,4.25a3.08,3.08,0,0,1,1.31,3.39h0A1.75,1.75,0,0,1,460.25,163.32Z" transform="translate(-59.3 -44.5)"/><path class="cls-5" d="M482.44,187.17l-22.53-13a3.09,3.09,0,0,1-1.31-3.4h0a1.75,1.75,0,0,1,2.65-1.1l22.53,13a3.09,3.09,0,0,1,1.31,3.4h0A1.75,1.75,0,0,1,482.44,187.17Z" transform="translate(-59.3 -44.5)"/><path class="cls-5" d="M461.66,197.27,454.29,193a3.08,3.08,0,0,1-1.31-3.39h0a1.74,1.74,0,0,1,2.65-1.1l7.37,4.25a3.07,3.07,0,0,1,1.32,3.39h0A1.74,1.74,0,0,1,461.66,197.27Z" transform="translate(-59.3 -44.5)"/><path class="cls-5" d="M499.58,263.34,479.89,252a3.09,3.09,0,0,1-1.31-3.4h0a1.75,1.75,0,0,1,2.65-1.1l19.69,11.37a3.08,3.08,0,0,1,1.31,3.39h0A1.75,1.75,0,0,1,499.58,263.34Z" transform="translate(-59.3 -44.5)"/><path class="cls-5" d="M453.4,214.59l-4.73-2.73a3.07,3.07,0,0,1-1.31-3.39h0a1.74,1.74,0,0,1,2.65-1.11l4.73,2.73a3.08,3.08,0,0,1,1.31,3.4h0A1.75,1.75,0,0,1,453.4,214.59Z" transform="translate(-59.3 -44.5)"/><path class="cls-5" d="M448.92,234.1l-5.87-3.4a3.07,3.07,0,0,1-1.32-3.39h0a1.75,1.75,0,0,1,2.66-1.1l5.87,3.39a3.07,3.07,0,0,1,1.32,3.39h0A1.76,1.76,0,0,1,448.92,234.1Z" transform="translate(-59.3 -44.5)"/><path class="cls-5" d="M471.78,247.3l-15.49-9A3.07,3.07,0,0,1,455,235h0a1.75,1.75,0,0,1,2.65-1.11l15.49,9a3.05,3.05,0,0,1,1.31,3.39h0A1.75,1.75,0,0,1,471.78,247.3Z" transform="translate(-59.3 -44.5)"/><path class="cls-5" d="M451.37,246.56l-11.13-6.43a3.08,3.08,0,0,1-1.32-3.4h0a1.75,1.75,0,0,1,2.66-1.1l11.14,6.43a3.08,3.08,0,0,1,1.31,3.39h0A1.75,1.75,0,0,1,451.37,246.56Z" transform="translate(-59.3 -44.5)"/><path class="cls-5" d="M516.47,273.14,509.32,269a3.07,3.07,0,0,1-1.32-3.39h0a1.75,1.75,0,0,1,2.66-1.1l7.15,4.13a3.07,3.07,0,0,1,1.31,3.39h0A1.75,1.75,0,0,1,516.47,273.14Z" transform="translate(-59.3 -44.5)"/><path class="cls-5" d="M489.08,213.1l-19.69-11.37a3.08,3.08,0,0,1-1.31-3.39h0a1.75,1.75,0,0,1,2.66-1.1l19.68,11.36a3.08,3.08,0,0,1,1.32,3.4h0A1.75,1.75,0,0,1,489.08,213.1Z" transform="translate(-59.3 -44.5)"/><path class="cls-10" d="M491.42,203.4,457.1,183.59a3.08,3.08,0,0,1-1.31-3.39h0a1.74,1.74,0,0,1,2.65-1.11l34.32,19.81a3.1,3.1,0,0,1,1.31,3.4h0A1.75,1.75,0,0,1,491.42,203.4Z" transform="translate(-59.3 -44.5)"/><path class="cls-10" d="M471.17,213.8l-19.69-11.36a3.09,3.09,0,0,1-1.31-3.4h0a1.75,1.75,0,0,1,2.65-1.1l19.69,11.37a3.08,3.08,0,0,1,1.31,3.39h0A1.75,1.75,0,0,1,471.17,213.8Z" transform="translate(-59.3 -44.5)"/><path class="cls-10" d="M504,221.72l-7.16-4.13a3.08,3.08,0,0,1-1.31-3.39h0a1.75,1.75,0,0,1,2.65-1.11l7.16,4.13a3.1,3.1,0,0,1,1.31,3.4h0A1.75,1.75,0,0,1,504,221.72Z" transform="translate(-59.3 -44.5)"/><path class="cls-10" d="M576.78,219.55l-42.36-24.46a3.07,3.07,0,0,1-1.31-3.39h0a1.75,1.75,0,0,1,2.65-1.11l42.36,24.46a3.07,3.07,0,0,1,1.31,3.4h0A1.74,1.74,0,0,1,576.78,219.55Z" transform="translate(-59.3 -44.5)"/><path class="cls-11" d="M469.52,235l-23.66-13.67a3.07,3.07,0,0,1-1.31-3.39h0a1.75,1.75,0,0,1,2.65-1.11l23.67,13.67a3.08,3.08,0,0,1,1.31,3.39h0A1.76,1.76,0,0,1,469.52,235Z" transform="translate(-59.3 -44.5)"/><path class="cls-11" d="M473.09,159.69l-17.4-10.05a3.08,3.08,0,0,1-1.31-3.39h0a1.75,1.75,0,0,1,2.66-1.11l17.39,10.05a3.07,3.07,0,0,1,1.32,3.39h0A1.76,1.76,0,0,1,473.09,159.69Z" transform="translate(-59.3 -44.5)"/><path class="cls-10" d="M447.74,255.5l-20.16-11.63a3.08,3.08,0,0,1-1.31-3.39h0a1.74,1.74,0,0,1,2.65-1.11L449.08,251a3.08,3.08,0,0,1,1.31,3.39h0A1.74,1.74,0,0,1,447.74,255.5Z" transform="translate(-59.3 -44.5)"/><path class="cls-5" d="M581.54,197.76l-8.63-5a2.25,2.25,0,0,1-1-2.48h0a1.27,1.27,0,0,1,1.94-.8l8.63,5a2.25,2.25,0,0,1,1,2.48h0A1.28,1.28,0,0,1,581.54,197.76Z" transform="translate(-59.3 -44.5)"/><path class="cls-5" d="M598,207.26l-8.63-5a2.25,2.25,0,0,1-1-2.48h0a1.28,1.28,0,0,1,1.94-.81l8.63,5a2.26,2.26,0,0,1,1,2.48h0A1.28,1.28,0,0,1,598,207.26Z" transform="translate(-59.3 -44.5)"/><path class="cls-5" d="M614.44,216.76l-8.62-5a2.25,2.25,0,0,1-1-2.48h0a1.28,1.28,0,0,1,1.94-.81l8.62,5a2.26,2.26,0,0,1,1,2.48h0A1.28,1.28,0,0,1,614.44,216.76Z" transform="translate(-59.3 -44.5)"/><path class="cls-11" d="M622.53,221.44l-.26-.16a2.25,2.25,0,0,1-1-2.48h0a1.28,1.28,0,0,1,1.94-.81l.26.16a2.25,2.25,0,0,1,1,2.48h0A1.28,1.28,0,0,1,622.53,221.44Z" transform="translate(-59.3 -44.5)"/><path class="cls-1" d="M235.28,303.33a25.8,25.8,0,0,1-12.89-3.44h0l-47.2-27.26a6.52,6.52,0,0,1,0-11.31l47.19-27.25a25.84,25.84,0,0,1,25.8,0l47.2,27.25a6.53,6.53,0,0,1,0,11.32l-47.2,27.25A25.87,25.87,0,0,1,235.28,303.33Zm-11.36-6.1a22.81,22.81,0,0,0,22.72,0L293.84,270a3.47,3.47,0,0,0,0-6l-47.2-27.26a22.81,22.81,0,0,0-22.72,0L176.72,264a3.46,3.46,0,0,0,0,6Z" transform="translate(-59.3 -44.5)"/><path class="cls-12" d="M281.45,163.87H189.11l8.59,100h0c0,5.56,3.67,11.11,11,15.35,14.67,8.47,38.47,8.47,53.14,0,7.34-4.24,11-9.79,11-15.35Z" transform="translate(-59.3 -44.5)"/><path class="cls-9" d="M281.45,163.87H189.11l1.41,16.44a35.68,35.68,0,0,0,8.56,7.7c17.64,11.71,46.76,14,66.63,5.53l-3.08,73.13a14.34,14.34,0,0,1-3.3,8.72c-3,3.52-8.75,7.66-19.83,10,8.17-.53,16.09-2.59,22.35-6.2,7.34-4.24,11-9.79,11-15.35l6.89-80.18h0Z" transform="translate(-59.3 -44.5)"/><ellipse class="cls-9" cx="175.98" cy="119.37" rx="46.17" ry="26.66"/><ellipse class="cls-9" cx="175.98" cy="109.97" rx="39.77" ry="22.96"/><path class="cls-13" d="M284.18,162.61h0v-.09s0-.09,0-.13l-.89-9,0,.1c-.39-6.78-5.06-13.49-14-18.66-18.74-10.82-49.14-10.82-67.88,0-9.19,5.3-13.86,12.22-14,19.17l0,0-.84,8c0,.2-.05.41-.07.62v.13h0c-.51,7.6,4.25,15.29,14.29,21.08,19.12,11,50.12,11,69.24,0C280,178,284.76,170.25,284.18,162.61Z" transform="translate(-59.3 -44.5)"/><ellipse class="cls-14" cx="175.98" cy="109.97" rx="39.77" ry="22.96"/><ellipse class="cls-15" cx="174.09" cy="109.97" rx="39.77" ry="22.96"/><path class="cls-9" d="M211.88,141.65c15.53-9,40.71-9,56.24,0l.55.36a32,32,0,0,0-5.27-3.78c-15.53-9-40.71-9-56.24,0-15.33,8.86-15.5,23.13-.56,32.12C196.63,161.45,198.37,149.45,211.88,141.65Z" transform="translate(-59.3 -44.5)"/><path class="cls-16" d="M207.16,142.22c15.53-9,40.71-9,56.24,0,6.89,4,10.71,9.05,11.49,14.24,1-6.52-2.85-13.23-11.49-18.23-15.53-9-40.71-9-56.24,0-8.64,5-12.47,11.71-11.49,18.23C196.45,151.27,200.27,146.19,207.16,142.22Z" transform="translate(-59.3 -44.5)"/><path class="cls-17" d="M269.52,135.1c-18.72-11-49.23-11.3-68.14-.6s-19.06,28.31-.34,39.34,49.22,11.29,68.13.6S288.24,146.13,269.52,135.1Zm-6.12,35.6a51.66,51.66,0,0,1-18.08,6l-.73-2.37a2.26,2.26,0,0,0-2.17-1.61H228.14a2.27,2.27,0,0,0-2.18,1.61l-.72,2.37a51.66,51.66,0,0,1-18.08-6c-15.53-9-15.53-23.5,0-32.47s40.71-9,56.24,0S278.93,161.74,263.4,170.7Z" transform="translate(-59.3 -44.5)"/><path class="cls-5" d="M263.4,136.53c-15.53-9-40.71-9-56.24,0-8.14,4.7-12,10.93-11.61,17.09.35-5.59,4.22-11.12,11.61-15.39,15.53-9,40.71-9,56.24,0,7.39,4.27,11.25,9.8,11.61,15.39C275.4,147.46,271.54,141.23,263.4,136.53Z" transform="translate(-59.3 -44.5)"/><path class="cls-5" d="M269.17,172.74c-18.91,10.69-49.41,10.43-68.13-.6-8.91-5.25-13.53-12-13.91-18.76-.36,7.33,4.26,14.77,13.91,20.46,18.72,11,49.22,11.29,68.13.6,9.91-5.61,14.66-13.11,14.25-20.58C283.08,160.75,278.33,167.56,269.17,172.74Z" transform="translate(-59.3 -44.5)"/><rect class="cls-18" x="170.63" y="131.1" width="10.69" height="2.31" rx="0.65"/><path class="cls-19" d="M239.55,175.59H231a1.09,1.09,0,0,0-1.08,1.08v.15a.94.94,0,0,0,.06.29,1.07,1.07,0,0,1,1-.79h8.54a1.07,1.07,0,0,1,1,.79,1.35,1.35,0,0,0,.05-.29v-.15A1.08,1.08,0,0,0,239.55,175.59Z" transform="translate(-59.3 -44.5)"/><path class="cls-10" d="M236.59,253.57a7.38,7.38,0,1,1-14.26-3.79c1-3.94,4.76-5.05,8.7-4S237.63,249.64,236.59,253.57Z" transform="translate(-59.3 -44.5)"/><path class="cls-10" d="M242.39,245.8a3.26,3.26,0,1,1-4.56-4.67c1.48-1.45,4.31-2.17,5.57-.88S243.88,244.35,242.39,245.8Z" transform="translate(-59.3 -44.5)"/><path class="cls-10" d="M234.68,239.63a3.27,3.27,0,1,1-6.43-1.14c.36-2.05,2.24-4.27,4-4S235,237.58,234.68,239.63Z" transform="translate(-59.3 -44.5)"/><path class="cls-10" d="M225.17,238.69a3.26,3.26,0,1,1-6,2.48c-.79-1.92-.4-4.81,1.27-5.49S224.38,236.76,225.17,238.69Z" transform="translate(-59.3 -44.5)"/><path class="cls-20" d="M238.3,176.75s25.82-8.66,15.37-38.32S222.86,99.73,231.06,76c0,0-12.85,19.21-.84,45.2s14.64,23,14.5,35.43a22.44,22.44,0,0,1-12.1,20.12Z" transform="translate(-59.3 -44.5)"/><path class="cls-20" d="M240.62,80.12s-2.68-17.74,14-35.62c0,0-14.72,32.87-9.9,49.1C244.68,93.6,240.78,83.29,240.62,80.12Z" transform="translate(-59.3 -44.5)"/></svg>