<svg id="Layer_1" data-name="Layer 1" xmlns="http://www.w3.org/2000/svg" xmlns:xlink="http://www.w3.org/1999/xlink" viewBox="0 0 505.46 461.2"><defs><style>.cls-1,.cls-10,.cls-15,.cls-18,.cls-22{isolation:isolate;}.cls-1{font-size:9px;fill:#a8a8a8;}.cls-1,.cls-22{font-family:ArialMT, Arial;}.cls-2{fill:url(#linear-gradient);}.cls-3{fill:url(#linear-gradient-2);}.cls-4{fill:#37069c;}.cls-5{fill:url(#radial-gradient);}.cls-15,.cls-6{fill:#fff;}.cls-10,.cls-7{opacity:0.4;}.cls-10,.cls-8{fill:#06033e;}.cls-9{opacity:0.37;}.cls-11,.cls-12,.cls-13{fill:none;}.cls-12{stroke:#021b4a;}.cls-12,.cls-13{stroke-miterlimit:10;}.cls-13{stroke:#606163;stroke-width:0.25px;}.cls-14{fill:#10151b;}.cls-15{opacity:0.64;}.cls-16{fill:#8ebad5;}.cls-17{fill:#e9f763;}.cls-18{fill:#ff0b0b;opacity:0.6;}.cls-19{fill:#077b94;}.cls-20{fill:#2b2b2b;}.cls-21{fill:#f8359e;}.cls-22{font-size:7px;fill:#6e7681;}</style><linearGradient id="linear-gradient" x1="370.84" y1="260.8" x2="651.19" y2="422.66" gradientTransform="translate(-13.93 -107.13)" gradientUnits="userSpaceOnUse"><stop offset="0.02" stop-color="#e39a65"/><stop offset="0.13" stop-color="#e39a66"/><stop offset="0.24" stop-color="#ca856e"/><stop offset="0.61" stop-color="#7b4187"/><stop offset="0.87" stop-color="#4a1696"/><stop offset="1" stop-color="#37069c"/></linearGradient><linearGradient id="linear-gradient-2" x1="363.46" y1="350.64" x2="677.88" y2="350.64" gradientTransform="translate(-13.93 -107.13)" gradientUnits="userSpaceOnUse"><stop offset="0" stop-color="#3919bb"/><stop offset="1" stop-color="#6507fa"/></linearGradient><radialGradient id="radial-gradient" cx="231.33" cy="104.58" r="427.63" gradientTransform="matrix(1, 0, 0, -1, -58.69, 478.32)" gradientUnits="userSpaceOnUse"><stop offset="0" stop-color="#e39a65"/><stop offset="0.47" stop-color="#a92ffb"/><stop offset="0.57" stop-color="#891cfb"/><stop offset="0.68" stop-color="#6507fa"/><stop offset="0.74" stop-color="#0d0c6f"/></radialGradient></defs><text class="cls-1" transform="translate(231.24 146.98) rotate(18.95)">7.</text><text class="cls-1" transform="translate(227.46 159.84) rotate(18.95)">8.</text><text class="cls-1" transform="translate(224.04 172.21) rotate(18.95)">9.</text><text class="cls-1" transform="translate(217.74 183.99) rotate(18.95)">10.</text><path class="cls-2" d="M387.45,264.37c-3-1.94-.26-8.46.71-11.87l15.73-53.19c1-3.16,27.47-89.86,30.19-88.64.18.08,17.32,10,17.5,10.06L634.39,226a8.1,8.1,0,0,1,3.36,9l-41.17,134.2c-1,3.33-4.18,4.69-7,3l-3.7,6.15ZM668.51,213.8,415.78,67.88a6.5,6.5,0,0,0-5.16-.74h0l-4.68,1.63,1.65.39A7.92,7.92,0,0,0,406,72L348.87,257.68c-1.41,4.6.66,10.19,4.63,12.48L606.23,416a7.74,7.74,0,0,0,1.86.76l-.62,1.36,4.47-1.57h0a7.22,7.22,0,0,0,4.06-4.73l57.15-185.57c1.44-4.58-.66-10.17-4.64-12.46Z" transform="translate(-168.14 -66.9)"/><path class="cls-3" d="M599.59,411,354.39,269.39c-3.8-2.19-5.79-7.55-4.43-12L404.59,80c1.35-4.4,5.53-6.19,9.34-4L659.09,217.68c3.8,2.19,5.79,7.54,4.43,12l-54.64,177.4C607.53,411.44,603.39,413.23,599.59,411Zm-167.2-298.1c-2.87-1.68-6-.32-7,3l-41.17,134.2a8.11,8.11,0,0,0,3.36,9L570.39,364.4c2.88,1.66,6,.35,7.06-3l41.17-134.18a8.1,8.1,0,0,0-3.36-9Z" transform="translate(-168.14 -66.9)"/><path class="cls-4" d="M659.09,217.68c3.8,2.19,5.79,7.54,4.43,12l-54.64,177.4c-1.35,4.4-5.53,6.19-9.29,4L354.39,269.39c-3.8-2.19-5.79-7.55-4.43-12L404.59,80c1.35-4.4,5.53-6.19,9.34-4Zm-40.46,9.51a8.1,8.1,0,0,0-3.36-9L432.39,112.91c-2.87-1.68-6-.32-7,3l-41.17,134.2a8.11,8.11,0,0,0,3.36,9L570.39,364.4c2.88,1.66,6,.35,7.06-3Z" transform="translate(-168.14 -66.9)"/><path class="cls-5" d="M597.19,423l.09.1L347.65,278.94c-3.68-2.12-10.09-1.86-14.33.59L168.17,378.14h0a4.46,4.46,0,0,0,2.42,3L422.53,526.68c3.67,2.12,10.09,1.85,14.33-.6l161.73-93.4c2-1.16,3.15-2.59,3.43-4h0l1.54-7.34Z" transform="translate(-168.14 -66.9)"/><path class="cls-6" d="M600.08,429.33,437.82,517.68c-4.26,2.31-10.69,2.56-14.38.56L170.59,380.68a4.56,4.56,0,0,1-2.3-2.47c-.49,1.6.23,3.2,2.3,4.33L423.44,520.06c3.69,2,10.12,1.76,14.38-.56l162.26-88.31c2.81-1.53,3.93-3.56,3.33-5.35A6.46,6.46,0,0,1,600.08,429.33Z" transform="translate(-168.14 -66.9)"/><g class="cls-7"><path class="cls-8" d="M290.1,349.68l-8.57-4.94c-.69-.4-.6-1.09.19-1.55l10.11-5.84a3,3,0,0,1,2.69-.11l8.56,5c.69.39.6,1.09-.19,1.55l-10.11,5.89A3,3,0,0,1,290.1,349.68Z" transform="translate(-168.14 -66.9)"/><path class="cls-8" d="M303.34,357.35l-8.56-4.94c-.69-.4-.6-1.09.19-1.55L305.06,345a3,3,0,0,1,2.68-.11l8.57,4.94c.69.4.6,1.1-.19,1.55L306,357.23A3,3,0,0,1,303.34,357.35Z" transform="translate(-168.14 -66.9)"/><path class="cls-8" d="M316.59,365,308,360c-.69-.39-.61-1.09.19-1.54l10.12-5.79a3,3,0,0,1,2.68-.11l8.57,4.94c.69.4.6,1.09-.19,1.55l-10.11,5.84A3,3,0,0,1,316.59,365Z" transform="translate(-168.14 -66.9)"/><path class="cls-8" d="M334.85,358.68l-8.57-4.94c-.69-.4-.6-1.09.2-1.55l8.48-4.9a3,3,0,0,1,2.69-.11l8.56,4.94c.69.4.6,1.09-.19,1.55l-8.49,4.9A3,3,0,0,1,334.85,358.68Z" transform="translate(-168.14 -66.9)"/><path class="cls-8" d="M348.08,366.32l-8.57-4.95c-.69-.39-.6-1.09.19-1.54l8.49-4.9a3,3,0,0,1,2.68-.12l8.57,4.95c.69.4.6,1.09-.19,1.55l-8.49,4.9A3,3,0,0,1,348.08,366.32Z" transform="translate(-168.14 -66.9)"/><path class="cls-8" d="M361.34,374l-8.6-5c-.69-.39-.6-1.09.19-1.55l8.49-4.9a3,3,0,0,1,2.68-.11l8.57,5c.69.39.6,1.09-.19,1.55L364,373.9A3,3,0,0,1,361.34,374Z" transform="translate(-168.14 -66.9)"/><path class="cls-8" d="M374.53,381.68l-8.56-5c-.69-.4-.6-1.09.19-1.55l8.49-4.9a3,3,0,0,1,2.68-.11l8.57,4.94c.69.4.6,1.1-.19,1.55l-8.49,4.9A3,3,0,0,1,374.53,381.68Z" transform="translate(-168.14 -66.9)"/><path class="cls-8" d="M387.76,389.23l-8.56-4.94c-.69-.4-.6-1.09.19-1.55l8.49-4.9a3,3,0,0,1,2.68-.11l8.57,4.94c.68.4.6,1.09-.2,1.55l-8.48,4.9A3,3,0,0,1,387.76,389.23Z" transform="translate(-168.14 -66.9)"/><path class="cls-8" d="M401,396.87l-8.6-4.94c-.69-.4-.61-1.1.19-1.55l8.49-4.9a3,3,0,0,1,2.68-.12l8.59,4.95c.68.4.6,1.09-.2,1.55l-8.48,4.9A3,3,0,0,1,401,396.87Z" transform="translate(-168.14 -66.9)"/><path class="cls-8" d="M414.22,404.51l-8.57-4.95c-.68-.39-.6-1.09.2-1.55l8.49-4.9A3,3,0,0,1,417,393l8.56,4.95c.69.39.61,1.09-.19,1.55l-8.49,4.9A3,3,0,0,1,414.22,404.51Z" transform="translate(-168.14 -66.9)"/><path class="cls-8" d="M427.45,412.15l-8.57-5c-.68-.4-.6-1.09.2-1.55l8.48-4.9a3,3,0,0,1,2.69-.11l8.56,5c.69.39.6,1.09-.19,1.54l-8.49,4.9A3,3,0,0,1,427.45,412.15Z" transform="translate(-168.14 -66.9)"/><path class="cls-8" d="M440.68,419.78l-8.57-4.94c-.69-.4-.6-1.09.2-1.55l8.48-4.9a3,3,0,0,1,2.69-.11l8.56,4.94c.69.4.6,1.09-.19,1.55l-8.46,4.91A3,3,0,0,1,440.68,419.78Z" transform="translate(-168.14 -66.9)"/><path class="cls-8" d="M453.91,427.42l-8.52-4.94c-.69-.4-.6-1.1.19-1.55l8.49-4.9a3,3,0,0,1,2.68-.12l8.57,5c.69.4.6,1.09-.19,1.55l-8.49,4.9A3.05,3.05,0,0,1,453.91,427.42Z" transform="translate(-168.14 -66.9)"/><path class="cls-8" d="M354.39,355.07l-8.57-4.95c-.68-.4-.6-1.09.2-1.55l8.48-4.9a3,3,0,0,1,2.69-.11l8.56,4.95c.69.39.61,1.09-.19,1.55l-8.49,4.9A3,3,0,0,1,354.39,355.07Z" transform="translate(-168.14 -66.9)"/><path class="cls-8" d="M340.91,347.32l-8.52-4.95c-.69-.4-.6-1.09.19-1.55l8.49-4.9a3,3,0,0,1,2.68-.11l8.57,4.94c.69.4.6,1.1-.19,1.55l-8.49,4.9A3,3,0,0,1,340.91,347.32Z" transform="translate(-168.14 -66.9)"/><path class="cls-8" d="M327.47,339.55,309,328.9c-.69-.4-.6-1.09.19-1.55l8.49-4.9a3,3,0,0,1,2.68-.11L338.83,333c.69.4.6,1.09-.19,1.55l-8.49,4.9A3,3,0,0,1,327.47,339.55Z" transform="translate(-168.14 -66.9)"/><path class="cls-8" d="M336.87,330.11l-15-8.65c-.68-.39-.6-1.09.2-1.54l8.48-4.91a3,3,0,0,1,2.69-.11l15,8.65c.69.39.6,1.09-.19,1.55l-8.49,4.9A3,3,0,0,1,336.87,330.11Z" transform="translate(-168.14 -66.9)"/><path class="cls-8" d="M367.59,362.68,359,357.74c-.68-.4-.6-1.09.2-1.55l8.48-4.9a3,3,0,0,1,2.69-.11l8.56,4.94c.69.4.6,1.09-.19,1.55l-8.49,4.9A3,3,0,0,1,367.59,362.68Z" transform="translate(-168.14 -66.9)"/><path class="cls-8" d="M380.8,370.34l-8.57-4.94c-.69-.4-.6-1.09.19-1.55l8.49-4.9a3,3,0,0,1,2.69-.11l8.56,4.94c.69.4.6,1.09-.19,1.55l-8.49,4.9A3,3,0,0,1,380.8,370.34Z" transform="translate(-168.14 -66.9)"/><path class="cls-8" d="M394,378l-8.57-5c-.69-.39-.6-1.09.19-1.55l8.49-4.9a3,3,0,0,1,2.68-.11l8.57,5c.69.4.6,1.09-.19,1.55l-8.49,4.9A3,3,0,0,1,394,378Z" transform="translate(-168.14 -66.9)"/><path class="cls-8" d="M407.26,385.68l-8.57-5c-.69-.4-.6-1.09.19-1.55l8.49-4.9a3,3,0,0,1,2.68-.11l8.57,4.95c.69.39.6,1.09-.19,1.55l-8.49,4.9A3,3,0,0,1,407.26,385.68Z" transform="translate(-168.14 -66.9)"/><path class="cls-8" d="M420.48,393.25l-8.56-4.94c-.69-.4-.6-1.09.19-1.55l8.49-4.9a3,3,0,0,1,2.68-.11l8.57,4.94c.69.4.6,1.09-.19,1.55l-8.49,4.9A3,3,0,0,1,420.48,393.25Z" transform="translate(-168.14 -66.9)"/><path class="cls-8" d="M433.71,400.89,425.15,396c-.69-.4-.6-1.09.19-1.55l8.49-4.9a3,3,0,0,1,2.68-.11l8.57,4.94c.68.4.6,1.09-.2,1.55l-8.49,4.9A3,3,0,0,1,433.71,400.89Z" transform="translate(-168.14 -66.9)"/><path class="cls-8" d="M446.94,408.53l-8.55-4.85c-.69-.39-.61-1.09.19-1.54l8.49-4.91a3,3,0,0,1,2.68-.11l8.57,4.95c.68.4.6,1.09-.2,1.55l-8.49,4.9A3,3,0,0,1,446.94,408.53Z" transform="translate(-168.14 -66.9)"/><path class="cls-8" d="M460.17,416.17l-8.57-5c-.68-.39-.6-1.09.2-1.55l8.48-4.9a3,3,0,0,1,2.69-.11l8.56,5c.69.39.61,1.09-.19,1.55l-8.49,4.9A3,3,0,0,1,460.17,416.17Z" transform="translate(-168.14 -66.9)"/><path class="cls-8" d="M473.39,423.81l-8.57-4.95c-.68-.4-.6-1.09.2-1.55l8.48-4.9a3,3,0,0,1,2.69-.11l8.56,4.94c.69.4.6,1.1-.19,1.55l-8.49,4.9A3,3,0,0,1,473.39,423.81Z" transform="translate(-168.14 -66.9)"/><path class="cls-8" d="M496.92,437.38l-18.69-10.7c-.69-.39-.61-1.09.19-1.55l8.49-4.9a3,3,0,0,1,2.68-.11l18.69,10.79c.69.4.6,1.09-.19,1.55l-8.49,4.9A3,3,0,0,1,496.92,437.38Z" transform="translate(-168.14 -66.9)"/><path class="cls-8" d="M522.67,422.51l-15.77-9.1c-.69-.4-.61-1.09.19-1.55l8.49-4.9a3,3,0,0,1,2.68-.12L534,416c.68.4.6,1.09-.2,1.55l-8.49,4.9A3,3,0,0,1,522.67,422.51Z" transform="translate(-168.14 -66.9)"/><path class="cls-8" d="M390.74,361.21l-8.57-4.95c-.69-.39-.6-1.09.19-1.54l8.49-4.91a3,3,0,0,1,2.68-.11l8.57,5c.69.4.6,1.09-.19,1.55l-8.49,4.9A3,3,0,0,1,390.74,361.21Z" transform="translate(-168.14 -66.9)"/><path class="cls-8" d="M377.18,353.38l-8.59-4.94c-.69-.4-.6-1.09.19-1.55l8.49-4.9a3,3,0,0,1,2.69-.11l8.56,4.94c.69.4.6,1.09-.19,1.55l-8.49,4.9A3,3,0,0,1,377.18,353.38Z" transform="translate(-168.14 -66.9)"/><path class="cls-8" d="M363.59,345.55l-8.54-4.87c-.68-.4-.6-1.09.2-1.55l8.48-4.9a3,3,0,0,1,2.69-.11l8.56,4.94c.69.4.61,1.09-.19,1.55l-8.45,4.9A3,3,0,0,1,363.59,345.55Z" transform="translate(-168.14 -66.9)"/><path class="cls-8" d="M350.06,337.73l-8.56-5c-.69-.4-.61-1.09.19-1.55l8.49-4.9a3,3,0,0,1,2.68-.11l8.57,5c.68.39.6,1.09-.2,1.55l-8.48,4.9A3,3,0,0,1,350.06,337.73Z" transform="translate(-168.14 -66.9)"/><path class="cls-8" d="M404,368.85l-8.56-5c-.69-.4-.6-1.09.19-1.55l8.49-4.9a3,3,0,0,1,2.68-.11l8.57,5c.69.39.6,1.09-.19,1.55l-8.49,4.9A3,3,0,0,1,404,368.85Z" transform="translate(-168.14 -66.9)"/><path class="cls-8" d="M417.19,376.49l-8.6-5c-.69-.4-.6-1.09.19-1.55l8.49-4.9a3,3,0,0,1,2.68-.11l8.57,4.94c.68.4.6,1.1-.2,1.55l-8.48,4.9A3,3,0,0,1,417.19,376.49Z" transform="translate(-168.14 -66.9)"/><path class="cls-8" d="M430.39,384.12l-8.56-4.94c-.69-.4-.61-1.09.19-1.55l8.49-4.9a3,3,0,0,1,2.68-.11l8.57,4.94c.68.4.6,1.09-.2,1.55l-8.48,4.9A3,3,0,0,1,430.39,384.12Z" transform="translate(-168.14 -66.9)"/><path class="cls-8" d="M443.65,391.76l-8.57-4.95c-.68-.39-.6-1.09.2-1.54l8.48-4.9a3,3,0,0,1,2.69-.12L455,385.2c.69.4.61,1.09-.19,1.55l-8.49,4.9A3,3,0,0,1,443.65,391.76Z" transform="translate(-168.14 -66.9)"/><path class="cls-8" d="M456.88,399.4l-8.57-5c-.68-.39-.6-1.09.2-1.55L457,388a3,3,0,0,1,2.69-.11l8.56,5c.69.39.6,1.09-.19,1.55l-8.49,4.9A3,3,0,0,1,456.88,399.4Z" transform="translate(-168.14 -66.9)"/><path class="cls-8" d="M470.11,407l-8.57-5c-.69-.4-.6-1.09.19-1.55l8.49-4.9a3,3,0,0,1,2.69-.11l8.56,5c.69.39.6,1.09-.19,1.54l-8.49,4.9A3,3,0,0,1,470.11,407Z" transform="translate(-168.14 -66.9)"/><path class="cls-8" d="M483.39,414.68l-8.62-5c-.69-.4-.6-1.09.19-1.55l8.49-4.9a3,3,0,0,1,2.68-.11l8.57,4.94c.69.4.6,1.09-.19,1.55l-8.49,4.9A3,3,0,0,1,483.39,414.68Z" transform="translate(-168.14 -66.9)"/><path class="cls-8" d="M496.59,422.31,488,417.37c-.69-.4-.6-1.1.19-1.55l8.49-4.9a3,3,0,0,1,2.68-.12l8.57,4.95c.69.4.6,1.09-.19,1.55l-8.49,4.9A3,3,0,0,1,496.59,422.31Z" transform="translate(-168.14 -66.9)"/><path class="cls-8" d="M509.79,430,501.23,425c-.69-.39-.6-1.09.19-1.55l8.49-4.9a3,3,0,0,1,2.68-.11l8.57,4.95c.69.39.6,1.09-.19,1.55l-8.49,4.9A3,3,0,0,1,509.79,430Z" transform="translate(-168.14 -66.9)"/><path class="cls-8" d="M383.77,342.32l-8.57-4.95c-.68-.39-.6-1.09.2-1.55l8.48-4.9a3,3,0,0,1,2.69-.11l8.56,4.95c.69.4.6,1.09-.19,1.55l-8.49,4.9A3,3,0,0,1,383.77,342.32Z" transform="translate(-168.14 -66.9)"/><path class="cls-8" d="M370.59,334.68l-8.57-5c-.69-.39-.6-1.09.19-1.55l8.49-4.9a3,3,0,0,1,2.68-.11l8.57,5c.69.4.6,1.09-.19,1.55l-8.47,5A3,3,0,0,1,370.59,334.68Z" transform="translate(-168.14 -66.9)"/><path class="cls-8" d="M357.44,327.12l-8.56-5c-.69-.39-.6-1.09.19-1.55l8.49-4.9a3,3,0,0,1,2.68-.11l8.57,5c.69.4.6,1.09-.2,1.55l-8.48,4.9A3,3,0,0,1,357.44,327.12Z" transform="translate(-168.14 -66.9)"/><path class="cls-8" d="M344.28,319.52l-8.57-4.95c-.68-.39-.6-1.09.2-1.54l8.48-4.91a3,3,0,0,1,2.69-.11l8.56,5c.69.4.61,1.09-.19,1.55l-8.49,4.9A3,3,0,0,1,344.28,319.52Z" transform="translate(-168.14 -66.9)"/><path class="cls-8" d="M357.82,311.68l-8.57-4.95c-.69-.4-.6-1.09.19-1.55l2.81-1.62a3,3,0,0,1,2.68-.11l8.57,4.94c.69.4.6,1.1-.19,1.55l-2.81,1.74A3,3,0,0,1,357.82,311.68Z" transform="translate(-168.14 -66.9)"/><path class="cls-8" d="M375,321.68l-8.6-5c-.69-.4-.6-1.09.19-1.55l2.81-1.62a3,3,0,0,1,2.68-.11l8.57,4.94c.68.4.6,1.09-.2,1.55l-2.8,1.62A3,3,0,0,1,375,321.68Z" transform="translate(-168.14 -66.9)"/><path class="cls-8" d="M388.1,329.19l-8.51-4.95c-.69-.39-.61-1.09.19-1.54l2.8-1.62a3,3,0,0,1,2.69-.12l8.56,5c.69.4.61,1.09-.19,1.55l-2.8,1.62A3,3,0,0,1,388.1,329.19Z" transform="translate(-168.14 -66.9)"/><path class="cls-8" d="M401.21,336.76l-8.57-4.95c-.68-.39-.6-1.09.2-1.55l2.8-1.62a3,3,0,0,1,2.69-.11l8.56,5c.69.4.6,1.09-.19,1.55l-2.81,1.6A3,3,0,0,1,401.21,336.76Z" transform="translate(-168.14 -66.9)"/><path class="cls-8" d="M414.34,344.33l-8.57-4.95c-.69-.4-.6-1.09.19-1.55l2.81-1.62a3,3,0,0,1,2.68-.11l8.57,5c.69.39.6,1.09-.19,1.55L417,344.27A3,3,0,0,1,414.34,344.33Z" transform="translate(-168.14 -66.9)"/><path class="cls-8" d="M487.5,386.68l-8.57-5c-.69-.4-.6-1.09.2-1.55l2.8-1.62a3,3,0,0,1,2.68-.11l8.57,5c.69.39.6,1.09-.19,1.55l-2.81,1.62A3,3,0,0,1,487.5,386.68Z" transform="translate(-168.14 -66.9)"/><path class="cls-8" d="M500.59,394.15l-8.57-5c-.69-.4-.6-1.09.19-1.55L495,386a3,3,0,0,1,2.68-.11l8.57,4.94c.69.4.6,1.1-.19,1.55L503.27,394A3,3,0,0,1,500.59,394.15Z" transform="translate(-168.14 -66.9)"/><path class="cls-8" d="M513.71,401.68l-8.56-4.94c-.69-.4-.6-1.09.19-1.55l2.81-1.62a3,3,0,0,1,2.68-.11l8.57,4.94c.68.4.6,1.09-.2,1.55l-2.8,1.62A3,3,0,0,1,513.71,401.68Z" transform="translate(-168.14 -66.9)"/><path class="cls-8" d="M526.82,409.28l-8.56-4.94c-.69-.4-.6-1.1.19-1.55l2.81-1.62a3,3,0,0,1,2.68-.11L532.5,406c.69.4.61,1.09-.19,1.55l-2.8,1.62A3,3,0,0,1,526.82,409.28Z" transform="translate(-168.14 -66.9)"/><path class="cls-8" d="M397,350l-8.61-5c-.69-.4-.6-1.09.19-1.55l8.49-4.9a3,3,0,0,1,2.69-.11l8.56,5c.69.39.6,1.09-.19,1.54l-8.49,4.91A3,3,0,0,1,397,350Z" transform="translate(-168.14 -66.9)"/><path class="cls-8" d="M410.23,357.68l-8.57-5c-.69-.4-.6-1.09.19-1.55l8.49-4.9a3,3,0,0,1,2.68-.11l8.57,5c.69.4.6,1.09-.19,1.55l-8.49,4.9A3,3,0,0,1,410.23,357.68Z" transform="translate(-168.14 -66.9)"/><path class="cls-8" d="M423.46,365.23l-8.57-4.94c-.69-.4-.6-1.09.19-1.55l8.49-4.9a3,3,0,0,1,2.68-.11l8.57,4.94c.69.4.6,1.09-.19,1.55l-8.49,4.9A3,3,0,0,1,423.46,365.23Z" transform="translate(-168.14 -66.9)"/><path class="cls-8" d="M436.68,372.87l-8.56-4.95c-.69-.39-.6-1.09.19-1.55l8.49-4.9a3,3,0,0,1,2.68-.11l8.57,4.95c.69.4.6,1.09-.19,1.55l-8.49,4.9A3,3,0,0,1,436.68,372.87Z" transform="translate(-168.14 -66.9)"/><path class="cls-8" d="M449.91,380.51l-8.52-4.95c-.69-.4-.6-1.09.19-1.55l8.49-4.9a3,3,0,0,1,2.68-.11l8.57,4.95c.68.39.6,1.09-.2,1.55l-8.48,4.9A3,3,0,0,1,449.91,380.51Z" transform="translate(-168.14 -66.9)"/><path class="cls-8" d="M463.14,388.14l-8.55-4.94c-.69-.4-.61-1.09.19-1.55l8.49-4.9a3,3,0,0,1,2.68-.11l8.57,4.94c.68.4.6,1.09-.2,1.55L465.84,388A3.05,3.05,0,0,1,463.14,388.14Z" transform="translate(-168.14 -66.9)"/><path class="cls-8" d="M476.39,395.78l-8.57-4.94c-.68-.4-.6-1.09.2-1.55l8.49-4.9a3,3,0,0,1,2.68-.11l8.56,4.94c.69.4.61,1.09-.19,1.55l-8.49,4.9A3,3,0,0,1,476.39,395.78Z" transform="translate(-168.14 -66.9)"/><path class="cls-8" d="M489.59,403.42l-8.57-5c-.68-.39-.6-1.09.2-1.55l8.48-4.9a3,3,0,0,1,2.69-.11l8.56,5c.69.4.6,1.09-.19,1.55l-8.49,4.9A3,3,0,0,1,489.59,403.42Z" transform="translate(-168.14 -66.9)"/><path class="cls-8" d="M502.83,411.06l-8.57-4.95c-.69-.4-.6-1.09.19-1.55l8.49-4.9a3,3,0,0,1,2.69-.11l8.56,4.95c.69.39.6,1.09-.19,1.55l-8.49,4.9A3,3,0,0,1,502.83,411.06Z" transform="translate(-168.14 -66.9)"/><path class="cls-8" d="M321.39,350.9l-25.23-14.57c-.69-.39-.6-1.09.19-1.55l8.49-4.9a3,3,0,0,1,2.68-.11l25.23,14.57c.69.4.6,1.09-.19,1.55l-8.49,4.9A3,3,0,0,1,321.39,350.9Z" transform="translate(-168.14 -66.9)"/><path class="cls-8" d="M483.89,444.73l-25.23-14.57c-.69-.39-.6-1.09.19-1.55l8.54-4.93a3,3,0,0,1,2.68-.11l25.27,14.57c.69.4.6,1.09-.19,1.55l-8.52,5A3,3,0,0,1,483.89,444.73Z" transform="translate(-168.14 -66.9)"/><path class="cls-8" d="M431,431.06l-8.59-4.95c-.69-.4-.61-1.09.19-1.55l10.14-5.88a3,3,0,0,1,2.68-.11l8.57,4.95c.69.4.6,1.09-.19,1.55l-10.11,5.84A3,3,0,0,1,431,431.06Z" transform="translate(-168.14 -66.9)"/><path class="cls-8" d="M334.91,375.68l-13.69-8c-.69-.39-.61-1.09.19-1.55l10.11-5.83a3,3,0,0,1,2.68-.12l13.7,7.91c.69.4.6,1.09-.19,1.55l-10.12,5.8A3.05,3.05,0,0,1,334.91,375.68Z" transform="translate(-168.14 -66.9)"/><path class="cls-8" d="M418.24,423.68l-13.65-7.91c-.69-.4-.61-1.09.19-1.55l10.11-5.84a3,3,0,0,1,2.68-.11l13.7,7.91c.69.4.6,1.09-.19,1.55l-10.16,5.95A3,3,0,0,1,418.24,423.68Z" transform="translate(-168.14 -66.9)"/><path class="cls-8" d="M354,386.68l-13.7-8c-.69-.4-.6-1.09.19-1.55l10.1-5.86a3,3,0,0,1,2.68-.11l13.7,7.91c.69.4.6,1.09-.19,1.55l-10.12,5.84A3,3,0,0,1,354,386.68Z" transform="translate(-168.14 -66.9)"/><path class="cls-8" d="M353.39,371.26l59.55,34.42c.74.42.74,1.11,0,1.54l-10.35,6a2.92,2.92,0,0,1-2.67,0l-59.53-34.46Z" transform="translate(-168.14 -66.9)"/><path class="cls-8" d="M468,444.9l9.55,5.51c.56.33.49.9-.16,1.27l-4.14,2.39a2.47,2.47,0,0,1-2.2.09l-9.54-5.48c-.56-.32-.49-.89.16-1.27l4.13-2.38A2.41,2.41,0,0,1,468,444.9Z" transform="translate(-168.14 -66.9)"/><path class="cls-8" d="M454.59,437.2l9.54,5.51c.56.33.49.9-.16,1.27l-4.14,2.39a2.47,2.47,0,0,1-2.2.09L448.09,441c-.56-.32-.49-.89.16-1.27l4.14-2.39A2.41,2.41,0,0,1,454.59,437.2Z" transform="translate(-168.14 -66.9)"/><path class="cls-8" d="M441.39,429.57l9.54,5.5c.56.33.49.9-.16,1.27l-4.13,2.39a2.47,2.47,0,0,1-2.2.09l-9.55-5.51c-.56-.32-.49-.89.16-1.27l4.14-2.36A2.41,2.41,0,0,1,441.39,429.57Z" transform="translate(-168.14 -66.9)"/><path class="cls-8" d="M461.92,433l9.54,5.5c.57.33.5.9-.15,1.27l-4.14,2.39a2.47,2.47,0,0,1-2.2.09l-9.58-5.51c-.57-.32-.5-.89.16-1.27l4.13-2.38A2.4,2.4,0,0,1,461.92,433Z" transform="translate(-168.14 -66.9)"/></g><g class="cls-9"><path class="cls-8" d="M290.1,349.68l-8.57-4.94c-.69-.4-.6-1.09.19-1.55l10.11-5.84a3,3,0,0,1,2.69-.11l8.56,5c.69.39.6,1.09-.19,1.55l-10.11,5.89A3,3,0,0,1,290.1,349.68Z" transform="translate(-168.14 -66.9)"/><path class="cls-8" d="M303.34,357.35l-8.56-4.94c-.69-.4-.6-1.09.19-1.55L305.06,345a3,3,0,0,1,2.68-.11l8.57,4.94c.69.4.6,1.1-.19,1.55L306,357.23A3,3,0,0,1,303.34,357.35Z" transform="translate(-168.14 -66.9)"/><path class="cls-8" d="M316.59,365,308,360c-.69-.39-.61-1.09.19-1.54l10.12-5.79a3,3,0,0,1,2.68-.11l8.57,4.94c.69.4.6,1.09-.19,1.55l-10.11,5.84A3,3,0,0,1,316.59,365Z" transform="translate(-168.14 -66.9)"/><path class="cls-8" d="M334.85,358.68l-8.57-4.94c-.69-.4-.6-1.09.2-1.55l8.48-4.9a3,3,0,0,1,2.69-.11l8.56,4.94c.69.4.6,1.09-.19,1.55l-8.49,4.9A3,3,0,0,1,334.85,358.68Z" transform="translate(-168.14 -66.9)"/><path class="cls-8" d="M348.08,366.32l-8.57-4.95c-.69-.39-.6-1.09.19-1.54l8.49-4.9a3,3,0,0,1,2.68-.12l8.57,4.95c.69.4.6,1.09-.19,1.55l-8.49,4.9A3,3,0,0,1,348.08,366.32Z" transform="translate(-168.14 -66.9)"/><path class="cls-8" d="M361.34,374l-8.6-5c-.69-.39-.6-1.09.19-1.55l8.49-4.9a3,3,0,0,1,2.68-.11l8.57,5c.69.39.6,1.09-.19,1.55L364,373.9A3,3,0,0,1,361.34,374Z" transform="translate(-168.14 -66.9)"/><path class="cls-8" d="M374.53,381.68l-8.56-5c-.69-.4-.6-1.09.19-1.55l8.49-4.9a3,3,0,0,1,2.68-.11l8.57,4.94c.69.4.6,1.1-.19,1.55l-8.49,4.9A3,3,0,0,1,374.53,381.68Z" transform="translate(-168.14 -66.9)"/><path class="cls-8" d="M387.76,389.23l-8.56-4.94c-.69-.4-.6-1.09.19-1.55l8.49-4.9a3,3,0,0,1,2.68-.11l8.57,4.94c.68.4.6,1.09-.2,1.55l-8.48,4.9A3,3,0,0,1,387.76,389.23Z" transform="translate(-168.14 -66.9)"/><path class="cls-8" d="M401,396.87l-8.6-4.94c-.69-.4-.61-1.1.19-1.55l8.49-4.9a3,3,0,0,1,2.68-.12l8.59,4.95c.68.4.6,1.09-.2,1.55l-8.48,4.9A3,3,0,0,1,401,396.87Z" transform="translate(-168.14 -66.9)"/><path class="cls-8" d="M414.22,404.51l-8.57-4.95c-.68-.39-.6-1.09.2-1.55l8.49-4.9A3,3,0,0,1,417,393l8.56,4.95c.69.39.61,1.09-.19,1.55l-8.49,4.9A3,3,0,0,1,414.22,404.51Z" transform="translate(-168.14 -66.9)"/><path class="cls-8" d="M427.45,412.15l-8.57-5c-.68-.4-.6-1.09.2-1.55l8.48-4.9a3,3,0,0,1,2.69-.11l8.56,5c.69.39.6,1.09-.19,1.54l-8.49,4.9A3,3,0,0,1,427.45,412.15Z" transform="translate(-168.14 -66.9)"/><path class="cls-8" d="M440.68,419.78l-8.57-4.94c-.69-.4-.6-1.09.2-1.55l8.48-4.9a3,3,0,0,1,2.69-.11l8.56,4.94c.69.4.6,1.09-.19,1.55l-8.46,4.91A3,3,0,0,1,440.68,419.78Z" transform="translate(-168.14 -66.9)"/><path class="cls-8" d="M453.91,427.42l-8.52-4.94c-.69-.4-.6-1.1.19-1.55l8.49-4.9a3,3,0,0,1,2.68-.12l8.57,5c.69.4.6,1.09-.19,1.55l-8.49,4.9A3.05,3.05,0,0,1,453.91,427.42Z" transform="translate(-168.14 -66.9)"/><path class="cls-8" d="M354.39,355.07l-8.57-4.95c-.68-.4-.6-1.09.2-1.55l8.48-4.9a3,3,0,0,1,2.69-.11l8.56,4.95c.69.39.61,1.09-.19,1.55l-8.49,4.9A3,3,0,0,1,354.39,355.07Z" transform="translate(-168.14 -66.9)"/><path class="cls-8" d="M340.91,347.32l-8.52-4.95c-.69-.4-.6-1.09.19-1.55l8.49-4.9a3,3,0,0,1,2.68-.11l8.57,4.94c.69.4.6,1.1-.19,1.55l-8.49,4.9A3,3,0,0,1,340.91,347.32Z" transform="translate(-168.14 -66.9)"/><path class="cls-8" d="M327.47,339.55,309,328.9c-.69-.4-.6-1.09.19-1.55l8.49-4.9a3,3,0,0,1,2.68-.11L338.83,333c.69.4.6,1.09-.19,1.55l-8.49,4.9A3,3,0,0,1,327.47,339.55Z" transform="translate(-168.14 -66.9)"/><path class="cls-8" d="M336.87,330.11l-15-8.65c-.68-.39-.6-1.09.2-1.54l8.48-4.91a3,3,0,0,1,2.69-.11l15,8.65c.69.39.6,1.09-.19,1.55l-8.49,4.9A3,3,0,0,1,336.87,330.11Z" transform="translate(-168.14 -66.9)"/><path class="cls-8" d="M367.59,362.68,359,357.74c-.68-.4-.6-1.09.2-1.55l8.48-4.9a3,3,0,0,1,2.69-.11l8.56,4.94c.69.4.6,1.09-.19,1.55l-8.49,4.9A3,3,0,0,1,367.59,362.68Z" transform="translate(-168.14 -66.9)"/><path class="cls-8" d="M380.8,370.34l-8.57-4.94c-.69-.4-.6-1.09.19-1.55l8.49-4.9a3,3,0,0,1,2.69-.11l8.56,4.94c.69.4.6,1.09-.19,1.55l-8.49,4.9A3,3,0,0,1,380.8,370.34Z" transform="translate(-168.14 -66.9)"/><path class="cls-8" d="M394,378l-8.57-5c-.69-.39-.6-1.09.19-1.55l8.49-4.9a3,3,0,0,1,2.68-.11l8.57,5c.69.4.6,1.09-.19,1.55l-8.49,4.9A3,3,0,0,1,394,378Z" transform="translate(-168.14 -66.9)"/><path class="cls-8" d="M407.26,385.68l-8.57-5c-.69-.4-.6-1.09.19-1.55l8.49-4.9a3,3,0,0,1,2.68-.11l8.57,4.95c.69.39.6,1.09-.19,1.55l-8.49,4.9A3,3,0,0,1,407.26,385.68Z" transform="translate(-168.14 -66.9)"/><path class="cls-8" d="M420.48,393.25l-8.56-4.94c-.69-.4-.6-1.09.19-1.55l8.49-4.9a3,3,0,0,1,2.68-.11l8.57,4.94c.69.4.6,1.09-.19,1.55l-8.49,4.9A3,3,0,0,1,420.48,393.25Z" transform="translate(-168.14 -66.9)"/><path class="cls-8" d="M433.71,400.89,425.15,396c-.69-.4-.6-1.09.19-1.55l8.49-4.9a3,3,0,0,1,2.68-.11l8.57,4.94c.68.4.6,1.09-.2,1.55l-8.49,4.9A3,3,0,0,1,433.71,400.89Z" transform="translate(-168.14 -66.9)"/><path class="cls-8" d="M446.94,408.53l-8.55-4.85c-.69-.39-.61-1.09.19-1.54l8.49-4.91a3,3,0,0,1,2.68-.11l8.57,4.95c.68.4.6,1.09-.2,1.55l-8.49,4.9A3,3,0,0,1,446.94,408.53Z" transform="translate(-168.14 -66.9)"/><path class="cls-8" d="M460.17,416.17l-8.57-5c-.68-.39-.6-1.09.2-1.55l8.48-4.9a3,3,0,0,1,2.69-.11l8.56,5c.69.39.61,1.09-.19,1.55l-8.49,4.9A3,3,0,0,1,460.17,416.17Z" transform="translate(-168.14 -66.9)"/><path class="cls-8" d="M473.39,423.81l-8.57-4.95c-.68-.4-.6-1.09.2-1.55l8.48-4.9a3,3,0,0,1,2.69-.11l8.56,4.94c.69.4.6,1.1-.19,1.55l-8.49,4.9A3,3,0,0,1,473.39,423.81Z" transform="translate(-168.14 -66.9)"/><path class="cls-8" d="M496.92,437.38l-18.69-10.7c-.69-.39-.61-1.09.19-1.55l8.49-4.9a3,3,0,0,1,2.68-.11l18.69,10.79c.69.4.6,1.09-.19,1.55l-8.49,4.9A3,3,0,0,1,496.92,437.38Z" transform="translate(-168.14 -66.9)"/><path class="cls-8" d="M522.67,422.51l-15.77-9.1c-.69-.4-.61-1.09.19-1.55l8.49-4.9a3,3,0,0,1,2.68-.12L534,416c.68.4.6,1.09-.2,1.55l-8.49,4.9A3,3,0,0,1,522.67,422.51Z" transform="translate(-168.14 -66.9)"/><path class="cls-8" d="M390.74,361.21l-8.57-4.95c-.69-.39-.6-1.09.19-1.54l8.49-4.91a3,3,0,0,1,2.68-.11l8.57,5c.69.4.6,1.09-.19,1.55l-8.49,4.9A3,3,0,0,1,390.74,361.21Z" transform="translate(-168.14 -66.9)"/><path class="cls-8" d="M377.18,353.38l-8.59-4.94c-.69-.4-.6-1.09.19-1.55l8.49-4.9a3,3,0,0,1,2.69-.11l8.56,4.94c.69.4.6,1.09-.19,1.55l-8.49,4.9A3,3,0,0,1,377.18,353.38Z" transform="translate(-168.14 -66.9)"/><path class="cls-8" d="M363.59,345.55l-8.54-4.87c-.68-.4-.6-1.09.2-1.55l8.48-4.9a3,3,0,0,1,2.69-.11l8.56,4.94c.69.4.61,1.09-.19,1.55l-8.45,4.9A3,3,0,0,1,363.59,345.55Z" transform="translate(-168.14 -66.9)"/><path class="cls-8" d="M350.06,337.73l-8.56-5c-.69-.4-.61-1.09.19-1.55l8.49-4.9a3,3,0,0,1,2.68-.11l8.57,5c.68.39.6,1.09-.2,1.55l-8.48,4.9A3,3,0,0,1,350.06,337.73Z" transform="translate(-168.14 -66.9)"/><path class="cls-8" d="M404,368.85l-8.56-5c-.69-.4-.6-1.09.19-1.55l8.49-4.9a3,3,0,0,1,2.68-.11l8.57,5c.69.39.6,1.09-.19,1.55l-8.49,4.9A3,3,0,0,1,404,368.85Z" transform="translate(-168.14 -66.9)"/><path class="cls-8" d="M417.19,376.49l-8.6-5c-.69-.4-.6-1.09.19-1.55l8.49-4.9a3,3,0,0,1,2.68-.11l8.57,4.94c.68.4.6,1.1-.2,1.55l-8.48,4.9A3,3,0,0,1,417.19,376.49Z" transform="translate(-168.14 -66.9)"/><path class="cls-8" d="M430.39,384.12l-8.56-4.94c-.69-.4-.61-1.09.19-1.55l8.49-4.9a3,3,0,0,1,2.68-.11l8.57,4.94c.68.4.6,1.09-.2,1.55l-8.48,4.9A3,3,0,0,1,430.39,384.12Z" transform="translate(-168.14 -66.9)"/><path class="cls-8" d="M443.65,391.76l-8.57-4.95c-.68-.39-.6-1.09.2-1.54l8.48-4.9a3,3,0,0,1,2.69-.12L455,385.2c.69.4.61,1.09-.19,1.55l-8.49,4.9A3,3,0,0,1,443.65,391.76Z" transform="translate(-168.14 -66.9)"/><path class="cls-8" d="M456.88,399.4l-8.57-5c-.68-.39-.6-1.09.2-1.55L457,388a3,3,0,0,1,2.69-.11l8.56,5c.69.39.6,1.09-.19,1.55l-8.49,4.9A3,3,0,0,1,456.88,399.4Z" transform="translate(-168.14 -66.9)"/><path class="cls-8" d="M470.11,407l-8.57-5c-.69-.4-.6-1.09.19-1.55l8.49-4.9a3,3,0,0,1,2.69-.11l8.56,5c.69.39.6,1.09-.19,1.54l-8.49,4.9A3,3,0,0,1,470.11,407Z" transform="translate(-168.14 -66.9)"/><path class="cls-8" d="M483.39,414.68l-8.62-5c-.69-.4-.6-1.09.19-1.55l8.49-4.9a3,3,0,0,1,2.68-.11l8.57,4.94c.69.4.6,1.09-.19,1.55l-8.49,4.9A3,3,0,0,1,483.39,414.68Z" transform="translate(-168.14 -66.9)"/><path class="cls-8" d="M496.59,422.31,488,417.37c-.69-.4-.6-1.1.19-1.55l8.49-4.9a3,3,0,0,1,2.68-.12l8.57,4.95c.69.4.6,1.09-.19,1.55l-8.49,4.9A3,3,0,0,1,496.59,422.31Z" transform="translate(-168.14 -66.9)"/><path class="cls-8" d="M509.79,430,501.23,425c-.69-.39-.6-1.09.19-1.55l8.49-4.9a3,3,0,0,1,2.68-.11l8.57,4.95c.69.39.6,1.09-.19,1.55l-8.49,4.9A3,3,0,0,1,509.79,430Z" transform="translate(-168.14 -66.9)"/><path class="cls-8" d="M383.77,342.32l-8.57-4.95c-.68-.39-.6-1.09.2-1.55l8.48-4.9a3,3,0,0,1,2.69-.11l8.56,4.95c.69.4.6,1.09-.19,1.55l-8.49,4.9A3,3,0,0,1,383.77,342.32Z" transform="translate(-168.14 -66.9)"/><path class="cls-8" d="M370.59,334.68l-8.57-5c-.69-.39-.6-1.09.19-1.55l8.49-4.9a3,3,0,0,1,2.68-.11l8.57,5c.69.4.6,1.09-.19,1.55l-8.47,5A3,3,0,0,1,370.59,334.68Z" transform="translate(-168.14 -66.9)"/><path class="cls-8" d="M357.44,327.12l-8.56-5c-.69-.39-.6-1.09.19-1.55l8.49-4.9a3,3,0,0,1,2.68-.11l8.57,5c.69.4.6,1.09-.2,1.55l-8.48,4.9A3,3,0,0,1,357.44,327.12Z" transform="translate(-168.14 -66.9)"/><path class="cls-8" d="M344.28,319.52l-8.57-4.95c-.68-.39-.6-1.09.2-1.54l8.48-4.91a3,3,0,0,1,2.69-.11l8.56,5c.69.4.61,1.09-.19,1.55l-8.49,4.9A3,3,0,0,1,344.28,319.52Z" transform="translate(-168.14 -66.9)"/><path class="cls-8" d="M357.82,311.68l-8.57-4.95c-.69-.4-.6-1.09.19-1.55l2.81-1.62a3,3,0,0,1,2.68-.11l8.57,4.94c.69.4.6,1.1-.19,1.55l-2.81,1.74A3,3,0,0,1,357.82,311.68Z" transform="translate(-168.14 -66.9)"/><path class="cls-8" d="M375,321.68l-8.6-5c-.69-.4-.6-1.09.19-1.55l2.81-1.62a3,3,0,0,1,2.68-.11l8.57,4.94c.68.4.6,1.09-.2,1.55l-2.8,1.62A3,3,0,0,1,375,321.68Z" transform="translate(-168.14 -66.9)"/><path class="cls-8" d="M388.1,329.19l-8.51-4.95c-.69-.39-.61-1.09.19-1.54l2.8-1.62a3,3,0,0,1,2.69-.12l8.56,5c.69.4.61,1.09-.19,1.55l-2.8,1.62A3,3,0,0,1,388.1,329.19Z" transform="translate(-168.14 -66.9)"/><path class="cls-8" d="M401.21,336.76l-8.57-4.95c-.68-.39-.6-1.09.2-1.55l2.8-1.62a3,3,0,0,1,2.69-.11l8.56,5c.69.4.6,1.09-.19,1.55l-2.81,1.6A3,3,0,0,1,401.21,336.76Z" transform="translate(-168.14 -66.9)"/><path class="cls-8" d="M414.34,344.33l-8.57-4.95c-.69-.4-.6-1.09.19-1.55l2.81-1.62a3,3,0,0,1,2.68-.11l8.57,5c.69.39.6,1.09-.19,1.55L417,344.27A3,3,0,0,1,414.34,344.33Z" transform="translate(-168.14 -66.9)"/><path class="cls-8" d="M487.5,386.68l-8.57-5c-.69-.4-.6-1.09.2-1.55l2.8-1.62a3,3,0,0,1,2.68-.11l8.57,5c.69.39.6,1.09-.19,1.55l-2.81,1.62A3,3,0,0,1,487.5,386.68Z" transform="translate(-168.14 -66.9)"/><path class="cls-8" d="M500.59,394.15l-8.57-5c-.69-.4-.6-1.09.19-1.55L495,386a3,3,0,0,1,2.68-.11l8.57,4.94c.69.4.6,1.1-.19,1.55L503.27,394A3,3,0,0,1,500.59,394.15Z" transform="translate(-168.14 -66.9)"/><path class="cls-8" d="M513.71,401.68l-8.56-4.94c-.69-.4-.6-1.09.19-1.55l2.81-1.62a3,3,0,0,1,2.68-.11l8.57,4.94c.68.4.6,1.09-.2,1.55l-2.8,1.62A3,3,0,0,1,513.71,401.68Z" transform="translate(-168.14 -66.9)"/><path class="cls-8" d="M526.82,409.28l-8.56-4.94c-.69-.4-.6-1.1.19-1.55l2.81-1.62a3,3,0,0,1,2.68-.11L532.5,406c.69.4.61,1.09-.19,1.55l-2.8,1.62A3,3,0,0,1,526.82,409.28Z" transform="translate(-168.14 -66.9)"/><path class="cls-8" d="M397,350l-8.61-5c-.69-.4-.6-1.09.19-1.55l8.49-4.9a3,3,0,0,1,2.69-.11l8.56,5c.69.39.6,1.09-.19,1.54l-8.49,4.91A3,3,0,0,1,397,350Z" transform="translate(-168.14 -66.9)"/><path class="cls-8" d="M410.23,357.68l-8.57-5c-.69-.4-.6-1.09.19-1.55l8.49-4.9a3,3,0,0,1,2.68-.11l8.57,5c.69.4.6,1.09-.19,1.55l-8.49,4.9A3,3,0,0,1,410.23,357.68Z" transform="translate(-168.14 -66.9)"/><path class="cls-8" d="M423.46,365.23l-8.57-4.94c-.69-.4-.6-1.09.19-1.55l8.49-4.9a3,3,0,0,1,2.68-.11l8.57,4.94c.69.4.6,1.09-.19,1.55l-8.49,4.9A3,3,0,0,1,423.46,365.23Z" transform="translate(-168.14 -66.9)"/><path class="cls-8" d="M436.68,372.87l-8.56-4.95c-.69-.39-.6-1.09.19-1.55l8.49-4.9a3,3,0,0,1,2.68-.11l8.57,4.95c.69.4.6,1.09-.19,1.55l-8.49,4.9A3,3,0,0,1,436.68,372.87Z" transform="translate(-168.14 -66.9)"/><path class="cls-8" d="M449.91,380.51l-8.52-4.95c-.69-.4-.6-1.09.19-1.55l8.49-4.9a3,3,0,0,1,2.68-.11l8.57,4.95c.68.39.6,1.09-.2,1.55l-8.48,4.9A3,3,0,0,1,449.91,380.51Z" transform="translate(-168.14 -66.9)"/><path class="cls-8" d="M463.14,388.14l-8.55-4.94c-.69-.4-.61-1.09.19-1.55l8.49-4.9a3,3,0,0,1,2.68-.11l8.57,4.94c.68.4.6,1.09-.2,1.55L465.84,388A3.05,3.05,0,0,1,463.14,388.14Z" transform="translate(-168.14 -66.9)"/><path class="cls-8" d="M476.39,395.78l-8.57-4.94c-.68-.4-.6-1.09.2-1.55l8.49-4.9a3,3,0,0,1,2.68-.11l8.56,4.94c.69.4.61,1.09-.19,1.55l-8.49,4.9A3,3,0,0,1,476.39,395.78Z" transform="translate(-168.14 -66.9)"/><path class="cls-8" d="M489.59,403.42l-8.57-5c-.68-.39-.6-1.09.2-1.55l8.48-4.9a3,3,0,0,1,2.69-.11l8.56,5c.69.4.6,1.09-.19,1.55l-8.49,4.9A3,3,0,0,1,489.59,403.42Z" transform="translate(-168.14 -66.9)"/><path class="cls-8" d="M502.83,411.06l-8.57-4.95c-.69-.4-.6-1.09.19-1.55l8.49-4.9a3,3,0,0,1,2.69-.11l8.56,4.95c.69.39.6,1.09-.19,1.55l-8.49,4.9A3,3,0,0,1,502.83,411.06Z" transform="translate(-168.14 -66.9)"/><path class="cls-8" d="M321.39,350.9l-25.23-14.57c-.69-.39-.6-1.09.19-1.55l8.49-4.9a3,3,0,0,1,2.68-.11l25.23,14.57c.69.4.6,1.09-.19,1.55l-8.49,4.9A3,3,0,0,1,321.39,350.9Z" transform="translate(-168.14 -66.9)"/><path class="cls-8" d="M483.89,444.73l-25.23-14.57c-.69-.39-.6-1.09.19-1.55l8.54-4.93a3,3,0,0,1,2.68-.11l25.27,14.57c.69.4.6,1.09-.19,1.55l-8.52,5A3,3,0,0,1,483.89,444.73Z" transform="translate(-168.14 -66.9)"/><path class="cls-8" d="M431,431.06l-8.59-4.95c-.69-.4-.61-1.09.19-1.55l10.14-5.88a3,3,0,0,1,2.68-.11l8.57,4.95c.69.4.6,1.09-.19,1.55l-10.11,5.84A3,3,0,0,1,431,431.06Z" transform="translate(-168.14 -66.9)"/><path class="cls-8" d="M334.91,375.68l-13.69-8c-.69-.39-.61-1.09.19-1.55l10.11-5.83a3,3,0,0,1,2.68-.12l13.7,7.91c.69.4.6,1.09-.19,1.55l-10.12,5.8A3.05,3.05,0,0,1,334.91,375.68Z" transform="translate(-168.14 -66.9)"/><path class="cls-8" d="M418.24,423.68l-13.65-7.91c-.69-.4-.61-1.09.19-1.55l10.11-5.84a3,3,0,0,1,2.68-.11l13.7,7.91c.69.4.6,1.09-.19,1.55l-10.16,5.95A3,3,0,0,1,418.24,423.68Z" transform="translate(-168.14 -66.9)"/><path class="cls-8" d="M354,386.68l-13.7-8c-.69-.4-.6-1.09.19-1.55l10.1-5.86a3,3,0,0,1,2.68-.11l13.7,7.91c.69.4.6,1.09-.19,1.55l-10.12,5.84A3,3,0,0,1,354,386.68Z" transform="translate(-168.14 -66.9)"/><path class="cls-8" d="M353.39,371.26l59.55,34.42c.74.42.74,1.11,0,1.54l-10.35,6a2.92,2.92,0,0,1-2.67,0l-59.53-34.46Z" transform="translate(-168.14 -66.9)"/><path class="cls-8" d="M468,444.9l9.55,5.51c.56.33.49.9-.16,1.27l-4.14,2.39a2.47,2.47,0,0,1-2.2.09l-9.54-5.48c-.56-.32-.49-.89.16-1.27l4.13-2.38A2.41,2.41,0,0,1,468,444.9Z" transform="translate(-168.14 -66.9)"/><path class="cls-8" d="M454.59,437.2l9.54,5.51c.56.33.49.9-.16,1.27l-4.14,2.39a2.47,2.47,0,0,1-2.2.09L448.09,441c-.56-.32-.49-.89.16-1.27l4.14-2.39A2.41,2.41,0,0,1,454.59,437.2Z" transform="translate(-168.14 -66.9)"/><path class="cls-8" d="M441.39,429.57l9.54,5.5c.56.33.49.9-.16,1.27l-4.13,2.39a2.47,2.47,0,0,1-2.2.09l-9.55-5.51c-.56-.32-.49-.89.16-1.27l4.14-2.36A2.41,2.41,0,0,1,441.39,429.57Z" transform="translate(-168.14 -66.9)"/><path class="cls-8" d="M461.92,433l9.54,5.5c.57.33.5.9-.15,1.27l-4.14,2.39a2.47,2.47,0,0,1-2.2.09l-9.58-5.51c-.57-.32-.5-.89.16-1.27l4.13-2.38A2.4,2.4,0,0,1,461.92,433Z" transform="translate(-168.14 -66.9)"/></g><path class="cls-10" d="M354.66,459.26a12.52,12.52,0,0,1-6.15-1.44h0L282,419.44a4.79,4.79,0,0,1-2.73-4.1c0-1.88,1.33-3.74,3.66-5.08l34.22-19.76c4.19-2.41,10.32-2.65,14-.54l66.49,38.38a4.83,4.83,0,0,1,2.73,4.1c0,1.89-1.34,3.74-3.67,5.08l-34.24,19.76A16.12,16.12,0,0,1,354.66,459.26ZM325,390.46a14.08,14.08,0,0,0-6.9,1.7l-34.22,19.76c-1.72,1-2.71,2.24-2.71,3.42a3,3,0,0,0,1.78,2.43l66.48,38.39c3,1.74,8.54,1.49,12.06-.54l34.22-19.76c1.72-1,2.71-2.24,2.71-3.42a3,3,0,0,0-1.77-2.43L330.2,391.68a10.4,10.4,0,0,0-5.16-1.17Z" transform="translate(-168.14 -66.9)"/><path class="cls-11" d="M429.21,115.75a5,5,0,0,1,2.64.67L610,218.68" transform="translate(-168.14 -66.9)"/><path class="cls-12" d="M599.59,411,354.39,269.39c-3.8-2.19-5.79-7.55-4.43-12L404.59,80c1.35-4.4,5.53-6.19,9.34-4L659.09,217.68c3.8,2.19,5.79,7.54,4.43,12l-54.64,177.4C607.53,411.44,603.39,413.23,599.59,411Z" transform="translate(-168.14 -66.9)"/><line class="cls-13" x1="266.9" y1="68.89" x2="228.2" y2="197.25"/><path class="cls-14" d="M435.15,118.12,619.39,224.5,579,360.82l6.83,4.09s4.27,2.72,8.46-1.59c0,0,2.07-1.45,3.47-6.09l37.83-125.17a16.71,16.71,0,0,0-1.58-12.33,14.47,14.47,0,0,0-5.69-6.16L449.19,109.91a15.1,15.1,0,0,0-7.49-1.85c-3.78.28-4.25,2.27-4.52,2.89S435.15,118.12,435.15,118.12Z" transform="translate(-168.14 -66.9)"/><path class="cls-15" d="M617.39,217.8,432.27,111.21a4.56,4.56,0,0,0-5.2.19,4.83,4.83,0,0,1,2.67.67L614.86,218.68a8.19,8.19,0,0,1,3.4,9.1l-41.71,135.9a5.59,5.59,0,0,1-1.93,2.88,4.91,4.91,0,0,0,4.47-3.75L620.77,227A8.22,8.22,0,0,0,617.39,217.8Z" transform="translate(-168.14 -66.9)"/><path class="cls-16" d="M425.14,114.31a4.89,4.89,0,0,1,1.93-2.87,5.94,5.94,0,0,1,2.31.48l185.71,106.9a8.19,8.19,0,0,1,3.16,9L615,238.44,421,127.87Z" transform="translate(-168.14 -66.9)"/><path class="cls-17" d="M470.22,144.25l8.37,4.82a2.16,2.16,0,0,1,.93,2.41h0a1.24,1.24,0,0,1-1.42,1h0a1.54,1.54,0,0,1-.42-.17l-8.36-4.82a2.18,2.18,0,0,1-.93-2.4h0a1.23,1.23,0,0,1,1.42-1h0A1.1,1.1,0,0,1,470.22,144.25Z" transform="translate(-168.14 -66.9)"/><path class="cls-18" d="M454.27,135.07l8.37,4.81a2.17,2.17,0,0,1,.93,2.4h0a1.26,1.26,0,0,1-1.45,1h0a1.42,1.42,0,0,1-.4-.17l-8.38-4.81a2.19,2.19,0,0,1-.92-2.41h0a1.23,1.23,0,0,1,1.46-1h0a1.32,1.32,0,0,1,.41.17Z" transform="translate(-168.14 -66.9)"/><path class="cls-19" d="M438.34,125.88l8.4,4.82a2.19,2.19,0,0,1,.94,2.4h0a1.24,1.24,0,0,1-1.44,1h0a1.54,1.54,0,0,1-.42-.17l-8.37-4.87a2.2,2.2,0,0,1-.94-2.4h0a1.23,1.23,0,0,1,1.49-.92h0A1.11,1.11,0,0,1,438.34,125.88Z" transform="translate(-168.14 -66.9)"/><path class="cls-20" d="M421,127.85l13,7.43L396.09,264.6l-9.24-5.32a7.59,7.59,0,0,1-3.4-9.11Z" transform="translate(-168.14 -66.9)"/><path class="cls-21" d="M431.39,121.94l.07.29a2.21,2.21,0,0,1-1,2.36h0a1.24,1.24,0,0,1-1.7-.37h0a1.22,1.22,0,0,1-.17-.39l-.07-.29a2.18,2.18,0,0,1,1-2.36h0a1.23,1.23,0,0,1,1.71.37h0A1,1,0,0,1,431.39,121.94Z" transform="translate(-168.14 -66.9)"/><text class="cls-22" transform="translate(249.7 86.47) rotate(19.99)">1.</text><text class="cls-22" transform="translate(246.26 98.5) rotate(19.99)">2.</text><text class="cls-22" transform="translate(242.8 109.88) rotate(19.99)">3.</text><text class="cls-22" transform="translate(239.07 122.75) rotate(19.99)">4.</text><text class="cls-22" transform="translate(235.14 134.7) rotate(19.99)">5.</text><text class="cls-22" transform="translate(231.21 146.82) rotate(19.99)">6.</text><text class="cls-22" transform="translate(227.61 159.75) rotate(19.99)">7.</text><text class="cls-22" transform="translate(224.09 172.36) rotate(19.99)">8.</text></svg>