<svg xmlns="http://www.w3.org/2000/svg" viewBox="0 0 605.75 386.18"><defs><style>.cls-1{opacity:0.08;}.cls-2{fill:#02dac5;}.cls-12,.cls-13,.cls-14,.cls-2,.cls-4,.cls-5,.cls-7,.cls-8,.cls-9{stroke:#263238;}.cls-10,.cls-12,.cls-13,.cls-14,.cls-2,.cls-3,.cls-4,.cls-5,.cls-7,.cls-8,.cls-9{stroke-linecap:round;stroke-linejoin:round;}.cls-10,.cls-3,.cls-4{fill:none;}.cls-3{stroke:#9dd1f7;}.cls-5{fill:#dbdbdb;}.cls-6,.cls-8{fill:#fff;}.cls-11,.cls-14,.cls-7{fill:#263238;}.cls-9{fill:#ababab;}.cls-10{stroke:#fff;}.cls-12{fill:#707070;}.cls-13{fill:#a3a3a3;}.cls-14{stroke-width:0.97px;}.cls-15{fill:#92e3a9;}</style></defs><g id="Plant"><g class="cls-1"><path class="cls-2" d="M128,267.78c2.16-25,9.65-49.64,20.4-72.43,32.13-68.07,98.15-127.53,177.3-124.53,50.76,1.92,101.11,8.49,151.59,13.7C520.33,89,563.2,93,597.13,123a126,126,0,0,1,33.8,47.42C651.15,221,636,280.8,603.36,324.45s-80.55,73.44-129.78,96.9c-20.07,9.56-42.59,18.43-64,12.46-13.19-3.67-24.24-12.59-36.76-18.13C330.69,397,281.85,419,236,414.24A118.32,118.32,0,0,1,163.72,379C141,355.48,129,322.82,127.48,290.17A169,169,0,0,1,128,267.78Z" transform="translate(-77.14 -57.62)"/></g><line class="cls-3" x1="431.5" y1="29.98" x2="423.46" y2="38.02"/><line class="cls-3" x1="423.46" y1="29.98" x2="431.5" y2="38.02"/><line class="cls-3" x1="31.19" y1="178.4" x2="23.15" y2="186.44"/><line class="cls-3" x1="23.15" y1="178.4" x2="31.19" y2="186.44"/><line class="cls-3" x1="495.05" y1="307.59" x2="487.02" y2="315.63"/><line class="cls-3" x1="487.02" y1="307.59" x2="495.05" y2="315.63"/><line class="cls-3" x1="254.62" y1="0.5" x2="246.59" y2="8.54"/><line class="cls-3" x1="246.59" y1="0.5" x2="254.62" y2="8.54"/><line class="cls-3" x1="249.45" y1="368.51" x2="241.41" y2="376.55"/><line class="cls-3" x1="241.41" y1="368.51" x2="249.45" y2="376.55"/><line class="cls-3" x1="163.84" y1="339.04" x2="157.5" y2="345.38"/><line class="cls-3" x1="157.5" y1="339.04" x2="163.84" y2="345.38"/><line class="cls-3" x1="57.83" y1="19.96" x2="51.49" y2="26.31"/><line class="cls-3" x1="51.49" y1="19.96" x2="57.83" y2="26.31"/><path class="cls-3" d="M403.75,98.39a5.06,5.06,0,1,1,5.06,5.06A5.06,5.06,0,0,1,403.75,98.39Z" transform="translate(-77.14 -57.62)"/><path class="cls-3" d="M646.81,81.05a5.06,5.06,0,1,1,5.06,5.06A5.05,5.05,0,0,1,646.81,81.05Z" transform="translate(-77.14 -57.62)"/><path class="cls-3" d="M146.38,388.85a5.06,5.06,0,1,1,5.06,5.06A5.06,5.06,0,0,1,146.38,388.85Z" transform="translate(-77.14 -57.62)"/><path class="cls-3" d="M563.43,436.54a5.06,5.06,0,1,1,5.06,5.06A5.05,5.05,0,0,1,563.43,436.54Z" transform="translate(-77.14 -57.62)"/><path class="cls-3" d="M646.52,242.32a5.06,5.06,0,1,1,5.06,5.06A5.06,5.06,0,0,1,646.52,242.32Z" transform="translate(-77.14 -57.62)"/><path class="cls-3" d="M400.43,343.76a5.06,5.06,0,1,1,5.06,5.06A5.06,5.06,0,0,1,400.43,343.76Z" transform="translate(-77.14 -57.62)"/><line class="cls-4" x1="9.85" y1="282.99" x2="0.5" y2="284.59"/><polyline class="cls-4" points="480.96 295.79 195.49 251.34 15.81 281.98"/><line class="cls-4" x1="605.25" y1="315.14" x2="493.37" y2="297.72"/><polygon class="cls-5" points="121.87 46.11 294.52 66.89 294.18 282.33 120.19 310.07 44.15 294.31 43.81 55.59 121.87 46.11"/><line class="cls-4" x1="52" y1="287.65" x2="107.32" y2="279.29"/><ellipse class="cls-6" cx="85.33" cy="114.67" rx="24.93" ry="34.23"/><ellipse class="cls-2" cx="85.33" cy="114.67" rx="22.58" ry="31"/><ellipse class="cls-7" cx="85.33" cy="114.67" rx="8.28" ry="11.37"/><polygon class="cls-7" points="138.32 111.31 243.71 114.18 243.71 208.31 135.92 220.05 135.92 113.46 138.32 111.31"/><ellipse class="cls-6" cx="252.02" cy="153.44" rx="24.93" ry="34.23"/><ellipse class="cls-2" cx="252.02" cy="153.44" rx="22.58" ry="31"/><ellipse class="cls-7" cx="252.02" cy="153.44" rx="8.28" ry="11.37"/><ellipse class="cls-6" cx="85.33" cy="184.24" rx="24.93" ry="34.23"/><ellipse class="cls-2" cx="85.33" cy="184.24" rx="22.58" ry="31"/><ellipse class="cls-7" cx="85.33" cy="184.24" rx="8.28" ry="11.37"/><ellipse class="cls-6" cx="85.33" cy="253.81" rx="24.93" ry="34.23"/><ellipse class="cls-2" cx="85.33" cy="253.81" rx="22.58" ry="31"/><ellipse class="cls-7" cx="85.33" cy="253.81" rx="8.28" ry="11.37"/><path class="cls-8" d="M252.58,205.93a2.93,2.93,0,0,0,1.34-.32c4.08-2,10.13-8.27,14.4-14.81,4.1-6.29,8.34-15.5,5.26-23.65-1.49-4-7.5-10.66-42.27-23.05-18.63-6.63-36.9-11.78-37.08-11.83a3,3,0,0,0-1.62,5.76c29.53,8.29,72.44,23.46,75.37,31.23,2.31,6.11-1.94,14.07-4.67,18.27-4.42,6.78-9.81,11.6-12.07,12.73a3,3,0,0,0,1.34,5.67Z" transform="translate(-77.14 -57.62)"/><path class="cls-8" d="M254.74,223.65a3,3,0,0,0,1.67-.51c8.5-5.74,11.68-17.74,9.44-35.66-1-8.25-4.9-15.69-11.82-22.77-9.3-9.51-24.4-18.46-44.9-26.59C163.43,120,142,126,141.07,126.3a3,3,0,0,0,1.7,5.74c.28-.09,20.8-5.56,64.16,11.64,33.57,13.32,50.9,27.89,53,44.54,1.94,15.5-.37,25.59-6.85,30a3,3,0,0,0,1.68,5.47Z" transform="translate(-77.14 -57.62)"/><polygon class="cls-8" points="180.97 191.37 180.97 196.56 162.15 196.56 159.55 193.32 151.44 193.32 151.44 125.5 159.55 123.88 163.45 120.31 178.37 120.31 180.97 128.09 180.97 191.37"/><rect class="cls-2" x="167.67" y="128.09" width="13.3" height="63.28"/><polygon class="cls-8" points="128.4 159.57 159.23 157.3 159.23 186.18 129.7 190.4 128.4 159.57"/><line class="cls-4" x1="158.88" y1="160.82" x2="128.77" y2="163.38"/><line class="cls-4" x1="159.2" y1="165.78" x2="128.93" y2="169.15"/><line class="cls-4" x1="159.04" y1="170.59" x2="129.25" y2="174.11"/><line class="cls-4" x1="159.2" y1="175.39" x2="129.25" y2="179.24"/><line class="cls-4" x1="159.52" y1="179.56" x2="129.73" y2="183.72"/><line class="cls-4" x1="159.36" y1="183.4" x2="129.89" y2="188.05"/><polygon class="cls-7" points="159.23 157.3 159.23 139.83 157.28 140.96 157.28 157.29 159.23 157.3"/><polygon class="cls-7" points="277.74 199.21 277.74 270.35 272.81 270.87 272.81 199.99 277.74 199.21"/><polygon class="cls-9" points="272.81 199.99 214.75 196.99 214.75 205.29 127.92 214.88 127.92 245.46 143.47 249.87 215.53 240.54 215.53 258.68 131.03 271.13 131.03 294.71 272.81 270.87 272.81 199.99"/><polygon class="cls-9" points="214.75 205.29 273.07 209.32 158.77 217.73 127.92 214.88 214.75 205.29"/><polygon class="cls-7" points="158.77 217.73 158.77 247.54 143.47 249.87 127.92 245.46 127.92 214.88 158.77 217.73"/><polygon class="cls-7" points="273.07 209.32 273.07 235.23 215.53 240.54 158.77 247.54 158.77 217.73 273.07 209.32"/><polyline class="cls-10" points="248.89 236.54 242.42 224.4 195.9 229.05 192.66 232.49"/><path class="cls-8" d="M263.9,278.46s6,3.11,4.66,15-13,27.22-21.77,32.66-29.55,8.55-32.66,8.29-4.93-.51-4.93-.51V322a33.5,33.5,0,0,0,15.56,0c8-2.07,23.58-24.1,25.4-28.77s-2.33-9.59-2.33-9.59v-3.89Z" transform="translate(-77.14 -57.62)"/><path class="cls-4" d="M256.12,279.49s5.18,2.6,2.85,14-12.18,25.14-23.33,32.4-21.25,5.7-21.25,5.7" transform="translate(-77.14 -57.62)"/><path class="cls-4" d="M247.83,279.75a15,15,0,0,1,4.94,11.9c-.42,7.57-12.19,20-17.34,25.43" transform="translate(-77.14 -57.62)"/><path class="cls-4" d="M254.24,281.67s2.52,4.63,1,12.72S240.47,318.34,231.65,324" transform="translate(-77.14 -57.62)"/><path class="cls-4" d="M260.65,278.63s3,1.57,2.73,10.4-7.36,23.22-16.6,32.46" transform="translate(-77.14 -57.62)"/><path class="cls-4" d="M266.32,290.71s1.05,8.93-8.93,22.8" transform="translate(-77.14 -57.62)"/><path class="cls-4" d="M227.55,324.85a129.22,129.22,0,0,1-17.44,2.53" transform="translate(-77.14 -57.62)"/><polygon class="cls-8" points="277.74 199.21 237.64 196.37 214.75 196.99 272.81 199.99 277.74 199.21"/><polygon class="cls-7" points="272.46 251.37 228.39 245.49 228.39 256.75 272.63 265.84 272.81 270.87 215.53 258.68 215.53 240.54 232.09 239.09 272.79 241.78 272.46 251.37"/><path class="cls-6" d="M346.66,332.58V343.1c0,2.68-16.8,4.86-37.52,4.86s-37.52-2.18-37.52-4.86V332.58Z" transform="translate(-77.14 -57.62)"/><ellipse class="cls-2" cx="232" cy="274.97" rx="37.52" ry="4.85"/><path class="cls-7" d="M302.36,331.67c0,.84,4.44,1.52,9.92,1.52s9.91-.68,9.91-1.52-4.44-1.51-9.91-1.51S302.36,330.84,302.36,331.67Z" transform="translate(-77.14 -57.62)"/><path class="cls-6" d="M266.4,338.79l.3,10.51c.08,2.68-16.65,8.58-37.36,9.17s-37.57-1.09-37.65-3.77l-.3-13.75Z" transform="translate(-77.14 -57.62)"/><path class="cls-2" d="M191.39,341c.08,2.68,16.93,4.37,37.64,3.77s37.44-3.25,37.37-5.93-16.93-4.37-37.65-3.77S191.31,338.27,191.39,341Z" transform="translate(-77.14 -57.62)"/><path class="cls-7" d="M222.09,339.15c0,.84,4.48,1.39,9.95,1.23s9.89-1,9.87-1.8-4.48-1.39-9.95-1.23S222.07,338.32,222.09,339.15Z" transform="translate(-77.14 -57.62)"/><polygon class="cls-11" points="273.39 65.42 273.39 77.12 228.78 82.56 89.5 70.59 89.5 52.64 121.87 46.11 273.39 65.42"/><polygon class="cls-6" points="273.39 77.12 137.1 62.43 89.5 70.59 228.78 82.56 273.39 77.12"/><rect class="cls-8" x="260.96" y="202.7" width="23.47" height="30.18" rx="7.11" transform="translate(468.26 377.96) rotate(180)"/><rect class="cls-2" x="264.9" y="207.76" width="15.6" height="20.05" rx="5.04" transform="translate(468.26 377.96) rotate(180)"/><path class="cls-7" d="M198.69,97.79l-1,274.69-78.77-17.13-.69-245.23Zm-75,250.71,64.74,12.68-.69-252.08-64,10.61Z" transform="translate(-77.14 -57.62)"/><path class="cls-12" d="M198.69,97.79l177.42,23.29V343L197.66,372.48ZM367.2,336.86l1.37-209.61L210.68,110.12l-1,253.11Z" transform="translate(-77.14 -57.62)"/><line class="cls-4" x1="227.51" y1="86.26" x2="227.51" y2="108.95"/><path class="cls-13" d="M474.8,409.87s9.89-12.91,26.09-16.2,25,2.47,33,6.86,15.65,8,14.83,11.26a11.91,11.91,0,0,1-6,7.42c-2.47,1.09-26.36,9.61-37.62,10.71s-24.72-1.93-28.84-6.05S474.8,409.87,474.8,409.87Z" transform="translate(-77.14 -57.62)"/><path class="cls-12" d="M477.29,407.08c3.89-4,12.17-11.09,23.6-13.41,16.2-3.3,25,2.47,33,6.86,1.51.84,3,1.64,4.46,2.42-1.7-.4-13.42-3-19,.05-6,3.3-17,8-28.84,8C483.74,411,479.61,409,477.29,407.08Z" transform="translate(-77.14 -57.62)"/><path class="cls-7" d="M474,418.73a31.53,31.53,0,0,0,17.81,4.6c15.65-.55,22-10.71,31.85-16.21s25,4.67,25,4.67a11.91,11.91,0,0,1-6,7.42c-2.47,1.09-26.36,9.61-37.62,10.71s-24.72-1.93-28.84-6.05A8.62,8.62,0,0,1,474,418.73Z" transform="translate(-77.14 -57.62)"/><polygon class="cls-13" points="559.63 52.05 563.79 54.56 540.84 274.88 537.03 273.29 559.63 52.05"/><path class="cls-13" d="M505.73,319.09l17.94,52.11-41.54-8.85s7.37-5.16,6.39-13-11.06-32-11.06-32Z" transform="translate(-77.14 -57.62)"/><path class="cls-7" d="M488.52,349.33c-1-7.87-11.06-32-11.06-32l19.89,1.21c1.59,4.59,10.64,29.62,11.08,36.65a13.19,13.19,0,0,1-5.19,11.62l-21.11-4.5S489.5,357.19,488.52,349.33Z" transform="translate(-77.14 -57.62)"/><polygon class="cls-7" points="559.63 52.05 537.03 273.29 280.41 249.42 303.01 81.89 559.63 52.05"/><polygon class="cls-2" points="550.67 61 528.93 263.48 288.51 242.6 307.7 89.99 550.67 61"/><polygon class="cls-8" points="540.84 274.88 281.62 250.77 280.41 249.42 537.03 273.29 540.84 274.88"/><path class="cls-7" d="M538,392.45s-5.45-5.19-10.77-7.6S499.51,374,473.92,371.93s-86.15-3.17-90.2-3.29-8.75-.51-9.25-1.91-.73-7.57-.73-7.57l17.94,6.64,1.79-1.73s19.76-1.9,56,1,58.27,8.49,73.1,13.17S538,392.45,538,392.45Z" transform="translate(-77.14 -57.62)"/><path class="cls-12" d="M559.56,382.51l-22.86,7.86s-8.61-12.53-50.39-19.17-94.63-5.4-94.63-5.4l-17.94-6.64s68.57-3.93,113.06,2S553.9,375.63,559.56,382.51Z" transform="translate(-77.14 -57.62)"/><path class="cls-7" d="M559.56,382.51s7.37,9.09,5.4,9.83-24.33,1-26.05.25a4.06,4.06,0,0,1-2.21-2.22Z" transform="translate(-77.14 -57.62)"/><path class="cls-8" d="M645,392.79l-4.5,37.86c0,7-11.72,12.65-26.19,12.65s-26.18-5.67-26.18-12.65l-4.5-37.86Z" transform="translate(-77.14 -57.62)"/><ellipse class="cls-8" cx="537.13" cy="335.18" rx="30.69" ry="8.69"/><ellipse class="cls-14" cx="537.13" cy="335.18" rx="23.91" ry="6.77"/><path class="cls-15" d="M667,307.91c-2.84.78-9.35-.32-9.36-.32s2-4.08,2.19-4.32c1.87-2.79,7.12-7.09,10.74-6a4.45,4.45,0,0,1,2.74,6C672.3,305.72,669.4,307.24,667,307.91Z" transform="translate(-77.14 -57.62)"/><path class="cls-15" d="M600.66,299.76c-.06,0-.56-4.52-.56-4.81,0-3.36,2-9.84,5.62-11a4.45,4.45,0,0,1,5.61,3.53c.55,2.6-1,5.47-2.69,7.36C606.7,297.07,600.67,299.75,600.66,299.76Z" transform="translate(-77.14 -57.62)"/><path class="cls-15" d="M584.59,273.24c3.76.14,7.42,5.85,8.33,9.08.08.28.81,4.8.74,4.79l-.07,0c.58.9,1.2,1.87,1.85,2.94,1.19,2,2.52,4.25,3.8,6.81a79.81,79.81,0,0,1,3.73,8.44,57.71,57.71,0,0,1,2.79,9.93s0,.09,0,.13c.14-1.1.63-4.14.7-4.37.9-3.24,4.55-9,8.31-9.1a4.44,4.44,0,0,1,4.48,4.88c-.16,2.65-2.44,5-4.53,6.38-2.36,1.57-8.42,2.53-8.91,2.61a79.21,79.21,0,0,1,1,10.47q.09,3.06,0,6.17c.16-.94.3-1.78.33-1.9.91-3.23,4.56-9,8.32-9.1a4.46,4.46,0,0,1,4.48,4.88c-.17,2.65-2.45,5-4.54,6.39s-7.27,2.33-8.64,2.56c0,.79,0,1.58,0,2.37-.1,3.81-.21,7.6-.21,11.32,0,1.32.05,2.61.1,3.9.13-.83.25-1.54.28-1.64.91-3.24,4.56-9,8.32-9.1a4.45,4.45,0,0,1,4.48,4.88c-.16,2.65-2.44,5-4.54,6.38s-6.77,2.24-8.39,2.52c.09,1.32.17,2.65.31,3.93.12.87.17,1.71.34,2.58s.29,1.72.43,2.57c.34,1.61.68,3.29,1,4.86.25,1.09.51,2.13.76,3.18,0-1.31,0-3.87,0-4.08a17.23,17.23,0,0,1,3.51-8,4.65,4.65,0,0,1,.2-1,4.46,4.46,0,0,1,5.93-3c3.46,1.48,4.82,8.13,4.51,11.48,0,.19-.45,2.31-.75,3.65.29-.76.57-1.5.88-2.27.61-1.54,1.26-3.06,2-4.69.36-.78.73-1.56,1.1-2.35s.82-1.59,1.24-2.4c1-1.84,2.09-3.66,3.23-5.47-1.34-.53-6.09-2.5-7.85-4.31s-3.48-4.57-3.08-7.2a4.45,4.45,0,0,1,5.41-3.82c3.65.94,6,7.3,6.2,10.66,0,.21-.11,2.63-.21,4,.7-1.08,1.39-2.17,2.13-3.24,2.14-3.09,4.4-6.15,6.64-9.22.69-.94,1.36-1.88,2-2.83-.48-.18-6.17-2.4-8.14-4.42-1.76-1.8-3.49-4.58-3.09-7.2a4.46,4.46,0,0,1,5.42-3.83c3.64.94,6,7.31,6.2,10.66,0,.25-.18,3.74-.27,4.62,1.49-2.07,3-4.15,4.32-6.27a77,77,0,0,0,5-8.86c-.22-.08-6.18-2.37-8.19-4.44-1.76-1.8-3.49-4.58-3.09-7.2a4.46,4.46,0,0,1,5.42-3.83c3.64.94,6,7.31,6.2,10.66,0,.22-.13,2.88-.23,4.14l.21.05a57.55,57.55,0,0,0,3.34-9.67c.47-1.82.83-3.58,1.13-5.31-1.15-.31-6.4-1.8-8.42-3.46s-4-4.17-3.86-6.82a4.46,4.46,0,0,1,5-4.4c3.73.54,6.77,6.6,7.34,9.92,0,.18.14,2,.2,3.4.13-.78.27-1.58.38-2.33.4-2.82.6-5.42.75-7.73.08-1.32.12-2.5.15-3.62-1-.89-4.84-4.56-5.85-6.92s-1.59-5.53-.27-7.83a4.44,4.44,0,0,1,6.42-1.61c3.06,2.19,3,9,1.94,12.17-.08.28-2,4.44-2,4.4l-.06-.06c0,1.08,0,2.22-.08,3.48-.1,2.31-.24,4.93-.58,7.77a80.68,80.68,0,0,1-1.55,9.1,56.77,56.77,0,0,1-3.15,9.83,1.17,1.17,0,0,0-.05.11c.72-.84,2.81-3.1,3-3.26,2.54-2.2,8.74-5,12-3a4.44,4.44,0,0,1,1,6.54c-1.6,2.12-4.8,2.82-7.31,2.82-2.83,0-8.42-2.53-8.86-2.74a78.63,78.63,0,0,1-5,9.28c-1.07,1.74-2.2,3.46-3.36,5.17.64-.7,1.23-1.32,1.32-1.4,2.54-2.2,8.74-5,12-3a4.45,4.45,0,0,1,1,6.54c-1.6,2.12-4.8,2.82-7.31,2.82s-7.35-2.07-8.62-2.63l-1.34,2c-2.18,3.12-4.37,6.22-6.42,9.33-.72,1.09-1.39,2.2-2.07,3.3.57-.62,1.06-1.14,1.15-1.21,2.54-2.2,8.74-5,12-3a4.46,4.46,0,0,1,1,6.55c-1.6,2.12-4.8,2.82-7.31,2.82s-6.88-1.87-8.39-2.53c-.66,1.15-1.32,2.3-1.91,3.45-.38.79-.8,1.52-1.14,2.34s-.71,1.59-1,2.37c-.61,1.54-1.26,3.12-1.82,4.63-.39,1.05-.75,2.06-1.12,3.08.71-1.1,2.14-3.22,2.28-3.39,2.18-2.56,7.89-6.22,11.36-4.78a4.45,4.45,0,0,1,2,6.31c-1.26,2.34-4.32,3.52-6.8,3.9-2.73.42-8.41-1.15-9.12-1.35-.6,1.68-1.16,3.32-1.67,4.87-1.76,5.34-3,9.85-3.87,13.05l-2.53-.37.06-.21c.93-3.22,2.32-7.79,4.23-13.19.6-1.71,1.27-3.52,2-5.38A47.14,47.14,0,0,1,618,370c-2.21,1.79-7.44,3.5-8.12,3.71.43,1.73.86,3.41,1.3,5,1.47,5.42,2.91,9.89,4,13l-2.77-.4c-1-3.09-2.14-7.2-3.35-12-.44-1.76-.88-3.65-1.31-5.59-.72.05-6.62.38-9.2-.61-2.35-.9-5.08-2.69-5.82-5.24a4.46,4.46,0,0,1,3.31-5.74c3.71-.68,8.51,4.11,10.1,7.08.09.17.9,2.18,1.38,3.46-.17-.8-.34-1.57-.51-2.39-.34-1.61-.63-3.24-1-5-.13-.85-.26-1.71-.38-2.57s-.19-1.78-.29-2.68c-.19-2.09-.28-4.21-.32-6.35-1.42.3-6.47,1.27-8.93.74s-5.43-1.9-6.54-4.31a4.45,4.45,0,0,1,2.4-6.17c3.56-1.23,9,2.78,11.06,5.46.12.17,1.35,2.26,2,3.42,0-1.28,0-2.57,0-3.87.07-3.76.27-7.56.45-11.35,0-1.17.09-2.32.14-3.48-.51.11-6.48,1.4-9.24.79-2.45-.53-5.43-1.89-6.54-4.3a4.45,4.45,0,0,1,2.4-6.17c3.56-1.23,9,2.78,11.06,5.46.15.21,1.91,3.22,2.33,4,.09-2.55.17-5.1.14-7.61a77.81,77.81,0,0,0-.72-10.14c-.23.05-6.46,1.42-9.29.81-2.45-.54-5.43-1.9-6.54-4.31a4.45,4.45,0,0,1,2.41-6.17c3.55-1.23,9,2.78,11,5.46.13.18,1.48,2.47,2.09,3.58l.21-.07a57,57,0,0,0-2.56-9.91c-.6-1.78-1.28-3.44-2-5.05-1.13.37-6.33,2-8.94,1.76s-5.6-1.29-7-3.56a4.47,4.47,0,0,1,1.72-6.41c3.4-1.61,9.28,1.78,11.58,4.22.13.14,1.25,1.63,2.05,2.73-.32-.72-.65-1.47-1-2.15-1.22-2.57-2.49-4.85-3.64-6.86-.66-1.14-1.28-2.16-1.87-3.1-1.3-.21-6.55-1.14-8.69-2.55s-4.38-3.73-4.56-6.38A4.46,4.46,0,0,1,584.59,273.24Z" transform="translate(-77.14 -57.62)"/><polygon class="cls-8" points="405.55 335.63 360.58 366.49 183.51 321.28 234.25 298.03 405.55 335.63"/><polygon class="cls-7" points="328.53 328.36 334.28 329.61 339.9 326.05 334.21 324.85 328.53 328.36"/><polygon class="cls-7" points="319.21 321.93 314.6 325.33 326.07 327.82 331.73 324.33 319.48 321.76 319.21 321.93"/><polygon class="cls-7" points="336.71 330.13 342.84 331.47 348.53 327.86 342.35 326.56 336.71 330.13"/><polygon class="cls-7" points="297.57 321.63 303.11 322.83 308.4 319.43 303.32 318.37 297.57 321.63"/><polygon class="cls-7" points="305.53 323.36 312.32 324.83 317.16 321.27 310.84 319.94 305.53 323.36"/><polygon class="cls-7" points="333.77 337.21 327.71 335.84 322.1 339.39 328.09 340.81 333.77 337.21"/><polygon class="cls-7" points="345.27 332 353.01 333.68 358.79 330.02 350.98 328.38 345.27 332"/><polygon class="cls-7" points="282.75 318.4 288.05 319.55 293.54 316.31 288.11 315.17 282.75 318.4"/><polygon class="cls-7" points="352.58 341.47 346.24 340.04 340.4 343.74 347.02 345.31 352.58 341.47"/><polygon class="cls-7" points="359.3 336.83 353.34 335.54 348.32 338.72 354.53 340.12 359.3 336.83"/><polygon class="cls-7" points="355.44 334.21 361.26 335.47 366.74 331.69 361.24 330.53 355.44 334.21"/><polygon class="cls-7" points="343.83 339.49 336.18 337.76 330.46 341.38 338.03 343.17 343.83 339.49"/><polygon class="cls-7" points="376.07 333.65 369.1 332.18 363.6 335.98 370.47 337.47 376.07 333.65"/><polygon class="cls-7" points="368.49 338.83 361.63 337.34 356.85 340.65 363.59 342.17 368.49 338.83"/><polygon class="cls-7" points="296 316.89 290.56 320.1 295.01 321.07 300.74 317.82 296.08 316.84 296 316.89"/><polygon class="cls-7" points="214.82 319.39 219.5 316.85 216.43 316.12 211.49 318.57 214.82 319.39"/><polygon class="cls-7" points="215.78 314.17 221.81 315.6 226.66 312.97 220.54 311.58 215.78 314.17"/><polygon class="cls-7" points="222.87 310.32 228.99 311.7 233.21 309.42 227.01 308.07 222.87 310.32"/><polygon class="cls-7" points="240.72 321.88 237.13 321.03 231.87 323.59 235.92 324.59 240.72 321.88"/><polygon class="cls-7" points="227.01 318.63 222.05 317.45 217.34 320.01 222.27 321.23 227.01 318.63"/><polygon class="cls-7" points="231.58 312.29 234.2 312.88 238.22 310.51 235.82 309.99 231.58 312.29"/><polygon class="cls-7" points="234.44 320.39 229.55 319.23 224.78 321.84 229.23 322.94 234.44 320.39"/><polygon class="cls-7" points="275.27 316.78 280.27 317.86 285.61 314.64 280.73 313.62 275.27 316.78"/><polygon class="cls-7" points="261.17 313.71 265.28 314.61 270.28 311.42 266.21 310.57 261.17 313.71"/><polygon class="cls-7" points="240.6 314.33 244.79 311.94 240.73 311.06 236.69 313.45 240.6 314.33"/><polygon class="cls-7" points="267.71 315.13 272.74 316.23 278.17 313.08 272.73 311.94 267.71 315.13"/><polygon class="cls-7" points="259.12 309.13 253.74 312.1 258.72 313.18 263.75 310.05 259.19 309.09 259.12 309.13"/><polygon class="cls-7" points="246.24 310.47 251.15 311.53 256.57 308.54 251.39 307.45 246.24 310.47"/><polygon class="cls-7" points="238.18 308.71 243.72 309.92 248.85 306.92 243.54 305.8 238.18 308.71"/><polygon class="cls-7" points="310.92 330.25 319.11 332.11 323.92 329.14 315.27 327.26 310.92 330.25"/><polygon class="cls-7" points="321.55 332.66 327.38 333.98 332.18 330.94 326.38 329.68 321.55 332.66"/><polygon class="cls-7" points="350.91 335.01 343.17 333.33 338.26 336.44 345.92 338.17 350.91 335.01"/><polygon class="cls-7" points="329.79 334.52 335.85 335.89 340.74 332.8 334.61 331.47 329.79 334.52"/><polygon class="cls-7" points="248.23 323.67 243.23 322.48 238.4 325.2 243.41 326.44 248.23 323.67"/><polygon class="cls-7" points="286.5 324.72 292.48 326.08 296.49 323.18 290.67 321.91 286.5 324.72"/><polygon class="cls-7" points="294.75 326.59 300.58 327.91 304.71 324.96 298.78 323.68 294.75 326.59"/><polygon class="cls-7" points="302.87 328.43 308.61 329.73 312.93 326.75 307.02 325.47 302.87 328.43"/><polygon class="cls-7" points="244.66 317.04 240.88 316.19 236.01 318.97 240.02 319.92 244.66 317.04"/><polygon class="cls-7" points="235.56 308.14 240.9 305.25 232.2 303.42 232.22 303.47 226.19 306.11 235.56 308.14"/><polygon class="cls-7" points="223.28 305.47 229.34 302.82 227.51 302.44 221.66 305.12 223.28 305.47"/><polygon class="cls-7" points="391.02 335 399.76 336.84 401.87 335.39 393.24 333.53 391.02 335"/><polygon class="cls-7" points="238.35 315.62 234.5 314.74 229.82 317.5 233.52 318.38 238.35 315.62"/><polygon class="cls-7" points="279.1 323.05 284.15 324.19 288.31 321.4 283.24 320.3 279.1 323.05"/><polygon class="cls-7" points="224.35 316.2 227.38 316.92 232.01 314.18 229.25 313.55 224.35 316.2"/><polygon class="cls-7" points="271.19 321.26 276.75 322.51 280.86 319.78 275.18 318.55 271.19 321.26"/><polygon class="cls-7" points="266.88 322.07 261.89 320.94 257.03 323.96 262.27 325.2 266.88 322.07"/><polygon class="cls-7" points="274.74 323.85 269.21 322.6 264.57 325.75 269.97 327.03 274.74 323.85"/><polygon class="cls-7" points="290.6 327.44 284.51 326.06 279.65 329.32 285.94 330.81 290.6 327.44"/><polygon class="cls-7" points="325.3 335.3 319.42 333.97 313.81 337.43 319.73 338.83 325.3 335.3"/><polygon class="cls-7" points="298.67 329.27 292.87 327.95 288.18 331.35 293.87 332.7 298.67 329.27"/><polygon class="cls-7" points="316.99 333.41 300.96 329.79 296.13 333.23 311.4 336.86 316.99 333.41"/><polygon class="cls-7" points="282.16 325.53 277.09 324.38 272.29 327.58 277.34 328.77 282.16 325.53"/><polygon class="cls-7" points="257.17 318.08 261.58 319.08 265.75 316.5 261.34 315.54 257.17 318.08"/><polygon class="cls-7" points="249.19 316.28 254.72 317.53 258.87 315 253.23 313.77 249.19 316.28"/><polygon class="cls-7" points="259.46 320.39 255.01 319.39 250.06 322.31 254.64 323.39 259.46 320.39"/><polygon class="cls-7" points="264 319.63 268.86 320.73 272.83 318.03 268.2 317.03 264 319.63"/><polygon class="cls-7" points="243.12 314.9 246.77 315.73 250.78 313.24 247.34 312.49 243.12 314.9"/><polygon class="cls-7" points="252.53 318.82 247.08 317.59 242.41 320.49 247.62 321.72 252.53 318.82"/><polygon class="cls-7" points="213.23 313.56 217.96 311 211.87 309.62 206.67 312.01 213.23 313.56"/><polygon class="cls-7" points="263.81 333.27 236.18 326.45 236.15 326.47 236.14 326.44 222.51 323.08 214.03 327.72 255.81 338.35 263.81 333.27"/><polygon class="cls-7" points="197.35 323.48 205.44 318.87 201.44 317.89 192.62 322.28 197.35 323.48"/><polygon class="cls-7" points="212.54 320.63 207.9 319.48 199.79 324.1 204.1 325.2 212.54 320.63"/><polygon class="cls-7" points="220 322.46 215.06 321.25 206.6 325.83 211.54 327.09 220 322.46"/><polygon class="cls-7" points="287.26 339.05 282.12 337.78 273.78 342.92 279.39 344.35 287.26 339.05"/><polygon class="cls-7" points="271.22 335.1 266.15 333.85 258.14 338.94 262.92 340.15 271.22 335.1"/><polygon class="cls-7" points="279.74 337.2 273.61 335.68 265.29 340.76 271.42 342.32 279.74 337.2"/><polygon class="cls-7" points="252.73 305.95 256.02 303.86 249.66 302.49 245.91 304.52 252.73 305.95"/><polygon class="cls-7" points="255.18 306.46 258.94 307.26 262.74 305.31 258.44 304.38 255.18 306.46"/><polygon class="cls-7" points="301.96 342.68 289.54 339.61 281.66 344.92 293.44 347.92 301.96 342.68"/><polygon class="cls-7" points="261.67 307.83 265.94 308.73 269.53 306.78 265.44 305.9 261.67 307.83"/><polygon class="cls-7" points="201.23 316.04 201.28 316.02 201.3 316.06 208.86 317.92 213.77 315.49 204.09 313.19 199.06 315.5 201.23 316.04"/><polygon class="cls-7" points="238.34 302.93 243.27 303.96 247.04 301.92 242.28 300.89 238.34 302.93"/><polygon class="cls-7" points="224.39 307.5 219.02 306.34 214.48 308.42 220.29 309.73 224.39 307.5"/><polygon class="cls-7" points="363.65 351.05 356.26 349.29 350.91 352.95 358.1 354.72 363.65 351.05"/><polygon class="cls-7" points="388.97 336.36 383.13 340.23 392 342.15 397.76 338.2 388.97 336.36"/><polygon class="cls-7" points="235.63 302.36 239.59 300.31 234.53 299.21 230.18 301.21 235.63 302.36"/><polygon class="cls-7" points="381.1 341.57 375.97 344.98 384.92 347 390.02 343.51 381.1 341.57"/><polygon class="cls-7" points="358.43 356.6 349.87 362.27 359.19 364.64 367.61 358.86 358.43 356.6"/><polygon class="cls-7" points="373.96 346.31 367.97 350.28 377.01 352.42 382.96 348.35 373.96 346.31"/><polygon class="cls-7" points="199.22 317.2 196.51 316.67 187.27 320.92 190.03 321.62 199.22 317.2"/><polygon class="cls-7" points="356.13 356.03 348.98 354.27 340.68 359.93 347.59 361.69 356.13 356.03"/><polygon class="cls-7" points="328.49 349.22 321.01 347.37 312.5 352.76 319.91 354.65 328.49 349.22"/><polygon class="cls-7" points="346.7 353.71 340.24 352.12 340.09 352.22 339.97 352.05 330.84 349.8 322.24 355.24 338.42 359.36 346.7 353.71"/><polygon class="cls-7" points="318.66 346.79 312.73 345.33 304.29 350.68 310.17 352.17 318.66 346.79"/><polygon class="cls-7" points="375.07 353.75 365.98 351.6 360.41 355.29 369.54 357.54 375.07 353.75"/><polygon class="cls-7" points="268.58 309.28 272.43 310.09 275.94 308.17 272.15 307.35 268.58 309.28"/><polygon class="cls-7" points="310.38 344.75 304.34 343.26 295.8 348.52 301.96 350.09 310.38 344.75"/><polygon class="cls-7" points="313.27 318.67 319.15 319.9 321.97 318.12 316.62 316.96 313.27 318.67"/><polygon class="cls-7" points="345.09 346.64 338.34 345.04 332.88 348.5 339.89 350.23 345.09 346.64"/><polygon class="cls-7" points="326.03 342.12 320.04 340.7 314.77 344.04 320.7 345.5 326.03 342.12"/><polygon class="cls-7" points="386.57 335.85 378.44 334.15 372.82 337.98 380.75 339.71 386.57 335.85"/><polygon class="cls-7" points="353.96 348.75 347.38 347.19 342.16 350.79 348.63 352.39 353.96 348.75"/><polygon class="cls-7" points="378.72 341.06 370.83 339.34 365.92 342.7 373.61 344.44 378.72 341.06"/><polygon class="cls-7" points="361.62 343.52 354.89 342 349.31 345.85 355.91 347.42 361.62 343.52"/><polygon class="cls-7" points="371.6 345.78 363.95 344.04 358.21 347.96 365.64 349.72 371.6 345.78"/><polygon class="cls-7" points="335.97 344.48 328.4 342.68 323.05 346.08 330.53 347.92 335.97 344.48"/><polygon class="cls-7" points="270.57 328.96 265.16 327.68 260.23 330.59 265.85 331.97 270.57 328.96"/><polygon class="cls-7" points="278.27 330.79 272.94 329.53 268.19 332.55 273.32 333.81 278.27 330.79"/><polygon class="cls-7" points="262.71 327.1 258.14 326.02 253.53 328.93 257.81 329.99 262.71 327.1"/><polygon class="cls-7" points="309.3 338.15 289.24 333.39 284.2 336.5 304.04 341.39 309.3 338.15"/><polygon class="cls-7" points="317.67 340.14 311.7 338.72 306.42 341.98 312.43 343.46 317.67 340.14"/><polygon class="cls-7" points="286.83 332.82 280.69 331.37 275.71 334.4 281.82 335.91 286.83 332.82"/><polygon class="cls-7" points="290.48 313.88 295.84 315.01 299.32 313.22 293.89 312.05 290.48 313.88"/><polygon class="cls-7" points="298.55 315.58 303.06 316.52 306.4 314.75 302.01 313.8 298.55 315.58"/><polygon class="cls-7" points="305.73 317.08 310.56 318.1 313.92 316.38 309.06 315.33 305.73 317.08"/><polygon class="cls-7" points="321.6 320.42 326.49 321.45 326.49 321.44 329.44 319.74 324.41 318.65 321.6 320.42"/><polygon class="cls-7" points="255.77 325.45 250.72 324.25 245.86 327.04 251.18 328.35 255.77 325.45"/><polygon class="cls-7" points="282.94 312.3 287.83 313.32 291.26 311.48 286.16 310.38 282.94 312.3"/><polygon class="cls-7" points="275.06 310.64 280.43 311.77 283.66 309.84 278.55 308.73 275.06 310.64"/><polygon class="cls-7" points="363.35 329.19 368.72 330.32 371.03 328.73 365.85 327.61 363.35 329.19"/><polygon class="cls-7" points="353.1 327.04 360.9 328.68 363.42 327.08 355.67 325.4 353.1 327.04"/><polygon class="cls-7" points="390.86 333.01 382.69 331.25 380.44 332.78 388.62 334.5 390.86 333.01"/><polygon class="cls-7" points="371.08 330.81 378.07 332.28 380.33 330.74 373.37 329.23 371.08 330.81"/><polygon class="cls-7" points="329.04 321.98 333.89 323 336.79 321.32 331.98 320.28 329.04 321.98"/><polygon class="cls-7" points="336.45 323.54 342.01 324.71 344.67 323.03 339.33 321.87 336.45 323.54"/><polygon class="cls-7" points="344.46 325.22 350.64 326.52 353.24 324.88 347.1 323.55 344.46 325.22"/><polygon class="cls-8" points="360.58 366.49 360.63 371.86 405.55 341.65 405.55 335.63 360.58 366.49"/><polygon class="cls-8" points="360.63 371.86 183.88 325.95 183.51 321.28 360.58 366.49 360.63 371.86"/></g></svg>