<svg xmlns="http://www.w3.org/2000/svg" viewBox="0 0 558.55 384.48"><defs><style>.cls-1{opacity:0.08;}.cls-2{fill:#9dd1f7;}.cls-12,.cls-3,.cls-5{fill:none;}.cls-3{stroke:#9dd1f7;}.cls-11,.cls-12,.cls-14,.cls-15,.cls-16,.cls-17,.cls-18,.cls-27,.cls-3,.cls-4,.cls-5,.cls-8,.cls-9{stroke-linecap:round;stroke-linejoin:round;}.cls-4{fill:#dbdbdb;}.cls-11,.cls-18,.cls-27,.cls-28,.cls-4,.cls-5,.cls-8,.cls-9{stroke:#263238;}.cls-25,.cls-6,.cls-9{fill:#fff;}.cls-10,.cls-7{fill:#7bd9c5;}.cls-7{stroke:#000;}.cls-28,.cls-7{stroke-miterlimit:10;stroke-width:0.25px;}.cls-13,.cls-14,.cls-27,.cls-8{fill:#263238;}.cls-11{fill:#ababab;}.cls-12,.cls-14,.cls-15,.cls-16,.cls-17{stroke:#fff;}.cls-14,.cls-15{stroke-width:0.5px;}.cls-15,.cls-17{fill:#707070;}.cls-16,.cls-18{fill:#a3a3a3;}.cls-19{opacity:0.8;}.cls-20{fill:#4d5a64;}.cls-21{fill:#2a3338;}.cls-22{fill:#e6f8f2;}.cls-23{fill:#cdf1e5;}.cls-24{fill:#81ddbf;}.cls-25{opacity:0.6;}.cls-26{fill:#f5f5f5;}.cls-27{stroke-width:0.97px;}.cls-28{fill:#92e3a9;}</style></defs><g id="Plant"><g class="cls-1"><path class="cls-2" d="M326.43,388.36c2.22-25.63,9.87-50.81,20.88-74.14,32.88-69.67,100.46-130.52,181.47-127.46,52,2,103.48,8.7,155.15,14,44.1,4.55,88,8.71,122.71,39.34a129.14,129.14,0,0,1,34.59,48.54c20.7,51.83,5.23,113-28.22,157.69s-82.45,75.16-132.83,99.17c-20.54,9.79-43.59,18.86-65.51,12.75-13.5-3.76-24.81-12.88-37.62-18.56-43.11-19.11-93.1,3.37-140-1.47a121.13,121.13,0,0,1-74-36.05c-23.22-24.08-35.53-57.51-37.09-90.93A173.38,173.38,0,0,1,326.43,388.36Z" transform="translate(-298.25 -182.13)"/></g><line class="cls-3" x1="408.85" y1="29.98" x2="400.82" y2="38.02"/><line class="cls-3" x1="400.82" y1="29.98" x2="408.85" y2="38.02"/><line class="cls-3" x1="8.54" y1="178.4" x2="0.5" y2="186.44"/><line class="cls-3" x1="0.5" y1="178.4" x2="8.54" y2="186.44"/><line class="cls-3" x1="472.4" y1="307.59" x2="464.37" y2="315.63"/><line class="cls-3" x1="464.37" y1="307.59" x2="472.4" y2="315.63"/><line class="cls-3" x1="231.97" y1="0.5" x2="223.94" y2="8.54"/><line class="cls-3" x1="223.94" y1="0.5" x2="231.97" y2="8.54"/><line class="cls-3" x1="226.8" y1="368.51" x2="218.76" y2="376.55"/><line class="cls-3" x1="218.76" y1="368.51" x2="226.8" y2="376.55"/><line class="cls-3" x1="141.19" y1="339.04" x2="134.85" y2="345.38"/><line class="cls-3" x1="134.85" y1="339.04" x2="141.19" y2="345.38"/><line class="cls-3" x1="35.18" y1="19.96" x2="28.84" y2="26.31"/><line class="cls-3" x1="28.84" y1="19.96" x2="35.18" y2="26.31"/><path class="cls-3" d="M602.22,222.91a5.06,5.06,0,1,1,5.06,5.06A5.05,5.05,0,0,1,602.22,222.91Z" transform="translate(-298.25 -182.13)"/><path class="cls-3" d="M845.28,205.57a5.06,5.06,0,1,1,5.06,5.06A5.05,5.05,0,0,1,845.28,205.57Z" transform="translate(-298.25 -182.13)"/><path class="cls-3" d="M344.85,513.37a5.06,5.06,0,1,1,5.06,5.06A5.05,5.05,0,0,1,344.85,513.37Z" transform="translate(-298.25 -182.13)"/><path class="cls-3" d="M761.9,561.05a5.06,5.06,0,1,1,5.06,5.06A5.06,5.06,0,0,1,761.9,561.05Z" transform="translate(-298.25 -182.13)"/><path class="cls-3" d="M845,366.84a5.06,5.06,0,1,1,5.06,5.06A5.06,5.06,0,0,1,845,366.84Z" transform="translate(-298.25 -182.13)"/><path class="cls-3" d="M598.89,468.28a5.06,5.06,0,1,1,5.06,5.06A5.07,5.07,0,0,1,598.89,468.28Z" transform="translate(-298.25 -182.13)"/><polygon class="cls-4" points="99.22 46.11 271.87 66.89 271.53 282.33 97.54 310.07 21.5 294.31 21.16 55.59 99.22 46.11"/><line class="cls-5" x1="29.35" y1="287.65" x2="84.67" y2="279.29"/><ellipse class="cls-6" cx="62.68" cy="114.67" rx="24.93" ry="34.23"/><ellipse class="cls-7" cx="62.68" cy="114.67" rx="22.58" ry="31"/><ellipse class="cls-8" cx="62.68" cy="114.67" rx="8.28" ry="11.37"/><polygon class="cls-8" points="115.67 111.31 221.06 114.18 221.06 208.31 113.27 220.05 113.27 113.46 115.67 111.31"/><ellipse class="cls-6" cx="229.38" cy="153.44" rx="24.93" ry="34.23"/><ellipse class="cls-7" cx="229.38" cy="153.44" rx="22.58" ry="31"/><ellipse class="cls-8" cx="229.38" cy="153.44" rx="8.28" ry="11.37"/><ellipse class="cls-6" cx="62.68" cy="184.24" rx="24.93" ry="34.23"/><ellipse class="cls-7" cx="62.68" cy="184.24" rx="22.58" ry="31"/><ellipse class="cls-8" cx="62.68" cy="184.24" rx="8.28" ry="11.37"/><ellipse class="cls-6" cx="62.68" cy="253.81" rx="24.93" ry="34.23"/><ellipse class="cls-7" cx="62.68" cy="253.81" rx="22.58" ry="31"/><ellipse class="cls-8" cx="62.68" cy="253.81" rx="8.28" ry="11.37"/><path class="cls-9" d="M451.05,330.45a2.86,2.86,0,0,0,1.33-.32c4.08-2,10.14-8.27,14.41-14.81,4.09-6.29,8.33-15.5,5.26-23.65-1.5-4-7.51-10.67-42.27-23.05-18.63-6.64-36.9-11.78-37.09-11.83a3,3,0,0,0-1.61,5.76c29.53,8.29,72.44,23.45,75.37,31.23,2.31,6.11-1.94,14.07-4.68,18.27-4.41,6.78-9.81,11.6-12.06,12.73a3,3,0,0,0,1.34,5.67Z" transform="translate(-298.25 -182.13)"/><path class="cls-9" d="M453.2,348.17a3,3,0,0,0,1.68-.51c8.5-5.74,11.68-17.74,9.43-35.67-1-8.24-4.89-15.68-11.81-22.76-9.3-9.51-24.41-18.46-44.9-26.59-45.71-18.14-67.17-12.09-68.07-11.82a3,3,0,0,0,1.7,5.73c.29-.08,20.81-5.55,64.16,11.65,33.57,13.32,50.91,27.89,53,44.54,1.94,15.5-.37,25.58-6.85,30a3,3,0,0,0,1.67,5.47Z" transform="translate(-298.25 -182.13)"/><polygon class="cls-9" points="158.32 191.37 158.32 196.56 139.5 196.56 136.9 193.32 128.79 193.32 128.79 125.5 136.9 123.88 140.8 120.31 155.72 120.31 158.32 128.09 158.32 191.37"/><rect class="cls-10" x="145.02" y="128.09" width="13.3" height="63.28"/><polygon class="cls-9" points="105.75 159.57 136.58 157.3 136.58 186.18 107.05 190.4 105.75 159.57"/><line class="cls-5" x1="136.23" y1="160.82" x2="106.12" y2="163.38"/><line class="cls-5" x1="136.55" y1="165.78" x2="106.28" y2="169.15"/><line class="cls-5" x1="136.39" y1="170.59" x2="106.6" y2="174.11"/><line class="cls-5" x1="136.55" y1="175.39" x2="106.6" y2="179.24"/><line class="cls-5" x1="136.87" y1="179.56" x2="107.08" y2="183.72"/><line class="cls-5" x1="136.71" y1="183.4" x2="107.24" y2="188.05"/><polygon class="cls-8" points="136.58 157.3 136.58 139.83 134.63 140.96 134.63 157.29 136.58 157.3"/><polygon class="cls-8" points="255.09 199.21 255.09 270.35 250.16 270.87 250.16 199.99 255.09 199.21"/><polygon class="cls-11" points="250.16 199.99 192.1 196.99 192.1 205.29 105.27 214.88 105.27 245.46 120.82 249.87 192.88 240.54 192.88 258.68 108.38 271.13 108.38 294.71 250.16 270.87 250.16 199.99"/><polygon class="cls-11" points="192.1 205.29 250.42 209.32 136.12 217.73 105.27 214.88 192.1 205.29"/><polygon class="cls-8" points="136.12 217.73 136.12 247.54 120.82 249.87 105.27 245.46 105.27 214.88 136.12 217.73"/><polygon class="cls-8" points="250.42 209.32 250.42 235.23 192.88 240.54 136.12 247.54 136.12 217.73 250.42 209.32"/><polyline class="cls-12" points="226.24 236.54 219.77 224.4 173.25 229.05 170.01 232.49"/><path class="cls-9" d="M462.36,403s6,3.11,4.67,15-13,27.21-21.77,32.66-29.55,8.55-32.66,8.29-4.93-.52-4.93-.52V446.52a33.62,33.62,0,0,0,15.55,0c8-2.07,23.59-24.1,25.41-28.77s-2.34-9.59-2.34-9.59v-3.89Z" transform="translate(-298.25 -182.13)"/><path class="cls-5" d="M454.59,404s5.18,2.59,2.85,14-12.18,25.14-23.33,32.4-21.25,5.7-21.25,5.7" transform="translate(-298.25 -182.13)"/><path class="cls-5" d="M446.29,404.27a15,15,0,0,1,4.94,11.9c-.42,7.57-12.18,20-17.33,25.43" transform="translate(-298.25 -182.13)"/><path class="cls-5" d="M452.7,406.19s2.53,4.62,1.05,12.71-14.81,24-23.63,29.63" transform="translate(-298.25 -182.13)"/><path class="cls-5" d="M459.11,403.14s3.05,1.58,2.73,10.41-7.35,23.22-16.6,32.46" transform="translate(-298.25 -182.13)"/><path class="cls-5" d="M464.79,415.23s1,8.93-8.93,22.8" transform="translate(-298.25 -182.13)"/><path class="cls-5" d="M426,449.37a128.26,128.26,0,0,1-17.44,2.52" transform="translate(-298.25 -182.13)"/><polygon class="cls-9" points="255.09 199.21 214.99 196.37 192.1 196.99 250.16 199.99 255.09 199.21"/><polygon class="cls-8" points="249.81 251.37 205.74 245.49 205.74 256.75 249.98 265.84 250.16 270.87 192.88 258.68 192.88 240.54 209.44 239.09 250.14 241.78 249.81 251.37"/><path class="cls-6" d="M545.13,457.1v10.52c0,2.68-16.8,4.85-37.52,4.85s-37.52-2.17-37.52-4.85V457.1Z" transform="translate(-298.25 -182.13)"/><ellipse class="cls-7" cx="209.35" cy="274.97" rx="37.52" ry="4.85"/><path class="cls-8" d="M500.83,456.19c0,.84,4.44,1.52,9.91,1.52s9.91-.68,9.91-1.52-4.43-1.51-9.91-1.51S500.83,455.35,500.83,456.19Z" transform="translate(-298.25 -182.13)"/><path class="cls-6" d="M464.86,463.31l.31,10.51c.07,2.68-16.65,8.58-37.37,9.17s-37.56-1.09-37.64-3.77l-.3-13.76Z" transform="translate(-298.25 -182.13)"/><path class="cls-7" d="M389.86,465.46c.07,2.68,16.93,4.37,37.64,3.78s37.44-3.25,37.36-5.93-16.93-4.37-37.64-3.78S389.78,462.78,389.86,465.46Z" transform="translate(-298.25 -182.13)"/><path class="cls-8" d="M420.56,463.67c0,.84,4.48,1.39,9.95,1.23s9.89-1,9.87-1.8-4.48-1.39-10-1.23S420.54,462.83,420.56,463.67Z" transform="translate(-298.25 -182.13)"/><polygon class="cls-13" points="250.74 65.42 250.74 77.12 206.13 82.56 66.85 70.59 66.85 52.64 99.22 46.11 250.74 65.42"/><polygon class="cls-6" points="250.74 77.12 114.45 62.43 66.85 70.59 206.13 82.56 250.74 77.12"/><rect class="cls-9" x="459.43" y="327.21" width="23.47" height="30.18" rx="7.11" transform="translate(644.08 502.47) rotate(180)"/><rect class="cls-10" x="463.37" y="332.28" width="15.6" height="20.05" rx="5.04" transform="translate(644.08 502.47) rotate(180)"/><path class="cls-14" d="M397.16,222.31l-1,274.69-78.77-17.13-.69-245.23ZM322.15,473l64.73,12.68-.68-252.09-64.05,10.62Z" transform="translate(-298.25 -182.13)"/><path class="cls-15" d="M397.16,222.31,574.57,245.6V467.54L396.13,497ZM565.67,461.38,567,251.77,409.15,234.64l-1,253.11Z" transform="translate(-298.25 -182.13)"/><line class="cls-5" x1="204.87" y1="86.26" x2="204.87" y2="108.95"/><path class="cls-16" d="M673.27,534.39s9.88-12.91,26.09-16.2,25,2.47,32.95,6.86,15.65,8,14.83,11.26a11.87,11.87,0,0,1-6,7.41c-2.47,1.1-26.36,9.62-37.62,10.71s-24.71-1.92-28.83-6S673.27,534.39,673.27,534.39Z" transform="translate(-298.25 -182.13)"/><path class="cls-17" d="M675.76,531.6c3.89-4,12.17-11.09,23.6-13.41,16.2-3.3,25,2.47,32.95,6.86,1.51.84,3,1.64,4.45,2.42-1.69-.4-13.41-3-19,0-6,3.3-17,8-28.83,8C682.21,535.49,678.08,533.54,675.76,531.6Z" transform="translate(-298.25 -182.13)"/><path class="cls-14" d="M672.49,543.25a31.42,31.42,0,0,0,17.8,4.59c15.66-.55,22-10.71,31.86-16.2s25,4.67,25,4.67a11.87,11.87,0,0,1-6,7.41c-2.47,1.1-26.36,9.62-37.62,10.71s-24.71-1.92-28.83-6A8.56,8.56,0,0,1,672.49,543.25Z" transform="translate(-298.25 -182.13)"/><polygon class="cls-18" points="536.98 52.05 541.14 54.56 518.19 274.88 514.38 273.29 536.98 52.05"/><path class="cls-18" d="M704.19,443.61l17.95,52.11-41.54-8.85s7.37-5.16,6.39-13-11.06-32-11.06-32Z" transform="translate(-298.25 -182.13)"/><path class="cls-8" d="M687,473.85c-1-7.87-11.06-32-11.06-32l19.89,1.21c1.58,4.59,10.64,29.62,11.08,36.64a13.2,13.2,0,0,1-5.2,11.63l-21.1-4.5S688,481.71,687,473.85Z" transform="translate(-298.25 -182.13)"/><polygon class="cls-8" points="536.98 52.05 514.38 273.29 257.76 249.42 280.36 81.89 536.98 52.05"/><g class="cls-19"><polygon class="cls-20" points="528.02 61 506.28 263.48 265.86 242.6 285.05 89.99 528.02 61"/></g><path class="cls-14" d="M736.49,517s-5.45-5.19-10.77-7.6-27.74-10.9-53.34-12.92-86.14-3.17-90.2-3.3-8.74-.5-9.24-1.9-.74-7.57-.74-7.57l17.95,6.63,1.79-1.72s19.76-1.9,56,1,58.28,8.48,73.1,13.17S736.49,517,736.49,517Z" transform="translate(-298.25 -182.13)"/><path class="cls-15" d="M758,507l-22.86,7.86s-8.6-12.53-50.38-19.17-94.63-5.41-94.63-5.41l-17.95-6.63s68.58-3.94,113.07,2S752.37,500.15,758,507Z" transform="translate(-298.25 -182.13)"/><path class="cls-14" d="M758,507s7.38,9.09,5.41,9.83-24.33,1-26,.24a4.07,4.07,0,0,1-2.22-2.21Z" transform="translate(-298.25 -182.13)"/><polygon class="cls-9" points="382.9 335.63 337.93 366.49 160.87 321.28 211.6 298.03 382.9 335.63"/><polygon class="cls-8" points="305.88 328.36 311.63 329.61 317.25 326.05 311.56 324.85 305.88 328.36"/><polygon class="cls-8" points="296.56 321.93 291.95 325.33 303.42 327.82 309.08 324.33 296.83 321.76 296.56 321.93"/><polygon class="cls-8" points="314.06 330.13 320.19 331.47 325.88 327.86 319.7 326.56 314.06 330.13"/><polygon class="cls-8" points="274.92 321.63 280.46 322.83 285.76 319.43 280.67 318.37 274.92 321.63"/><polygon class="cls-8" points="282.88 323.36 289.68 324.83 294.51 321.27 288.19 319.94 282.88 323.36"/><polygon class="cls-8" points="311.12 337.21 305.06 335.84 299.45 339.39 305.44 340.81 311.12 337.21"/><polygon class="cls-8" points="322.62 332 330.36 333.68 336.14 330.02 328.33 328.38 322.62 332"/><polygon class="cls-8" points="260.1 318.4 265.4 319.55 270.89 316.31 265.46 315.17 260.1 318.4"/><polygon class="cls-8" points="329.93 341.47 323.59 340.04 317.75 343.74 324.38 345.31 329.93 341.47"/><polygon class="cls-8" points="336.65 336.83 330.69 335.54 325.67 338.72 331.88 340.12 336.65 336.83"/><polygon class="cls-8" points="332.79 334.21 338.62 335.47 344.09 331.69 338.59 330.53 332.79 334.21"/><polygon class="cls-8" points="321.19 339.49 313.53 337.76 307.81 341.38 315.38 343.17 321.19 339.49"/><polygon class="cls-8" points="353.42 333.65 346.45 332.18 340.95 335.98 347.82 337.47 353.42 333.65"/><polygon class="cls-8" points="345.83 338.83 338.98 337.34 334.19 340.65 340.94 342.17 345.83 338.83"/><polygon class="cls-8" points="273.35 316.89 267.91 320.1 272.36 321.07 278.09 317.82 273.43 316.84 273.35 316.89"/><polygon class="cls-8" points="192.17 319.39 196.85 316.85 193.78 316.12 188.84 318.57 192.17 319.39"/><polygon class="cls-8" points="193.13 314.17 199.16 315.6 204.01 312.97 197.89 311.58 193.13 314.17"/><polygon class="cls-8" points="200.22 310.32 206.34 311.7 210.56 309.42 204.36 308.07 200.22 310.32"/><polygon class="cls-8" points="218.08 321.88 214.48 321.03 209.22 323.59 213.27 324.59 218.08 321.88"/><polygon class="cls-8" points="204.36 318.63 199.4 317.45 194.69 320.01 199.62 321.23 204.36 318.63"/><polygon class="cls-8" points="208.93 312.29 211.55 312.88 215.57 310.51 213.17 309.99 208.93 312.29"/><polygon class="cls-8" points="211.79 320.39 206.9 319.23 202.13 321.84 206.58 322.94 211.79 320.39"/><polygon class="cls-8" points="252.62 316.78 257.62 317.86 262.96 314.64 258.08 313.62 252.62 316.78"/><polygon class="cls-8" points="238.52 313.71 242.63 314.61 247.63 311.42 243.56 310.57 238.52 313.71"/><polygon class="cls-8" points="217.95 314.33 222.14 311.94 218.08 311.06 214.03 313.45 217.95 314.33"/><polygon class="cls-8" points="245.06 315.13 250.09 316.23 255.52 313.08 250.08 311.94 245.06 315.13"/><polygon class="cls-8" points="236.47 309.13 231.09 312.1 236.07 313.18 241.1 310.05 236.54 309.09 236.47 309.13"/><polygon class="cls-8" points="223.59 310.47 228.5 311.53 233.92 308.54 228.74 307.45 223.59 310.47"/><polygon class="cls-8" points="215.53 308.71 221.07 309.92 226.2 306.92 220.89 305.8 215.53 308.71"/><polygon class="cls-8" points="288.27 330.25 296.46 332.11 301.27 329.14 292.62 327.26 288.27 330.25"/><polygon class="cls-8" points="298.9 332.66 304.74 333.98 309.53 330.94 303.73 329.68 298.9 332.66"/><polygon class="cls-8" points="328.26 335.01 320.52 333.33 315.61 336.44 323.27 338.17 328.26 335.01"/><polygon class="cls-8" points="307.14 334.52 313.2 335.89 318.09 332.8 311.96 331.47 307.14 334.52"/><polygon class="cls-8" points="225.58 323.67 220.58 322.48 215.75 325.2 220.76 326.44 225.58 323.67"/><polygon class="cls-8" points="263.85 324.72 269.83 326.08 273.84 323.18 268.02 321.91 263.85 324.72"/><polygon class="cls-8" points="272.1 326.59 277.93 327.91 282.06 324.96 276.13 323.68 272.1 326.59"/><polygon class="cls-8" points="280.22 328.43 285.96 329.73 290.28 326.75 284.37 325.47 280.22 328.43"/><polygon class="cls-8" points="222 317.04 218.23 316.19 213.36 318.97 217.37 319.92 222 317.04"/><polygon class="cls-8" points="212.91 308.14 218.25 305.25 209.55 303.42 209.57 303.47 203.54 306.11 212.91 308.14"/><polygon class="cls-8" points="200.63 305.47 206.69 302.82 204.86 302.44 199.01 305.12 200.63 305.47"/><polygon class="cls-8" points="368.37 335 377.11 336.84 379.22 335.39 370.59 333.53 368.37 335"/><polygon class="cls-8" points="215.71 315.62 211.85 314.74 207.18 317.5 210.87 318.38 215.71 315.62"/><polygon class="cls-8" points="256.45 323.05 261.5 324.19 265.66 321.4 260.59 320.3 256.45 323.05"/><polygon class="cls-8" points="201.71 316.2 204.73 316.92 209.36 314.18 206.6 313.55 201.71 316.2"/><polygon class="cls-8" points="248.54 321.26 254.1 322.51 258.21 319.78 252.53 318.55 248.54 321.26"/><polygon class="cls-8" points="244.23 322.07 239.24 320.94 234.38 323.96 239.62 325.2 244.23 322.07"/><polygon class="cls-8" points="252.09 323.85 246.56 322.6 241.92 325.75 247.32 327.03 252.09 323.85"/><polygon class="cls-8" points="267.95 327.44 261.86 326.06 257.01 329.32 263.29 330.81 267.95 327.44"/><polygon class="cls-8" points="302.65 335.3 296.77 333.97 291.16 337.43 297.08 338.83 302.65 335.3"/><polygon class="cls-8" points="276.02 329.27 270.22 327.95 265.53 331.35 271.22 332.7 276.02 329.27"/><polygon class="cls-8" points="294.34 333.41 278.31 329.79 273.48 333.23 288.75 336.86 294.34 333.41"/><polygon class="cls-8" points="259.51 325.53 254.44 324.38 249.64 327.58 254.69 328.77 259.51 325.53"/><polygon class="cls-8" points="234.52 318.08 238.93 319.08 243.1 316.5 238.69 315.54 234.52 318.08"/><polygon class="cls-8" points="226.54 316.28 232.07 317.53 236.22 315 230.58 313.77 226.54 316.28"/><polygon class="cls-8" points="236.81 320.39 232.37 319.39 227.42 322.31 231.99 323.39 236.81 320.39"/><polygon class="cls-8" points="241.36 319.63 246.21 320.73 250.18 318.03 245.55 317.03 241.36 319.63"/><polygon class="cls-8" points="220.47 314.9 224.12 315.73 228.13 313.24 224.69 312.49 220.47 314.9"/><polygon class="cls-8" points="229.88 318.82 224.43 317.59 219.76 320.49 224.97 321.72 229.88 318.82"/><polygon class="cls-8" points="190.58 313.56 195.31 311 189.22 309.62 184.02 312.01 190.58 313.56"/><polygon class="cls-8" points="241.16 333.27 213.53 326.45 213.5 326.47 213.49 326.44 199.86 323.08 191.38 327.72 233.17 338.35 241.16 333.27"/><polygon class="cls-8" points="174.7 323.48 182.79 318.87 178.79 317.89 169.97 322.28 174.7 323.48"/><polygon class="cls-8" points="189.89 320.63 185.25 319.48 177.14 324.1 181.45 325.2 189.89 320.63"/><polygon class="cls-8" points="197.35 322.46 192.41 321.25 183.95 325.83 188.9 327.09 197.35 322.46"/><polygon class="cls-8" points="264.61 339.05 259.47 337.78 251.13 342.92 256.75 344.35 264.61 339.05"/><polygon class="cls-8" points="248.57 335.1 243.5 333.85 235.49 338.94 240.27 340.15 248.57 335.1"/><polygon class="cls-8" points="257.09 337.2 250.96 335.68 242.64 340.76 248.78 342.32 257.09 337.2"/><polygon class="cls-8" points="230.08 305.95 233.37 303.86 227.01 302.49 223.26 304.52 230.08 305.95"/><polygon class="cls-8" points="232.53 306.46 236.29 307.26 240.09 305.31 235.8 304.38 232.53 306.46"/><polygon class="cls-8" points="279.31 342.68 266.89 339.61 259.01 344.92 270.8 347.92 279.31 342.68"/><polygon class="cls-8" points="239.02 307.83 243.29 308.73 246.88 306.78 242.79 305.9 239.02 307.83"/><polygon class="cls-8" points="178.58 316.04 178.63 316.02 178.65 316.06 186.22 317.92 191.12 315.49 181.44 313.19 176.41 315.5 178.58 316.04"/><polygon class="cls-8" points="215.69 302.93 220.62 303.96 224.39 301.92 219.63 300.89 215.69 302.93"/><polygon class="cls-8" points="201.74 307.5 196.37 306.34 191.83 308.42 197.64 309.73 201.74 307.5"/><polygon class="cls-8" points="341 351.05 333.61 349.29 328.26 352.95 335.45 354.72 341 351.05"/><polygon class="cls-8" points="366.32 336.36 360.49 340.23 369.35 342.15 375.11 338.2 366.32 336.36"/><polygon class="cls-8" points="212.98 302.36 216.94 300.31 211.88 299.21 207.53 301.21 212.98 302.36"/><polygon class="cls-8" points="358.45 341.57 353.32 344.98 362.27 347 367.37 343.51 358.45 341.57"/><polygon class="cls-8" points="335.78 356.6 327.22 362.27 336.54 364.64 344.96 358.86 335.78 356.6"/><polygon class="cls-8" points="351.31 346.31 345.32 350.28 354.37 352.42 360.31 348.35 351.31 346.31"/><polygon class="cls-8" points="176.58 317.2 173.86 316.67 164.62 320.92 167.38 321.62 176.58 317.2"/><polygon class="cls-8" points="333.48 356.03 326.33 354.27 318.03 359.93 324.94 361.69 333.48 356.03"/><polygon class="cls-8" points="305.84 349.22 298.36 347.37 289.85 352.76 297.26 354.65 305.84 349.22"/><polygon class="cls-8" points="324.05 353.71 317.59 352.12 317.44 352.22 317.32 352.05 308.19 349.8 299.59 355.24 315.77 359.36 324.05 353.71"/><polygon class="cls-8" points="296.01 346.79 290.08 345.33 281.64 350.68 287.52 352.17 296.01 346.79"/><polygon class="cls-8" points="352.42 353.75 343.33 351.6 337.76 355.29 346.89 357.54 352.42 353.75"/><polygon class="cls-8" points="245.93 309.28 249.78 310.09 253.29 308.17 249.5 307.35 245.93 309.28"/><polygon class="cls-8" points="287.73 344.75 281.69 343.26 273.15 348.52 279.32 350.09 287.73 344.75"/><polygon class="cls-8" points="290.63 318.67 296.5 319.9 299.32 318.12 293.97 316.96 290.63 318.67"/><polygon class="cls-8" points="322.44 346.64 315.69 345.04 310.23 348.5 317.25 350.23 322.44 346.64"/><polygon class="cls-8" points="303.38 342.12 297.39 340.7 292.13 344.04 298.05 345.5 303.38 342.12"/><polygon class="cls-8" points="363.92 335.85 355.79 334.15 350.17 337.98 358.1 339.71 363.92 335.85"/><polygon class="cls-8" points="331.31 348.75 324.73 347.19 319.51 350.79 325.99 352.39 331.31 348.75"/><polygon class="cls-8" points="356.07 341.06 348.18 339.34 343.26 342.7 350.96 344.44 356.07 341.06"/><polygon class="cls-8" points="338.97 343.52 332.24 342 326.66 345.85 333.26 347.42 338.97 343.52"/><polygon class="cls-8" points="348.95 345.78 341.3 344.04 335.56 347.96 342.99 349.72 348.95 345.78"/><polygon class="cls-8" points="313.32 344.48 305.75 342.68 300.4 346.08 307.88 347.92 313.32 344.48"/><polygon class="cls-8" points="247.92 328.96 242.51 327.68 237.58 330.59 243.2 331.97 247.92 328.96"/><polygon class="cls-8" points="255.63 330.79 250.29 329.53 245.54 332.55 250.67 333.81 255.63 330.79"/><polygon class="cls-8" points="240.06 327.1 235.49 326.02 230.88 328.93 235.16 329.99 240.06 327.1"/><polygon class="cls-8" points="286.65 338.15 266.59 333.39 261.55 336.5 281.39 341.39 286.65 338.15"/><polygon class="cls-8" points="295.02 340.14 289.05 338.72 283.77 341.98 289.78 343.46 295.02 340.14"/><polygon class="cls-8" points="264.19 332.82 258.04 331.37 253.06 334.4 259.17 335.91 264.19 332.82"/><polygon class="cls-8" points="267.83 313.88 273.19 315.01 276.67 313.22 271.24 312.05 267.83 313.88"/><polygon class="cls-8" points="275.9 315.58 280.41 316.52 283.75 314.75 279.36 313.8 275.9 315.58"/><polygon class="cls-8" points="283.08 317.08 287.91 318.1 291.27 316.38 286.41 315.33 283.08 317.08"/><polygon class="cls-8" points="298.95 320.42 303.85 321.45 303.84 321.44 306.79 319.74 301.76 318.65 298.95 320.42"/><polygon class="cls-8" points="233.12 325.45 228.07 324.25 223.21 327.04 228.53 328.35 233.12 325.45"/><polygon class="cls-8" points="260.29 312.3 265.18 313.32 268.61 311.48 263.51 310.38 260.29 312.3"/><polygon class="cls-8" points="252.41 310.64 257.77 311.77 261.01 309.84 255.9 308.73 252.41 310.64"/><polygon class="cls-8" points="340.7 329.19 346.07 330.32 348.38 328.73 343.2 327.61 340.7 329.19"/><polygon class="cls-8" points="330.44 327.04 338.25 328.68 340.77 327.08 333.02 325.4 330.44 327.04"/><polygon class="cls-8" points="368.21 333.01 360.04 331.25 357.79 332.78 365.97 334.5 368.21 333.01"/><polygon class="cls-8" points="348.43 330.81 355.42 332.28 357.68 330.74 350.72 329.23 348.43 330.81"/><polygon class="cls-8" points="306.39 321.98 311.24 323 314.14 321.32 309.33 320.28 306.39 321.98"/><polygon class="cls-8" points="313.8 323.54 319.36 324.71 322.01 323.03 316.68 321.87 313.8 323.54"/><polygon class="cls-8" points="321.81 325.22 328 326.52 330.58 324.88 324.45 323.55 321.81 325.22"/><polygon class="cls-9" points="337.93 366.49 337.98 371.86 382.9 341.65 382.9 335.63 337.93 366.49"/><polygon class="cls-9" points="337.98 371.86 161.23 325.95 160.87 321.28 337.93 366.49 337.98 371.86"/><path class="cls-21" d="M583.47,335.33l28,1.1a3.8,3.8,0,0,1,3.67,4.29l-11.27,79.49a3.84,3.84,0,0,1-4.22,3.23l-28.26-2.87a3.8,3.8,0,0,1-3.43-4.3l11.55-77.72A3.83,3.83,0,0,1,583.47,335.33Z" transform="translate(-298.25 -182.13)"/><path class="cls-21" d="M588.8,292.08l31.26-2.69c1.91-.16,3.51,1.16,3.26,2.7l-6.23,37.85a2.82,2.82,0,0,1-2.94,2.08H583.41c-1.79,0-3.17-1.27-2.94-2.71l5.7-35.16A2.76,2.76,0,0,1,588.8,292.08Z" transform="translate(-298.25 -182.13)"/><path class="cls-22" d="M608.4,296.39l-17.5.82c-.71,0-1.3-.31-1.32-.77l0-.58c0-.45.54-.85,1.25-.88l17.49-.82c.71,0,1.31.31,1.33.77l0,.58C609.67,296,609.1,296.36,608.4,296.39Z" transform="translate(-298.25 -182.13)"/><path class="cls-23" d="M617.41,295.94l-4.58.22a1.06,1.06,0,0,1-1.12-1v-.1a1.07,1.07,0,0,1,1-1.12l4.59-.21a1.06,1.06,0,0,1,1.12,1v.1A1.06,1.06,0,0,1,617.41,295.94Z" transform="translate(-298.25 -182.13)"/><path class="cls-22" d="M600.86,302.85l-11.24.54a.83.83,0,0,1-.87-.78l0-.59a.83.83,0,0,1,.79-.86l11.24-.53a.82.82,0,0,1,.87.78l0,.58A.83.83,0,0,1,600.86,302.85Z" transform="translate(-298.25 -182.13)"/><rect class="cls-23" x="602.91" y="300.33" width="6.74" height="2.23" rx="1.06" transform="translate(-311.88 -153.01) rotate(-2.72)"/><path class="cls-22" d="M599.64,309l-11.24.53a.83.83,0,0,1-.87-.78l0-.59a.83.83,0,0,1,.79-.86l11.24-.53a.83.83,0,0,1,.87.78l0,.59A.83.83,0,0,1,599.64,309Z" transform="translate(-298.25 -182.13)"/><path class="cls-23" d="M607.4,308.61l-4.58.21a1.06,1.06,0,0,1-1.12-1v-.1a1.06,1.06,0,0,1,1-1.11l4.59-.22a1.08,1.08,0,0,1,1.12,1v.1A1.07,1.07,0,0,1,607.4,308.61Z" transform="translate(-298.25 -182.13)"/><path class="cls-22" d="M598.94,315l-11.25.54a.83.83,0,0,1-.86-.79l0-.58a.83.83,0,0,1,.79-.86l11.24-.54a.84.84,0,0,1,.87.79l0,.58A.82.82,0,0,1,598.94,315Z" transform="translate(-298.25 -182.13)"/><path class="cls-23" d="M606.7,314.64l-4.59.22a1.08,1.08,0,0,1-1.12-1v-.11a1.07,1.07,0,0,1,1-1.11l4.58-.22a1.08,1.08,0,0,1,1.13,1v.11A1.07,1.07,0,0,1,606.7,314.64Z" transform="translate(-298.25 -182.13)"/><path class="cls-23" d="M614.66,314.29l-4.58.22a1.06,1.06,0,0,1-1.12-1v-.1a1.07,1.07,0,0,1,1-1.12l4.59-.21a1.06,1.06,0,0,1,1.12,1v.1A1.06,1.06,0,0,1,614.66,314.29Z" transform="translate(-298.25 -182.13)"/><rect class="cls-22" x="586.19" y="318.8" width="12.91" height="2.23" rx="0.82" transform="translate(-312.77 -153.63) rotate(-2.72)"/><path class="cls-23" d="M606.09,320.36l-4.59.22a1.07,1.07,0,0,1-1.12-1v-.1a1.07,1.07,0,0,1,1-1.12l4.58-.22a1.07,1.07,0,0,1,1.12,1v.1A1.07,1.07,0,0,1,606.09,320.36Z" transform="translate(-298.25 -182.13)"/><path class="cls-23" d="M614.05,320l-4.58.21a1.07,1.07,0,0,1-1.13-1v-.1a1.06,1.06,0,0,1,1-1.11l4.59-.22a1.07,1.07,0,0,1,1.12,1v.1A1.07,1.07,0,0,1,614.05,320Z" transform="translate(-298.25 -182.13)"/><path class="cls-22" d="M597.46,327.45l-11.25.24a.84.84,0,0,1-.85-.81v-.59a.82.82,0,0,1,.81-.83l11.26-.24a.83.83,0,0,1,.84.81v.59A.82.82,0,0,1,597.46,327.45Z" transform="translate(-298.25 -182.13)"/><path class="cls-23" d="M605.24,327.26l-4.59.1a1.08,1.08,0,0,1-1.1-1v-.11a1.07,1.07,0,0,1,1.05-1.08l4.59-.1a1.07,1.07,0,0,1,1.09,1v.11A1.07,1.07,0,0,1,605.24,327.26Z" transform="translate(-298.25 -182.13)"/><path class="cls-22" d="M600.63,342.86l-16.31-.57c-.66,0-1.19-.41-1.17-.86l0-.59c0-.45.57-.8,1.23-.78l16.32.57c.66,0,1.18.41,1.16.86l0,.59C601.85,342.53,601.29,342.88,600.63,342.86Z" transform="translate(-298.25 -182.13)"/><path class="cls-23" d="M609.05,343.12l-4.28-.14a1,1,0,0,1-1-1.1v-.1a1,1,0,0,1,1-1l4.27.14a1,1,0,0,1,1,1.1v.1A1,1,0,0,1,609.05,343.12Z" transform="translate(-298.25 -182.13)"/><path class="cls-22" d="M593.41,348.61l-10.48-.35a.79.79,0,0,1-.74-.85l0-.58a.82.82,0,0,1,.8-.8l10.49.36a.79.79,0,0,1,.74.84l0,.59A.8.8,0,0,1,593.41,348.61Z" transform="translate(-298.25 -182.13)"/><path class="cls-23" d="M600.66,348.83l-4.28-.15a1,1,0,0,1-1-1.09v-.11a1,1,0,0,1,1-1l4.27.15a1,1,0,0,1,1,1.09v.11A1.06,1.06,0,0,1,600.66,348.83Z" transform="translate(-298.25 -182.13)"/><path class="cls-22" d="M592.73,354.73l-10.49-.35a.8.8,0,0,1-.74-.85l0-.59a.79.79,0,0,1,.8-.79l10.48.35a.79.79,0,0,1,.74.85l0,.58A.82.82,0,0,1,592.73,354.73Z" transform="translate(-298.25 -182.13)"/><path class="cls-23" d="M600,354.94l-4.28-.14a1,1,0,0,1-1-1.1v-.1a1,1,0,0,1,1-1l4.28.14a1,1,0,0,1,1,1.1v.1A1,1,0,0,1,600,354.94Z" transform="translate(-298.25 -182.13)"/><path class="cls-22" d="M591.67,360.59l-10.49-.35a.81.81,0,0,1-.74-.85l0-.59a.79.79,0,0,1,.8-.79l10.49.35a.8.8,0,0,1,.74.85l0,.58A.82.82,0,0,1,591.67,360.59Z" transform="translate(-298.25 -182.13)"/><path class="cls-23" d="M598.91,360.8l-4.28-.14a1,1,0,0,1-1-1.1v-.1a1,1,0,0,1,1-1l4.28.14a1,1,0,0,1,1,1.1v.1A1,1,0,0,1,598.91,360.8Z" transform="translate(-298.25 -182.13)"/><path class="cls-23" d="M606.34,361.08l-4.28-.14a1,1,0,0,1-1-1.1v-.1a1,1,0,0,1,1-1l4.27.14a1,1,0,0,1,1,1.1v.1A1,1,0,0,1,606.34,361.08Z" transform="translate(-298.25 -182.13)"/><path class="cls-22" d="M590.87,366.39,580.39,366a.78.78,0,0,1-.74-.84l0-.59a.8.8,0,0,1,.8-.79l10.49.35a.79.79,0,0,1,.74.85l0,.58A.81.81,0,0,1,590.87,366.39Z" transform="translate(-298.25 -182.13)"/><path class="cls-23" d="M598.12,366.6l-4.28-.15a1,1,0,0,1-1-1.09v-.11a1,1,0,0,1,1-1l4.27.14a1,1,0,0,1,1,1.1v.1A1.06,1.06,0,0,1,598.12,366.6Z" transform="translate(-298.25 -182.13)"/><path class="cls-23" d="M605.54,366.88l-4.28-.14a1,1,0,0,1-1-1.1v-.1a1,1,0,0,1,1-1l4.28.14a1,1,0,0,1,1,1.1v.1A1,1,0,0,1,605.54,366.88Z" transform="translate(-298.25 -182.13)"/><path class="cls-22" d="M589.94,372.8l-10.46-.66a.79.79,0,0,1-.72-.87l0-.58a.8.8,0,0,1,.82-.77l10.47.65a.81.81,0,0,1,.72.87l0,.59A.8.8,0,0,1,589.94,372.8Z" transform="translate(-298.25 -182.13)"/><path class="cls-23" d="M597.18,373.22l-4.27-.27a1,1,0,0,1-.93-1.12v-.1a1,1,0,0,1,1.06-1l4.27.26a1,1,0,0,1,.93,1.13v.1A1,1,0,0,1,597.18,373.22Z" transform="translate(-298.25 -182.13)"/><path class="cls-22" d="M595.35,379.51l-16.28-1.17c-.66,0-1.17-.46-1.14-.91l.05-.58c0-.45.6-.78,1.26-.73l16.28,1.17c.66,0,1.17.46,1.14.91l0,.58C596.57,379.23,596,379.56,595.35,379.51Z" transform="translate(-298.25 -182.13)"/><path class="cls-23" d="M603.74,380.09l-4.27-.3a1,1,0,0,1-.91-1.13v-.11a1,1,0,0,1,1.08-1l4.26.31a1,1,0,0,1,.92,1.13v.1A1,1,0,0,1,603.74,380.09Z" transform="translate(-298.25 -182.13)"/><path class="cls-22" d="M588.32,385.26l-10.46-.75a.79.79,0,0,1-.71-.87l0-.58a.81.81,0,0,1,.84-.77l10.46.74a.8.8,0,0,1,.71.88l-.05.58A.81.81,0,0,1,588.32,385.26Z" transform="translate(-298.25 -182.13)"/><path class="cls-23" d="M595.55,385.74l-4.27-.3a1,1,0,0,1-.91-1.14v-.1a1,1,0,0,1,1.07-1l4.27.31a1,1,0,0,1,.92,1.13v.1A1,1,0,0,1,595.55,385.74Z" transform="translate(-298.25 -182.13)"/><path class="cls-22" d="M587.5,391.09,577,390.35a.8.8,0,0,1-.71-.88l0-.58a.81.81,0,0,1,.83-.77l10.46.75a.79.79,0,0,1,.71.87l0,.58A.82.82,0,0,1,587.5,391.09Z" transform="translate(-298.25 -182.13)"/><path class="cls-23" d="M594.73,391.57l-4.26-.3a1,1,0,0,1-.92-1.13V390a1,1,0,0,1,1.08-1l4.27.31a1,1,0,0,1,.91,1.13v.1A1,1,0,0,1,594.73,391.57Z" transform="translate(-298.25 -182.13)"/><path class="cls-22" d="M584.11,415.73l-10.46-.82a.79.79,0,0,1-.7-.88l0-.58a.8.8,0,0,1,.84-.76l10.45.82a.79.79,0,0,1,.7.88l0,.58A.81.81,0,0,1,584.11,415.73Z" transform="translate(-298.25 -182.13)"/><path class="cls-23" d="M591.33,416.27l-4.26-.34a1,1,0,0,1-.91-1.14v-.1a1,1,0,0,1,1.09-1l4.26.33a1,1,0,0,1,.91,1.14v.11A1,1,0,0,1,591.33,416.27Z" transform="translate(-298.25 -182.13)"/><path class="cls-22" d="M586.61,396.92l-10.46-.74a.81.81,0,0,1-.71-.88l0-.58a.81.81,0,0,1,.83-.77l10.46.75a.79.79,0,0,1,.71.87l0,.58A.82.82,0,0,1,586.61,396.92Z" transform="translate(-298.25 -182.13)"/><path class="cls-23" d="M593.85,397.4l-4.27-.3a1,1,0,0,1-.92-1.13v-.11a1,1,0,0,1,1.08-1l4.27.31a1,1,0,0,1,.91,1.13v.1A1,1,0,0,1,593.85,397.4Z" transform="translate(-298.25 -182.13)"/><path class="cls-23" d="M601.25,398l-4.27-.3a1,1,0,0,1-.91-1.14v-.1a1,1,0,0,1,1.08-1l4.27.31a1,1,0,0,1,.91,1.13v.1A1,1,0,0,1,601.25,398Z" transform="translate(-298.25 -182.13)"/><path class="cls-22" d="M585.88,402.69,575.42,402a.79.79,0,0,1-.71-.88l0-.58a.82.82,0,0,1,.84-.77l10.46.75a.79.79,0,0,1,.71.87l0,.59A.8.8,0,0,1,585.88,402.69Z" transform="translate(-298.25 -182.13)"/><path class="cls-23" d="M593.11,403.17l-4.27-.3a1,1,0,0,1-.91-1.13v-.11a1,1,0,0,1,1.07-1l4.27.3a1,1,0,0,1,.92,1.13v.1A1,1,0,0,1,593.11,403.17Z" transform="translate(-298.25 -182.13)"/><path class="cls-23" d="M600.52,403.73l-4.27-.3a1,1,0,0,1-.91-1.13v-.11a1,1,0,0,1,1.08-1l4.27.31a1,1,0,0,1,.92,1.13v.1A1,1,0,0,1,600.52,403.73Z" transform="translate(-298.25 -182.13)"/><path class="cls-22" d="M585.05,409l-10.46-.83a.79.79,0,0,1-.7-.88l.05-.58a.8.8,0,0,1,.84-.76l10.45.83a.8.8,0,0,1,.71.88l-.05.59A.8.8,0,0,1,585.05,409Z" transform="translate(-298.25 -182.13)"/><path class="cls-23" d="M592.28,409.59l-4.27-.34a1,1,0,0,1-.91-1.14V408a1,1,0,0,1,1.08-1l4.27.34a1,1,0,0,1,.91,1.14v.11A1,1,0,0,1,592.28,409.59Z" transform="translate(-298.25 -182.13)"/><polygon class="cls-24" points="283.29 103.94 525.73 82.56 528.02 61 285.05 89.99 283.29 103.94"/><path class="cls-24" d="M650.42,301a1.38,1.38,0,0,0,.85.22,1.42,1.42,0,0,0,.67-2.62l-4.4-2.8,4-3.38a1.42,1.42,0,0,0-1.84-2.17l-5.45,4.63a1.41,1.41,0,0,0,.16,2.28Z" transform="translate(-298.25 -182.13)"/><path class="cls-24" d="M669.28,294.32l-4,3.38a1.42,1.42,0,0,0,1,2.51,1.39,1.39,0,0,0,.82-.34l5.45-4.63a1.41,1.41,0,0,0-.16-2.28l-6-3.84a1.42,1.42,0,0,0-1.53,2.4Z" transform="translate(-298.25 -182.13)"/><path class="cls-24" d="M656.82,300.77a1.31,1.31,0,0,0,.48.05,1.42,1.42,0,0,0,1.27-1l2.43-8.67a1.43,1.43,0,0,0-2.75-.76L655.83,299A1.42,1.42,0,0,0,656.82,300.77Z" transform="translate(-298.25 -182.13)"/><rect class="cls-24" x="678.14" y="297.57" width="3.02" height="2.09" rx="0.67" transform="translate(-319.27 -128.79) rotate(-4.43)"/><rect class="cls-24" x="683.72" y="297.14" width="3.02" height="2.09" rx="0.54" transform="translate(-319.22 -128.36) rotate(-4.43)"/><rect class="cls-24" x="688.99" y="296.73" width="3.02" height="2.09" rx="0.54" transform="translate(-319.18 -127.95) rotate(-4.43)"/><path class="cls-24" d="M643.43,312l49.63-2.8c.7,0,1,.41.73,1a2.35,2.35,0,0,1-1.8,1.13l-49.63,2.8c-.7,0-1-.4-.73-1A2.37,2.37,0,0,1,643.43,312Z" transform="translate(-298.25 -182.13)"/><path class="cls-24" d="M698,309l108.82-6.11c.7,0,1,.41.73,1a2.35,2.35,0,0,1-1.8,1.13l-108.83,6.11c-.69,0-1-.4-.72-1A2.36,2.36,0,0,1,698,309Z" transform="translate(-298.25 -182.13)"/><path class="cls-24" d="M641.73,320.38l25-1.44c.7,0,1,.4.73,1a2.36,2.36,0,0,1-1.8,1.13l-25,1.44c-.69,0-1-.4-.72-1A2.32,2.32,0,0,1,641.73,320.38Z" transform="translate(-298.25 -182.13)"/><path class="cls-25" d="M641.73,320.38l25-1.44c.7,0,1,.4.73,1a2.36,2.36,0,0,1-1.8,1.13l-25,1.44c-.69,0-1-.4-.72-1A2.32,2.32,0,0,1,641.73,320.38Z" transform="translate(-298.25 -182.13)"/><path class="cls-26" d="M658.21,335.89l135-5.28c.7,0,1,.42.71,1a2.37,2.37,0,0,1-1.82,1.1l-135,5.28c-.7,0-1-.42-.71-1A2.33,2.33,0,0,1,658.21,335.89Z" transform="translate(-298.25 -182.13)"/><path class="cls-24" d="M639.24,336.63l11.7-.46c.7,0,1,.42.71,1a2.32,2.32,0,0,1-1.81,1.1l-11.71.46c-.69,0-1-.42-.71-1A2.37,2.37,0,0,1,639.24,336.63Z" transform="translate(-298.25 -182.13)"/><path class="cls-25" d="M639.24,336.63l11.7-.46c.7,0,1,.42.71,1a2.32,2.32,0,0,1-1.81,1.1l-11.71.46c-.69,0-1-.42-.71-1A2.37,2.37,0,0,1,639.24,336.63Z" transform="translate(-298.25 -182.13)"/><path class="cls-26" d="M656.88,343.76l18.82-1.08c.7,0,1,.4.73,1a2.37,2.37,0,0,1-1.8,1.13l-18.82,1.07c-.7,0-1-.4-.73-1A2.34,2.34,0,0,1,656.88,343.76Z" transform="translate(-298.25 -182.13)"/><path class="cls-24" d="M637.93,344.81l11.69-.65c.7,0,1,.4.73,1a2.32,2.32,0,0,1-1.8,1.13l-11.69.66c-.7,0-1-.4-.73-1A2.36,2.36,0,0,1,637.93,344.81Z" transform="translate(-298.25 -182.13)"/><path class="cls-25" d="M637.93,344.81l11.69-.65c.7,0,1,.4.73,1a2.32,2.32,0,0,1-1.8,1.13l-11.69.66c-.7,0-1-.4-.73-1A2.36,2.36,0,0,1,637.93,344.81Z" transform="translate(-298.25 -182.13)"/><path class="cls-26" d="M655.08,352l18.82-1.08c.7,0,1,.4.73,1a2.36,2.36,0,0,1-1.8,1.13L654,354.06c-.69,0-1-.4-.72-1A2.32,2.32,0,0,1,655.08,352Z" transform="translate(-298.25 -182.13)"/><path class="cls-24" d="M636.13,353l11.69-.66c.7,0,1,.41.73,1a2.35,2.35,0,0,1-1.8,1.13l-11.69.66c-.7,0-1-.41-.73-1A2.33,2.33,0,0,1,636.13,353Z" transform="translate(-298.25 -182.13)"/><path class="cls-25" d="M636.13,353l11.69-.66c.7,0,1,.41.73,1a2.35,2.35,0,0,1-1.8,1.13l-11.69.66c-.7,0-1-.41-.73-1A2.33,2.33,0,0,1,636.13,353Z" transform="translate(-298.25 -182.13)"/><path class="cls-24" d="M659.54,394l133.12,3.73c.86,0,1.2.54.78,1.15a3,3,0,0,1-2.31,1.05L658,396.2c-.86,0-1.2-.54-.78-1.15A3,3,0,0,1,659.54,394Z" transform="translate(-298.25 -182.13)"/><path class="cls-26" d="M631.27,393.07l21.07.87c.78,0,1.09.5.69,1.05a2.75,2.75,0,0,1-2.13.94l-21.07-.87c-.78,0-1.09-.5-.7-1.05A2.72,2.72,0,0,1,631.27,393.07Z" transform="translate(-298.25 -182.13)"/><path class="cls-24" d="M671.64,318.66l15-.81c.7,0,1,.41.73,1a2.36,2.36,0,0,1-1.8,1.13l-15,.81c-.69,0-1-.4-.72-1A2.35,2.35,0,0,1,671.64,318.66Z" transform="translate(-298.25 -182.13)"/><path class="cls-25" d="M671.64,318.66l15-.81c.7,0,1,.41.73,1a2.36,2.36,0,0,1-1.8,1.13l-15,.81c-.69,0-1-.4-.72-1A2.35,2.35,0,0,1,671.64,318.66Z" transform="translate(-298.25 -182.13)"/><path class="cls-6" d="M782.69,358.63l20.4-.25c.95,0,1.44.46,1.09,1.05a3,3,0,0,1-2.35,1.09l-20.4.25c-.95,0-1.44-.46-1.09-1A3,3,0,0,1,782.69,358.63Z" transform="translate(-298.25 -182.13)"/><path class="cls-6" d="M636,361.11l134.31-1.94c.85,0,1.22.44.83,1a3,3,0,0,1-2.23,1.05l-134.31,1.95c-.85,0-1.23-.44-.84-1A3.05,3.05,0,0,1,636,361.11Z" transform="translate(-298.25 -182.13)"/><path class="cls-24" d="M640.74,328.9l11.69-.66c.7,0,1,.41.73,1a2.35,2.35,0,0,1-1.8,1.13l-11.69.65c-.7,0-1-.4-.73-1A2.33,2.33,0,0,1,640.74,328.9Z" transform="translate(-298.25 -182.13)"/><path class="cls-25" d="M640.74,328.9l11.69-.66c.7,0,1,.41.73,1a2.35,2.35,0,0,1-1.8,1.13l-11.69.65c-.7,0-1-.4-.73-1A2.33,2.33,0,0,1,640.74,328.9Z" transform="translate(-298.25 -182.13)"/><path class="cls-24" d="M659.69,327.84l25-1.44c.69,0,1,.41.72,1a2.33,2.33,0,0,1-1.8,1.13l-25,1.44c-.7,0-1-.4-.73-1A2.37,2.37,0,0,1,659.69,327.84Z" transform="translate(-298.25 -182.13)"/><path class="cls-25" d="M659.69,327.84l25-1.44c.69,0,1,.41.72,1a2.33,2.33,0,0,1-1.8,1.13l-25,1.44c-.7,0-1-.4-.73-1A2.37,2.37,0,0,1,659.69,327.84Z" transform="translate(-298.25 -182.13)"/><path class="cls-24" d="M689.6,326.13l100.24-5.57c.7,0,1,.4.73,1a2.36,2.36,0,0,1-1.8,1.13l-100.24,5.57c-.7,0-1-.4-.73-1A2.37,2.37,0,0,1,689.6,326.13Z" transform="translate(-298.25 -182.13)"/><path class="cls-25" d="M689.6,326.13l100.24-5.57c.7,0,1,.4.73,1a2.36,2.36,0,0,1-1.8,1.13l-100.24,5.57c-.7,0-1-.4-.73-1A2.37,2.37,0,0,1,689.6,326.13Z" transform="translate(-298.25 -182.13)"/><path class="cls-24" d="M668.62,381.25l121.94,2.18c.79,0,1.11.48.74,1a2.71,2.71,0,0,1-2.1,1l-121.94-2.18c-.78,0-1.11-.48-.74-1A2.68,2.68,0,0,1,668.62,381.25Z" transform="translate(-298.25 -182.13)"/><path class="cls-24" d="M632.52,381l13.1.25c.78,0,1.11.48.73,1a2.69,2.69,0,0,1-2.1,1l-13.1-.24c-.78,0-1.11-.48-.73-1A2.68,2.68,0,0,1,632.52,381Z" transform="translate(-298.25 -182.13)"/><path class="cls-25" d="M632.52,381l13.1.25c.78,0,1.11.48.73,1a2.69,2.69,0,0,1-2.1,1l-13.1-.24c-.78,0-1.11-.48-.73-1A2.68,2.68,0,0,1,632.52,381Z" transform="translate(-298.25 -182.13)"/><path class="cls-24" d="M650.57,381.15l13.1.24c.78,0,1.11.48.73,1.05a2.69,2.69,0,0,1-2.1,1l-13.1-.24c-.78,0-1.11-.48-.73-1.05A2.69,2.69,0,0,1,650.57,381.15Z" transform="translate(-298.25 -182.13)"/><path class="cls-25" d="M650.57,381.15l13.1.24c.78,0,1.11.48.73,1.05a2.69,2.69,0,0,1-2.1,1l-13.1-.24c-.78,0-1.11-.48-.73-1.05A2.69,2.69,0,0,1,650.57,381.15Z" transform="translate(-298.25 -182.13)"/><path class="cls-6" d="M677.32,370.43l122.8-.33c.78,0,1.12.5.76,1.13a2.63,2.63,0,0,1-2.06,1.15l-122.8.33c-.78,0-1.12-.51-.76-1.14A2.59,2.59,0,0,1,677.32,370.43Z" transform="translate(-298.25 -182.13)"/><path class="cls-24" d="M634,370.9l11.71-.08c.7,0,1,.45.68,1a2.36,2.36,0,0,1-1.86,1l-11.71.09c-.7,0-1-.46-.68-1A2.39,2.39,0,0,1,634,370.9Z" transform="translate(-298.25 -182.13)"/><path class="cls-25" d="M634,370.9l11.71-.08c.7,0,1,.45.68,1a2.36,2.36,0,0,1-1.86,1l-11.71.09c-.7,0-1-.46-.68-1A2.39,2.39,0,0,1,634,370.9Z" transform="translate(-298.25 -182.13)"/><path class="cls-24" d="M655.18,370.64l13.1-.09c.78,0,1.12.45.76,1a2.69,2.69,0,0,1-2.07,1l-13.1.09c-.79,0-1.13-.45-.76-1A2.69,2.69,0,0,1,655.18,370.64Z" transform="translate(-298.25 -182.13)"/><path class="cls-25" d="M655.18,370.64l13.1-.09c.78,0,1.12.45.76,1a2.69,2.69,0,0,1-2.07,1l-13.1.09c-.79,0-1.13-.45-.76-1A2.69,2.69,0,0,1,655.18,370.64Z" transform="translate(-298.25 -182.13)"/><path class="cls-24" d="M628.84,405.7l13.08.72c.78,0,1.08.52.68,1.07a2.8,2.8,0,0,1-2.15.91l-13.08-.72c-.78-.05-1.09-.52-.68-1.07A2.77,2.77,0,0,1,628.84,405.7Z" transform="translate(-298.25 -182.13)"/><path class="cls-25" d="M628.84,405.7l13.08.72c.78,0,1.08.52.68,1.07a2.8,2.8,0,0,1-2.15.91l-13.08-.72c-.78-.05-1.09-.52-.68-1.07A2.77,2.77,0,0,1,628.84,405.7Z" transform="translate(-298.25 -182.13)"/><path class="cls-24" d="M650,406.88l28,1.51c.78,0,1.09.52.68,1.06a2.72,2.72,0,0,1-2.15.91l-28-1.5c-.78-.05-1.08-.52-.68-1.07A2.77,2.77,0,0,1,650,406.88Z" transform="translate(-298.25 -182.13)"/><path class="cls-25" d="M650,406.88l28,1.51c.78,0,1.09.52.68,1.06a2.72,2.72,0,0,1-2.15.91l-28-1.5c-.78-.05-1.08-.52-.68-1.07A2.77,2.77,0,0,1,650,406.88Z" transform="translate(-298.25 -182.13)"/><path class="cls-24" d="M683.5,408.69l112.12,6.23c.78.05,1.09.52.68,1.07a2.75,2.75,0,0,1-2.15.91L682,410.67c-.78-.05-1.08-.52-.68-1.07A2.77,2.77,0,0,1,683.5,408.69Z" transform="translate(-298.25 -182.13)"/><path class="cls-25" d="M683.5,408.69l112.12,6.23c.78.05,1.09.52.68,1.07a2.75,2.75,0,0,1-2.15.91L682,410.67c-.78-.05-1.08-.52-.68-1.07A2.77,2.77,0,0,1,683.5,408.69Z" transform="translate(-298.25 -182.13)"/><path class="cls-24" d="M626.58,417.63l13.08.72c.78,0,1.09.52.68,1.07a2.77,2.77,0,0,1-2.14.91l-13.08-.72c-.78-.05-1.09-.53-.68-1.07A2.7,2.7,0,0,1,626.58,417.63Z" transform="translate(-298.25 -182.13)"/><path class="cls-25" d="M626.58,417.63l13.08.72c.78,0,1.09.52.68,1.07a2.77,2.77,0,0,1-2.14.91l-13.08-.72c-.78-.05-1.09-.53-.68-1.07A2.7,2.7,0,0,1,626.58,417.63Z" transform="translate(-298.25 -182.13)"/><path class="cls-24" d="M647.79,418.81l28,1.5c.78.05,1.08.53.68,1.07a2.74,2.74,0,0,1-2.15.91l-28-1.5c-.78-.05-1.09-.53-.68-1.07A2.72,2.72,0,0,1,647.79,418.81Z" transform="translate(-298.25 -182.13)"/><path class="cls-25" d="M647.79,418.81l28,1.5c.78.05,1.08.53.68,1.07a2.74,2.74,0,0,1-2.15.91l-28-1.5c-.78-.05-1.09-.53-.68-1.07A2.72,2.72,0,0,1,647.79,418.81Z" transform="translate(-298.25 -182.13)"/><path class="cls-24" d="M681.25,420.62l112.12,6.23c.78,0,1.08.52.68,1.07a2.77,2.77,0,0,1-2.15.91L679.78,422.6c-.78-.05-1.09-.53-.68-1.07A2.75,2.75,0,0,1,681.25,420.62Z" transform="translate(-298.25 -182.13)"/><path class="cls-25" d="M681.25,420.62l112.12,6.23c.78,0,1.08.52.68,1.07a2.77,2.77,0,0,1-2.15.91L679.78,422.6c-.78-.05-1.09-.53-.68-1.07A2.75,2.75,0,0,1,681.25,420.62Z" transform="translate(-298.25 -182.13)"/><path class="cls-9" d="M828,507.87l-4.5,37.85c0,7-11.72,12.65-26.18,12.65s-26.19-5.66-26.19-12.65l-4.5-37.85Z" transform="translate(-298.25 -182.13)"/><ellipse class="cls-9" cx="499.05" cy="325.73" rx="30.69" ry="8.69"/><ellipse class="cls-27" cx="499.05" cy="325.73" rx="23.91" ry="6.77"/><path class="cls-28" d="M850,423c-2.85.78-9.36-.32-9.37-.32s2-4.07,2.19-4.32c1.87-2.79,7.12-7.08,10.74-6a4.46,4.46,0,0,1,2.74,6C855.34,420.79,852.45,422.31,850,423Z" transform="translate(-298.25 -182.13)"/><path class="cls-28" d="M783.7,414.83c-.06,0-.56-4.52-.56-4.81,0-3.36,2-9.84,5.62-11a4.46,4.46,0,0,1,5.62,3.52c.54,2.6-1,5.47-2.69,7.36C789.75,412.15,783.71,414.83,783.7,414.83Z" transform="translate(-298.25 -182.13)"/><path class="cls-28" d="M767.63,388.31c3.76.14,7.42,5.85,8.33,9.09.08.28.81,4.79.75,4.78h-.08c.58.89,1.2,1.86,1.85,2.93,1.19,2,2.52,4.25,3.8,6.81a80.73,80.73,0,0,1,3.73,8.44,57.83,57.83,0,0,1,2.8,9.94.49.49,0,0,0,0,.12c.14-1.09.63-4.14.7-4.37.9-3.23,4.55-9,8.31-9.1a4.46,4.46,0,0,1,4.49,4.88c-.17,2.65-2.45,5-4.54,6.39-2.36,1.56-8.42,2.53-8.91,2.6a79.21,79.21,0,0,1,1,10.47c.06,2.05.07,4.11,0,6.17.15-.94.29-1.78.32-1.9.91-3.23,4.56-8.95,8.32-9.1a4.46,4.46,0,0,1,4.48,4.88c-.17,2.66-2.45,5-4.54,6.39s-7.27,2.33-8.64,2.56c0,.79,0,1.58,0,2.38-.1,3.8-.21,7.59-.21,11.32,0,1.31,0,2.6.1,3.89.13-.83.25-1.53.28-1.64.91-3.24,4.56-9,8.32-9.1a4.45,4.45,0,0,1,4.48,4.88c-.16,2.65-2.44,5-4.53,6.38s-6.78,2.25-8.4,2.52c.09,1.33.17,2.65.31,3.93.12.87.17,1.72.34,2.58s.29,1.72.43,2.57c.34,1.62.68,3.29,1,4.86.25,1.09.51,2.13.76,3.18,0-1.31,0-3.87,0-4.08a17.28,17.28,0,0,1,3.51-8,4.65,4.65,0,0,1,.2-1A4.45,4.45,0,0,1,802.4,472c3.46,1.48,4.83,8.12,4.51,11.47,0,.2-.45,2.32-.75,3.65.29-.76.57-1.5.88-2.27.61-1.54,1.26-3.05,2-4.69l1.1-2.35c.35-.8.83-1.59,1.24-2.39,1-1.85,2.09-3.66,3.23-5.47-1.34-.54-6.09-2.51-7.85-4.32s-3.48-4.57-3.08-7.2a4.45,4.45,0,0,1,5.41-3.82c3.65.94,6,7.3,6.2,10.66,0,.21-.11,2.63-.21,4,.7-1.08,1.39-2.16,2.13-3.24,2.14-3.09,4.4-6.15,6.64-9.22.69-.94,1.36-1.88,2-2.82-.48-.19-6.17-2.41-8.14-4.43-1.76-1.8-3.49-4.58-3.09-7.2a4.46,4.46,0,0,1,5.42-3.82c3.64.94,6,7.3,6.2,10.65,0,.26-.17,3.74-.27,4.63,1.5-2.08,3-4.16,4.33-6.27a78.39,78.39,0,0,0,5-8.86c-.22-.09-6.17-2.38-8.19-4.45-1.75-1.8-3.49-4.58-3.09-7.2a4.46,4.46,0,0,1,5.42-3.82c3.64.93,6,7.3,6.2,10.65,0,.22-.13,2.88-.22,4.14l.2.05a57.24,57.24,0,0,0,3.34-9.67c.48-1.82.83-3.58,1.13-5.31-1.15-.31-6.4-1.8-8.42-3.46s-4-4.17-3.86-6.82a4.45,4.45,0,0,1,5-4.39c3.73.53,6.77,6.6,7.34,9.91,0,.18.14,2,.2,3.4.13-.78.27-1.58.38-2.33.4-2.82.6-5.42.75-7.73.08-1.31.12-2.5.15-3.62-1-.89-4.84-4.56-5.84-6.92s-1.6-5.52-.28-7.83a4.44,4.44,0,0,1,6.42-1.61c3.06,2.19,3,9,2,12.17-.09.28-2,4.45-2,4.4l-.06-.05c0,1.07,0,2.22-.08,3.47-.1,2.32-.24,4.93-.58,7.77a80.17,80.17,0,0,1-1.54,9.1,57.71,57.71,0,0,1-3.16,9.83s0,.07,0,.11c.72-.83,2.81-3.1,3-3.26,2.54-2.2,8.74-5,12-3a4.45,4.45,0,0,1,1,6.54c-1.6,2.12-4.8,2.82-7.31,2.82-2.83,0-8.41-2.53-8.86-2.74a77.09,77.09,0,0,1-5,9.28c-1.07,1.74-2.2,3.46-3.36,5.17.65-.7,1.23-1.32,1.32-1.4,2.54-2.2,8.74-5,12-3a4.45,4.45,0,0,1,1,6.54c-1.6,2.12-4.8,2.82-7.31,2.82s-7.35-2.06-8.61-2.63c-.46.65-.9,1.31-1.35,2-2.18,3.12-4.37,6.22-6.42,9.33-.72,1.1-1.39,2.2-2.07,3.3.58-.62,1.06-1.14,1.15-1.21,2.54-2.2,8.74-5,12-3a4.44,4.44,0,0,1,1,6.54c-1.6,2.12-4.8,2.82-7.31,2.82s-6.88-1.87-8.39-2.53c-.66,1.15-1.32,2.3-1.9,3.45-.39.79-.81,1.52-1.15,2.34l-1,2.38c-.61,1.53-1.26,3.11-1.81,4.63-.4,1.05-.76,2.05-1.13,3.07.71-1.1,2.14-3.22,2.28-3.39,2.18-2.55,7.89-6.22,11.37-4.78a4.46,4.46,0,0,1,2,6.31c-1.26,2.34-4.31,3.52-6.79,3.9-2.74.42-8.42-1.15-9.13-1.35-.6,1.68-1.16,3.32-1.67,4.87-1.76,5.34-3,9.86-3.87,13.05l-2.53-.37.06-.21c.93-3.21,2.32-7.78,4.23-13.19.6-1.7,1.27-3.52,2-5.37A49.6,49.6,0,0,1,801,485c-2.2,1.79-7.44,3.5-8.12,3.72.43,1.73.86,3.41,1.3,5,1.48,5.43,2.91,9.89,4,13l-2.77-.4c-.95-3.09-2.14-7.2-3.35-12.05-.44-1.76-.88-3.64-1.31-5.58-.72,0-6.62.37-9.2-.62-2.35-.89-5.08-2.69-5.82-5.24a4.46,4.46,0,0,1,3.32-5.74c3.7-.67,8.5,4.12,10.09,7.08.09.17.9,2.18,1.38,3.46-.17-.8-.34-1.56-.51-2.38-.34-1.62-.63-3.24-1-5-.13-.85-.26-1.71-.38-2.57s-.19-1.78-.29-2.68c-.19-2.08-.28-4.21-.32-6.35-1.42.3-6.47,1.27-8.93.74s-5.43-1.9-6.54-4.31A4.45,4.45,0,0,1,775,459c3.55-1.23,9,2.78,11,5.47.12.16,1.35,2.26,2,3.42,0-1.29,0-2.57,0-3.88.07-3.75.27-7.56.45-11.35,0-1.16.09-2.32.14-3.48-.5.11-6.48,1.4-9.24.8-2.45-.54-5.43-1.9-6.54-4.31a4.45,4.45,0,0,1,2.41-6.17c3.55-1.23,9,2.78,11,5.47.15.2,1.92,3.21,2.33,4,.1-2.56.17-5.1.14-7.62a78.06,78.06,0,0,0-.72-10.14c-.23,0-6.46,1.42-9.29.81-2.45-.53-5.43-1.9-6.54-4.31a4.45,4.45,0,0,1,2.41-6.17c3.55-1.23,9,2.78,11.05,5.47.13.17,1.48,2.46,2.09,3.57l.21-.07a57.8,57.8,0,0,0-2.55-9.9c-.61-1.78-1.29-3.45-2-5.06-1.13.38-6.33,2-8.94,1.76s-5.6-1.29-7-3.56a4.45,4.45,0,0,1,1.71-6.4c3.4-1.61,9.28,1.77,11.58,4.22.13.13,1.25,1.63,2,2.73-.32-.72-.65-1.47-1-2.16-1.22-2.57-2.49-4.85-3.64-6.86-.66-1.14-1.28-2.15-1.87-3.1-1.3-.21-6.55-1.14-8.69-2.55s-4.38-3.73-4.55-6.38A4.45,4.45,0,0,1,767.63,388.31Z" transform="translate(-298.25 -182.13)"/><rect class="cls-20" x="506.76" y="69.07" width="7.4" height="7.4" rx="3.7"/><rect class="cls-20" x="492.19" y="70.86" width="7.4" height="7.4" rx="3.7"/><rect class="cls-20" x="476.94" y="72.77" width="7.4" height="7.4" rx="3.7"/></g></svg>