<svg id="Layer_1" data-name="Layer 1" xmlns="http://www.w3.org/2000/svg" viewBox="0 0 704.43 394.15"><defs><style>.cls-1,.cls-12,.cls-8{fill:#02dac5;}.cls-1{opacity:0.08;}.cls-18,.cls-2,.cls-4{fill:#263238;}.cls-10,.cls-15,.cls-16,.cls-20,.cls-21,.cls-3,.cls-31,.cls-44,.cls-45,.cls-47,.cls-49,.cls-53{fill:#fff;}.cls-20,.cls-21,.cls-3,.cls-4,.cls-6,.cls-7{stroke:#263238;}.cls-18,.cls-20,.cls-3,.cls-4,.cls-7{stroke-linecap:round;stroke-linejoin:round;}.cls-21,.cls-22,.cls-3,.cls-4,.cls-6,.cls-7{stroke-width:0.97px;}.cls-5{fill:#92e3a9;}.cls-17,.cls-22,.cls-24,.cls-29,.cls-6,.cls-7{fill:none;}.cls-17,.cls-21,.cls-22,.cls-24,.cls-29,.cls-6,.cls-8{stroke-miterlimit:10;}.cls-17,.cls-18,.cls-22,.cls-8{stroke:#fff;}.cls-8{stroke-width:0.25px;}.cls-9{fill:#ff725e;}.cls-10,.cls-12,.cls-13,.cls-15,.cls-16,.cls-37,.cls-38,.cls-39,.cls-40,.cls-41,.cls-44,.cls-45,.cls-47,.cls-49{isolation:isolate;}.cls-10,.cls-12,.cls-13{opacity:0.3;}.cls-11{fill:#00799c;}.cls-14{fill:#455a64;}.cls-15{opacity:0.2;}.cls-16{opacity:0.1;}.cls-17,.cls-18{stroke-width:0.5px;}.cls-19{fill:#3c464c;}.cls-20{stroke-width:1.06px;}.cls-23{opacity:0.12;}.cls-24{stroke:#000;}.cls-24,.cls-29{stroke-width:0.75px;}.cls-25{fill:#c7d0e6;}.cls-26{fill:#20293a;}.cls-27{fill:#181f2b;}.cls-28{fill:#85e8ff;}.cls-29{stroke:#464e61;}.cls-30{fill:#464e61;}.cls-32{fill:#fefefe;}.cls-33{fill:#71abff;}.cls-34{fill:#ffa64d;}.cls-35{fill:#99a2b8;}.cls-36{opacity:0.05;}.cls-37,.cls-39,.cls-40,.cls-41,.cls-44,.cls-53{font-size:17.08px;}.cls-37,.cls-39,.cls-40,.cls-41,.cls-44,.cls-45,.cls-47,.cls-49,.cls-53{font-family:ArialMT, Arial;}.cls-39{letter-spacing:-0.11em;}.cls-40{letter-spacing:-0.06em;}.cls-41{letter-spacing:-0.06em;}.cls-42{letter-spacing:-0.04em;}.cls-43{letter-spacing:-0.02em;}.cls-45{font-size:14px;}.cls-46{letter-spacing:-0.04em;}.cls-47{font-size:11px;}.cls-48{letter-spacing:-0.02em;}.cls-49{font-size:13px;}.cls-50{opacity:0.09;}.cls-51{fill:#ff4d6b;}.cls-52{fill:#f9fbfc;}</style></defs><g id="Background_Simple" data-name="Background Simple"><path class="cls-1" d="M702.76,635.23c-26.18-46.44-80.85-70.25-135.44-73.42-60.51-3.52-115.62,15.61-156,57.71-16,16.68-30.41,34.68-48.14,49.87-30.48,26.11-68.71,47.52-95.33,77.05-33.64,37.35-38.27,96.06.22,131.88,13.35,12.42,29.89,21.5,46.9,29.06,41.93,18.61,87.77,28.69,133.87,34.2,52,6.21,106.15,6.54,155.15-10.64,108.15-37.93,137-162.12,113.44-258A149.35,149.35,0,0,0,702.76,635.23Z" transform="translate(-166.88 -561.4)"/></g><ellipse class="cls-2" cx="624.7" cy="346.24" rx="32.14" ry="8.95"/><path class="cls-3" d="M783.34,908.31h15.75A18.93,18.93,0,0,0,818,891.08l4.73-52.62h-63l4.74,52.62A18.92,18.92,0,0,0,783.34,908.31Z" transform="translate(-166.88 -561.4)"/><path class="cls-3" d="M783.34,908.31h15.75A18.93,18.93,0,0,0,818,891.08l4.73-52.62h-63l4.74,52.62A18.92,18.92,0,0,0,783.34,908.31Z" transform="translate(-166.88 -561.4)"/><path class="cls-4" d="M764.48,891.08l-.26-2.8,29,5.27-24.37,7.94A18.72,18.72,0,0,1,764.48,891.08Z" transform="translate(-166.88 -561.4)"/><polygon class="cls-4" points="651.08 329.7 622.37 317.4 653.86 298.82 651.08 329.7"/><polygon class="cls-4" points="630.23 297.72 595.96 311.57 593.32 282.27 630.23 297.72"/><path class="cls-3" d="M760.48,838.48c0,2.34,13.73,4.23,30.66,4.23s30.67-1.89,30.67-4.23-13.73-4.24-30.67-4.24S760.48,836.12,760.48,838.48Z" transform="translate(-166.88 -561.4)"/><path class="cls-4" d="M791.14,842.71c-11.92,0-22.24-.93-27.27-2.31,3-1.91,15.27-3.34,30-3.34,11.92,0,22.25.94,27.33,2.32C818.17,841.29,805.84,842.71,791.14,842.71Z" transform="translate(-166.88 -561.4)"/><path class="cls-2" d="M823.41,781.27a1.1,1.1,0,0,0-1.44-.38l-21.36,12.37,11.07-21.92a1.09,1.09,0,0,0-.11-1.54,1.08,1.08,0,0,0-1.53.1,1,1,0,0,0-.25.49L799.88,790c.55-17.76-1.56-38.64-2.68-49.7-.38-3.76-.65-6.47-.65-7.38a1.09,1.09,0,1,0-2.11,0c0,1,.27,3.64.67,7.64,1.19,11.82,3.53,35,2.51,53.25L778.3,770.92a1.09,1.09,0,0,0-1.49.41,1.1,1.1,0,0,0-.09.87l20.57,24.43h0v.07h.08a65.75,65.75,0,0,1-2.39,14l-15.27-14.81a1.1,1.1,0,0,0-1.5-.39,1.09,1.09,0,0,0-.38,1.49,1.05,1.05,0,0,0,.41.4l16,15.5a70.55,70.55,0,0,0-2.56,8.78h-.06l-18.8-10a1.09,1.09,0,1,0-1.51,1.58,1,1,0,0,0,.51.27l19.29,10.29.13.05a63.88,63.88,0,0,0-1,14.54,1.1,1.1,0,0,0,1.09,1h0a1.11,1.11,0,0,0,1-1.1,61.11,61.11,0,0,1,1.2-15.2l16.53-8.27a1.09,1.09,0,1,0-.43-2.14,1,1,0,0,0-.5.26l-15,7.59a66.57,66.57,0,0,1,2.32-7.47c1.64-4.37,2.59-10.2,3.07-16.74L823,782.67A1.08,1.08,0,0,0,823.41,781.27Z" transform="translate(-166.88 -561.4)"/><path class="cls-5" d="M797.44,764.21s11.8-10.32,13.29-19.92-3.7-16.24-2.18-20.67,5.9-11.81,2.18-17.72S788.58,686,788.58,686a35.24,35.24,0,0,1-4.43,13.29c-3.69,5.9-1.48,13.29,0,18.46s-8.12,11.07-2.95,18.45,5.16,8.12,5.16,14S789.33,762.74,797.44,764.21Z" transform="translate(-166.88 -561.4)"/><path class="cls-5" d="M784.9,779.71a12.73,12.73,0,0,0-1.47-11.07c-3.7-5.16-7.39-2.18-8.86-8.11s-3.7-9.6-7.38-12.56-3.7-2.18-6.65-4.42-3.69-5.16-6.64-7.38-9.6-2.95-9.6-2.95,2.18,5.9,2.18,9.59-3,9.59,1.48,14,8.12,3,11.07,8.13S766.44,779,784.9,779.71Z" transform="translate(-166.88 -561.4)"/><path class="cls-5" d="M786.37,802.6s.74-9.59-8.11-13.29-10.34-14-19.93-16.24-17,0-17.72,5.91a128.36,128.36,0,0,0-.74,13.29s4.43-7.39,8.86-6.64,7.39,0,12.54,8.11S779,807,786.37,802.6Z" transform="translate(-166.88 -561.4)"/><path class="cls-5" d="M782.69,818.84c-2.19-.73-6.65-14.76-19.93-16.24s-31,4.44-31,4.44,8.12,4.42,19.94,10.33S782.69,818.84,782.69,818.84Z" transform="translate(-166.88 -561.4)"/><path class="cls-5" d="M798.93,818.11s5.9-14,15.5-17,12.55,1.48,17.71,5.17S841,812.2,841,812.2s-5.91-2.19-11.81,3.69-14,7.38-21.41,6.65S798.93,818.11,798.93,818.11Z" transform="translate(-166.88 -561.4)"/><path class="cls-5" d="M813,787.1s0-3.69,4.43-11.81,5.15-16.23,14-17.71,9.59-2.18,14.76-5.9,17.71,3,20.72,5.9a38.27,38.27,0,0,1,4.43,5.17s-9.6-.74-13.29,3.69-11.81,8.13-15.5,9.6-7.38-1.47-11.07,4.43S824.77,788.58,813,787.1Z" transform="translate(-166.88 -561.4)"/><path class="cls-5" d="M807,776.77s-6.64-11.07-3.69-17,8.86-8.12,8.12-11.82-3.69-8.11,0-13.28,6.7-3,11.06-5.9a134.61,134.61,0,0,0,11.07-8.86s1.47,15.5,0,22.91-5.91,8.11-5.91,14-3,9.6-6.64,14S807,776.77,807,776.77Z" transform="translate(-166.88 -561.4)"/><line class="cls-6" x1="586.56" y1="183.88" x2="583.03" y2="180.02"/><line class="cls-6" x1="618.02" y1="218.32" x2="591.62" y2="189.42"/><path class="cls-7" d="M793.69,700.31a36.13,36.13,0,0,0-1.23-4.36" transform="translate(-166.88 -561.4)"/><path class="cls-7" d="M797.44,764.21s.59-34.8-2.43-56.43" transform="translate(-166.88 -561.4)"/><line class="cls-6" x1="661.06" y1="172.64" x2="663.37" y2="167.91"/><line class="cls-6" x1="640.16" y1="215.36" x2="657.74" y2="179.42"/><path class="cls-6" d="M853.33,758.85a18.84,18.84,0,0,1,2.6-.19h5.13" transform="translate(-166.88 -561.4)"/><path class="cls-6" d="M813,787.1c1.16.18,7.76-8.63,19.13-17.45a67.06,67.06,0,0,1,13.73-8.57" transform="translate(-166.88 -561.4)"/><path class="cls-6" d="M742.28,783.16a9.12,9.12,0,0,0-1.54,4.48" transform="translate(-166.88 -561.4)"/><path class="cls-6" d="M786.37,802.6s-6.38-1-17.76-12.75c-10.56-10.91-19.22-12.32-23.35-9.82" transform="translate(-166.88 -561.4)"/><path class="cls-6" d="M827,807.88c1.77.29,3.35.73,4.71,1.09" transform="translate(-166.88 -561.4)"/><path class="cls-6" d="M798.93,818.11s2.34,1.09,11.5-5.88A21.4,21.4,0,0,1,821,807.67" transform="translate(-166.88 -561.4)"/><path class="cls-6" d="M742.58,807.65c-3.17,0-5.14.17-5.14.17" transform="translate(-166.88 -561.4)"/><path class="cls-6" d="M782.69,818.84s-1.23-1.47-15.54-7a67.92,67.92,0,0,0-19.41-4" transform="translate(-166.88 -561.4)"/><polygon class="cls-2" points="0 347.7 0 71.15 7.25 63.31 113.08 63.31 119.72 70.27 119.72 346.93 103.81 363.57 11.6 363.57 0 347.7"/><line class="cls-8" x1="11.57" y1="363.41" x2="27.81" y2="363.41"/><ellipse class="cls-9" cx="57.77" cy="312.09" rx="31.01" ry="32.44"/><path class="cls-10" d="M219.71,866c.42-.31-14-18.22-14-18.22a30.46,30.46,0,0,0-11,17.28l22,5.09Z" transform="translate(-166.88 -561.4)"/><ellipse class="cls-2" cx="57.77" cy="312.09" rx="8.77" ry="9.18"/><ellipse class="cls-11" cx="59.86" cy="159.43" rx="31.01" ry="32.44"/><path class="cls-12" d="M229.53,729.53c-.49.15,7.93,21.74,7.93,21.74A33.35,33.35,0,0,0,253,738.15l-19.34-11.62Z" transform="translate(-166.88 -561.4)"/><ellipse class="cls-2" cx="59.86" cy="159.43" rx="8.77" ry="9.18"/><ellipse class="cls-11" cx="59.86" cy="233.52" rx="31.01" ry="32.44"/><path class="cls-12" d="M219.61,800.09c-.29-.45-17.41,14.66-17.41,14.66a29.48,29.48,0,0,0,16.52,11.52l4.85-23Z" transform="translate(-166.88 -561.4)"/><ellipse class="cls-2" cx="59.86" cy="233.52" rx="8.77" ry="9.18"/><ellipse class="cls-11" cx="57.77" cy="312.09" rx="31.01" ry="32.44"/><path class="cls-11" d="M219.71,866c.42-.31-14-18.22-14-18.22a30.46,30.46,0,0,0-11,17.28l22,5.09Z" transform="translate(-166.88 -561.4)"/><ellipse class="cls-2" cx="57.77" cy="312.09" rx="8.77" ry="9.18"/><polygon class="cls-13" points="27.81 363.57 41.9 317.09 119.72 247.55 119.72 331.46 34.88 363.57 27.81 363.57"/><path class="cls-14" d="M166.9,632.56l56.7,68.94L234.83,667,280,624.72H174.13C172.3,626.69,166.9,632.56,166.9,632.56Z" transform="translate(-166.88 -561.4)"/><path class="cls-14" d="M223.58,701.5c.17,1.41-48.19,219.25-48.19,219.25L166.9,909.1V632.56Z" transform="translate(-166.88 -561.4)"/><polygon class="cls-2" points="0 142.13 10.07 154.51 10.07 269.64 0 283.7 0 142.13"/><polygon class="cls-14" points="33.27 363.57 45.32 326.51 119.72 260.6 119.72 346.93 103.81 363.57 33.27 363.57"/><polygon class="cls-9" points="45.32 326.51 47.16 320.39 119.72 254.8 119.72 260.6 45.32 326.51"/><path class="cls-15" d="M166.9,632.56l56.87,68.94L235,667l45.13-42.31h-106C172.3,626.69,166.9,632.56,166.9,632.56Z" transform="translate(-166.88 -561.4)"/><rect class="cls-9" x="3.43" y="233.52" width="1.61" height="25.3"/><polygon class="cls-13" points="10.07 187.45 0 199.38 0 211.05 10.07 199.25 10.07 187.45"/><polygon class="cls-13" points="10.07 183.75 0 195.59 0 190.66 10.07 178.78 10.07 183.75"/><polygon class="cls-15" points="119.72 161.89 37.79 227.07 10.07 212.66 10.07 233.52 33.27 247.55 119.72 175.78 119.72 161.89"/><polygon class="cls-15" points="119.72 184.74 30.38 260.6 10.07 244.78 10.07 250.54 29.2 265.96 119.72 189.98 119.72 184.74"/><path class="cls-9" d="M260.15,731.14a19.93,19.93,0,0,1,.78-2.07,33.66,33.66,0,0,0,1.63-5.75A34.36,34.36,0,0,0,260.73,704a32,32,0,0,0-12.63-14.92,38.5,38.5,0,0,0-7.53-3.51,2.37,2.37,0,0,1,.57.1c.55.13,1.09.28,1.62.46a28.53,28.53,0,0,1,5.58,2.58,31.51,31.51,0,0,1,12.93,15.06,33.65,33.65,0,0,1,1.8,19.63,29.82,29.82,0,0,1-1.83,5.75c-.27.66-.55,1.15-.72,1.49A1.59,1.59,0,0,1,260.15,731.14Z" transform="translate(-166.88 -561.4)"/><polygon class="cls-16" points="0 304.5 17.82 317.35 119.72 228.63 119.72 238.42 15.79 326.51 0 315.38 0 304.5"/><polygon class="cls-13" points="11.6 363.57 62.62 140.1 73.77 108.95 116.44 66.83 113.24 63.31 68.1 105.62 56.86 140.1 8.51 359.35 11.6 363.57"/><path class="cls-9" d="M223.75,701.5c-.14.11-13-15.24-28.68-34.28s-28.32-34.56-28.17-34.66,13,15.18,28.68,34.28S223.88,701.4,223.75,701.5Z" transform="translate(-166.88 -561.4)"/><polyline class="cls-17" points="112.99 63.31 119.47 70.27 119.47 254.8"/><polygon class="cls-9" points="119.72 254.8 118.71 254.8 47.44 318.91 45.32 326.51 119.72 260.6 119.72 254.8"/><rect class="cls-18" x="155.43" y="27.77" width="376.48" height="236.28" rx="7.3"/><rect class="cls-11" x="170.52" y="39.31" width="348.78" height="201.89"/><path class="cls-4" d="M594.35,874a6.14,6.14,0,0,1-6.14,6.14H432.87a6.14,6.14,0,1,1,0-12.28H488l7.64-14h29.84l7.64,14h55.14A6.14,6.14,0,0,1,594.35,874Z" transform="translate(-166.88 -561.4)"/><path class="cls-19" d="M669.48,916.83H328.36c-1.72,0-3.11,1.09-3.11,2.35v2.19c0,1.29,1.39,2.35,3.11,2.35H669.48c1.72,0,3.12-1.09,3.12-2.35v-2.19C672.6,917.92,671.2,916.83,669.48,916.83Z" transform="translate(-166.88 -561.4)"/><path class="cls-2" d="M671.94,917.73l-35.76-31.44c-1-.87-4.23-1.34-6.77-1.34h-261c-2.54,0-5.78.47-6.77,1.34l-35.77,31.5c-.68.61-.52,1.09-.37,1.39.5.83,2.35,1.3,5.06,1.3H667.26c2.71,0,4.55-.47,5-1.3C672.48,918.87,672.63,918.35,671.94,917.73Z" transform="translate(-166.88 -561.4)"/><polygon class="cls-20" points="334.8 324.62 319.34 324.62 318.9 328.73 334.88 328.73 334.8 324.62"/><polygon class="cls-20" points="297.49 324.62 282.04 324.62 280.33 328.73 296.31 328.73 297.49 324.62"/><polygon class="cls-20" points="353.44 324.62 337.98 324.62 338.19 328.73 354.18 328.73 353.44 324.62"/><polygon class="cls-20" points="260.2 324.62 244.74 324.62 241.75 328.73 257.74 328.73 260.2 324.62"/><polygon class="cls-20" points="278.84 324.62 263.39 324.62 261.03 328.73 277.02 328.73 278.84 324.62"/><polygon class="cls-20" points="222.45 328.73 238.44 328.73 241.55 324.62 226.09 324.62 222.45 328.73"/><polygon class="cls-20" points="316.15 324.62 300.69 324.62 299.61 328.73 315.6 328.73 316.15 324.62"/><polygon class="cls-20" points="372.09 324.62 356.63 324.62 357.48 328.73 373.46 328.73 372.09 324.62"/><polygon class="cls-20" points="222.9 324.62 199.36 324.62 194.81 328.73 219.16 328.73 222.9 324.62"/><polygon class="cls-20" points="449.88 324.62 453.93 328.73 470.43 328.73 465.84 324.62 449.88 324.62"/><polygon class="cls-20" points="446.68 324.62 431.23 324.62 434.64 328.73 450.62 328.73 446.68 324.62"/><polygon class="cls-20" points="428.04 324.62 412.59 324.62 415.35 328.73 431.34 328.73 428.04 324.62"/><polygon class="cls-20" points="390.74 324.62 375.29 324.62 376.77 328.73 392.76 328.73 390.74 324.62"/><polygon class="cls-20" points="409.39 324.62 393.94 324.62 396.06 328.73 412.04 328.73 409.39 324.62"/><polygon class="cls-20" points="286.4 329.14 270.32 329.14 268.12 333.58 284.77 333.58 286.4 329.14"/><polygon class="cls-20" points="305.78 329.14 289.71 329.14 288.2 333.58 304.85 333.58 305.78 329.14"/><polygon class="cls-20" points="325.17 329.14 309.1 329.14 308.28 333.58 324.93 333.58 325.17 329.14"/><polygon class="cls-20" points="247.63 329.14 231.55 329.14 227.96 333.58 244.62 333.58 247.63 329.14"/><polygon class="cls-20" points="207.88 333.58 224.54 333.58 228.23 329.14 212.16 329.14 207.88 333.58"/><polygon class="cls-20" points="344.56 329.14 328.48 329.14 328.36 333.58 345.01 333.58 344.56 329.14"/><polygon class="cls-20" points="267.01 329.14 250.93 329.14 248.04 333.58 264.7 333.58 267.01 329.14"/><polygon class="cls-20" points="441.49 329.14 425.42 329.14 428.75 333.58 445.4 333.58 441.49 329.14"/><polygon class="cls-20" points="208.85 329.14 194.35 329.14 189.45 333.58 204.46 333.58 208.85 329.14"/><polygon class="cls-20" points="444.81 329.14 448.83 333.58 475.84 333.58 470.89 329.14 444.81 329.14"/><polygon class="cls-20" points="422.11 329.14 406.03 329.14 408.67 333.58 425.32 333.58 422.11 329.14"/><polygon class="cls-20" points="363.94 329.14 347.88 329.14 348.43 333.58 365.09 333.58 363.94 329.14"/><polygon class="cls-20" points="383.33 329.14 367.26 329.14 368.51 333.58 385.17 333.58 383.33 329.14"/><polygon class="cls-20" points="402.72 329.14 386.64 329.14 388.59 333.58 405.24 333.58 402.72 329.14"/><polygon class="cls-20" points="376.07 351.26 265.79 351.26 263 357.46 377.94 357.46 376.07 351.26"/><polygon class="cls-20" points="261.88 351.26 237.28 351.26 233.27 357.46 258.93 357.46 261.88 351.26"/><polygon class="cls-20" points="400.19 351.26 379.98 351.26 382 357.46 403.07 357.46 400.19 351.26"/><polygon class="cls-20" points="186.49 357.46 206.45 357.46 211.54 351.26 192.39 351.26 186.49 357.46"/><polygon class="cls-20" points="233.38 351.26 215.44 351.26 210.52 357.46 229.22 357.46 233.38 351.26"/><polygon class="cls-20" points="188.49 351.26 169.9 351.26 163.05 357.46 182.42 357.46 188.49 351.26"/><polygon class="cls-20" points="424.3 351.26 404.08 351.26 407.13 357.46 428.2 357.46 424.3 351.26"/><polygon class="cls-20" points="476.42 351.26 482.52 357.46 502.48 357.46 495.56 351.26 476.42 351.26"/><polygon class="cls-20" points="448.41 351.26 428.2 351.26 432.26 357.46 453.33 357.46 448.41 351.26"/><polygon class="cls-20" points="472.52 351.26 452.31 351.26 457.39 357.46 478.46 357.46 472.52 351.26"/><polygon class="cls-20" points="308.6 345.03 290.55 345.03 288.88 350.7 307.65 350.7 308.6 345.03"/><polygon class="cls-20" points="352.15 345.03 334.11 345.03 334.2 350.7 352.97 350.7 352.15 345.03"/><polygon class="cls-20" points="286.82 345.03 268.78 345.03 266.22 350.7 285 350.7 286.82 345.03"/><polygon class="cls-20" points="243.26 345.03 225.21 345.03 220.9 350.7 239.68 350.7 243.26 345.03"/><polygon class="cls-20" points="198.24 350.7 217.02 350.7 221.48 345.03 203.44 345.03 198.24 350.7"/><polygon class="cls-20" points="265.03 345.03 246.99 345.03 243.56 350.7 262.33 350.7 265.03 345.03"/><polygon class="cls-20" points="330.38 345.03 312.33 345.03 311.53 350.7 330.31 350.7 330.38 345.03"/><polygon class="cls-20" points="199.7 345.03 176.79 345.03 170.52 350.7 194.35 350.7 199.7 345.03"/><polygon class="cls-20" points="439.27 345.03 421.23 345.03 424.83 350.7 443.61 350.7 439.27 345.03"/><polygon class="cls-20" points="443.01 345.03 447.49 350.7 494.94 350.7 488.6 345.03 443.01 345.03"/><polygon class="cls-20" points="373.93 345.03 355.89 345.03 356.85 350.7 375.62 350.7 373.93 345.03"/><polygon class="cls-20" points="395.71 345.03 377.66 345.03 379.52 350.7 398.29 350.7 395.71 345.03"/><polygon class="cls-20" points="417.5 345.03 399.44 345.03 402.17 350.7 420.94 350.7 417.5 345.03"/><polygon class="cls-20" points="320.03 339.3 302.68 339.3 301.54 344.51 319.57 344.51 320.03 339.3"/><polygon class="cls-20" points="340.98 339.3 323.62 339.3 323.29 344.51 341.33 344.51 340.98 339.3"/><polygon class="cls-20" points="299.09 339.3 281.72 339.3 279.78 344.51 297.81 344.51 299.09 339.3"/><polygon class="cls-20" points="278.14 339.3 260.78 339.3 258.03 344.51 276.06 344.51 278.14 339.3"/><polygon class="cls-20" points="257.2 339.3 239.84 339.3 236.27 344.51 254.31 344.51 257.2 339.3"/><polygon class="cls-20" points="214.52 344.51 232.55 344.51 236.26 339.3 218.9 339.3 214.52 344.51"/><polygon class="cls-20" points="361.92 339.3 344.56 339.3 345.05 344.51 363.08 344.51 361.92 339.3"/><polygon class="cls-20" points="215.31 339.3 183.13 339.3 177.37 344.51 210.8 344.51 215.31 339.3"/><polygon class="cls-20" points="466.64 339.3 449.28 339.3 453.82 344.51 471.85 344.51 466.64 339.3"/><polygon class="cls-20" points="382.87 339.3 365.5 339.3 366.8 344.51 384.84 344.51 382.87 339.3"/><polygon class="cls-20" points="445.7 339.3 428.34 339.3 432.07 344.51 450.1 344.51 445.7 339.3"/><polygon class="cls-20" points="403.81 339.3 386.44 339.3 388.56 344.51 406.59 344.51 403.81 339.3"/><polygon class="cls-20" points="424.75 339.3 407.4 339.3 410.31 344.51 428.34 344.51 424.75 339.3"/><polygon class="cls-20" points="296.09 338.82 313.04 338.82 313.73 334.02 297.37 334.02 296.09 338.82"/><polygon class="cls-20" points="275.56 338.82 292.52 338.82 293.93 334.02 277.58 334.02 275.56 338.82"/><polygon class="cls-20" points="316.62 338.82 333.56 338.82 333.51 334.02 317.16 334.02 316.62 338.82"/><polygon class="cls-20" points="213.99 338.82 230.95 338.82 234.56 334.02 218.22 334.02 213.99 338.82"/><polygon class="cls-20" points="234.52 338.82 251.48 338.82 254.36 334.02 238.01 334.02 234.52 338.82"/><polygon class="cls-20" points="337.13 338.82 354.08 338.82 353.3 334.02 336.95 334.02 337.13 338.82"/><polygon class="cls-20" points="255.04 338.82 271.99 338.82 274.14 334.02 257.79 334.02 255.04 338.82"/><path class="cls-20" d="M643.21,895.42H626l4.73,4.81h4.19a3,3,0,0,1,1.58.33L642,906H654.7Z" transform="translate(-166.88 -561.4)"/><polygon class="cls-20" points="419.22 338.82 436.18 338.82 432.45 334.02 416.1 334.02 419.22 338.82"/><polygon class="cls-20" points="439.75 338.82 460.27 338.82 455.68 334.02 435.9 334.02 439.75 338.82"/><polygon class="cls-20" points="183.66 338.82 210.42 338.82 214.77 334.02 188.97 334.02 183.66 338.82"/><polygon class="cls-20" points="357.66 338.82 374.61 338.82 373.08 334.02 356.74 334.02 357.66 338.82"/><polygon class="cls-20" points="398.7 338.82 415.65 338.82 412.66 334.02 396.31 334.02 398.7 338.82"/><polygon class="cls-20" points="378.18 338.82 395.14 338.82 392.88 334.02 376.53 334.02 378.18 338.82"/><path class="cls-3" d="M694.82,888.85c-30-.61-54.46,8.57-54.71,20.51S664,931.48,693.92,932.1s54.46-8.56,54.71-20.51S724.78,889.47,694.82,888.85Zm-.63,29.88c-11.44-.23-20.63-4.12-20.54-8.67s9.44-8.08,20.89-7.84,20.64,4.13,20.55,8.73-9.44,8.06-20.9,7.78Z" transform="translate(-166.88 -561.4)"/><path class="cls-4" d="M694.59,900c-14.54-.3-26.43,4.15-26.55,10s11.57,10.73,26.11,11,26.43-4.15,26.55-9.94S709.09,900.28,694.59,900Zm-.32,15.37c-6.77-.15-12.2-2.44-12.15-5.13s5.58-4.78,12.35-4.64,12.2,2.45,12.15,5.14-5.59,4.77-12.35,4.63Z" transform="translate(-166.88 -561.4)"/><line class="cls-7" x1="549.18" y1="352.15" x2="580.57" y2="353.59"/><line class="cls-7" x1="547.58" y1="352.91" x2="575.67" y2="359.85"/><polyline class="cls-7" points="486.15 361.58 510.97 353.74 494.43 365.33"/><line class="cls-7" x1="509.1" y1="328.65" x2="519.98" y2="340.8"/><line class="cls-7" x1="515.87" y1="328" x2="522.37" y2="340.86"/><path class="cls-3" d="M575.76,890.72c-30-.61-54.53,11.9-54.86,27.94s23.7,29.56,53.66,30.18,54.54-11.9,54.87-27.94S605.74,891.34,575.76,890.72Zm-.83,40.16c-11.44-.24-20.61-5.4-20.48-11.53s9.5-10.91,20.94-10.67,20.62,5.45,20.5,11.53S586.38,931.11,574.93,930.88Z" transform="translate(-166.88 -561.4)"/><path class="cls-4" d="M575.46,905.68c-14.54-.3-26.46,5.77-26.63,13.56s11.51,14.34,26,14.64,26.45-5.77,26.61-13.56S590,906,575.46,905.68ZM575,926.34c-6.77-.14-12.19-3.18-12.12-6.82s5.62-6.44,12.4-6.3,12.18,3.18,12.1,6.82-5.61,6.44-12.38,6.3Z" transform="translate(-166.88 -561.4)"/><line class="cls-7" x1="429.96" y1="362.35" x2="461.34" y2="364.06"/><line class="cls-7" x1="428.35" y1="363.38" x2="456.39" y2="372.51"/><polyline class="cls-7" points="366.85 375.48 391.73 364.77 375.1 380.46"/><line class="cls-7" x1="390.04" y1="331.05" x2="400.84" y2="347.32"/><line class="cls-7" x1="396.82" y1="330.13" x2="403.22" y2="347.36"/><polygon class="cls-21" points="418.15 324.43 331.86 328.22 345.67 393.64 445.5 388.07 418.15 324.43"/><path class="cls-2" d="M560.76,912.92h-3a10.45,10.45,0,0,0-.85-2.08l2.64-.62c.41-.1.59-.43.38-.74l-.6-.91a1.1,1.1,0,0,0-1.09-.38l-2.63.62A15.57,15.57,0,0,0,554,907l2.06-1.21c.33-.19.33-.55,0-.8l-1-.75a1.1,1.1,0,0,0-1.17-.12l-2.07,1.19a21.9,21.9,0,0,0-2.38-1.41l1.31-1.63c.2-.27,0-.61-.37-.79l-1.2-.52a1,1,0,0,0-1.09.14l-1.31,1.62a26.44,26.44,0,0,0-2.79-.85l.41-1.89c.07-.3-.24-.62-.68-.69l-1.33-.25c-.45-.09-.88.08-.94.38l-.44,1.9c-.86-.11-1.73-.18-2.62-.21l-.45-2a.9.9,0,0,0-.94-.54h-1.33c-.46,0-.77.27-.7.58l.45,2a26.79,26.79,0,0,0-2.81.41l-1.34-1.85a1.08,1.08,0,0,0-1.09-.31l-1.21.33c-.4.12-.57.44-.36.73l1.33,1.85a18.93,18.93,0,0,0-2.38,1.09l-2.11-1.53a1.1,1.1,0,0,0-1.18-.06l-1,.6a.44.44,0,0,0-.21.59.45.45,0,0,0,.21.22l2.12,1.53a11.27,11.27,0,0,0-1.72,1.59l-2.69-1a1,1,0,0,0-1.09.21l-.61.81c-.21.29,0,.64.39.81l2.69,1a9.27,9.27,0,0,0-.84,2l-3-.41c-.47-.07-.91.14-1,.47l-.18,1c0,.31.27.63.75.69l3,.42a9.25,9.25,0,0,0,.15,2.1h0l-3.11.29c-.47,0-.78.35-.68.68l.29,1a1,1,0,0,0,1,.52l3-.29a12.21,12.21,0,0,0,1.16,2.09l-2.63,1c-.42.16-.56.54-.3.84l.75.93a1.08,1.08,0,0,0,1.21.27l2.64-1a18.57,18.57,0,0,0,2.06,1.8l-2,1.6a.54.54,0,0,0-.08.75.74.74,0,0,0,.2.16l1.09.73a1.12,1.12,0,0,0,1.26,0l2-1.63a21.32,21.32,0,0,0,2.74,1.28l-1.09,2.06c-.17.33.07.71.54.86l1.38.45a.94.94,0,0,0,1.09-.32l1-2.06a23.55,23.55,0,0,0,3.1.6v2.27c0,.36.41.68.9.71l1.46.11c.49,0,.89-.23.88-.58v-2.27h1.4a16,16,0,0,0,1.69-.13l1.09,2.18a1.08,1.08,0,0,0,1.09.49l1.36-.25c.46-.07.7-.42.53-.77l-1.09-2.18a21.28,21.28,0,0,0,2.7-.88l2,1.9a1.17,1.17,0,0,0,1.25.21l1.09-.57a.52.52,0,0,0,.12-.88l-2-1.89a14,14,0,0,0,2-1.48l2.62,1.38a1.09,1.09,0,0,0,1.19-.09l.73-.8c.24-.27.11-.67-.31-.88l-2.41-1.38a9.73,9.73,0,0,0,1.09-1.91l3,.74a.81.81,0,0,0,1-.37l.29-.94c.08-.32-.21-.67-.68-.79l-2.93-.73a8.75,8.75,0,0,0,.13-2.11h2.94c.47,0,.8-.26.73-.59l-.17-1A1,1,0,0,0,560.76,912.92Zm-19.35,8.27c-5.81.22-11.21-3-12-7.11s3.1-7.37,8.72-7.55S549,909.39,550,913.37,547.16,920.93,541.41,921.19Z" transform="translate(-166.88 -561.4)"/><path class="cls-22" d="M554,913.2c1.51,5.68-3.76,10.68-11.87,11s-15.75-4.23-16.86-10,4.43-10.25,12.19-10.48S552.5,907.67,554,913.2Z" transform="translate(-166.88 -561.4)"/><path class="cls-2" d="M590.08,922.66h-1.93a9.05,9.05,0,0,0-.66-1.41l1.7-.44a.32.32,0,0,0,.28-.35.39.39,0,0,0-.07-.16l-.45-.62a.77.77,0,0,0-.75-.26l-1.7.43a11.26,11.26,0,0,0-1.24-1.25l1.3-.83c.21-.13.19-.38,0-.56l-.66-.51a.78.78,0,0,0-.79-.09l-1.3.84a15,15,0,0,0-1.64-1l.76-1.09c.12-.19,0-.43-.28-.55l-.83-.36a.6.6,0,0,0-.72.1l-.78,1.09c-.61-.22-1.24-.41-1.88-.58l.15-1.32a.56.56,0,0,0-.5-.47l-.9-.17c-.3,0-.56.07-.59.27l-.16,1.32a17,17,0,0,0-1.75-.13l-.42-1.37a.7.7,0,0,0-.67-.36h-.87c-.29,0-.48.2-.41.41l.43,1.38a16,16,0,0,0-1.82.29l-1-1.27a.79.79,0,0,0-.77-.22l-.76.24a.29.29,0,0,0-.18.5l1,1.29a9.19,9.19,0,0,0-1.48.72l-1.51-1.09a.68.68,0,0,0-.77,0l-.59.41c-.2.14-.17.39.06.56l1.51,1.09a6.53,6.53,0,0,0-1,1.09l-1.83-.71a.61.61,0,0,0-.73.15l-.33.57c-.12.18,0,.44.32.54l1.83.71a6.26,6.26,0,0,0-.4,1.34l-2-.27c-.3,0-.56.1-.58.32v.65a.56.56,0,0,0,.53.48l2,.28a6.22,6.22,0,0,0,.25,1.42h0l-1.91.21c-.31,0-.48.24-.38.47l.26.67a.71.71,0,0,0,.71.36l1.92-.21a9.53,9.53,0,0,0,.89,1.41l-1.62.66a.34.34,0,0,0-.22.43.29.29,0,0,0,.08.14l.56.61a.76.76,0,0,0,.8.18l1.62-.67a13.79,13.79,0,0,0,1.46,1.19l-1.15,1.09c-.18.17-.11.43.15.6l.77.48a.69.69,0,0,0,.8,0l1.16-1.09a17.06,17.06,0,0,0,1.84.85l-.53,1.36c-.09.22.09.47.4.57l.92.29a.56.56,0,0,0,.7-.2l.54-1.38a17.34,17.34,0,0,0,2,.4l.14,1.5a.64.64,0,0,0,.62.47l1,.07c.32,0,.56-.15.54-.39l-.16-1.49h.9a4.75,4.75,0,0,0,1.09-.09l.82,1.47a.74.74,0,0,0,.75.32l.87-.16a.35.35,0,0,0,.34-.36.47.47,0,0,0,0-.17l-.82-1.45a12.65,12.65,0,0,0,1.7-.59l1.37,1.27a.79.79,0,0,0,.81.13l.69-.37a.34.34,0,0,0,.13-.46.33.33,0,0,0-.13-.13l-1.38-1.26a8.48,8.48,0,0,0,1.24-1l1.76.93a.63.63,0,0,0,.78-.07l.42-.53c.16-.19,0-.45-.24-.59l-1.76-.92a7.25,7.25,0,0,0,.63-1.28l2,.49c.31.07.59,0,.64-.25l.14-.64a.58.58,0,0,0-.48-.53l-2-.49a5.7,5.7,0,0,0,0-1.43h1.93c.31,0,.52-.18.46-.39l-.17-.67A.68.68,0,0,0,590.08,922.66ZM578,928.26c-3.75.15-7.46-2-8.28-4.77s1.5-5,5.16-5.17,7.29,1.93,8.19,4.65S581.68,928.11,578,928.26Z" transform="translate(-166.88 -561.4)"/><path class="cls-22" d="M585.67,922.86c1.28,3.85-1.86,7.21-7.08,7.43S568.13,927.5,567,923.6s2.19-7,7.24-7.2S584.39,919.09,585.67,922.86Z" transform="translate(-166.88 -561.4)"/><g class="cls-23"><rect x="299.97" y="63.03" width="78.17" height="160.63" rx="12.48"/><path d="M534.58,626a8.71,8.71,0,0,1,8.72,8.72V774.81a8.72,8.72,0,0,1-8.72,8.72H477.31a8.73,8.73,0,0,1-8.72-8.72V634.69a8.73,8.73,0,0,1,8.72-8.73h57.27" transform="translate(-166.88 -561.4)"/><path d="M534.41,627.64h-7.22a.91.91,0,0,0-.87.79,5.76,5.76,0,0,1-5.71,5H491.25a5.77,5.77,0,0,1-5.71-5,.89.89,0,0,0-.86-.79h-7.23a7.37,7.37,0,0,0-7.37,7.37V774.49a7.36,7.36,0,0,0,7.37,7.36h57a7.36,7.36,0,0,0,7.37-7.36V635A7.37,7.37,0,0,0,534.41,627.64Z" transform="translate(-166.88 -561.4)"/><path d="M510.83,629.18H500.77a.51.51,0,0,1-.52-.51h0a.51.51,0,0,1,.52-.51h10.12a.51.51,0,0,1,.51.51h0a.53.53,0,0,1-.51.52Z" transform="translate(-166.88 -561.4)"/><circle cx="348.27" cy="67.26" r="0.96"/><circle cx="348.27" cy="67.26" r="0.73"/><circle cx="348.27" cy="67.26" r="0.17"/><path d="M498.65,720.31l3.39-2.18-2-5a11.78,11.78,0,0,0,1.67-2.35l5.45.19.88-3.9-5-2.18a11.57,11.57,0,0,0-.48-2.86l4-3.69-2.18-3.38-5,2a11.22,11.22,0,0,0-2.37-1.66l.2-5.46-3.89-.88-2.19,5a11.41,11.41,0,0,0-2.84.48l-3.69-4-3.38,2.13,2,5a11.26,11.26,0,0,0-1.67,2.37l-5.45-.2-.88,3.89,4.95,2.18a11.13,11.13,0,0,0,.49,2.86l-3.86,3.79,2.18,3.38,5-2a10.84,10.84,0,0,0,2.36,1.67l-.2,5.46,3.9.88,2.19-5a12.07,12.07,0,0,0,2.85-.49ZM484,710.2a9,9,0,1,1,12.43,2.8l0,0A9,9,0,0,1,484,710.2Z" transform="translate(-166.88 -561.4)"/><path d="M528.83,707.09l3-2.57-2.64-4.75a11.12,11.12,0,0,0,1.33-2.56l5.38-.54.35-4-5.2-1.46a11.66,11.66,0,0,0-.87-2.76l3.41-4.19-2.57-3-4.72,2.65a11.63,11.63,0,0,0-2.57-1.34l-.55-5.38-4-.35L517.79,682a10.81,10.81,0,0,0-2.76.87l-4.2-3.42-3.05,2.57,2.64,4.71a11.46,11.46,0,0,0-1.33,2.58l-5.38.54-.35,4,5.2,1.47a12.08,12.08,0,0,0,.88,2.75L506,702.28l2.58,3.07,4.71-2.65a11.4,11.4,0,0,0,2.57,1.33l.55,5.39,4,.33,1.46-5.2a11.16,11.16,0,0,0,2.77-.87Zm-15.89-8a9,9,0,1,1,12.69,1.09,9,9,0,0,1-12.69-1.09Z" transform="translate(-166.88 -561.4)"/><path d="M527.64,733.59l2.32-3.28-3.73-3.9a11,11,0,0,0,.65-2.83l5.08-1.86-.65-4-5.46-.12a11.35,11.35,0,0,0-1.54-2.45l2.27-4.91L523.31,708l-3.9,3.73a11,11,0,0,0-2.83-.65L514.72,706l-4,.65-.12,5.46a11,11,0,0,0-2.46,1.54l-4.91-2.27L501,714.62l3.74,3.9a12,12,0,0,0-.65,2.83L499,723.21l.65,3.95,5.45.12a11.2,11.2,0,0,0,1.53,2.47l-2.27,4.91L507.6,737l3.91-3.74a11.91,11.91,0,0,0,2.82.65L516.2,739l3.95-.65.12-5.45a11.31,11.31,0,0,0,2.45-1.53Zm-17.39-3.81a9,9,0,1,1,12.59-2.1h0a9,9,0,0,1-12.57,2.1Z" transform="translate(-166.88 -561.4)"/><line class="cls-24" x1="298.17" y1="227.17" x2="379.93" y2="227.17"/><line class="cls-24" x1="295.79" y1="61.99" x2="295.79" y2="224.81"/><line class="cls-24" x1="379.93" y1="59.62" x2="298.17" y2="59.62"/><line class="cls-24" x1="382.31" y1="224.88" x2="382.31" y2="61.99"/><rect class="cls-24" x="379.93" y="57.25" width="4.73" height="4.73"/><rect class="cls-24" x="293.43" y="57.25" width="4.73" height="4.73"/><rect class="cls-24" x="379.93" y="224.81" width="4.73" height="4.73"/><rect class="cls-24" x="293.43" y="224.81" width="4.73" height="4.73"/><rect x="392.92" y="228.05" width="44.24" height="0.43"/><rect x="391.43" y="192.4" width="0.43" height="34.58"/><rect x="392.92" y="190.91" width="44.24" height="0.43"/><rect x="438.22" y="192.4" width="0.43" height="34.62"/><path d="M606.82,754h-3v-3h3Zm-2.57-.43h2.18v-2.18h-2.18Z" transform="translate(-166.88 -561.4)"/><path d="M560,754h-3v-3h3Zm-2.56-.43h2.18v-2.18h-2.18Z" transform="translate(-166.88 -561.4)"/><path d="M606.82,791.16h-3v-3h3Zm-2.57-.43h2.18v-2.18h-2.18Z" transform="translate(-166.88 -561.4)"/><path d="M560,791.16h-3v-3h3Zm-2.56-.43h2.18v-2.18h-2.18Z" transform="translate(-166.88 -561.4)"/><rect x="394.74" y="193.77" width="40.59" height="31.83"/><rect x="395.86" y="194.91" width="38.36" height="29.56"/><path d="M568.31,766.91a2.71,2.71,0,0,0,1.66-.75c.22-.22.41-.52.69-.61a1.25,1.25,0,0,1,1.09.39,2.6,2.6,0,0,1-.55-.8.84.84,0,0,1,.18-.89.81.81,0,0,1,1.13.23l0,0a1.68,1.68,0,0,1-.06-.86,1.3,1.3,0,0,1,.89-1,1.41,1.41,0,0,1,1.36.18,1.48,1.48,0,0,1,.42,1.62.72.72,0,0,1,1-.16,1.11,1.11,0,0,1,.45.93,1.51,1.51,0,0,1,.42-1.09,1.71,1.71,0,0,1,2.25,0,2.09,2.09,0,0,1,.56,2.24.83.83,0,0,1,1.09-.12c.12.1.2.24.32.36.28.29.57.31,1.1.34h-14" transform="translate(-166.88 -561.4)"/><path d="M582.48,761.78a.79.79,0,0,0,.48-.22c.07-.06.11-.15.2-.17a.35.35,0,0,1,.33.11.53.53,0,0,1-.16-.23.23.23,0,0,1,0-.25.24.24,0,0,1,.32.06h0a.53.53,0,0,1,0-.25.34.34,0,0,1,.25-.27.39.39,0,0,1,.39.06.39.39,0,0,1,.12.45.24.24,0,0,1,.28,0,.38.38,0,0,1,.12.27.5.5,0,0,1,.12-.33.49.49,0,0,1,.64,0,.57.57,0,0,1,.16.64.24.24,0,0,1,.32,0l.1.11a.41.41,0,0,0,.3.1h-4" transform="translate(-166.88 -561.4)"/><path d="M588.93,765.83a1.25,1.25,0,0,0,.77-.35c.11-.11.19-.24.33-.29a.55.55,0,0,1,.53.18,1.21,1.21,0,0,1-.25-.37.35.35,0,0,1,.09-.49.34.34,0,0,1,.48.09.39.39,0,0,1,.06.11.72.72,0,0,1,0-.41.62.62,0,0,1,.41-.46.66.66,0,0,1,.84.35.69.69,0,0,1,0,.49.35.35,0,0,1,.45-.07.48.48,0,0,1,.2.43.74.74,0,0,1,.21-.53.79.79,0,0,1,1.09,0,1,1,0,0,1,.26,1.09.4.4,0,0,1,.54-.07l.15.18a.68.68,0,0,0,.51.16h-6.54" transform="translate(-166.88 -561.4)"/><rect x="395.86" y="210.64" width="38.36" height="13.83"/><path d="M601.11,781a181,181,0,0,1-19.18,1.47A148.24,148.24,0,0,1,562.75,781v4.92h38.36Z" transform="translate(-166.88 -561.4)"/><rect x="445.4" y="228.05" width="44.24" height="0.43"/><rect x="443.9" y="192.4" width="0.43" height="34.58"/><rect x="445.4" y="190.91" width="44.24" height="0.43"/><rect x="490.71" y="192.4" width="0.43" height="34.62"/><path d="M659.29,754h-3v-3h3Zm-2.56-.43h2.18v-2.18h-2.18Z" transform="translate(-166.88 -561.4)"/><path d="M612.49,754h-3v-3h3Zm-2.56-.43h2.18v-2.18h-2.18Z" transform="translate(-166.88 -561.4)"/><path d="M659.29,791.16h-3v-3h3Zm-2.56-.43h2.18v-2.18h-2.18Z" transform="translate(-166.88 -561.4)"/><path d="M612.49,791.16h-3v-3h3Zm-2.56-.43h2.18v-2.18h-2.18Z" transform="translate(-166.88 -561.4)"/><rect x="447.23" y="193.77" width="40.59" height="31.83"/><rect x="448.33" y="194.91" width="38.36" height="29.56"/><path d="M620.75,766.91a2.73,2.73,0,0,0,1.66-.75c.22-.22.4-.52.69-.61a1.24,1.24,0,0,1,1.09.39,2.6,2.6,0,0,1-.55-.8.83.83,0,0,1,.18-.89.8.8,0,0,1,1.12.23l0,0a1.68,1.68,0,0,1-.07-.86,1.43,1.43,0,0,1,2.68-.25,1.37,1.37,0,0,1,0,1.07.72.72,0,0,1,1-.16,1.08,1.08,0,0,1,.45.93,1.48,1.48,0,0,1,.43-1.09,1.68,1.68,0,0,1,2.23,0,2.09,2.09,0,0,1,.56,2.24.83.83,0,0,1,1.09-.12,2.82,2.82,0,0,1,.33.36c.27.29.57.31,1.09.34H620.65" transform="translate(-166.88 -561.4)"/><path d="M634.92,761.78a.77.77,0,0,0,.47-.22c.07-.06.12-.15.2-.17a.34.34,0,0,1,.33.11.87.87,0,0,1-.16-.23.23.23,0,0,1,.06-.25c.09-.09.25,0,.33.07a.42.42,0,0,1,.25-.52.39.39,0,0,1,.39.06.4.4,0,0,1,.12.45.23.23,0,0,1,.27,0,.31.31,0,0,1,.13.27.42.42,0,0,1,.12-.33.49.49,0,0,1,.64,0,.59.59,0,0,1,.16.64.26.26,0,0,1,.33,0l.08.11a.47.47,0,0,0,.32.1h-4" transform="translate(-166.88 -561.4)"/><path d="M641.4,765.83a1.36,1.36,0,0,0,.79-.35,1.08,1.08,0,0,1,.37-.26.55.55,0,0,1,.53.18,1.21,1.21,0,0,1-.25-.37.35.35,0,0,1,.57-.4.22.22,0,0,1,.05.11.94.94,0,0,1,0-.41.66.66,0,1,1,1.26.39.36.36,0,0,1,.46-.08.53.53,0,0,1,.2.44.71.71,0,0,1,.2-.54.81.81,0,0,1,1.09,0,1,1,0,0,1,.26,1.09.39.39,0,0,1,.53-.06,1.22,1.22,0,0,1,.15.17.73.73,0,0,0,.51.17h-6.54" transform="translate(-166.88 -561.4)"/><rect x="448.33" y="210.64" width="38.36" height="13.83"/><path d="M653.58,781a181,181,0,0,1-19.18,1.47A148.24,148.24,0,0,1,615.22,781v4.92h38.36Z" transform="translate(-166.88 -561.4)"/><path d="M649,730.23H567.3a5.74,5.74,0,0,0-5.74,5.73h0a5.72,5.72,0,0,0,5.72,5.74h81.66a5.73,5.73,0,0,0,5.74-5.71v0h0A5.73,5.73,0,0,0,649,730.23Z" transform="translate(-166.88 -561.4)"/><path d="M574.63,733.39a2.27,2.27,0,0,0-3.87,2.35l-.56.36a.46.46,0,0,0-.48,0l-4.11,2.78a.48.48,0,0,0-.05.69.48.48,0,0,0,.59.11l4.12-2.78a.46.46,0,0,0,.21-.42l.55-.37a2.27,2.27,0,0,0,3.6-2.75Zm-3.4,2.29a1.83,1.83,0,1,1,2.54.49h0a1.84,1.84,0,0,1-2.54-.49Z" transform="translate(-166.88 -561.4)"/><rect x="392.92" y="182.31" width="96.71" height="0.43"/><rect x="391.43" y="167.89" width="0.43" height="13.36"/><rect x="392.92" y="166.39" width="96.71" height="0.43"/><rect x="490.71" y="167.89" width="0.43" height="13.39"/><path d="M659.29,729.5h-3v-3h3Zm-2.56-.43h2.18v-2.18h-2.18Z" transform="translate(-166.88 -561.4)"/><path d="M560,729.5h-3v-3h3Zm-2.56-.43h2.18v-2.18h-2.18Z" transform="translate(-166.88 -561.4)"/><path d="M659.29,745.42h-3v-3h3Zm-2.56-.42h2.18v-2.19h-2.18Z" transform="translate(-166.88 -561.4)"/><path d="M560,745.42h-3v-3h3Zm-2.56-.42h2.18v-2.19h-2.18Z" transform="translate(-166.88 -561.4)"/><rect x="397.59" y="66.39" width="38.59" height="38.59"/><path d="M583.77,660.63a15.59,15.59,0,0,0,9.19-3,15.28,15.28,0,0,0-2.58-6.55,1.79,1.79,0,0,0-.45-.46,10.38,10.38,0,0,0-12.32,0,2.23,2.23,0,0,0-.46.46,15.48,15.48,0,0,0-2.59,6.55A15.65,15.65,0,0,0,583.77,660.63Z" transform="translate(-166.88 -561.4)"/><path d="M583.77,660.63A15.47,15.47,0,0,0,592,658.3a17,17,0,0,0-2.36-7.35,1.56,1.56,0,0,0-.4-.45,8.22,8.22,0,0,0-10.91,0,2.15,2.15,0,0,0-.4.45,17.29,17.29,0,0,0-2.36,7.35A15.53,15.53,0,0,0,583.77,660.63Z" transform="translate(-166.88 -561.4)"/><path d="M581.58,644.62V649c0,.45,1,.82,2.18.82s2.18-.37,2.18-.82v-4.36Z" transform="translate(-166.88 -561.4)"/><path d="M590,640.07a.51.51,0,0,0-.35-.22c-.44-.07-.81.47-1,.81a.09.09,0,0,0,0,.07,2.85,2.85,0,0,0-.48,1.94.25.25,0,0,0,.23.22.8.8,0,0,0,1,.34.74.74,0,0,0,.34-.65C589.87,641.78,590.58,640.88,590,640.07Z" transform="translate(-166.88 -561.4)"/><path d="M577.76,642.58a.73.73,0,0,0,.35.65.79.79,0,0,0,1-.34.24.24,0,0,0,.23-.22,2.9,2.9,0,0,0-.47-1.94.09.09,0,0,0,0-.07c-.14-.34-.51-.88-1-.81a.51.51,0,0,0-.35.22C577,640.88,577.67,641.78,577.76,642.58Z" transform="translate(-166.88 -561.4)"/><path d="M589.72,637a1.27,1.27,0,0,0,0-.39,2.06,2.06,0,0,0-.31-.9c0-.06-.58-.63-.61-.58a1.28,1.28,0,0,0,.23-.78c0-.91-1-1.22-1.76-1.39a9.71,9.71,0,0,0-6.15.65,2.9,2.9,0,0,1-.57.12,4.75,4.75,0,0,0-.64.2,4.4,4.4,0,0,0-1.23.65,2.8,2.8,0,0,0-.86,1,3,3,0,0,0-.2,1.52,18.7,18.7,0,0,0,.67,3.79c0,.23.08.93.31,1.09a7.88,7.88,0,0,0,3.72.51c1.84,0,3.69-.36,5.54-.31h.65a.61.61,0,0,0,.46,0,.31.31,0,0,0,.09-.18A30.87,30.87,0,0,0,589.72,637Z" transform="translate(-166.88 -561.4)"/><path d="M588.14,636.75H588a3,3,0,0,0-1,.2,16.06,16.06,0,0,1-6.33,0,3,3,0,0,0-1-.2h-.17a.93.93,0,0,0-.93.93v5.7a5.31,5.31,0,1,0,10.6.68c0-.22,0-.45,0-.68v-5.7a.93.93,0,0,0-.93-.93Z" transform="translate(-166.88 -561.4)"/><path d="M601.33,664.64H566.21V629.51h35.12Zm-34.9-.21h34.68v-34.7H566.42Z" transform="translate(-166.88 -561.4)"/><rect x="444.58" y="66.39" width="38.59" height="38.59"/><path d="M631,636.2H616.7a1.32,1.32,0,0,0-1.33,1.33h0a1.33,1.33,0,0,0,1.33,1.32H631a1.32,1.32,0,0,0,1.32-1.32h0A1.33,1.33,0,0,0,631,636.2Z" transform="translate(-166.88 -561.4)"/><rect x="448.48" y="81.26" width="10.23" height="1.58" rx="0.79"/><rect x="448.48" y="92.7" width="10.23" height="1.58" rx="0.79"/><rect x="448.48" y="85.07" width="5.34" height="1.58" rx="0.79"/><rect x="466.5" y="88.89" width="5.34" height="1.58" rx="0.79"/><rect x="459.29" y="92.7" width="5.34" height="1.58" rx="0.79"/><rect x="459.67" y="81.26" width="17.31" height="1.58" rx="0.79"/><rect x="448.48" y="88.89" width="17.31" height="1.58" rx="0.79"/><rect x="454.54" y="85.07" width="17.31" height="1.58" rx="0.79"/><rect x="477.96" y="81.26" width="2.19" height="1.58" rx="0.79"/><rect x="472.59" y="88.89" width="2.19" height="1.58" rx="0.79"/><rect x="465.39" y="92.7" width="2.19" height="1.58" rx="0.79"/><rect x="448.48" y="96.51" width="5.34" height="1.58" rx="0.79"/><rect x="454.59" y="96.51" width="2.19" height="1.58" rx="0.79"/><path d="M641.47,636.2h-5.69a1.32,1.32,0,0,0-1.32,1.33h0a1.32,1.32,0,0,0,1.32,1.32h5.69a1.32,1.32,0,0,0,1.32-1.32h0A1.33,1.33,0,0,0,641.47,636.2Z" transform="translate(-166.88 -561.4)"/><rect x="397.59" y="112.68" width="38.59" height="38.59"/><path d="M589.41,705.23l2.71-1.71-1.59-4a9.36,9.36,0,0,0,1.35-1.9l4.37.15.71-3.13-4-1.73a9.32,9.32,0,0,0-.4-2.29l3.19-3-1.72-2.71-4,1.59a8.7,8.7,0,0,0-1.9-1.34l.16-4.37-3.14-.72-1.73,4a8.86,8.86,0,0,0-2.29.39l-3-3.18L575.43,683l1.59,4a8.94,8.94,0,0,0-1.34,1.9l-4.37-.15-.71,3.13,4,1.73a8.44,8.44,0,0,0,.38,2.29l-3.18,3,1.72,2.73,4-1.6a8.7,8.7,0,0,0,1.9,1.34l-.15,4.37,3.13.72,1.73-4a8.94,8.94,0,0,0,2.3-.39Zm-11.77-8.12a7.24,7.24,0,1,1,10,2.27h0a7.24,7.24,0,0,1-10-2.25Z" transform="translate(-166.88 -561.4)"/><path d="M659.08,624.23v-5.88h-5.87V621h-91v-2.62h-5.89v5.88H559v91h-2.63v5.88h5.89v-2.62h91v2.62h5.87v-5.88h-2.62v-91ZM653.84,619h4.6v4.6h-4.6ZM557,619h4.6v4.6H557Zm4.6,101.43H557v-4.6h4.6Zm96.87,0h-4.6v-4.6h4.6Zm-2.62-5.24h-2.61v2.62h-91v-2.62h-2.63v-91h2.63v-2.62h91v2.62h2.61Z" transform="translate(-166.88 -561.4)"/><rect x="444.58" y="112.68" width="38.59" height="38.59"/><path d="M648.33,710.85H613.2V675.71h35.13Zm-34.9-.22h34.7v-34.7H613.4Z" transform="translate(-166.88 -561.4)"/><path d="M622.93,695.66a1.06,1.06,0,0,1-.83-.46,1.08,1.08,0,0,1,.24-1.52h0l14.08-9.94A1.09,1.09,0,0,1,638,684h0a1.1,1.1,0,0,1-.24,1.52l0,0-14.09,9.94A1.05,1.05,0,0,1,622.93,695.66Z" transform="translate(-166.88 -561.4)"/><path d="M636.16,703.2a1.12,1.12,0,0,1-.48-.14l-13.27-7.54a1.1,1.1,0,0,1,1.09-1.92l13.27,7.54a1.09,1.09,0,0,1-.61,2.06Z" transform="translate(-166.88 -561.4)"/><path d="M626.67,694.79a3.71,3.71,0,1,0-3.94,3.48,3.71,3.71,0,0,0,3.94-3.48Z" transform="translate(-166.88 -561.4)"/><path d="M640.74,684.85a3.71,3.71,0,1,0-3.93,3.48,3.71,3.71,0,0,0,3.93-3.48Z" transform="translate(-166.88 -561.4)"/><path d="M639.93,702.33a3.71,3.71,0,1,0-3.93,3.48,3.71,3.71,0,0,0,3.93-3.48Z" transform="translate(-166.88 -561.4)"/><path d="M402.53,634.71H352.94a1.94,1.94,0,0,0-1.93,1.93h0a1.92,1.92,0,0,0,1.93,1.93h49.59a1.92,1.92,0,0,0,1.93-1.93h0A1.93,1.93,0,0,0,402.53,634.71Z" transform="translate(-166.88 -561.4)"/><path d="M382.22,642.94H352.16a1.13,1.13,0,0,0-1.15,1.13h0a1.16,1.16,0,0,0,1.15,1.16h30.06a1.16,1.16,0,0,0,1.16-1.16h0a1.14,1.14,0,0,0-1.14-1.14Z" transform="translate(-166.88 -561.4)"/><path d="M382.22,659.62H352.16a1.15,1.15,0,0,0-1.15,1.14h0a1.15,1.15,0,0,0,1.13,1.16h30.08a1.16,1.16,0,0,0,1.16-1.14v0h0a1.15,1.15,0,0,0-1.14-1.15Z" transform="translate(-166.88 -561.4)"/><path d="M366.76,648.51h-14.6A1.14,1.14,0,0,0,351,649.6h0a1.16,1.16,0,0,0,1.15,1.16h14.6a1.16,1.16,0,0,0,1.14-1.16h0a1.09,1.09,0,0,0-1.09-1.09Z" transform="translate(-166.88 -561.4)"/><path d="M423.73,654.06H409.14a1.09,1.09,0,0,0-1.14,1v0h0a1.14,1.14,0,0,0,1.08,1.21h14.66a1.13,1.13,0,0,0,1.15-1.13v0h0a1.14,1.14,0,0,0-1.14-1.15Z" transform="translate(-166.88 -561.4)"/><path d="M400.92,659.62H386.33a1.1,1.1,0,0,0-1.15,1v.11h0a1.15,1.15,0,0,0,1.14,1.16h14.6a1.16,1.16,0,0,0,1.15-1.15h0a1.11,1.11,0,0,0-1-1.15Z" transform="translate(-166.88 -561.4)"/><path d="M397.34,665.19H382.76a1.15,1.15,0,0,0-1.16,1.13h0a1.15,1.15,0,0,0,1.14,1.16h14.6a1.16,1.16,0,0,0,1.16-1.14v0h0a1.14,1.14,0,0,0-1.15-1.14Z" transform="translate(-166.88 -561.4)"/><path d="M440,642.94H387.53a1.09,1.09,0,0,0-1.15,1v.11h0a1.16,1.16,0,0,0,1.15,1.16H440a1.16,1.16,0,0,0,1.14-1.16h0a1.09,1.09,0,0,0-1-1.14A.2.2,0,0,0,440,642.94Z" transform="translate(-166.88 -561.4)"/><path d="M404.58,654.06H352.16a1.15,1.15,0,0,0-1.15,1.09h0a1.14,1.14,0,0,0,1.13,1.16h52.44a1.16,1.16,0,0,0,1.16-1.16h0A1.15,1.15,0,0,0,404.58,654.06Z" transform="translate(-166.88 -561.4)"/><path d="M423.73,648.51H371.31a1.15,1.15,0,0,0-1.16,1.09h0a1.16,1.16,0,0,0,1.16,1.16h52.42a1.15,1.15,0,0,0,1.15-1.16h0A1.14,1.14,0,0,0,423.73,648.51Z" transform="translate(-166.88 -561.4)"/><path d="M450,642.94h-4.63a1.16,1.16,0,0,0-1.16,1.14h0a1.17,1.17,0,0,0,1.16,1.16H450a1.16,1.16,0,0,0,1.15-1.16h0a1.09,1.09,0,0,0-1-1.14A.2.2,0,0,0,450,642.94Z" transform="translate(-166.88 -561.4)"/><path d="M433,654.06H428.4a1.15,1.15,0,0,0-1.16,1.09h0a1.16,1.16,0,0,0,1.16,1.16H433a1.15,1.15,0,0,0,1.15-1.15h0a1.09,1.09,0,0,0-1.09-1.09Z" transform="translate(-166.88 -561.4)"/><path d="M404.58,669.66H352.16a1.13,1.13,0,0,0-1.15,1.13v0h0a1.14,1.14,0,0,0,1.14,1.14h52.43a1.16,1.16,0,0,0,1.16-1.14h0A1.16,1.16,0,0,0,404.58,669.66Z" transform="translate(-166.88 -561.4)"/><path d="M413.71,669.66h-4.57a1.13,1.13,0,0,0-1.15,1.13v0h0a1.14,1.14,0,0,0,1.14,1.14h4.64a1.13,1.13,0,0,0,1.15-1.13h0a1.14,1.14,0,0,0-1.13-1.16Z" transform="translate(-166.88 -561.4)"/><path d="M410.23,659.62H405.6a1.16,1.16,0,0,0-1.16,1.14h0a1.16,1.16,0,0,0,1.14,1.16h4.65a1.15,1.15,0,0,0,1.15-1.15h0a1.1,1.1,0,0,0-1-1.15Z" transform="translate(-166.88 -561.4)"/><path d="M366.76,665.19h-14.6a1.13,1.13,0,0,0-1.15,1.13h0a1.14,1.14,0,0,0,1.13,1.16h14.62a1.14,1.14,0,0,0,1.14-1.15h0a1.09,1.09,0,0,0-1-1.14Z" transform="translate(-166.88 -561.4)"/><path d="M376.08,665.19h-4.63a1.09,1.09,0,0,0-1.15,1v.11h0a1.16,1.16,0,0,0,1.14,1.16h4.64a1.16,1.16,0,0,0,1.16-1.16h0A1.16,1.16,0,0,0,376.08,665.19Z" transform="translate(-166.88 -561.4)"/><path d="M435.68,634.71H413.19a1.93,1.93,0,0,0-1.93,1.93h0a1.92,1.92,0,0,0,1.93,1.93h22.49a1.92,1.92,0,0,0,1.93-1.93h0A1.93,1.93,0,0,0,435.68,634.71Z" transform="translate(-166.88 -561.4)"/><path d="M402.53,687.92H352.94a1.92,1.92,0,0,0-1.93,1.93h0a1.93,1.93,0,0,0,1.93,1.93h49.59a1.93,1.93,0,0,0,1.93-1.93h0A1.92,1.92,0,0,0,402.53,687.92Z" transform="translate(-166.88 -561.4)"/><path d="M382.22,696.13H352.16a1.14,1.14,0,0,0-1.15,1.14v0h0a1.14,1.14,0,0,0,1.14,1.14h30.07a1.14,1.14,0,0,0,1.16-1.13h0a1.14,1.14,0,0,0-1.13-1.16Z" transform="translate(-166.88 -561.4)"/><path d="M382.22,712.86H352.16A1.15,1.15,0,0,0,351,714h0a1.14,1.14,0,0,0,1.15,1.09h30.06a1.14,1.14,0,0,0,1.16-1.09h0A1.15,1.15,0,0,0,382.22,712.86Z" transform="translate(-166.88 -561.4)"/><path d="M366.76,701.69h-14.6a1.15,1.15,0,0,0-1.15,1.14v0h0a1.15,1.15,0,0,0,1.14,1.15h14.61a1.09,1.09,0,0,0,1.14-1,.21.21,0,0,0,0-.11h0a1.15,1.15,0,0,0-1.13-1.16Z" transform="translate(-166.88 -561.4)"/><path d="M423.73,707.26H409.14a1.15,1.15,0,0,0-1.14,1.15h0a1.1,1.1,0,0,0,1,1.18h14.74a1.13,1.13,0,0,0,1.15-1.13h0a1.15,1.15,0,0,0-1.12-1.19Z" transform="translate(-166.88 -561.4)"/><path d="M400.92,712.86H386.33a1.15,1.15,0,0,0-1.18,1.09h0a1.09,1.09,0,0,0,1.09,1.1h14.65a1.09,1.09,0,0,0,1.14-1V714h0A1.15,1.15,0,0,0,400.92,712.86Z" transform="translate(-166.88 -561.4)"/><path d="M397.34,718.38H382.76a1.16,1.16,0,0,0-1.16,1.16h0a1.15,1.15,0,0,0,1.16,1.09h14.58a1.15,1.15,0,0,0,1.16-1.09h0A1.16,1.16,0,0,0,397.34,718.38Z" transform="translate(-166.88 -561.4)"/><path d="M440,696.13H387.53a1.14,1.14,0,0,0-1.15,1.15h0a1.09,1.09,0,0,0,1,1.14H440a1.09,1.09,0,0,0,1.14-1v-.11h0a1.14,1.14,0,0,0-1.13-1.16Z" transform="translate(-166.88 -561.4)"/><path d="M404.58,707.26H352.16a1.15,1.15,0,0,0-1.15,1.15h0a1.14,1.14,0,0,0,1.14,1.15h52.43a1.16,1.16,0,0,0,1.16-1.15h0A1.16,1.16,0,0,0,404.58,707.26Z" transform="translate(-166.88 -561.4)"/><path d="M423.73,701.69H371.31a1.16,1.16,0,0,0-1.16,1.14v0h0A1.15,1.15,0,0,0,371.3,704h52.43a1.15,1.15,0,0,0,1.15-1.14h0a1.15,1.15,0,0,0-1.13-1.16Z" transform="translate(-166.88 -561.4)"/><path d="M450,696.13h-4.63a1.16,1.16,0,0,0-1.16,1.16h0a1.16,1.16,0,0,0,1.16,1.14H450a1.09,1.09,0,0,0,1.15-1v-.11h0a1.15,1.15,0,0,0-1.14-1.16Z" transform="translate(-166.88 -561.4)"/><path d="M433,707.26H428.4a1.17,1.17,0,0,0-1.16,1.15h0a1.16,1.16,0,0,0,1.16,1.15H433a1.1,1.1,0,0,0,1.15-1v-.11h0A1.15,1.15,0,0,0,433,707.26Z" transform="translate(-166.88 -561.4)"/><path d="M404.58,722.86H352.16A1.15,1.15,0,0,0,351,724h0a1.16,1.16,0,0,0,1.15,1.16h52.42a1.17,1.17,0,0,0,1.16-1.16h0A1.17,1.17,0,0,0,404.58,722.86Z" transform="translate(-166.88 -561.4)"/><path d="M413.71,722.86h-4.57A1.15,1.15,0,0,0,408,724h0a1.16,1.16,0,0,0,1.15,1.16h4.63a1.15,1.15,0,0,0,1.15-1.16h0a1.14,1.14,0,0,0-1.14-1.15Z" transform="translate(-166.88 -561.4)"/><path d="M410.23,712.86H405.6a1.16,1.16,0,0,0-1.16,1.16h0a1.15,1.15,0,0,0,1.16,1.09h4.63a1.09,1.09,0,0,0,1.15-1V714h0A1.16,1.16,0,0,0,410.23,712.86Z" transform="translate(-166.88 -561.4)"/><path d="M366.76,718.38h-14.6a1.16,1.16,0,0,0-1.15,1.16h0a1.14,1.14,0,0,0,1.15,1.09h14.6a1.09,1.09,0,0,0,1.14-1v-.05h0A1.16,1.16,0,0,0,366.76,718.38Z" transform="translate(-166.88 -561.4)"/><path d="M376.08,718.38h-4.63a1.16,1.16,0,0,0-1.15,1.16h0a1.09,1.09,0,0,0,1.09,1.09h4.69a1.15,1.15,0,0,0,1.16-1.09h0A1.17,1.17,0,0,0,376.08,718.38Z" transform="translate(-166.88 -561.4)"/><path d="M435.68,687.92H413.19a1.92,1.92,0,0,0-1.93,1.93h0a1.93,1.93,0,0,0,1.93,1.93h22.49a1.93,1.93,0,0,0,1.93-1.93h0A1.92,1.92,0,0,0,435.68,687.92Z" transform="translate(-166.88 -561.4)"/><path d="M402.53,741.11H352.94A1.93,1.93,0,0,0,351,743h0a1.92,1.92,0,0,0,1.93,1.93h49.59a1.92,1.92,0,0,0,1.93-1.93h0A1.93,1.93,0,0,0,402.53,741.11Z" transform="translate(-166.88 -561.4)"/><path d="M382.22,749.34H352.16a1.13,1.13,0,0,0-1.15,1.13h0a1.16,1.16,0,0,0,1.15,1.16h30.06a1.16,1.16,0,0,0,1.16-1.16h0a1.14,1.14,0,0,0-1.14-1.14Z" transform="translate(-166.88 -561.4)"/><path d="M382.22,766H352.16a1.13,1.13,0,0,0-1.15,1.13h0a1.16,1.16,0,0,0,1.15,1.16h30.06a1.16,1.16,0,0,0,1.16-1.16h0a1.15,1.15,0,0,0-1.14-1.15Z" transform="translate(-166.88 -561.4)"/><path d="M366.76,754.9h-14.6A1.14,1.14,0,0,0,351,756h0a1.16,1.16,0,0,0,1.15,1.16h14.6A1.16,1.16,0,0,0,367.9,756h0a1.09,1.09,0,0,0-1.09-1.09Z" transform="translate(-166.88 -561.4)"/><path d="M423.73,760.46H409.14a1.09,1.09,0,0,0-1.14,1v.11h0a1.15,1.15,0,0,0,1.14,1.15h14.6a1.14,1.14,0,0,0,1.15-1.15h0a1.15,1.15,0,0,0-1.14-1.15Z" transform="translate(-166.88 -561.4)"/><path d="M400.92,766H386.33a1.08,1.08,0,0,0-1.15,1v.11h0a1.17,1.17,0,0,0,1.15,1.16h14.59a1.17,1.17,0,0,0,1.15-1.16h0a1.09,1.09,0,0,0-1-1.14Z" transform="translate(-166.88 -561.4)"/><path d="M397.34,771.59H382.76a1.15,1.15,0,0,0-1.16,1.13h0a1.16,1.16,0,0,0,1.16,1.16h14.58a1.16,1.16,0,0,0,1.16-1.16h0a1.14,1.14,0,0,0-1.15-1.14Z" transform="translate(-166.88 -561.4)"/><path d="M440,749.34H387.53a1.09,1.09,0,0,0-1.15,1v.11h0a1.16,1.16,0,0,0,1.15,1.16H440a1.16,1.16,0,0,0,1.14-1.16h0a1.09,1.09,0,0,0-1-1.14Z" transform="translate(-166.88 -561.4)"/><path d="M404.58,760.46H352.16A1.14,1.14,0,0,0,351,761.6h0a1.15,1.15,0,0,0,1.15,1.15h52.42a1.16,1.16,0,0,0,1.16-1.15h0A1.16,1.16,0,0,0,404.58,760.46Z" transform="translate(-166.88 -561.4)"/><path d="M423.73,754.9H371.31a1.15,1.15,0,0,0-1.16,1.09h0a1.16,1.16,0,0,0,1.16,1.16h52.42a1.15,1.15,0,0,0,1.15-1.16h0A1.14,1.14,0,0,0,423.73,754.9Z" transform="translate(-166.88 -561.4)"/><path d="M450,749.34h-4.63a1.16,1.16,0,0,0-1.16,1.14h0a1.17,1.17,0,0,0,1.16,1.16H450a1.16,1.16,0,0,0,1.15-1.16h0a1.09,1.09,0,0,0-1-1.14Z" transform="translate(-166.88 -561.4)"/><path d="M433,760.46H428.4a1.16,1.16,0,0,0-1.16,1.15h0a1.17,1.17,0,0,0,1.16,1.15H433a1.15,1.15,0,0,0,1.15-1.15h0a1.1,1.1,0,0,0-1-1.15Z" transform="translate(-166.88 -561.4)"/><path d="M404.58,776.06H352.16a1.13,1.13,0,0,0-1.15,1.13v0h0a1.14,1.14,0,0,0,1.14,1.14h52.43a1.16,1.16,0,0,0,1.16-1.14h0A1.16,1.16,0,0,0,404.58,776.06Z" transform="translate(-166.88 -561.4)"/><path d="M413.71,776.06h-4.57a1.13,1.13,0,0,0-1.15,1.13v0h0a1.14,1.14,0,0,0,1.14,1.14h4.64a1.13,1.13,0,0,0,1.15-1.13h0a1.14,1.14,0,0,0-1.13-1.16Z" transform="translate(-166.88 -561.4)"/><path d="M410.23,766H405.6a1.15,1.15,0,0,0-1.16,1.13h0a1.16,1.16,0,0,0,1.16,1.16h4.63a1.17,1.17,0,0,0,1.15-1.16h0a1.09,1.09,0,0,0-1-1.14Z" transform="translate(-166.88 -561.4)"/><path d="M366.76,771.59h-14.6a1.13,1.13,0,0,0-1.15,1.13h0a1.16,1.16,0,0,0,1.15,1.16h14.6a1.16,1.16,0,0,0,1.14-1.16h0a1.09,1.09,0,0,0-1-1.14Z" transform="translate(-166.88 -561.4)"/><path d="M376.08,771.59h-4.63a1.09,1.09,0,0,0-1.15,1v.11h0a1.16,1.16,0,0,0,1.15,1.16h4.63a1.17,1.17,0,0,0,1.16-1.16h0A1.16,1.16,0,0,0,376.08,771.59Z" transform="translate(-166.88 -561.4)"/><path d="M435.68,741.11H413.19a1.93,1.93,0,0,0-1.93,1.93h0a1.92,1.92,0,0,0,1.93,1.93h22.49a1.92,1.92,0,0,0,1.93-1.93h0A1.93,1.93,0,0,0,435.68,741.11Z" transform="translate(-166.88 -561.4)"/></g><rect class="cls-25" x="299.97" y="59.76" width="78.17" height="160.63" rx="12.48"/><path class="cls-26" d="M534.58,622.73a8.71,8.71,0,0,1,8.72,8.72V771.53a8.72,8.72,0,0,1-8.72,8.73H477.31a8.73,8.73,0,0,1-8.72-8.73V631.42a8.73,8.73,0,0,1,8.72-8.73h57.27" transform="translate(-166.88 -561.4)"/><path class="cls-27" d="M534.41,624.37h-7.22a.9.9,0,0,0-.87.79,5.77,5.77,0,0,1-5.71,5H491.25a5.77,5.77,0,0,1-5.71-5,.88.88,0,0,0-.86-.79h-7.23a7.37,7.37,0,0,0-7.37,7.36V771.22a7.37,7.37,0,0,0,7.37,7.36h57a7.37,7.37,0,0,0,7.37-7.36V631.73A7.37,7.37,0,0,0,534.41,624.37Z" transform="translate(-166.88 -561.4)"/><path class="cls-26" d="M510.83,625.91H500.77a.51.51,0,0,1-.52-.51h0a.52.52,0,0,1,.52-.52h10.12a.51.51,0,0,1,.51.52h0a.51.51,0,0,1-.51.51Z" transform="translate(-166.88 -561.4)"/><circle class="cls-26" cx="348.27" cy="63.99" r="0.96"/><circle class="cls-27" cx="348.27" cy="63.99" r="0.73"/><circle class="cls-28" cx="348.27" cy="63.99" r="0.17"/><path class="cls-26" d="M498.65,717l3.39-2.18-2-5a11.57,11.57,0,0,0,1.67-2.36l5.45.2.88-3.9-5-2.19a11.41,11.41,0,0,0-.48-2.85l4-3.69-2.18-3.38-5,2A11.26,11.26,0,0,0,497,692l.2-5.45-3.89-.88-2.19,5a11.41,11.41,0,0,0-2.84.48l-3.69-4-3.38,2.13,2,5a11.2,11.2,0,0,0-1.67,2.36l-5.45-.19-.88,3.89,4.95,2.18a11.13,11.13,0,0,0,.49,2.86l-3.86,3.78,2.18,3.39,5-2a10.84,10.84,0,0,0,2.36,1.67l-.2,5.45,3.9.89,2.19-5a11.6,11.6,0,0,0,2.85-.5ZM484,706.93a9,9,0,1,1,12.43,2.8l0,0A9,9,0,0,1,484,706.93Z" transform="translate(-166.88 -561.4)"/><path class="cls-26" d="M528.83,703.82l3-2.57-2.64-4.75a11.12,11.12,0,0,0,1.33-2.56l5.38-.55.35-4-5.2-1.46a11.66,11.66,0,0,0-.87-2.76l3.41-4.19-2.57-3-4.72,2.65a10.84,10.84,0,0,0-2.57-1.34l-.55-5.38-4-.35-1.46,5.22a10.81,10.81,0,0,0-2.76.87l-4.2-3.43-3.05,2.58,2.64,4.71a11.4,11.4,0,0,0-1.33,2.57l-5.38.55-.35,4,5.2,1.46a12.16,12.16,0,0,0,.88,2.76L506,699l2.58,3.07,4.71-2.65a11.82,11.82,0,0,0,2.57,1.33l.55,5.38,4,.34,1.46-5.2a11.59,11.59,0,0,0,2.77-.87Zm-15.89-8a9,9,0,1,1,12.69,1.09,9,9,0,0,1-12.69-1.09Z" transform="translate(-166.88 -561.4)"/><path class="cls-26" d="M527.64,730.31,530,727l-3.73-3.9a11,11,0,0,0,.65-2.83l5.08-1.86-.65-4-5.46-.12a11.66,11.66,0,0,0-1.54-2.46l2.27-4.9-3.27-2.33-3.9,3.73a11.39,11.39,0,0,0-2.83-.64l-1.86-5.08-4,.65-.12,5.46a11.37,11.37,0,0,0-2.46,1.53l-4.91-2.27L501,711.35l3.74,3.9a11.87,11.87,0,0,0-.65,2.83L499,719.94l.65,3.95,5.45.12a11.69,11.69,0,0,0,1.53,2.47l-2.27,4.9,3.27,2.33,3.91-3.74a11.91,11.91,0,0,0,2.82.65l1.87,5.07,3.95-.65.12-5.46a10.89,10.89,0,0,0,2.45-1.52Zm-17.39-3.8a9,9,0,1,1,12.59-2.1h0a9,9,0,0,1-12.57,2.1Z" transform="translate(-166.88 -561.4)"/><line class="cls-29" x1="298.17" y1="223.9" x2="379.93" y2="223.9"/><line class="cls-29" x1="295.79" y1="58.72" x2="295.79" y2="221.53"/><line class="cls-29" x1="379.93" y1="56.34" x2="298.17" y2="56.34"/><line class="cls-29" x1="382.31" y1="221.61" x2="382.31" y2="58.72"/><rect class="cls-29" x="379.93" y="53.98" width="4.73" height="4.73"/><rect class="cls-29" x="293.43" y="53.98" width="4.73" height="4.73"/><rect class="cls-29" x="379.93" y="221.53" width="4.73" height="4.73"/><rect class="cls-29" x="293.43" y="221.53" width="4.73" height="4.73"/><rect class="cls-30" x="392.92" y="224.77" width="44.24" height="0.43"/><rect class="cls-30" x="391.43" y="189.13" width="0.43" height="34.58"/><rect class="cls-30" x="392.92" y="187.63" width="44.24" height="0.43"/><rect class="cls-30" x="438.22" y="189.13" width="0.43" height="34.62"/><path class="cls-30" d="M606.82,750.74h-3v-3h3Zm-2.57-.42h2.18v-2.18h-2.18Z" transform="translate(-166.88 -561.4)"/><path class="cls-30" d="M560,750.74h-3v-3h3Zm-2.56-.42h2.18v-2.18h-2.18Z" transform="translate(-166.88 -561.4)"/><path class="cls-30" d="M606.82,787.88h-3v-3h3Zm-2.57-.42h2.18v-2.18h-2.18Z" transform="translate(-166.88 -561.4)"/><path class="cls-30" d="M560,787.88h-3v-3h3Zm-2.56-.42h2.18v-2.18h-2.18Z" transform="translate(-166.88 -561.4)"/><rect class="cls-31" x="394.74" y="190.5" width="40.59" height="31.83"/><rect class="cls-28" x="395.86" y="191.64" width="38.36" height="29.56"/><path class="cls-32" d="M568.31,763.64a2.67,2.67,0,0,0,1.66-.76c.22-.21.41-.51.69-.61a1.26,1.26,0,0,1,1.09.4,2.6,2.6,0,0,1-.55-.8.85.85,0,0,1,.18-.9.82.82,0,0,1,1.13.24l0,0a1.68,1.68,0,0,1-.06-.86,1.33,1.33,0,0,1,.89-1,1.44,1.44,0,0,1,1.36.19,1.46,1.46,0,0,1,.42,1.61.71.71,0,0,1,1-.15,1.1,1.1,0,0,1,.45.93,1.51,1.51,0,0,1,.42-1.09,1.72,1.72,0,0,1,2.25-.06,2.11,2.11,0,0,1,.56,2.25.82.82,0,0,1,1.09-.12c.12.1.2.24.32.36a1.46,1.46,0,0,0,1.1.34h-14" transform="translate(-166.88 -561.4)"/><path class="cls-32" d="M582.48,758.51a.79.79,0,0,0,.48-.22c.07-.06.11-.15.2-.17a.35.35,0,0,1,.33.11.6.6,0,0,1-.16-.23.19.19,0,1,1,.32-.19h0a.53.53,0,0,1,0-.25.33.33,0,0,1,.25-.27.42.42,0,0,1,.39.05.41.41,0,0,1,.12.46.21.21,0,0,1,.28,0,.37.37,0,0,1,.12.26.47.47,0,0,1,.12-.32.49.49,0,0,1,.64,0,.57.57,0,0,1,.16.64.24.24,0,0,1,.32,0,.52.52,0,0,1,.1.11.41.41,0,0,0,.3.1h-4" transform="translate(-166.88 -561.4)"/><path class="cls-32" d="M588.93,762.56a1.3,1.3,0,0,0,.77-.35,1.17,1.17,0,0,1,.33-.3.58.58,0,0,1,.53.19,1.34,1.34,0,0,1-.25-.37.35.35,0,0,1,.09-.49.34.34,0,0,1,.48.09.33.33,0,0,1,.06.1.68.68,0,0,1,0-.4.6.6,0,0,1,.41-.46.65.65,0,0,1,.84.35.69.69,0,0,1,0,.49.37.37,0,0,1,.45-.08.51.51,0,0,1,.2.44.74.74,0,0,1,.21-.53.79.79,0,0,1,1.09,0,1,1,0,0,1,.26,1.09.4.4,0,0,1,.54-.07l.15.18a.73.73,0,0,0,.51.16h-6.54" transform="translate(-166.88 -561.4)"/><rect class="cls-33" x="395.86" y="207.37" width="38.36" height="13.83"/><path class="cls-34" d="M601.11,777.68a178.44,178.44,0,0,1-19.18,1.48,148.25,148.25,0,0,1-19.18-1.48v4.92h38.36Z" transform="translate(-166.88 -561.4)"/><rect class="cls-30" x="445.4" y="224.77" width="44.24" height="0.43"/><rect class="cls-30" x="443.9" y="189.13" width="0.43" height="34.58"/><rect class="cls-30" x="445.4" y="187.63" width="44.24" height="0.43"/><rect class="cls-30" x="490.71" y="189.13" width="0.43" height="34.62"/><path class="cls-30" d="M659.29,750.74h-3v-3h3Zm-2.56-.42h2.18v-2.18h-2.18Z" transform="translate(-166.88 -561.4)"/><path class="cls-30" d="M612.49,750.74h-3v-3h3Zm-2.56-.42h2.18v-2.18h-2.18Z" transform="translate(-166.88 -561.4)"/><path class="cls-30" d="M659.29,787.88h-3v-3h3Zm-2.56-.42h2.18v-2.18h-2.18Z" transform="translate(-166.88 -561.4)"/><path class="cls-30" d="M612.49,787.88h-3v-3h3Zm-2.56-.42h2.18v-2.18h-2.18Z" transform="translate(-166.88 -561.4)"/><rect class="cls-31" x="447.23" y="190.5" width="40.59" height="31.83"/><rect class="cls-28" x="448.33" y="191.64" width="38.36" height="29.56"/><path class="cls-32" d="M620.75,763.64a2.69,2.69,0,0,0,1.66-.76c.22-.21.4-.51.69-.61a1.25,1.25,0,0,1,1.09.4,2.6,2.6,0,0,1-.55-.8.85.85,0,0,1,.18-.9.82.82,0,0,1,1.12.23l0,0a1.69,1.69,0,0,1-.07-.86,1.4,1.4,0,1,1,2.67.81.73.73,0,0,1,1-.15,1.07,1.07,0,0,1,.45.93,1.48,1.48,0,0,1,.43-1.09,1.69,1.69,0,0,1,2.23-.06,2.11,2.11,0,0,1,.56,2.25.82.82,0,0,1,1.09-.12,2.82,2.82,0,0,1,.33.36c.27.28.57.31,1.09.34H620.65" transform="translate(-166.88 -561.4)"/><path class="cls-32" d="M634.92,758.51a.82.82,0,0,0,.47-.22c.07-.06.12-.15.2-.17a.32.32,0,0,1,.33.11.87.87,0,0,1-.16-.23.23.23,0,0,1,.06-.25c.09-.09.25,0,.33.07a.42.42,0,0,1,.25-.52.42.42,0,0,1,.39.05.42.42,0,0,1,.12.46.2.2,0,0,1,.27,0,.3.3,0,0,1,.13.26.41.41,0,0,1,.12-.32.49.49,0,0,1,.64,0,.59.59,0,0,1,.16.64.24.24,0,0,1,.33,0l.08.11a.47.47,0,0,0,.32.1h-4" transform="translate(-166.88 -561.4)"/><path class="cls-32" d="M641.4,762.56a1.36,1.36,0,0,0,.79-.35.86.86,0,0,1,.37-.26.55.55,0,0,1,.53.18,1.34,1.34,0,0,1-.25-.37.35.35,0,0,1,.09-.49.34.34,0,0,1,.48.09.22.22,0,0,1,.05.11.94.94,0,0,1,0-.41.64.64,0,0,1,.43-.46.65.65,0,0,1,.83.37.64.64,0,0,1,0,.47.36.36,0,0,1,.46-.07.51.51,0,0,1,.2.43.71.71,0,0,1,.2-.53.81.81,0,0,1,1.09,0,1,1,0,0,1,.26,1.09.39.39,0,0,1,.53-.07c0,.06.11.12.15.18a.68.68,0,0,0,.51.16h-6.54" transform="translate(-166.88 -561.4)"/><rect class="cls-33" x="448.33" y="207.37" width="38.36" height="13.83"/><path class="cls-34" d="M653.58,777.68a178.44,178.44,0,0,1-19.18,1.48,148.25,148.25,0,0,1-19.18-1.48v4.92h38.36Z" transform="translate(-166.88 -561.4)"/><path class="cls-27" d="M649,727H567.3a5.73,5.73,0,0,0-5.74,5.73h0a5.74,5.74,0,0,0,5.72,5.74h81.66a5.73,5.73,0,0,0,5.74-5.72v0h0A5.73,5.73,0,0,0,649,727Z" transform="translate(-166.88 -561.4)"/><path class="cls-35" d="M574.63,730.12a2.27,2.27,0,0,0-3.87,2.34l-.56.36a.51.51,0,0,0-.48,0l-4.11,2.78a.49.49,0,0,0,.54.81l4.12-2.78a.46.46,0,0,0,.21-.42l.55-.38a2.27,2.27,0,0,0,3.6-2.74Zm-3.4,2.29a1.83,1.83,0,1,1,2.54.49h0a1.84,1.84,0,0,1-2.54-.49Z" transform="translate(-166.88 -561.4)"/><rect class="cls-30" x="392.92" y="179.04" width="96.71" height="0.43"/><rect class="cls-30" x="391.43" y="164.62" width="0.43" height="13.36"/><rect class="cls-30" x="392.92" y="163.11" width="96.71" height="0.43"/><rect class="cls-30" x="490.71" y="164.62" width="0.43" height="13.39"/><path class="cls-30" d="M659.29,726.22h-3v-3h3Zm-2.56-.42h2.18v-2.18h-2.18Z" transform="translate(-166.88 -561.4)"/><path class="cls-30" d="M560,726.22h-3v-3h3Zm-2.56-.42h2.18v-2.18h-2.18Z" transform="translate(-166.88 -561.4)"/><path class="cls-30" d="M659.29,742.15h-3v-3h3Zm-2.56-.43h2.18v-2.18h-2.18Z" transform="translate(-166.88 -561.4)"/><path class="cls-30" d="M560,742.15h-3v-3h3Zm-2.56-.43h2.18v-2.18h-2.18Z" transform="translate(-166.88 -561.4)"/><rect class="cls-27" x="397.59" y="63.12" width="38.59" height="38.59"/><path class="cls-30" d="M583.77,657.36a15.72,15.72,0,0,0,9.19-3,15.23,15.23,0,0,0-2.58-6.55,1.83,1.83,0,0,0-.45-.47,10.41,10.41,0,0,0-12.32,0,2.27,2.27,0,0,0-.46.47,15.38,15.38,0,0,0-2.59,6.55A15.65,15.65,0,0,0,583.77,657.36Z" transform="translate(-166.88 -561.4)"/><path class="cls-30" d="M583.77,657.36A15.47,15.47,0,0,0,592,655a17,17,0,0,0-2.36-7.35,1.75,1.75,0,0,0-.4-.46,8.25,8.25,0,0,0-10.91,0,2.21,2.21,0,0,0-.4.46,17.29,17.29,0,0,0-2.36,7.35A15.53,15.53,0,0,0,583.77,657.36Z" transform="translate(-166.88 -561.4)"/><path class="cls-30" d="M581.58,641.34v4.37c0,.44,1,.81,2.18.81s2.18-.37,2.18-.81v-4.37Z" transform="translate(-166.88 -561.4)"/><path class="cls-30" d="M590,636.8a.51.51,0,0,0-.35-.22c-.44-.07-.81.47-1,.8a.11.11,0,0,0,0,.08,2.85,2.85,0,0,0-.48,1.94.25.25,0,0,0,.23.22.8.8,0,0,0,1,.34.76.76,0,0,0,.34-.66C589.87,638.51,590.58,637.6,590,636.8Z" transform="translate(-166.88 -561.4)"/><path class="cls-30" d="M577.76,639.3a.73.73,0,0,0,.35.66.8.8,0,0,0,1-.34.24.24,0,0,0,.23-.22,2.9,2.9,0,0,0-.47-1.94.11.11,0,0,0,0-.08c-.14-.33-.51-.87-1-.8a.45.45,0,0,0-.35.22C577,637.6,577.67,638.51,577.76,639.3Z" transform="translate(-166.88 -561.4)"/><path class="cls-26" d="M589.72,633.72a1.27,1.27,0,0,0,0-.39,2.06,2.06,0,0,0-.31-.9,2.6,2.6,0,0,0-.61-.59,1.23,1.23,0,0,0,.23-.77c0-.92-1-1.22-1.76-1.4a9.78,9.78,0,0,0-6.15.66,2.9,2.9,0,0,1-.57.12c-.22,0-.43.12-.64.19a4.7,4.7,0,0,0-1.23.66,2.8,2.8,0,0,0-.86,1,3,3,0,0,0-.2,1.52,18.82,18.82,0,0,0,.67,3.79c0,.23.08.93.31,1.09a7.87,7.87,0,0,0,3.72.5c1.84,0,3.69-.36,5.54-.3h.65a.72.72,0,0,0,.46,0,.34.34,0,0,0,.09-.19A30.75,30.75,0,0,0,589.72,633.72Z" transform="translate(-166.88 -561.4)"/><path class="cls-30" d="M588.14,633.48H588a3,3,0,0,0-1,.2,16.06,16.06,0,0,1-6.33,0,2.82,2.82,0,0,0-1-.2h-.17a.93.93,0,0,0-.93.93v5.7a5.31,5.31,0,1,0,10.6.68c0-.22,0-.45,0-.68v-5.7a.93.93,0,0,0-.93-.93Z" transform="translate(-166.88 -561.4)"/><path class="cls-33" d="M601.33,661.37H566.21V626.24h35.12Zm-34.9-.21h34.68v-34.7H566.42Z" transform="translate(-166.88 -561.4)"/><rect class="cls-30" x="444.58" y="63.12" width="38.59" height="38.59"/><path class="cls-35" d="M631,632.92H616.7a1.33,1.33,0,0,0-1.33,1.33h0a1.33,1.33,0,0,0,1.33,1.32H631a1.32,1.32,0,0,0,1.32-1.32h0A1.33,1.33,0,0,0,631,632.92Z" transform="translate(-166.88 -561.4)"/><rect class="cls-26" x="448.48" y="77.98" width="10.23" height="1.58" rx="0.79"/><rect class="cls-26" x="448.48" y="89.42" width="10.23" height="1.58" rx="0.79"/><rect class="cls-26" x="448.48" y="81.8" width="5.34" height="1.58" rx="0.79"/><rect class="cls-26" x="466.5" y="85.62" width="5.34" height="1.58" rx="0.79"/><rect class="cls-26" x="459.29" y="89.42" width="5.34" height="1.58" rx="0.79"/><rect class="cls-26" x="459.67" y="77.98" width="17.31" height="1.58" rx="0.79"/><rect class="cls-26" x="448.48" y="85.62" width="17.31" height="1.58" rx="0.79"/><rect class="cls-26" x="454.54" y="81.8" width="17.31" height="1.58" rx="0.79"/><rect class="cls-26" x="477.96" y="77.98" width="2.19" height="1.58" rx="0.79"/><rect class="cls-26" x="472.59" y="85.62" width="2.19" height="1.58" rx="0.79"/><rect class="cls-26" x="465.39" y="89.42" width="2.19" height="1.58" rx="0.79"/><rect class="cls-26" x="448.48" y="93.24" width="5.34" height="1.58" rx="0.79"/><rect class="cls-26" x="454.59" y="93.24" width="2.19" height="1.58" rx="0.79"/><path class="cls-35" d="M641.47,632.92h-5.69a1.33,1.33,0,0,0-1.32,1.33h0a1.32,1.32,0,0,0,1.32,1.32h5.69a1.32,1.32,0,0,0,1.32-1.32h0A1.33,1.33,0,0,0,641.47,632.92Z" transform="translate(-166.88 -561.4)"/><rect class="cls-35" x="397.59" y="109.41" width="38.59" height="38.59"/><path class="cls-30" d="M589.41,702l2.71-1.72-1.59-4a9.36,9.36,0,0,0,1.35-1.9l4.37.15.71-3.13-4-1.73a9.32,9.32,0,0,0-.4-2.29l3.19-3-1.72-2.72-4,1.6a8.7,8.7,0,0,0-1.9-1.34l.16-4.37-3.14-.72-1.73,4a9.32,9.32,0,0,0-2.29.4l-3-3.18-2.72,1.7,1.59,4a8.7,8.7,0,0,0-1.34,1.9l-4.37-.15-.71,3.13,4,1.73a8.44,8.44,0,0,0,.38,2.29l-3.18,3,1.72,2.72,4-1.59a8.7,8.7,0,0,0,1.9,1.34l-.15,4.37,3.13.72,1.73-4a8.52,8.52,0,0,0,2.3-.38Zm-11.77-8.12a7.24,7.24,0,1,1,10,2.26h0a7.25,7.25,0,0,1-10-2.25Z" transform="translate(-166.88 -561.4)"/><path class="cls-30" d="M659.08,621v-5.88h-5.87v2.62h-91v-2.62h-5.89V621H559v91h-2.63v5.88h5.89v-2.62h91v2.62h5.87V712h-2.62V621Zm-5.24-5.24h4.6v4.61h-4.6Zm-96.87,0h4.6v4.61H557Zm4.6,101.44H557v-4.6h4.6Zm96.87,0h-4.6v-4.6h4.6Zm-2.62-5.25h-2.61v2.63h-91v-2.63h-2.63V621h2.63v-2.62h91V621h2.61Z" transform="translate(-166.88 -561.4)"/><rect class="cls-27" x="444.58" y="109.41" width="38.59" height="38.59"/><path class="cls-25" d="M648.33,707.57H613.2V672.44h35.13Zm-34.9-.22h34.7V672.66H613.4Z" transform="translate(-166.88 -561.4)"/><path class="cls-25" d="M402.53,631.44H352.94a1.94,1.94,0,0,0-1.93,1.93h0a1.92,1.92,0,0,0,1.93,1.93h49.59a1.92,1.92,0,0,0,1.93-1.93h0A1.92,1.92,0,0,0,402.53,631.44Z" transform="translate(-166.88 -561.4)"/><path class="cls-33" d="M382.22,639.66H352.16A1.15,1.15,0,0,0,351,640.8h0a1.16,1.16,0,0,0,1.15,1.16h30.06a1.16,1.16,0,0,0,1.16-1.16h0a1.15,1.15,0,0,0-1.14-1.15Z" transform="translate(-166.88 -561.4)"/><path class="cls-30" d="M382.22,656.35H352.16a1.14,1.14,0,0,0-1.15,1.14h0a1.13,1.13,0,0,0,1.13,1.15h30.08a1.14,1.14,0,0,0,1.16-1.13v0h0a1.15,1.15,0,0,0-1.14-1.15Z" transform="translate(-166.88 -561.4)"/><path class="cls-28" d="M366.76,645.24h-14.6a1.14,1.14,0,0,0-1.15,1.09h0a1.15,1.15,0,0,0,1.15,1.15h14.6a1.15,1.15,0,0,0,1.14-1.15h0a1.09,1.09,0,0,0-1.09-1.09Z" transform="translate(-166.88 -561.4)"/><path class="cls-30" d="M423.73,650.79H409.14a1.09,1.09,0,0,0-1.14,1v.06h0a1.15,1.15,0,0,0,1.08,1.21h14.66a1.13,1.13,0,0,0,1.15-1.13v0h0a1.14,1.14,0,0,0-1.14-1.15Z" transform="translate(-166.88 -561.4)"/><path class="cls-30" d="M400.92,656.35H386.33a1.09,1.09,0,0,0-1.15,1v.11h0a1.14,1.14,0,0,0,1.14,1.15h14.6a1.15,1.15,0,0,0,1.15-1.14h0a1.1,1.1,0,0,0-1-1.15Z" transform="translate(-166.88 -561.4)"/><path class="cls-30" d="M397.34,661.92H382.76a1.15,1.15,0,0,0-1.16,1.13h0a1.16,1.16,0,0,0,1.14,1.16h14.6a1.16,1.16,0,0,0,1.16-1.14v0h0a1.14,1.14,0,0,0-1.15-1.14Z" transform="translate(-166.88 -561.4)"/><path class="cls-30" d="M440,639.66H387.53a1.1,1.1,0,0,0-1.15,1v.11h0a1.17,1.17,0,0,0,1.15,1.16H440a1.16,1.16,0,0,0,1.14-1.16h0a1.1,1.1,0,0,0-1-1.15Z" transform="translate(-166.88 -561.4)"/><path class="cls-30" d="M404.58,650.79H352.16a1.14,1.14,0,0,0-1.15,1.09h0a1.15,1.15,0,0,0,1.13,1.16h52.44a1.16,1.16,0,0,0,1.16-1.16h0A1.15,1.15,0,0,0,404.58,650.79Z" transform="translate(-166.88 -561.4)"/><path class="cls-33" d="M423.73,645.24H371.31a1.14,1.14,0,0,0-1.16,1.09h0a1.15,1.15,0,0,0,1.16,1.15h52.42a1.14,1.14,0,0,0,1.15-1.15h0A1.14,1.14,0,0,0,423.73,645.24Z" transform="translate(-166.88 -561.4)"/><path class="cls-30" d="M450,639.66h-4.63a1.17,1.17,0,0,0-1.16,1.15h0a1.17,1.17,0,0,0,1.16,1.16H450a1.17,1.17,0,0,0,1.15-1.16h0a1.1,1.1,0,0,0-1-1.15Z" transform="translate(-166.88 -561.4)"/><path class="cls-30" d="M433,650.79H428.4a1.15,1.15,0,0,0-1.16,1.09h0A1.16,1.16,0,0,0,428.4,653H433a1.16,1.16,0,0,0,1.15-1.15h0a1.09,1.09,0,0,0-1.09-1.09Z" transform="translate(-166.88 -561.4)"/><path class="cls-30" d="M404.58,666.39H352.16a1.13,1.13,0,0,0-1.15,1.13v0h0a1.14,1.14,0,0,0,1.14,1.15h52.43a1.16,1.16,0,0,0,1.16-1.15h0A1.15,1.15,0,0,0,404.58,666.39Z" transform="translate(-166.88 -561.4)"/><path class="cls-30" d="M413.71,666.39h-4.57a1.13,1.13,0,0,0-1.15,1.13v0h0a1.14,1.14,0,0,0,1.14,1.15h4.64a1.14,1.14,0,0,0,1.15-1.14h0a1.13,1.13,0,0,0-1.13-1.15Z" transform="translate(-166.88 -561.4)"/><path class="cls-30" d="M410.23,656.35H405.6a1.16,1.16,0,0,0-1.16,1.14h0a1.14,1.14,0,0,0,1.14,1.15h4.65a1.14,1.14,0,0,0,1.15-1.14h0a1.09,1.09,0,0,0-1-1.15Z" transform="translate(-166.88 -561.4)"/><path class="cls-34" d="M366.76,661.92h-14.6a1.13,1.13,0,0,0-1.15,1.13h0a1.15,1.15,0,0,0,1.13,1.16h14.62a1.15,1.15,0,0,0,1.14-1.15h0a1.09,1.09,0,0,0-1-1.14Z" transform="translate(-166.88 -561.4)"/><path class="cls-34" d="M376.08,661.92h-4.63a1.09,1.09,0,0,0-1.15,1v.11h0a1.16,1.16,0,0,0,1.14,1.16h4.64a1.16,1.16,0,0,0,1.16-1.16h0A1.16,1.16,0,0,0,376.08,661.92Z" transform="translate(-166.88 -561.4)"/><path class="cls-25" d="M435.68,631.44H413.19a1.92,1.92,0,0,0-1.93,1.93h0a1.92,1.92,0,0,0,1.93,1.93h22.49a1.92,1.92,0,0,0,1.93-1.93h0A1.92,1.92,0,0,0,435.68,631.44Z" transform="translate(-166.88 -561.4)"/><path class="cls-25" d="M402.53,684.65H352.94a1.92,1.92,0,0,0-1.93,1.93h0a1.93,1.93,0,0,0,1.93,1.93h49.59a1.93,1.93,0,0,0,1.93-1.93h0A1.92,1.92,0,0,0,402.53,684.65Z" transform="translate(-166.88 -561.4)"/><path class="cls-30" d="M382.22,692.86H352.16A1.13,1.13,0,0,0,351,694v0h0a1.14,1.14,0,0,0,1.14,1.14h30.07a1.14,1.14,0,0,0,1.16-1.13h0a1.14,1.14,0,0,0-1.13-1.16Z" transform="translate(-166.88 -561.4)"/><path class="cls-33" d="M382.22,709.59H352.16a1.15,1.15,0,0,0-1.15,1.09h0a1.14,1.14,0,0,0,1.15,1.09h30.06a1.14,1.14,0,0,0,1.16-1.09h0A1.15,1.15,0,0,0,382.22,709.59Z" transform="translate(-166.88 -561.4)"/><path class="cls-30" d="M366.76,698.42h-14.6a1.14,1.14,0,0,0-1.15,1.14v0h0a1.14,1.14,0,0,0,1.14,1.14h14.61a1.09,1.09,0,0,0,1.14-1,.21.21,0,0,0,0-.11h0a1.15,1.15,0,0,0-1.13-1.16Z" transform="translate(-166.88 -561.4)"/><path class="cls-30" d="M423.73,704H409.14a1.16,1.16,0,0,0-1.14,1.16h0a1.1,1.1,0,0,0,1,1.18h14.74a1.14,1.14,0,0,0,1.15-1.14h0a1.16,1.16,0,0,0-1.12-1.19Z" transform="translate(-166.88 -561.4)"/><path class="cls-33" d="M400.92,709.59H386.33a1.15,1.15,0,0,0-1.18,1.09h0a1.09,1.09,0,0,0,1.09,1.09h14.65a1.09,1.09,0,0,0,1.14-1v-.06h0A1.15,1.15,0,0,0,400.92,709.59Z" transform="translate(-166.88 -561.4)"/><path class="cls-30" d="M397.34,715.11H382.76a1.16,1.16,0,0,0-1.16,1.16h0a1.15,1.15,0,0,0,1.16,1.09h14.58a1.15,1.15,0,0,0,1.16-1.09h0A1.16,1.16,0,0,0,397.34,715.11Z" transform="translate(-166.88 -561.4)"/><path class="cls-34" d="M440,692.86H387.53a1.14,1.14,0,0,0-1.15,1.14v0h0a1.09,1.09,0,0,0,1,1.14H440a1.09,1.09,0,0,0,1.14-1V694h0a1.14,1.14,0,0,0-1.13-1.16Z" transform="translate(-166.88 -561.4)"/><path class="cls-30" d="M404.58,704H352.16a1.16,1.16,0,0,0-1.15,1.16h0a1.15,1.15,0,0,0,1.14,1.15h52.43a1.17,1.17,0,0,0,1.16-1.15h0A1.17,1.17,0,0,0,404.58,704Z" transform="translate(-166.88 -561.4)"/><path class="cls-30" d="M423.73,698.42H371.31a1.15,1.15,0,0,0-1.16,1.14v0h0a1.14,1.14,0,0,0,1.15,1.14h52.43a1.13,1.13,0,0,0,1.15-1.13h0a1.15,1.15,0,0,0-1.13-1.16Z" transform="translate(-166.88 -561.4)"/><path class="cls-34" d="M450,692.86h-4.63A1.16,1.16,0,0,0,444.2,694h0a1.16,1.16,0,0,0,1.16,1.14H450a1.09,1.09,0,0,0,1.15-1V694h0a1.15,1.15,0,0,0-1.14-1.16Z" transform="translate(-166.88 -561.4)"/><path class="cls-30" d="M433,704H428.4a1.17,1.17,0,0,0-1.16,1.16h0a1.17,1.17,0,0,0,1.16,1.15H433a1.1,1.1,0,0,0,1.15-1v-.11h0A1.17,1.17,0,0,0,433,704Z" transform="translate(-166.88 -561.4)"/><path class="cls-30" d="M404.58,719.59H352.16a1.14,1.14,0,0,0-1.15,1.14h0a1.15,1.15,0,0,0,1.15,1.15h52.42a1.16,1.16,0,0,0,1.16-1.15h0A1.16,1.16,0,0,0,404.58,719.59Z" transform="translate(-166.88 -561.4)"/><path class="cls-30" d="M413.71,719.59h-4.57a1.14,1.14,0,0,0-1.15,1.14h0a1.15,1.15,0,0,0,1.15,1.15h4.63a1.14,1.14,0,0,0,1.15-1.15h0a1.14,1.14,0,0,0-1.14-1.15Z" transform="translate(-166.88 -561.4)"/><path class="cls-30" d="M410.23,709.59H405.6a1.16,1.16,0,0,0-1.16,1.16h0a1.15,1.15,0,0,0,1.16,1.09h4.63a1.1,1.1,0,0,0,1.15-1v0h0A1.16,1.16,0,0,0,410.23,709.59Z" transform="translate(-166.88 -561.4)"/><path class="cls-28" d="M366.76,715.11h-14.6a1.16,1.16,0,0,0-1.15,1.16h0a1.15,1.15,0,0,0,1.15,1.09h14.6a1.09,1.09,0,0,0,1.14-1v-.05h0A1.16,1.16,0,0,0,366.76,715.11Z" transform="translate(-166.88 -561.4)"/><path class="cls-28" d="M376.08,715.11h-4.63a1.16,1.16,0,0,0-1.15,1.16h0a1.09,1.09,0,0,0,1.09,1.09h4.69a1.15,1.15,0,0,0,1.16-1.09h0A1.17,1.17,0,0,0,376.08,715.11Z" transform="translate(-166.88 -561.4)"/><path class="cls-25" d="M435.68,684.65H413.19a1.92,1.92,0,0,0-1.93,1.93h0a1.93,1.93,0,0,0,1.93,1.93h22.49a1.93,1.93,0,0,0,1.93-1.93h0A1.92,1.92,0,0,0,435.68,684.65Z" transform="translate(-166.88 -561.4)"/><path class="cls-25" d="M402.53,737.84H352.94a1.93,1.93,0,0,0-1.93,1.93h0a1.92,1.92,0,0,0,1.93,1.93h49.59a1.92,1.92,0,0,0,1.93-1.93h0A1.93,1.93,0,0,0,402.53,737.84Z" transform="translate(-166.88 -561.4)"/><path class="cls-30" d="M382.22,746.06H352.16A1.15,1.15,0,0,0,351,747.2h0a1.16,1.16,0,0,0,1.15,1.16h30.06a1.16,1.16,0,0,0,1.16-1.16h0a1.15,1.15,0,0,0-1.14-1.15Z" transform="translate(-166.88 -561.4)"/><path class="cls-30" d="M382.22,762.75H352.16a1.14,1.14,0,0,0-1.15,1.14h0a1.15,1.15,0,0,0,1.15,1.15h30.06a1.15,1.15,0,0,0,1.16-1.15h0a1.15,1.15,0,0,0-1.14-1.15Z" transform="translate(-166.88 -561.4)"/><path class="cls-30" d="M366.76,751.63h-14.6a1.14,1.14,0,0,0-1.15,1.09h0a1.15,1.15,0,0,0,1.15,1.15h14.6a1.15,1.15,0,0,0,1.14-1.15h0a1.09,1.09,0,0,0-1.09-1.09Z" transform="translate(-166.88 -561.4)"/><path class="cls-30" d="M423.73,757.19H409.14a1.09,1.09,0,0,0-1.14,1v.12h0a1.15,1.15,0,0,0,1.14,1.15h14.6a1.15,1.15,0,0,0,1.15-1.15h0a1.14,1.14,0,0,0-1.14-1.15Z" transform="translate(-166.88 -561.4)"/><path class="cls-34" d="M400.92,762.75H386.33a1.09,1.09,0,0,0-1.15,1v.11h0a1.15,1.15,0,0,0,1.15,1.15h14.59a1.16,1.16,0,0,0,1.15-1.15h0a1.1,1.1,0,0,0-1-1.15Z" transform="translate(-166.88 -561.4)"/><path class="cls-30" d="M397.34,768.32H382.76a1.15,1.15,0,0,0-1.16,1.13h0a1.16,1.16,0,0,0,1.16,1.16h14.58a1.16,1.16,0,0,0,1.16-1.16h0a1.14,1.14,0,0,0-1.15-1.14Z" transform="translate(-166.88 -561.4)"/><path class="cls-30" d="M440,746.06H387.53a1.1,1.1,0,0,0-1.15,1v.11h0a1.17,1.17,0,0,0,1.15,1.16H440a1.16,1.16,0,0,0,1.14-1.16h0a1.1,1.1,0,0,0-1-1.15Z" transform="translate(-166.88 -561.4)"/><path class="cls-28" d="M404.58,757.19H352.16a1.13,1.13,0,0,0-1.15,1.13v0h0a1.16,1.16,0,0,0,1.15,1.15h52.42a1.16,1.16,0,0,0,1.16-1.15h0A1.16,1.16,0,0,0,404.58,757.19Z" transform="translate(-166.88 -561.4)"/><path class="cls-28" d="M423.73,751.63H371.31a1.14,1.14,0,0,0-1.16,1.09h0a1.15,1.15,0,0,0,1.16,1.15h52.42a1.14,1.14,0,0,0,1.15-1.15h0A1.14,1.14,0,0,0,423.73,751.63Z" transform="translate(-166.88 -561.4)"/><path class="cls-30" d="M450,746.06h-4.63a1.17,1.17,0,0,0-1.16,1.15h0a1.17,1.17,0,0,0,1.16,1.16H450a1.17,1.17,0,0,0,1.15-1.16h0a1.1,1.1,0,0,0-1-1.15Z" transform="translate(-166.88 -561.4)"/><path class="cls-30" d="M433,757.19H428.4a1.16,1.16,0,0,0-1.16,1.15h0a1.17,1.17,0,0,0,1.16,1.15H433a1.15,1.15,0,0,0,1.15-1.15h0a1.1,1.1,0,0,0-1-1.15Z" transform="translate(-166.88 -561.4)"/><path class="cls-33" d="M404.58,772.79H352.16a1.13,1.13,0,0,0-1.15,1.13v0h0a1.14,1.14,0,0,0,1.14,1.15h52.43a1.16,1.16,0,0,0,1.16-1.15h0A1.16,1.16,0,0,0,404.58,772.79Z" transform="translate(-166.88 -561.4)"/><path class="cls-33" d="M413.71,772.79h-4.57a1.13,1.13,0,0,0-1.15,1.13v0h0a1.14,1.14,0,0,0,1.14,1.15h4.64a1.14,1.14,0,0,0,1.15-1.14h0a1.13,1.13,0,0,0-1.13-1.15Z" transform="translate(-166.88 -561.4)"/><path class="cls-34" d="M410.23,762.75H405.6a1.16,1.16,0,0,0-1.16,1.14h0a1.15,1.15,0,0,0,1.16,1.15h4.63a1.15,1.15,0,0,0,1.15-1.15h0a1.09,1.09,0,0,0-1-1.15Z" transform="translate(-166.88 -561.4)"/><path class="cls-30" d="M366.76,768.32h-14.6a1.13,1.13,0,0,0-1.15,1.13h0a1.16,1.16,0,0,0,1.15,1.16h14.6a1.16,1.16,0,0,0,1.14-1.16h0a1.09,1.09,0,0,0-1-1.14A.21.21,0,0,0,366.76,768.32Z" transform="translate(-166.88 -561.4)"/><path class="cls-30" d="M376.08,768.32h-4.63a1.09,1.09,0,0,0-1.15,1v.11h0a1.16,1.16,0,0,0,1.15,1.16h4.63a1.17,1.17,0,0,0,1.16-1.16h0A1.16,1.16,0,0,0,376.08,768.32Z" transform="translate(-166.88 -561.4)"/><path class="cls-25" d="M435.68,737.84H413.19a1.93,1.93,0,0,0-1.93,1.93h0a1.92,1.92,0,0,0,1.93,1.93h22.49a1.92,1.92,0,0,0,1.93-1.93h0A1.93,1.93,0,0,0,435.68,737.84Z" transform="translate(-166.88 -561.4)"/><g class="cls-36"><circle cx="251.57" cy="253.44" r="20.89"/><path d="M443.29,814.85a1.2,1.2,0,0,0-1-1.2A24,24,0,0,0,419.66,791a1.21,1.21,0,0,0-2.39,0,24,24,0,0,0-22.61,22.61,1.2,1.2,0,0,0,0,2.38,24,24,0,0,0,22.61,22.62,1.21,1.21,0,0,0,2.39,0A24,24,0,0,0,442.27,816,1.19,1.19,0,0,0,443.29,814.85Zm-24.83-24.41a.78.78,0,0,1,.78.78.79.79,0,0,1-.78.79.8.8,0,0,1-.79-.79.79.79,0,0,1,.79-.78Zm-24.41,24.41a.79.79,0,1,1,.78.78.78.78,0,0,1-.78-.78Zm24.41,24.41a.8.8,0,0,1-.79-.79.79.79,0,0,1,.79-.78.78.78,0,0,1,.78.78.79.79,0,0,1-.78.79Zm1.19-1a1.22,1.22,0,0,0-2.38,0A23.53,23.53,0,0,1,395.08,816a1.21,1.21,0,0,0,1-1.18,1.19,1.19,0,0,0-1-1.19,23.54,23.54,0,0,1,22.19-22.2,1.21,1.21,0,0,0,2.38,0,23.56,23.56,0,0,1,22.22,22.2,1.21,1.21,0,0,0,0,2.37A23.55,23.55,0,0,1,419.65,838.22Zm22.43-22.59a.79.79,0,1,1,.79-.78.78.78,0,0,1-.79.78Z" transform="translate(-166.88 -561.4)"/><text class="cls-37" transform="translate(243.43 259.03)">JS</text><circle cx="435.92" cy="279.81" r="20.89"/><path d="M627.64,841.22a1.22,1.22,0,0,0-1-1.2A24,24,0,0,0,604,817.41a1.21,1.21,0,0,0-1.39-1,1.23,1.23,0,0,0-1,1A24,24,0,0,0,579,840a1.21,1.21,0,0,0,0,2.39A24,24,0,0,0,601.61,865a1.23,1.23,0,0,0,1.4,1,1.21,1.21,0,0,0,1-1,24,24,0,0,0,22.61-22.61A1.22,1.22,0,0,0,627.64,841.22ZM602.8,816.8a.79.79,0,0,1,.81.78.8.8,0,0,1-.79.81.78.78,0,0,1-.8-.78v0a.79.79,0,0,1,.78-.79Zm-24.41,24.42a.79.79,0,1,1,.79.79h0A.81.81,0,0,1,578.39,841.22Zm24.41,24.41a.8.8,0,1,1,.79-.81v0A.79.79,0,0,1,602.8,865.63Zm1.19-1a1.21,1.21,0,0,0-1.19-1,1.24,1.24,0,0,0-1.19,1,23.51,23.51,0,0,1-22.18-22.19,1.21,1.21,0,0,0,0-2.37,23.53,23.53,0,0,1,22.18-22.2,1.24,1.24,0,0,0,1.19,1,1.21,1.21,0,0,0,1.19-1A23.53,23.53,0,0,1,626.2,840a1.21,1.21,0,0,0,0,2.37A23.52,23.52,0,0,1,604,864.59ZM626.43,842a.8.8,0,0,1,0-1.6.79.79,0,0,1,.8.79v0A.79.79,0,0,1,626.43,842Z" transform="translate(-166.88 -561.4)"/><g class="cls-38"><text class="cls-37" transform="translate(417.89 284.28)">J</text><text class="cls-39" transform="translate(424.2 284.28)">A</text><text class="cls-40" transform="translate(433.76 284.28)">V</text><text class="cls-41" transform="translate(442.31 284.28)">A</text></g><circle cx="696.87" cy="711.94" r="20.89" transform="translate(-313.09 -380.22) rotate(-13.42)"/><path d="M721.71,711.92a1.19,1.19,0,0,0-1.09-1.18A24,24,0,0,0,698,688.13a1.2,1.2,0,0,0-1.19-1,1.22,1.22,0,0,0-1.2,1,24,24,0,0,0-22.52,22.61,1.2,1.2,0,0,0,0,2.38,24,24,0,0,0,22.58,22.65,1.21,1.21,0,0,0,2.39,0,24,24,0,0,0,22.61-22.61A1.21,1.21,0,0,0,721.71,711.92Zm-24.83-24.41a.8.8,0,0,1,0,1.6.81.81,0,0,1-.81-.79v0A.81.81,0,0,1,696.88,687.51Zm-24.41,24.41a.79.79,0,1,1,.78.79A.78.78,0,0,1,672.47,711.92Zm24.41,24.43a.8.8,0,0,1,0-1.6.79.79,0,0,1,.8.79h0A.8.8,0,0,1,696.88,736.35Zm1.19-1a1.23,1.23,0,0,0-1.19-1,1.2,1.2,0,0,0-1.19,1,23.54,23.54,0,0,1-22.2-22.2,1.21,1.21,0,0,0,0-2.36,23.55,23.55,0,0,1,22.2-22.2,1.2,1.2,0,0,0,1.19,1,1.23,1.23,0,0,0,1.19-1,23.53,23.53,0,0,1,22.18,22.2,1.21,1.21,0,0,0,0,2.36A23.53,23.53,0,0,1,698.07,735.31Zm22.43-22.59a.78.78,0,0,1-.8-.78.8.8,0,0,1,1.59,0h0A.79.79,0,0,1,720.5,712.72Z" transform="translate(-166.88 -561.4)"/><text class="cls-37" transform="translate(509.78 155.98)">HTM<tspan class="cls-42" x="37" y="0">L</tspan></text><circle cx="348.26" cy="37.98" r="20.89"/><text class="cls-37" transform="translate(332.96 44)">C++</text><path d="M540,599.43a1.21,1.21,0,0,0-1-1.19,24,24,0,0,0-22.61-22.61,1.21,1.21,0,0,0-2.39,0,24,24,0,0,0-22.61,22.61,1.21,1.21,0,0,0,0,2.39A24,24,0,0,0,514,623.24a1.21,1.21,0,0,0,2.39,0,24,24,0,0,0,22.54-22.67A1.2,1.2,0,0,0,540,599.43ZM515.2,575a.79.79,0,1,1-.79.78.79.79,0,0,1,.73-.84h0Zm-24.46,24.41a.79.79,0,1,1,.79.78.79.79,0,0,1-.79-.78Zm24.41,24.41a.76.76,0,1,0,0-.06Zm1.19-1a1.21,1.21,0,0,0-1.19-1,1.23,1.23,0,0,0-1.19,1,23.53,23.53,0,0,1-22.18-22.29,1.22,1.22,0,0,0,0-2.38A23.53,23.53,0,0,1,514,576a1.23,1.23,0,0,0,1.19,1,1.19,1.19,0,0,0,1.19-1,23.53,23.53,0,0,1,22.19,22.19,1.22,1.22,0,0,0-1,1.19,1.2,1.2,0,0,0,1,1.19,23.53,23.53,0,0,1-22.19,22.24Zm22.44-22.6a.76.76,0,1,0,0-.05Z" transform="translate(-166.88 -561.4)"/><circle cx="153.98" cy="114.84" r="20.89"/><path d="M345.71,676.27a1.22,1.22,0,0,0-1-1.2,24,24,0,0,0-22.61-22.61,1.21,1.21,0,0,0-1.39-1,1.23,1.23,0,0,0-1,1,24,24,0,0,0-22.61,22.61,1.22,1.22,0,0,0-1,1.39,1.23,1.23,0,0,0,1,1,24,24,0,0,0,22.64,22.61,1.21,1.21,0,0,0,1.4,1,1.19,1.19,0,0,0,1-1,24,24,0,0,0,22.61-22.61A1.21,1.21,0,0,0,345.71,676.27Zm-24.84-24.42a.8.8,0,1,1-.7.7A.81.81,0,0,1,320.87,651.85Zm-24.41,24.42a.79.79,0,1,1,1.57,0,.78.78,0,0,1-.78.78A.8.8,0,0,1,296.46,676.27Zm24.41,24.41a.8.8,0,0,1-.7-.88.81.81,0,0,1,.7-.7.8.8,0,0,1,.7.88A.79.79,0,0,1,320.87,700.68Zm1.19-1.09a1.21,1.21,0,0,0-2.38,0,23.54,23.54,0,0,1-22.19-22.2,1.21,1.21,0,0,0,0-2.36,23.54,23.54,0,0,1,22.21-22.16,1.21,1.21,0,0,0,2.38,0,23.54,23.54,0,0,1,22.19,22.2,1.21,1.21,0,0,0,0,2.37,23.53,23.53,0,0,1-22.21,22.2ZM344.5,677a.8.8,0,0,1-.81-.79.8.8,0,0,1,1.59,0v0a.78.78,0,0,1-.73.84h-.05Z" transform="translate(-166.88 -561.4)"/><text class="cls-37" transform="translate(139.33 121.38)">PH<tspan class="cls-43" x="23.73" y="0">P</tspan></text></g><circle class="cls-28" cx="251.58" cy="247.99" r="20.89"/><path class="cls-31" d="M443.29,809.39a1.2,1.2,0,0,0-1-1.2,24,24,0,0,0-22.61-22.61,1.21,1.21,0,0,0-2.39,0,24,24,0,0,0-22.61,22.61,1.21,1.21,0,0,0,0,2.39,24,24,0,0,0,22.61,22.61,1.21,1.21,0,0,0,1.39,1,1.23,1.23,0,0,0,1-1,24,24,0,0,0,22.61-22.61A1.2,1.2,0,0,0,443.29,809.39ZM418.46,785a.79.79,0,1,1-.79.79.79.79,0,0,1,.79-.79Zm-24.41,24.41a.79.79,0,1,1,.78.79.78.78,0,0,1-.78-.79Zm24.41,24.41a.79.79,0,1,1,.78-.78.78.78,0,0,1-.78.78Zm1.19-1a1.22,1.22,0,0,0-2.38,0,23.54,23.54,0,0,1-22.19-22.19,1.22,1.22,0,0,0,1-1.19,1.2,1.2,0,0,0-1-1.19A23.52,23.52,0,0,1,417.27,786a1.21,1.21,0,0,0,2.38,0,23.56,23.56,0,0,1,22.22,22.19,1.21,1.21,0,0,0,0,2.38A23.56,23.56,0,0,1,419.65,832.77Zm22.43-22.59a.79.79,0,1,1,.79-.79.78.78,0,0,1-.79.79Z" transform="translate(-166.88 -561.4)"/><text class="cls-44" transform="translate(243.43 253.58)">JS</text><circle class="cls-33" cx="435.92" cy="274.36" r="20.89"/><path class="cls-31" d="M627.64,835.77a1.22,1.22,0,0,0-1-1.2A24,24,0,0,0,604,812a1.21,1.21,0,0,0-2.39,0A24,24,0,0,0,579,834.57a1.21,1.21,0,0,0,0,2.39,24,24,0,0,0,22.61,22.61,1.21,1.21,0,0,0,1.4,1,1.19,1.19,0,0,0,1-1A24,24,0,0,0,626.61,837,1.23,1.23,0,0,0,627.64,835.77ZM602.8,811.34a.8.8,0,0,1,0,1.6.79.79,0,0,1-.8-.79h0a.81.81,0,0,1,.78-.8Zm-24.41,24.43a.79.79,0,1,1,.79.78h0A.8.8,0,0,1,578.39,835.77Zm24.41,24.41a.8.8,0,0,1,0-1.6.81.81,0,0,1,.81.79v0A.79.79,0,0,1,602.8,860.18Zm1.19-1a1.2,1.2,0,0,0-1.19-1,1.23,1.23,0,0,0-1.19,1,23.53,23.53,0,0,1-22.18-22.2,1.21,1.21,0,0,0,0-2.36,23.53,23.53,0,0,1,22.18-22.2,1.23,1.23,0,0,0,1.19,1,1.2,1.2,0,0,0,1.19-1,23.53,23.53,0,0,1,22.21,22.2,1.21,1.21,0,0,0,0,2.36A23.53,23.53,0,0,1,604,859.14Zm22.44-22.59a.79.79,0,0,1-.81-.78.8.8,0,0,1,.79-.81.78.78,0,0,1,.8.78v0A.78.78,0,0,1,626.43,836.55Z" transform="translate(-166.88 -561.4)"/><circle class="cls-34" cx="696.87" cy="706.49" r="20.89" transform="translate(-311.82 -380.37) rotate(-13.42)"/><path class="cls-31" d="M721.71,706.47a1.2,1.2,0,0,0-1.09-1.19A24,24,0,0,0,698,682.67a1.2,1.2,0,0,0-1.19-1,1.22,1.22,0,0,0-1.2,1,24,24,0,0,0-22.52,22.61,1.21,1.21,0,0,0,0,2.39,24,24,0,0,0,22.58,22.64,1.21,1.21,0,0,0,2.39,0,24,24,0,0,0,22.61-22.61A1.19,1.19,0,0,0,721.71,706.47Zm-24.83-24.41a.79.79,0,0,1,.8.79.78.78,0,0,1-.78.8.79.79,0,0,1-.81-.78v0A.8.8,0,0,1,696.88,682.06Zm-24.41,24.41a.79.79,0,0,1,1.57,0h0a.79.79,0,1,1-1.57,0Zm24.41,24.42a.79.79,0,0,1-.81-.78.8.8,0,0,1,.79-.81.79.79,0,0,1,.8.79h0A.79.79,0,0,1,696.88,730.89Zm1.19-1a1.22,1.22,0,0,0-1.19-1,1.19,1.19,0,0,0-1.19,1,23.56,23.56,0,0,1-22.2-22.2,1.21,1.21,0,0,0,0-2.37,23.54,23.54,0,0,1,22.2-22.19,1.21,1.21,0,0,0,1.19,1,1.24,1.24,0,0,0,1.19-1,23.51,23.51,0,0,1,22.18,22.19,1.21,1.21,0,0,0,0,2.37A23.53,23.53,0,0,1,698.07,729.86Zm22.43-22.59a.79.79,0,0,1-.8-.79.78.78,0,0,1,.78-.8.79.79,0,0,1,.81.78h0A.8.8,0,0,1,720.5,707.27Z" transform="translate(-166.88 -561.4)"/><text class="cls-45" transform="translate(510.62 150.53)">HTM<tspan class="cls-46" x="30.32" y="0">L</tspan></text><circle class="cls-33" cx="348.27" cy="32.52" r="20.89"/><text class="cls-47" transform="translate(330.12 36.48)">REAC<tspan class="cls-48" x="30.56" y="0">T</tspan></text><path class="cls-31" d="M540,594a1.22,1.22,0,0,0-1-1.19,24,24,0,0,0-22.61-22.61,1.21,1.21,0,0,0-1.4-1,1.19,1.19,0,0,0-1,1,24,24,0,0,0-22.61,22.61,1.22,1.22,0,0,0-1,1.4,1.19,1.19,0,0,0,1,1A24,24,0,0,0,514,617.78a1.21,1.21,0,0,0,2.39,0,24,24,0,0,0,22.54-22.66A1.21,1.21,0,0,0,540,594ZM515.2,569.56a.79.79,0,1,1-.79.79.79.79,0,0,1,.73-.84h0ZM490.74,594a.79.79,0,1,1,.79.79.78.78,0,0,1-.79-.79Zm24.41,24.41a.78.78,0,0,1-.78-.78.79.79,0,1,1,.78.73Zm1.19-1a1.2,1.2,0,0,0-1.19-1,1.23,1.23,0,0,0-1.19,1,23.54,23.54,0,0,1-22.18-22.3,1.21,1.21,0,0,0,0-2.37A23.53,23.53,0,0,1,514,570.5a1.23,1.23,0,0,0,1.19,1,1.21,1.21,0,0,0,1.19-1,23.52,23.52,0,0,1,22.19,22.19,1.21,1.21,0,0,0-1,1.19,1.18,1.18,0,0,0,1,1.18,23.52,23.52,0,0,1-22.19,22.24Zm22.44-22.6a.79.79,0,1,1,.78-.79.77.77,0,0,1-.78.73Z" transform="translate(-166.88 -561.4)"/><circle class="cls-34" cx="153.98" cy="109.39" r="20.89"/><path class="cls-31" d="M345.71,670.82a1.2,1.2,0,0,0-1-1.2A24,24,0,0,0,322.06,647a1.21,1.21,0,0,0-2.39,0,24,24,0,0,0-22.61,22.62,1.2,1.2,0,0,0,0,2.38,24,24,0,0,0,22.64,22.62,1.22,1.22,0,0,0,1.4,1,1.19,1.19,0,0,0,1-1A24,24,0,0,0,344.7,672,1.21,1.21,0,0,0,345.71,670.82Zm-24.84-24.43a.8.8,0,1,1-.7.7A.83.83,0,0,1,320.87,646.39Zm-24.41,24.43a.79.79,0,1,1,.79.78A.8.8,0,0,1,296.46,670.82Zm24.41,24.41a.81.81,0,0,1-.7-.89.83.83,0,0,1,.7-.7.8.8,0,0,1,0,1.59Zm1.19-1.09a1.21,1.21,0,0,0-2.38,0,23.54,23.54,0,0,1-22.19-22.2,1.21,1.21,0,0,0,0-2.37,23.53,23.53,0,0,1,22.21-22.15,1.21,1.21,0,0,0,2.38,0,23.53,23.53,0,0,1,22.19,22.2,1.21,1.21,0,0,0,0,2.36,23.54,23.54,0,0,1-22.21,22.21Zm22.44-22.59a.81.81,0,0,1-.81-.79.8.8,0,1,1,1.59,0v0a.78.78,0,0,1-.73.84h-.05Z" transform="translate(-166.88 -561.4)"/><text class="cls-49" transform="translate(134.38 114.09)">NODE</text><g class="cls-50"><path d="M326.59,813.73,320,807.19l-6.54,6.54L307,807.19l6.55-6.55L307,794.1l6.55-6.54L320,794.1l6.55-6.54,6.54,6.54-6.54,6.54,6.54,6.55Zm-18.39-6.54,5.37,5.38,6.55-6.55,6.54,6.55,5.38-5.38-6.54-6.55L332,794.1l-5.38-5.38-6.54,6.55-6.55-6.55-5.37,5.38,6.54,6.54Z" transform="translate(-166.88 -561.4)"/><path d="M572.92,605.25l-6.55-6.54,6.55-6.55-6.55-6.54,6.55-6.55,6.54,6.55,6.55-6.55,6.54,6.55L586,592.16l6.54,6.55L586,605.25l-6.55-6.54Zm6.54-7.71,6.55,6.54,5.36-5.37-6.54-6.55,6.54-6.54L586,580.25l-6.55,6.55-6.54-6.55-5.38,5.37,6.54,6.54-6.54,6.55,5.38,5.37Z" transform="translate(-166.88 -561.4)"/><path d="M481.91,838.18l-4.86-4.87,4.63-4.62-4.63-4.64,4.86-4.86,4.63,4.63,4.63-4.63,4.86,4.86-4.63,4.64,4.63,4.62-4.86,4.87-4.58-4.64Zm4.63-5.85,4.63,4.64,3.65-3.66-4.63-4.62,4.63-4.64-3.65-3.65L486.59,825,482,820.4l-3.65,3.65,4.63,4.64-4.63,4.62L482,837Z" transform="translate(-166.88 -561.4)"/><path d="M364.74,583.07l-4.36-4.37,4.14-4.14-4.14-4.16,4.36-4.36,4.15,4.15L373,566l4.36,4.36-4.15,4.16,4.15,4.14L373,583.07l-4.15-4.15Zm4.15-5.23L373,582l3.27-3.28-4.15-4.14,4.15-4.16L373,567.14l-4.15,4.16-4.15-4.16-3.27,3.27,4.14,4.16-4.14,4.14,3.27,3.28Z" transform="translate(-166.88 -561.4)"/><polygon points="171.25 208.43 168.59 205.77 165.69 208.67 162.79 205.77 160.13 208.43 163.03 211.34 160.13 214.24 162.79 216.9 165.69 214 168.59 216.9 171.25 214.24 168.35 211.34 171.25 208.43"/><polygon points="459.17 53.78 456.5 51.12 453.61 54.02 450.71 51.12 448.05 53.78 450.94 56.68 448.05 59.58 450.71 62.24 453.61 59.34 456.5 62.24 459.17 59.58 456.27 56.68 459.17 53.78"/><polygon points="140.7 145.26 138.04 142.6 135.14 145.5 132.24 142.6 129.58 145.26 132.48 148.16 129.58 151.06 132.24 153.72 135.14 150.82 138.04 153.72 140.7 151.06 137.8 148.16 140.7 145.26"/><polygon points="353.83 251.89 351.17 249.23 348.27 252.13 345.37 249.23 342.7 251.89 345.61 254.79 342.7 257.69 345.37 260.35 348.27 257.45 351.17 260.35 353.83 257.69 350.93 254.79 353.83 251.89"/><polygon points="541.9 107.66 539.24 105 536.34 107.9 533.44 105 530.78 107.66 533.68 110.56 530.78 113.47 533.44 116.13 536.34 113.22 539.24 116.13 541.9 113.47 539 110.56 541.9 107.66"/><polygon points="230.62 20.89 227.96 18.23 225.06 21.12 222.16 18.23 219.5 20.89 222.4 23.8 219.5 26.7 222.16 29.36 225.06 26.46 227.96 29.36 230.62 26.7 227.72 23.8 230.62 20.89"/></g><path class="cls-33" d="M326.59,810.46,320,803.92l-6.54,6.54L307,803.92l6.55-6.55L307,790.83l6.55-6.55,6.54,6.55,6.55-6.55,6.54,6.55-6.54,6.54,6.54,6.55Zm-18.39-6.54,5.37,5.37,6.55-6.54,6.54,6.54,5.38-5.37-6.54-6.55,6.54-6.54-5.38-5.38L320.12,792l-6.55-6.55-5.37,5.38,6.54,6.54Z" transform="translate(-166.88 -561.4)"/><path class="cls-34" d="M572.92,602l-6.55-6.54,6.55-6.55-6.55-6.54,6.55-6.55,6.54,6.55L586,575.8l6.54,6.55L586,588.89l6.54,6.55L586,602l-6.55-6.54Zm6.54-7.71,6.55,6.54,5.36-5.37-6.54-6.55,6.54-6.54L586,577l-6.55,6.54L572.92,577l-5.38,5.37,6.54,6.54-6.54,6.55,5.38,5.37Z" transform="translate(-166.88 -561.4)"/><path class="cls-27" d="M481.91,834.9,477.05,830l4.63-4.62-4.63-4.64,4.86-4.87,4.63,4.64,4.63-4.64,4.86,4.87-4.63,4.64L496,830l-4.86,4.86-4.58-4.63Zm4.63-5.84,4.63,4.63,3.65-3.65-4.63-4.62,4.63-4.64-3.65-3.65-4.58,4.63L482,817.13l-3.65,3.65,4.63,4.64L478.3,830l3.65,3.65Z" transform="translate(-166.88 -561.4)"/><path class="cls-27" d="M364.74,579.79l-4.36-4.36,4.14-4.14-4.14-4.16,4.36-4.36,4.15,4.14,4.15-4.14,4.36,4.36-4.15,4.16,4.15,4.14L373,579.79l-4.15-4.14Zm4.15-5.22,4.15,4.14,3.27-3.27-4.15-4.14,4.15-4.16L373,563.87,368.89,568l-4.15-4.16-3.27,3.27,4.14,4.16-4.14,4.14,3.27,3.27Z" transform="translate(-166.88 -561.4)"/><polygon class="cls-34" points="171.25 205.16 168.59 202.5 165.69 205.4 162.79 202.5 160.13 205.16 163.03 208.06 160.13 210.97 162.79 213.63 165.69 210.72 168.59 213.63 171.25 210.97 168.35 208.06 171.25 205.16"/><polygon class="cls-31" points="459.17 50.51 456.5 47.85 453.61 50.75 450.71 47.85 448.05 50.51 450.94 53.41 448.05 56.31 450.71 58.97 453.61 56.07 456.5 58.97 459.17 56.31 456.27 53.41 459.17 50.51"/><polygon class="cls-28" points="140.7 141.99 138.04 139.33 135.14 142.23 132.24 139.33 129.58 141.99 132.48 144.89 129.58 147.79 132.24 150.45 135.14 147.55 138.04 150.45 140.7 147.79 137.8 144.89 140.7 141.99"/><polygon class="cls-34" points="353.83 248.62 351.17 245.96 348.27 248.86 345.37 245.96 342.7 248.62 345.61 251.52 342.7 254.42 345.37 257.08 348.27 254.18 351.17 257.08 353.83 254.42 350.93 251.52 353.83 248.62"/><polygon class="cls-25" points="541.9 104.39 539.24 101.73 536.34 104.63 533.44 101.73 530.78 104.39 533.68 107.29 530.78 110.19 533.44 112.85 536.34 109.95 539.24 112.85 541.9 110.19 539 107.29 541.9 104.39"/><polygon class="cls-25" points="230.62 17.62 227.96 14.96 225.06 17.85 222.16 14.96 219.5 17.62 222.4 20.52 219.5 23.43 222.16 26.09 225.06 23.18 227.96 26.09 230.62 23.43 227.72 20.52 230.62 17.62"/><circle class="cls-51" cx="630.76" cy="689.97" r="15.35" transform="translate(-268.69 -452.17) rotate(-9.16)"/><path class="cls-52" d="M629.65,688.53l-6.1,2.24,6.1,2.21v2.29L620.93,692v-2.38l8.72-3.32Z" transform="translate(-166.88 -561.4)"/><path class="cls-52" d="M631.64,686.26l8.71,3.32V692l-8.71,3.31V693l6.09-2.21-6.09-2.24Z" transform="translate(-166.88 -561.4)"/><text class="cls-53" transform="translate(422.33 279.8)">API</text></svg>