<svg id="Layer_1" data-name="Layer 1" xmlns="http://www.w3.org/2000/svg" xmlns:xlink="http://www.w3.org/1999/xlink" viewBox="0 0 770.34 521.98"><defs><style>.cls-1{fill:#83d2f9;}.cls-2{fill:#10151b;}.cls-12,.cls-16,.cls-19,.cls-3{isolation:isolate;}.cls-3{font-size:9px;fill:#a8a8a8;}.cls-23,.cls-3{font-family:ArialMT, Arial;}.cls-4{fill:url(#linear-gradient);}.cls-5{fill:url(#linear-gradient-2);}.cls-6{fill:#37069c;}.cls-7{fill:url(#radial-gradient);}.cls-16,.cls-8{fill:#fff;}.cls-12,.cls-9{opacity:0.4;}.cls-10,.cls-12{fill:#06033e;}.cls-11{opacity:0.37;}.cls-13,.cls-14,.cls-15{fill:none;}.cls-14{stroke:#021b4a;}.cls-14,.cls-15{stroke-miterlimit:10;}.cls-15{stroke:#606163;stroke-width:0.25px;}.cls-16{opacity:0.64;}.cls-17{fill:#8ebad5;}.cls-18{fill:#e9f763;}.cls-19{fill:#ff0b0b;opacity:0.6;}.cls-20{fill:#077b94;}.cls-21{fill:#2b2b2b;}.cls-22{fill:#f8359e;}.cls-23{font-size:7px;fill:#6e7681;}</style><linearGradient id="linear-gradient" x1="355.53" y1="401.36" x2="635.88" y2="239.5" gradientTransform="matrix(1, 0, 0, -1, -13.96, 488.05)" gradientUnits="userSpaceOnUse"><stop offset="0.02" stop-color="#e39a65"/><stop offset="0.13" stop-color="#e39a66"/><stop offset="0.24" stop-color="#ca856e"/><stop offset="0.61" stop-color="#7b4187"/><stop offset="0.87" stop-color="#4a1696"/><stop offset="1" stop-color="#37069c"/></linearGradient><linearGradient id="linear-gradient-2" x1="348.15" y1="311.51" x2="662.57" y2="311.51" gradientTransform="matrix(1, 0, 0, -1, -13.96, 488.05)" gradientUnits="userSpaceOnUse"><stop offset="0" stop-color="#3919bb"/><stop offset="1" stop-color="#6507fa"/></linearGradient><radialGradient id="radial-gradient" cx="216.02" cy="425.24" r="427.63" gradientTransform="translate(-58.72 -118.5)" gradientUnits="userSpaceOnUse"><stop offset="0" stop-color="#e39a65"/><stop offset="0.47" stop-color="#a92ffb"/><stop offset="0.57" stop-color="#891cfb"/><stop offset="0.68" stop-color="#6507fa"/><stop offset="0.74" stop-color="#0d0c6f"/></radialGradient></defs><path class="cls-1" d="M741.66,441.36a12.18,12.18,0,0,1-6.12-1.64l-20.62-11.9a3.81,3.81,0,0,1,0-6.61l20.62-11.91a12.25,12.25,0,0,1,12.23,0l20.62,11.91a3.81,3.81,0,0,1,0,6.61l-20.62,11.9A12.14,12.14,0,0,1,741.66,441.36Zm0-30.42a9,9,0,0,0-4.48,1.19L716.56,424a.5.5,0,0,0-.28.47.53.53,0,0,0,.28.48l20.62,11.9h0a9,9,0,0,0,9,0L766.8,425a.55.55,0,0,0,.27-.48.5.5,0,0,0-.27-.47l-20.66-11.91a9,9,0,0,0-4.48-1.2Z" transform="translate(0.03 0.1)"/><path class="cls-1" d="M682.69,373.81a19.72,19.72,0,0,1-9.94-2.66l-35.51-20.43a5.38,5.38,0,0,1-2-7.34v0a5.48,5.48,0,0,1,2-2l35.48-20.49a19.92,19.92,0,0,1,19.87,0l35.49,20.51a5.41,5.41,0,0,1,2,7.38,5.33,5.33,0,0,1-2,2L692.59,371.2A19.88,19.88,0,0,1,682.69,373.81Zm-8.3-5.49a16.63,16.63,0,0,0,16.6,0l35.48-20.48a2.12,2.12,0,0,0,.77-2.9h0a2.08,2.08,0,0,0-.76-.77L691,323.72a16.67,16.67,0,0,0-16.6,0L638.9,344.21a2.12,2.12,0,0,0-.79,2.89,2.14,2.14,0,0,0,.79.79Z" transform="translate(0.03 0.1)"/><path class="cls-1" d="M48.08,406.05a19.76,19.76,0,0,1-9.9-2.65L2.69,382.91a5.39,5.39,0,0,1-2-7.35l0,0a5.48,5.48,0,0,1,2-2l35.49-20.45a19.92,19.92,0,0,1,19.87,0l35.48,20.49a5.39,5.39,0,0,1,2,7.36,5.45,5.45,0,0,1-2,2L58.08,403.4A19.92,19.92,0,0,1,48.08,406.05Zm0-52.35a16.69,16.69,0,0,0-8.3,2.21L4.33,376.4a2.12,2.12,0,0,0,0,3.68l35.48,20.49h0a16.69,16.69,0,0,0,16.61,0L91.9,380.08a2.12,2.12,0,0,0,.77-2.9h0a2.08,2.08,0,0,0-.76-.77L56.41,355.91a16.77,16.77,0,0,0-8.3-2.19Z" transform="translate(0.03 0.1)"/><path class="cls-2" d="M407.45,495.42,153.72,348.93c-3.7-2.13-3.23-5.86,1-8.33l162.84-94c4.27-2.46,10.73-2.73,14.43-.59L585.76,392.48c3.69,2.13,3.23,5.86-1,8.33l-162.84,94C417.61,497.29,411.15,497.56,407.45,495.42Z" transform="translate(0.03 0.1)"/><path class="cls-1" d="M413.24,521.87a16.15,16.15,0,0,1-8-1.87h0L115.7,352.81c-2.37-1.36-3.67-3.33-3.67-5.54,0-2.54,1.77-5,4.85-6.8L314.24,224.82c5.41-3.13,13.36-3.43,18.11-.69L622,391.32c2.37,1.37,3.67,3.34,3.67,5.55,0,2.54-1.77,5-4.85,6.79L423.39,519.31A20.69,20.69,0,0,1,413.24,521.87Zm-88.8-296.32a17.6,17.6,0,0,0-8.52,2.1L118.53,343.3c-2,1.17-3.23,2.65-3.23,4a3.39,3.39,0,0,0,2,2.71L406.91,517.17h0c3.7,2.13,10.49,1.82,14.83-.69l197.4-115.65c2-1.16,3.22-2.64,3.22-4a3.48,3.48,0,0,0-2-2.72L330.75,227a13,13,0,0,0-6.31-1.45Z" transform="translate(0.03 0.1)"/><path class="cls-1" d="M176.63,264.72a17.71,17.71,0,0,1-8.85-2.36h0l-32.43-18.73a4.48,4.48,0,0,1-1.67-6.1h0a4.56,4.56,0,0,1,1.66-1.66l32.42-18.72a17.75,17.75,0,0,1,17.72,0l32.43,18.72a4.48,4.48,0,0,1,0,7.78L185.5,262.32A17.83,17.83,0,0,1,176.63,264.72Zm-7.8-4.19a15.65,15.65,0,0,0,15.61,0l32.43-18.72a2.37,2.37,0,0,0,.87-3.25,2.42,2.42,0,0,0-.87-.87l-32.43-18.77a15.7,15.7,0,0,0-15.61,0L136.4,237.65a2.37,2.37,0,0,0-.87,3.25,2.42,2.42,0,0,0,.87.87Z" transform="translate(0.03 0.1)"/><text class="cls-3" transform="translate(384.07 146.98) rotate(18.95)">7.</text><text class="cls-3" transform="translate(380.29 159.84) rotate(18.95)">8.</text><text class="cls-3" transform="translate(376.87 172.21) rotate(18.95)">9.</text><text class="cls-3" transform="translate(370.57 183.99) rotate(18.95)">10.</text><path class="cls-4" d="M372.11,197.36c-3-1.94-.26-8.46.71-11.87l15.73-53.19c1-3.16,27.47-89.86,30.19-88.64.18.08,17.32,10,17.5,10.06L619.05,159a8.1,8.1,0,0,1,3.36,9L581.24,302.2c-1,3.33-4.18,4.69-7,3l-3.7,6.15Zm281.06-50.57L400.44.87a6.54,6.54,0,0,0-5.16-.74h0L390.6,1.76l1.65.39A8,8,0,0,0,390.7,5L333.53,190.67c-1.41,4.6.66,10.19,4.63,12.48L590.89,349a7.35,7.35,0,0,0,1.86.76l-.62,1.36,4.47-1.57h0a7.19,7.19,0,0,0,4.06-4.73l57.15-185.57C659.25,154.67,657.15,149.08,653.17,146.79Z" transform="translate(0.03 0.1)"/><path class="cls-5" d="M584.25,344,339.05,202.38c-3.8-2.19-5.79-7.55-4.43-12L389.25,13c1.35-4.4,5.53-6.19,9.34-4L643.75,150.67c3.8,2.19,5.79,7.54,4.43,12l-54.64,177.4C592.19,344.43,588.05,346.22,584.25,344ZM417.05,45.9c-2.87-1.68-6-.32-7,3L368.88,183.1a8.1,8.1,0,0,0,3.36,9L555.05,297.39c2.88,1.66,6,.35,7.06-3l41.17-134.18a8.1,8.1,0,0,0-3.36-9Z" transform="translate(0.03 0.1)"/><path class="cls-6" d="M643.75,150.67c3.8,2.19,5.79,7.54,4.43,12l-54.64,177.4c-1.35,4.4-5.53,6.19-9.29,4L339.05,202.38c-3.8-2.19-5.79-7.55-4.43-12L389.25,13c1.35-4.4,5.53-6.19,9.34-4Zm-40.46,9.51a8.1,8.1,0,0,0-3.36-9L417.05,45.9c-2.87-1.68-6-.32-7,3L368.88,183.1a8.1,8.1,0,0,0,3.36,9L555.05,297.39c2.88,1.66,6,.35,7.06-3Z" transform="translate(0.03 0.1)"/><path class="cls-7" d="M581.85,356l.09.1L332.31,211.93c-3.68-2.12-10.09-1.86-14.33.59L152.83,311.13h0a4.44,4.44,0,0,0,2.42,3L407.19,459.67c3.67,2.12,10.09,1.85,14.33-.6l161.73-93.4c2-1.16,3.15-2.59,3.43-4h0l1.54-7.34Z" transform="translate(0.03 0.1)"/><path class="cls-8" d="M584.74,362.32,422.48,450.67c-4.26,2.31-10.69,2.56-14.38.56L155.25,313.67a4.56,4.56,0,0,1-2.3-2.47c-.49,1.6.23,3.2,2.3,4.33L408.1,453.05c3.69,2,10.12,1.76,14.38-.56l162.26-88.31c2.81-1.53,3.93-3.56,3.33-5.35A6.46,6.46,0,0,1,584.74,362.32Z" transform="translate(0.03 0.1)"/><g class="cls-9"><path class="cls-10" d="M274.76,282.67l-8.57-4.94c-.69-.4-.6-1.09.19-1.55l10.11-5.84a3,3,0,0,1,2.69-.11l8.56,5c.69.39.6,1.09-.19,1.55l-10.11,5.89A3,3,0,0,1,274.76,282.67Z" transform="translate(0.03 0.1)"/><path class="cls-10" d="M288,290.34l-8.56-4.94c-.69-.4-.6-1.09.19-1.55L289.72,278a3,3,0,0,1,2.68-.11l8.57,4.94c.69.4.6,1.1-.19,1.55l-10.11,5.84A3,3,0,0,1,288,290.34Z" transform="translate(0.03 0.1)"/><path class="cls-10" d="M301.25,298l-8.56-5c-.69-.39-.61-1.09.19-1.54L303,285.67a3,3,0,0,1,2.68-.11l8.57,4.94c.69.4.6,1.09-.19,1.55l-10.11,5.84A3,3,0,0,1,301.25,298Z" transform="translate(0.03 0.1)"/><path class="cls-10" d="M319.51,291.67l-8.57-4.94c-.69-.4-.6-1.09.2-1.55l8.48-4.9a3,3,0,0,1,2.69-.11l8.56,4.94c.69.4.6,1.09-.19,1.55l-8.49,4.9A3,3,0,0,1,319.51,291.67Z" transform="translate(0.03 0.1)"/><path class="cls-10" d="M332.74,299.31l-8.57-4.95c-.69-.39-.6-1.09.19-1.54l8.49-4.9a3,3,0,0,1,2.68-.12l8.57,4.95c.69.4.6,1.09-.19,1.55l-8.49,4.9A3,3,0,0,1,332.74,299.31Z" transform="translate(0.03 0.1)"/><path class="cls-10" d="M346,307,337.4,302c-.69-.39-.6-1.09.19-1.55l8.49-4.9a3,3,0,0,1,2.68-.11l8.57,5c.69.39.6,1.09-.19,1.55l-8.49,4.9A3,3,0,0,1,346,307Z" transform="translate(0.03 0.1)"/><path class="cls-10" d="M359.19,314.67l-8.56-5c-.69-.4-.6-1.09.19-1.55l8.49-4.9a3,3,0,0,1,2.68-.11l8.57,4.94c.69.4.6,1.1-.19,1.55l-8.49,4.9A3,3,0,0,1,359.19,314.67Z" transform="translate(0.03 0.1)"/><path class="cls-10" d="M372.42,322.22l-8.56-4.94c-.69-.4-.6-1.09.19-1.55l8.49-4.9a3,3,0,0,1,2.68-.11l8.57,4.94c.68.4.6,1.09-.2,1.55l-8.48,4.9A3,3,0,0,1,372.42,322.22Z" transform="translate(0.03 0.1)"/><path class="cls-10" d="M385.65,329.86l-8.6-4.94c-.69-.4-.61-1.1.19-1.55l8.49-4.9a3,3,0,0,1,2.68-.12L397,323.3c.68.4.6,1.09-.2,1.55l-8.48,4.9A3,3,0,0,1,385.65,329.86Z" transform="translate(0.03 0.1)"/><path class="cls-10" d="M398.88,337.5l-8.57-4.95c-.68-.39-.6-1.09.2-1.55l8.49-4.9a3,3,0,0,1,2.68-.11l8.56,4.95c.69.39.61,1.09-.19,1.55l-8.49,4.9A3,3,0,0,1,398.88,337.5Z" transform="translate(0.03 0.1)"/><path class="cls-10" d="M412.11,345.14l-8.57-5c-.68-.4-.6-1.09.2-1.55l8.48-4.9a3,3,0,0,1,2.69-.11l8.56,5c.69.39.6,1.09-.19,1.54l-8.49,4.9A3,3,0,0,1,412.11,345.14Z" transform="translate(0.03 0.1)"/><path class="cls-10" d="M425.34,352.77l-8.57-4.94c-.69-.4-.6-1.09.2-1.55l8.48-4.9a3,3,0,0,1,2.69-.11l8.56,4.94c.69.4.6,1.09-.19,1.55l-8.46,4.91A3,3,0,0,1,425.34,352.77Z" transform="translate(0.03 0.1)"/><path class="cls-10" d="M438.57,360.41l-8.52-4.94c-.69-.4-.6-1.1.19-1.55l8.49-4.9a3,3,0,0,1,2.68-.12l8.57,5c.69.4.6,1.09-.19,1.55l-8.49,4.9A3,3,0,0,1,438.57,360.41Z" transform="translate(0.03 0.1)"/><path class="cls-10" d="M339.05,288.06l-8.57-4.95c-.68-.4-.6-1.09.2-1.55l8.48-4.9a3,3,0,0,1,2.69-.11l8.56,4.95c.69.39.61,1.09-.19,1.55l-8.49,4.9A3,3,0,0,1,339.05,288.06Z" transform="translate(0.03 0.1)"/><path class="cls-10" d="M325.57,280.31l-8.52-4.95c-.69-.4-.6-1.09.19-1.55l8.49-4.9a3,3,0,0,1,2.68-.11l8.57,4.94c.69.4.6,1.1-.19,1.55l-8.49,4.9A3,3,0,0,1,325.57,280.31Z" transform="translate(0.03 0.1)"/><path class="cls-10" d="M312.13,272.54l-18.45-10.65c-.69-.4-.6-1.09.19-1.55l8.49-4.9a3,3,0,0,1,2.68-.11L323.49,266c.69.4.6,1.09-.19,1.55l-8.49,4.9A3,3,0,0,1,312.13,272.54Z" transform="translate(0.03 0.1)"/><path class="cls-10" d="M321.53,263.1l-15-8.65c-.68-.39-.6-1.09.2-1.54l8.48-4.91a3,3,0,0,1,2.69-.11l15,8.65c.69.39.6,1.09-.19,1.55l-8.49,4.9A3,3,0,0,1,321.53,263.1Z" transform="translate(0.03 0.1)"/><path class="cls-10" d="M352.25,295.67l-8.57-4.94c-.68-.4-.6-1.09.2-1.55l8.48-4.9a3,3,0,0,1,2.69-.11l8.56,4.94c.69.4.6,1.09-.19,1.55l-8.49,4.9A3,3,0,0,1,352.25,295.67Z" transform="translate(0.03 0.1)"/><path class="cls-10" d="M365.46,303.33l-8.57-4.94c-.69-.4-.6-1.09.19-1.55l8.49-4.9a3,3,0,0,1,2.69-.11l8.56,4.94c.69.4.6,1.09-.19,1.55l-8.49,4.9A3,3,0,0,1,365.46,303.33Z" transform="translate(0.03 0.1)"/><path class="cls-10" d="M378.69,311l-8.57-5c-.69-.39-.6-1.09.19-1.55l8.49-4.9a3,3,0,0,1,2.68-.11l8.57,5c.69.4.6,1.09-.19,1.55l-8.49,4.9A3,3,0,0,1,378.69,311Z" transform="translate(0.03 0.1)"/><path class="cls-10" d="M391.92,318.67l-8.57-5c-.69-.4-.6-1.09.19-1.55l8.49-4.9a3,3,0,0,1,2.68-.11l8.57,4.95c.69.39.6,1.09-.19,1.55l-8.49,4.9A3,3,0,0,1,391.92,318.67Z" transform="translate(0.03 0.1)"/><path class="cls-10" d="M405.14,326.24l-8.56-4.94c-.69-.4-.6-1.09.19-1.55l8.49-4.9a3,3,0,0,1,2.68-.11l8.57,4.94c.69.4.6,1.09-.19,1.55l-8.49,4.9A3,3,0,0,1,405.14,326.24Z" transform="translate(0.03 0.1)"/><path class="cls-10" d="M418.37,333.88l-8.56-4.94c-.69-.4-.6-1.09.19-1.55l8.49-4.9a3,3,0,0,1,2.68-.11l8.57,4.94c.68.4.6,1.09-.2,1.55l-8.49,4.9A3,3,0,0,1,418.37,333.88Z" transform="translate(0.03 0.1)"/><path class="cls-10" d="M431.6,341.52l-8.55-4.85c-.69-.39-.61-1.09.19-1.54l8.49-4.91a3,3,0,0,1,2.68-.11l8.57,4.95c.68.4.6,1.09-.2,1.55l-8.49,4.9A3,3,0,0,1,431.6,341.52Z" transform="translate(0.03 0.1)"/><path class="cls-10" d="M444.83,349.16l-8.57-5c-.68-.39-.6-1.09.2-1.55l8.48-4.9a3,3,0,0,1,2.69-.11l8.56,5c.69.39.61,1.09-.19,1.55l-8.49,4.9A3,3,0,0,1,444.83,349.16Z" transform="translate(0.03 0.1)"/><path class="cls-10" d="M458.05,356.8l-8.57-4.95c-.68-.4-.6-1.09.2-1.55l8.48-4.9a3,3,0,0,1,2.69-.11l8.56,4.94c.69.4.6,1.1-.19,1.55l-8.49,4.9A3,3,0,0,1,458.05,356.8Z" transform="translate(0.03 0.1)"/><path class="cls-10" d="M481.58,370.37l-18.69-10.7c-.69-.39-.61-1.09.19-1.55l8.49-4.9a3,3,0,0,1,2.68-.11l18.69,10.79c.69.4.6,1.09-.19,1.55l-8.49,4.9A3,3,0,0,1,481.58,370.37Z" transform="translate(0.03 0.1)"/><path class="cls-10" d="M507.33,355.5l-15.77-9.1c-.69-.4-.61-1.09.19-1.55l8.49-4.9a3,3,0,0,1,2.68-.12l15.78,9.11c.68.4.6,1.09-.2,1.55l-8.49,4.9A3,3,0,0,1,507.33,355.5Z" transform="translate(0.03 0.1)"/><path class="cls-10" d="M375.4,294.2l-8.57-4.95c-.69-.39-.6-1.09.19-1.54l8.49-4.91a3,3,0,0,1,2.68-.11l8.57,5c.69.4.6,1.09-.19,1.55l-8.49,4.9A3,3,0,0,1,375.4,294.2Z" transform="translate(0.03 0.1)"/><path class="cls-10" d="M361.84,286.37l-8.59-4.94c-.69-.4-.6-1.09.19-1.55l8.49-4.9a3,3,0,0,1,2.69-.11l8.56,4.94c.69.4.6,1.09-.19,1.55l-8.49,4.9A3,3,0,0,1,361.84,286.37Z" transform="translate(0.03 0.1)"/><path class="cls-10" d="M348.25,278.54l-8.54-4.87c-.68-.4-.6-1.09.2-1.55l8.48-4.9a3,3,0,0,1,2.69-.11l8.56,4.94c.69.4.61,1.09-.19,1.55L351,278.5A3,3,0,0,1,348.25,278.54Z" transform="translate(0.03 0.1)"/><path class="cls-10" d="M334.72,270.72l-8.56-5c-.69-.4-.61-1.09.19-1.55l8.49-4.9a3,3,0,0,1,2.68-.11l8.57,5c.68.39.6,1.09-.2,1.55l-8.48,4.9A3,3,0,0,1,334.72,270.72Z" transform="translate(0.03 0.1)"/><path class="cls-10" d="M388.62,301.84l-8.56-5c-.69-.4-.6-1.09.19-1.55l8.49-4.9a3,3,0,0,1,2.68-.11l8.57,5c.69.39.6,1.09-.19,1.55l-8.49,4.9A3,3,0,0,1,388.62,301.84Z" transform="translate(0.03 0.1)"/><path class="cls-10" d="M401.85,309.48l-8.6-5c-.69-.4-.6-1.09.19-1.55l8.49-4.9a3,3,0,0,1,2.68-.11l8.57,4.94c.68.4.6,1.1-.2,1.55l-8.48,4.9A3,3,0,0,1,401.85,309.48Z" transform="translate(0.03 0.1)"/><path class="cls-10" d="M415.05,317.11l-8.56-4.94c-.69-.4-.61-1.09.19-1.55l8.49-4.9a3,3,0,0,1,2.68-.11l8.57,4.94c.68.4.6,1.09-.2,1.55l-8.48,4.9A3,3,0,0,1,415.05,317.11Z" transform="translate(0.03 0.1)"/><path class="cls-10" d="M428.31,324.75l-8.57-4.95c-.68-.39-.6-1.09.2-1.54l8.48-4.9a3,3,0,0,1,2.69-.12l8.56,4.95c.69.4.61,1.09-.19,1.55l-8.49,4.9A3,3,0,0,1,428.31,324.75Z" transform="translate(0.03 0.1)"/><path class="cls-10" d="M441.54,332.39l-8.57-5c-.68-.39-.6-1.09.2-1.55l8.48-4.9a3,3,0,0,1,2.69-.11l8.56,5c.69.39.6,1.09-.19,1.55l-8.49,4.9A3,3,0,0,1,441.54,332.39Z" transform="translate(0.03 0.1)"/><path class="cls-10" d="M454.77,340l-8.57-5c-.69-.4-.6-1.09.19-1.55l8.49-4.9a3,3,0,0,1,2.69-.11l8.56,5c.69.39.6,1.09-.19,1.54l-8.49,4.9A3,3,0,0,1,454.77,340Z" transform="translate(0.03 0.1)"/><path class="cls-10" d="M468.05,347.67l-8.62-5c-.69-.4-.6-1.09.19-1.55l8.49-4.9a3,3,0,0,1,2.68-.11l8.57,4.94c.69.4.6,1.09-.19,1.55l-8.49,4.9A3,3,0,0,1,468.05,347.67Z" transform="translate(0.03 0.1)"/><path class="cls-10" d="M481.25,355.3l-8.57-4.94c-.69-.4-.6-1.1.19-1.55l8.49-4.9a3,3,0,0,1,2.68-.12l8.57,4.95c.69.4.6,1.09-.19,1.55l-8.49,4.9A3,3,0,0,1,481.25,355.3Z" transform="translate(0.03 0.1)"/><path class="cls-10" d="M494.45,362.94,485.89,358c-.69-.39-.6-1.09.19-1.55l8.49-4.9a3,3,0,0,1,2.68-.11l8.57,4.95c.69.39.6,1.09-.19,1.55l-8.49,4.9A3,3,0,0,1,494.45,362.94Z" transform="translate(0.03 0.1)"/><path class="cls-10" d="M368.43,275.31l-8.57-4.95c-.68-.39-.6-1.09.2-1.55l8.48-4.9a3,3,0,0,1,2.69-.11l8.56,4.95c.69.4.6,1.09-.19,1.55l-8.49,4.9A3,3,0,0,1,368.43,275.31Z" transform="translate(0.03 0.1)"/><path class="cls-10" d="M355.25,267.67l-8.57-5c-.69-.39-.6-1.09.19-1.55l8.49-4.9a3,3,0,0,1,2.68-.11l8.57,5c.69.4.6,1.09-.19,1.55l-8.47,5A3,3,0,0,1,355.25,267.67Z" transform="translate(0.03 0.1)"/><path class="cls-10" d="M342.1,260.11l-8.56-5c-.69-.39-.6-1.09.19-1.55l8.49-4.9a3,3,0,0,1,2.68-.11l8.57,5c.69.4.6,1.09-.2,1.55l-8.48,4.9A3,3,0,0,1,342.1,260.11Z" transform="translate(0.03 0.1)"/><path class="cls-10" d="M328.94,252.51l-8.57-4.95c-.68-.39-.6-1.09.2-1.54l8.48-4.91a3,3,0,0,1,2.69-.11L340.3,246c.69.4.61,1.09-.19,1.55l-8.49,4.9A3,3,0,0,1,328.94,252.51Z" transform="translate(0.03 0.1)"/><path class="cls-10" d="M342.48,244.67l-8.57-4.95c-.69-.4-.6-1.09.19-1.55l2.81-1.62a3,3,0,0,1,2.68-.11l8.57,4.94c.69.4.6,1.1-.19,1.55l-2.81,1.74A3,3,0,0,1,342.48,244.67Z" transform="translate(0.03 0.1)"/><path class="cls-10" d="M359.65,254.67l-8.6-5c-.69-.4-.6-1.09.19-1.55l2.81-1.62a3,3,0,0,1,2.68-.11l8.57,4.94c.68.4.6,1.09-.2,1.55l-2.8,1.62A3,3,0,0,1,359.65,254.67Z" transform="translate(0.03 0.1)"/><path class="cls-10" d="M372.76,262.18l-8.51-4.95c-.69-.39-.61-1.09.19-1.54l2.8-1.62a3,3,0,0,1,2.69-.12l8.56,5c.69.4.61,1.09-.19,1.55l-2.8,1.62A3,3,0,0,1,372.76,262.18Z" transform="translate(0.03 0.1)"/><path class="cls-10" d="M385.87,269.75l-8.57-4.95c-.68-.39-.6-1.09.2-1.55l2.8-1.62a3,3,0,0,1,2.69-.11l8.56,5c.69.4.6,1.09-.19,1.55l-2.81,1.6A3,3,0,0,1,385.87,269.75Z" transform="translate(0.03 0.1)"/><path class="cls-10" d="M399,277.32l-8.57-4.95c-.69-.4-.6-1.09.19-1.55l2.81-1.62a3,3,0,0,1,2.68-.11l8.57,5c.69.39.6,1.09-.19,1.55l-2.81,1.62A3,3,0,0,1,399,277.32Z" transform="translate(0.03 0.1)"/><path class="cls-10" d="M472.16,319.67l-8.57-5c-.69-.4-.6-1.09.2-1.55l2.8-1.62a3,3,0,0,1,2.68-.11l8.57,4.95c.69.39.6,1.09-.19,1.55l-2.81,1.62A3,3,0,0,1,472.16,319.67Z" transform="translate(0.03 0.1)"/><path class="cls-10" d="M485.25,327.14l-8.57-5c-.69-.4-.6-1.09.19-1.55l2.81-1.62a3,3,0,0,1,2.68-.11l8.57,4.94c.69.4.6,1.1-.19,1.55L487.93,327A3,3,0,0,1,485.25,327.14Z" transform="translate(0.03 0.1)"/><path class="cls-10" d="M498.37,334.67l-8.56-4.94c-.69-.4-.6-1.09.19-1.55l2.81-1.62a3,3,0,0,1,2.68-.11l8.57,4.94c.68.4.6,1.09-.2,1.55l-2.8,1.62A3,3,0,0,1,498.37,334.67Z" transform="translate(0.03 0.1)"/><path class="cls-10" d="M511.48,342.27l-8.56-4.94c-.69-.4-.6-1.1.19-1.55l2.81-1.62a3,3,0,0,1,2.68-.11l8.56,4.94c.69.4.61,1.09-.19,1.55l-2.8,1.62A3,3,0,0,1,511.48,342.27Z" transform="translate(0.03 0.1)"/><path class="cls-10" d="M381.66,283,373.05,278c-.69-.4-.6-1.09.19-1.55l8.49-4.9a3,3,0,0,1,2.69-.11l8.56,5c.69.39.6,1.09-.19,1.54l-8.49,4.91A3,3,0,0,1,381.66,283Z" transform="translate(0.03 0.1)"/><path class="cls-10" d="M394.89,290.67l-8.57-5c-.69-.4-.6-1.09.19-1.55l8.49-4.9a3,3,0,0,1,2.68-.11l8.57,5c.69.4.6,1.09-.19,1.55l-8.49,4.9A3,3,0,0,1,394.89,290.67Z" transform="translate(0.03 0.1)"/><path class="cls-10" d="M408.12,298.22l-8.57-4.94c-.69-.4-.6-1.09.19-1.55l8.49-4.9a3,3,0,0,1,2.68-.11l8.57,4.94c.69.4.6,1.09-.19,1.55l-8.49,4.9A3,3,0,0,1,408.12,298.22Z" transform="translate(0.03 0.1)"/><path class="cls-10" d="M421.34,305.86l-8.56-4.95c-.69-.39-.6-1.09.19-1.55l8.49-4.9a3,3,0,0,1,2.68-.11l8.57,4.95c.69.4.6,1.09-.19,1.55l-8.49,4.9A3,3,0,0,1,421.34,305.86Z" transform="translate(0.03 0.1)"/><path class="cls-10" d="M434.57,313.5l-8.52-4.95c-.69-.4-.6-1.09.19-1.55l8.49-4.9a3,3,0,0,1,2.68-.11l8.57,4.95c.68.39.6,1.09-.2,1.55l-8.48,4.9A3,3,0,0,1,434.57,313.5Z" transform="translate(0.03 0.1)"/><path class="cls-10" d="M447.8,321.13l-8.55-4.94c-.69-.4-.61-1.09.19-1.55l8.49-4.9a3,3,0,0,1,2.68-.11l8.57,4.94c.68.4.6,1.09-.2,1.55L450.5,321A3,3,0,0,1,447.8,321.13Z" transform="translate(0.03 0.1)"/><path class="cls-10" d="M461.05,328.77l-8.57-4.94c-.68-.4-.6-1.09.2-1.55l8.49-4.9a3,3,0,0,1,2.68-.11l8.56,4.94c.69.4.61,1.09-.19,1.55l-8.49,4.9A3,3,0,0,1,461.05,328.77Z" transform="translate(0.03 0.1)"/><path class="cls-10" d="M474.25,336.41l-8.57-5c-.68-.39-.6-1.09.2-1.55l8.48-4.9a3,3,0,0,1,2.69-.11l8.56,5c.69.4.6,1.09-.19,1.55l-8.49,4.9A3,3,0,0,1,474.25,336.41Z" transform="translate(0.03 0.1)"/><path class="cls-10" d="M487.49,344.05l-8.57-4.95c-.69-.4-.6-1.09.19-1.55l8.49-4.9a3,3,0,0,1,2.69-.11l8.56,4.95c.69.39.6,1.09-.19,1.55l-8.49,4.9A3,3,0,0,1,487.49,344.05Z" transform="translate(0.03 0.1)"/><path class="cls-10" d="M306.05,283.89l-25.23-14.57c-.69-.39-.6-1.09.19-1.55l8.49-4.9a3,3,0,0,1,2.68-.11l25.23,14.57c.69.4.6,1.09-.19,1.55l-8.49,4.9A3,3,0,0,1,306.05,283.89Z" transform="translate(0.03 0.1)"/><path class="cls-10" d="M468.55,377.72l-25.23-14.57c-.69-.39-.6-1.09.19-1.55l8.54-4.93a3,3,0,0,1,2.68-.11L480,371.13c.69.4.6,1.09-.19,1.55l-8.52,5A3,3,0,0,1,468.55,377.72Z" transform="translate(0.03 0.1)"/><path class="cls-10" d="M415.64,364.05l-8.59-4.95c-.69-.4-.61-1.09.19-1.55l10.14-5.88a3,3,0,0,1,2.68-.11l8.57,4.95c.69.4.6,1.09-.19,1.55l-10.11,5.84A3,3,0,0,1,415.64,364.05Z" transform="translate(0.03 0.1)"/><path class="cls-10" d="M319.57,308.67l-13.69-8c-.69-.39-.61-1.09.19-1.55l10.11-5.83a3,3,0,0,1,2.68-.12l13.7,7.91c.69.4.6,1.09-.19,1.55l-10.12,5.8A3,3,0,0,1,319.57,308.67Z" transform="translate(0.03 0.1)"/><path class="cls-10" d="M402.9,356.67l-13.65-7.91c-.69-.4-.61-1.09.19-1.55l10.11-5.84a3,3,0,0,1,2.68-.11l13.7,7.91c.69.4.6,1.09-.19,1.55l-10.16,5.95A3,3,0,0,1,402.9,356.67Z" transform="translate(0.03 0.1)"/><path class="cls-10" d="M338.66,319.67l-13.7-8c-.69-.4-.6-1.09.19-1.55l10.1-5.86a3,3,0,0,1,2.68-.11l13.7,7.91c.69.4.6,1.09-.19,1.55l-10.12,5.84A3,3,0,0,1,338.66,319.67Z" transform="translate(0.03 0.1)"/><path class="cls-10" d="M338.05,304.25l59.55,34.42c.74.42.74,1.11,0,1.54l-10.35,6a2.92,2.92,0,0,1-2.67,0l-59.53-34.46Z" transform="translate(0.03 0.1)"/><path class="cls-10" d="M452.61,377.89l9.55,5.51c.56.33.49.9-.16,1.27l-4.14,2.39a2.44,2.44,0,0,1-2.2.09l-9.54-5.48c-.56-.32-.49-.89.16-1.27l4.13-2.38A2.44,2.44,0,0,1,452.61,377.89Z" transform="translate(0.03 0.1)"/><path class="cls-10" d="M439.25,370.19l9.54,5.51c.56.33.49.9-.16,1.27l-4.14,2.39a2.44,2.44,0,0,1-2.2.09l-9.54-5.51c-.56-.32-.49-.89.16-1.27l4.14-2.39A2.44,2.44,0,0,1,439.25,370.19Z" transform="translate(0.03 0.1)"/><path class="cls-10" d="M426.05,362.56l9.54,5.5c.56.33.49.9-.16,1.27l-4.13,2.39a2.44,2.44,0,0,1-2.2.09l-9.55-5.51c-.56-.32-.49-.89.16-1.27l4.14-2.36A2.41,2.41,0,0,1,426.05,362.56Z" transform="translate(0.03 0.1)"/><path class="cls-10" d="M446.58,366l9.54,5.5c.57.33.5.9-.15,1.27l-4.14,2.39a2.44,2.44,0,0,1-2.2.09l-9.58-5.51c-.57-.32-.5-.89.16-1.27l4.13-2.38A2.43,2.43,0,0,1,446.58,366Z" transform="translate(0.03 0.1)"/></g><g class="cls-11"><path class="cls-10" d="M274.76,282.67l-8.57-4.94c-.69-.4-.6-1.09.19-1.55l10.11-5.84a3,3,0,0,1,2.69-.11l8.56,5c.69.39.6,1.09-.19,1.55l-10.11,5.89A3,3,0,0,1,274.76,282.67Z" transform="translate(0.03 0.1)"/><path class="cls-10" d="M288,290.34l-8.56-4.94c-.69-.4-.6-1.09.19-1.55L289.72,278a3,3,0,0,1,2.68-.11l8.57,4.94c.69.4.6,1.1-.19,1.55l-10.11,5.84A3,3,0,0,1,288,290.34Z" transform="translate(0.03 0.1)"/><path class="cls-10" d="M301.25,298l-8.56-5c-.69-.39-.61-1.09.19-1.54L303,285.67a3,3,0,0,1,2.68-.11l8.57,4.94c.69.4.6,1.09-.19,1.55l-10.11,5.84A3,3,0,0,1,301.25,298Z" transform="translate(0.03 0.1)"/><path class="cls-10" d="M319.51,291.67l-8.57-4.94c-.69-.4-.6-1.09.2-1.55l8.48-4.9a3,3,0,0,1,2.69-.11l8.56,4.94c.69.4.6,1.09-.19,1.55l-8.49,4.9A3,3,0,0,1,319.51,291.67Z" transform="translate(0.03 0.1)"/><path class="cls-10" d="M332.74,299.31l-8.57-4.95c-.69-.39-.6-1.09.19-1.54l8.49-4.9a3,3,0,0,1,2.68-.12l8.57,4.95c.69.4.6,1.09-.19,1.55l-8.49,4.9A3,3,0,0,1,332.74,299.31Z" transform="translate(0.03 0.1)"/><path class="cls-10" d="M346,307,337.4,302c-.69-.39-.6-1.09.19-1.55l8.49-4.9a3,3,0,0,1,2.68-.11l8.57,5c.69.39.6,1.09-.19,1.55l-8.49,4.9A3,3,0,0,1,346,307Z" transform="translate(0.03 0.1)"/><path class="cls-10" d="M359.19,314.67l-8.56-5c-.69-.4-.6-1.09.19-1.55l8.49-4.9a3,3,0,0,1,2.68-.11l8.57,4.94c.69.4.6,1.1-.19,1.55l-8.49,4.9A3,3,0,0,1,359.19,314.67Z" transform="translate(0.03 0.1)"/><path class="cls-10" d="M372.42,322.22l-8.56-4.94c-.69-.4-.6-1.09.19-1.55l8.49-4.9a3,3,0,0,1,2.68-.11l8.57,4.94c.68.4.6,1.09-.2,1.55l-8.48,4.9A3,3,0,0,1,372.42,322.22Z" transform="translate(0.03 0.1)"/><path class="cls-10" d="M385.65,329.86l-8.6-4.94c-.69-.4-.61-1.1.19-1.55l8.49-4.9a3,3,0,0,1,2.68-.12L397,323.3c.68.4.6,1.09-.2,1.55l-8.48,4.9A3,3,0,0,1,385.65,329.86Z" transform="translate(0.03 0.1)"/><path class="cls-10" d="M398.88,337.5l-8.57-4.95c-.68-.39-.6-1.09.2-1.55l8.49-4.9a3,3,0,0,1,2.68-.11l8.56,4.95c.69.39.61,1.09-.19,1.55l-8.49,4.9A3,3,0,0,1,398.88,337.5Z" transform="translate(0.03 0.1)"/><path class="cls-10" d="M412.11,345.14l-8.57-5c-.68-.4-.6-1.09.2-1.55l8.48-4.9a3,3,0,0,1,2.69-.11l8.56,5c.69.39.6,1.09-.19,1.54l-8.49,4.9A3,3,0,0,1,412.11,345.14Z" transform="translate(0.03 0.1)"/><path class="cls-10" d="M425.34,352.77l-8.57-4.94c-.69-.4-.6-1.09.2-1.55l8.48-4.9a3,3,0,0,1,2.69-.11l8.56,4.94c.69.4.6,1.09-.19,1.55l-8.46,4.91A3,3,0,0,1,425.34,352.77Z" transform="translate(0.03 0.1)"/><path class="cls-10" d="M438.57,360.41l-8.52-4.94c-.69-.4-.6-1.1.19-1.55l8.49-4.9a3,3,0,0,1,2.68-.12l8.57,5c.69.4.6,1.09-.19,1.55l-8.49,4.9A3,3,0,0,1,438.57,360.41Z" transform="translate(0.03 0.1)"/><path class="cls-10" d="M339.05,288.06l-8.57-4.95c-.68-.4-.6-1.09.2-1.55l8.48-4.9a3,3,0,0,1,2.69-.11l8.56,4.95c.69.39.61,1.09-.19,1.55l-8.49,4.9A3,3,0,0,1,339.05,288.06Z" transform="translate(0.03 0.1)"/><path class="cls-10" d="M325.57,280.31l-8.52-4.95c-.69-.4-.6-1.09.19-1.55l8.49-4.9a3,3,0,0,1,2.68-.11l8.57,4.94c.69.4.6,1.1-.19,1.55l-8.49,4.9A3,3,0,0,1,325.57,280.31Z" transform="translate(0.03 0.1)"/><path class="cls-10" d="M312.13,272.54l-18.45-10.65c-.69-.4-.6-1.09.19-1.55l8.49-4.9a3,3,0,0,1,2.68-.11L323.49,266c.69.4.6,1.09-.19,1.55l-8.49,4.9A3,3,0,0,1,312.13,272.54Z" transform="translate(0.03 0.1)"/><path class="cls-10" d="M321.53,263.1l-15-8.65c-.68-.39-.6-1.09.2-1.54l8.48-4.91a3,3,0,0,1,2.69-.11l15,8.65c.69.39.6,1.09-.19,1.55l-8.49,4.9A3,3,0,0,1,321.53,263.1Z" transform="translate(0.03 0.1)"/><path class="cls-10" d="M352.25,295.67l-8.57-4.94c-.68-.4-.6-1.09.2-1.55l8.48-4.9a3,3,0,0,1,2.69-.11l8.56,4.94c.69.4.6,1.09-.19,1.55l-8.49,4.9A3,3,0,0,1,352.25,295.67Z" transform="translate(0.03 0.1)"/><path class="cls-10" d="M365.46,303.33l-8.57-4.94c-.69-.4-.6-1.09.19-1.55l8.49-4.9a3,3,0,0,1,2.69-.11l8.56,4.94c.69.4.6,1.09-.19,1.55l-8.49,4.9A3,3,0,0,1,365.46,303.33Z" transform="translate(0.03 0.1)"/><path class="cls-10" d="M378.69,311l-8.57-5c-.69-.39-.6-1.09.19-1.55l8.49-4.9a3,3,0,0,1,2.68-.11l8.57,5c.69.4.6,1.09-.19,1.55l-8.49,4.9A3,3,0,0,1,378.69,311Z" transform="translate(0.03 0.1)"/><path class="cls-10" d="M391.92,318.67l-8.57-5c-.69-.4-.6-1.09.19-1.55l8.49-4.9a3,3,0,0,1,2.68-.11l8.57,4.95c.69.39.6,1.09-.19,1.55l-8.49,4.9A3,3,0,0,1,391.92,318.67Z" transform="translate(0.03 0.1)"/><path class="cls-10" d="M405.14,326.24l-8.56-4.94c-.69-.4-.6-1.09.19-1.55l8.49-4.9a3,3,0,0,1,2.68-.11l8.57,4.94c.69.4.6,1.09-.19,1.55l-8.49,4.9A3,3,0,0,1,405.14,326.24Z" transform="translate(0.03 0.1)"/><path class="cls-10" d="M418.37,333.88l-8.56-4.94c-.69-.4-.6-1.09.19-1.55l8.49-4.9a3,3,0,0,1,2.68-.11l8.57,4.94c.68.4.6,1.09-.2,1.55l-8.49,4.9A3,3,0,0,1,418.37,333.88Z" transform="translate(0.03 0.1)"/><path class="cls-10" d="M431.6,341.52l-8.55-4.85c-.69-.39-.61-1.09.19-1.54l8.49-4.91a3,3,0,0,1,2.68-.11l8.57,4.95c.68.4.6,1.09-.2,1.55l-8.49,4.9A3,3,0,0,1,431.6,341.52Z" transform="translate(0.03 0.1)"/><path class="cls-10" d="M444.83,349.16l-8.57-5c-.68-.39-.6-1.09.2-1.55l8.48-4.9a3,3,0,0,1,2.69-.11l8.56,5c.69.39.61,1.09-.19,1.55l-8.49,4.9A3,3,0,0,1,444.83,349.16Z" transform="translate(0.03 0.1)"/><path class="cls-10" d="M458.05,356.8l-8.57-4.95c-.68-.4-.6-1.09.2-1.55l8.48-4.9a3,3,0,0,1,2.69-.11l8.56,4.94c.69.4.6,1.1-.19,1.55l-8.49,4.9A3,3,0,0,1,458.05,356.8Z" transform="translate(0.03 0.1)"/><path class="cls-10" d="M481.58,370.37l-18.69-10.7c-.69-.39-.61-1.09.19-1.55l8.49-4.9a3,3,0,0,1,2.68-.11l18.69,10.79c.69.4.6,1.09-.19,1.55l-8.49,4.9A3,3,0,0,1,481.58,370.37Z" transform="translate(0.03 0.1)"/><path class="cls-10" d="M507.33,355.5l-15.77-9.1c-.69-.4-.61-1.09.19-1.55l8.49-4.9a3,3,0,0,1,2.68-.12l15.78,9.11c.68.4.6,1.09-.2,1.55l-8.49,4.9A3,3,0,0,1,507.33,355.5Z" transform="translate(0.03 0.1)"/><path class="cls-10" d="M375.4,294.2l-8.57-4.95c-.69-.39-.6-1.09.19-1.54l8.49-4.91a3,3,0,0,1,2.68-.11l8.57,5c.69.4.6,1.09-.19,1.55l-8.49,4.9A3,3,0,0,1,375.4,294.2Z" transform="translate(0.03 0.1)"/><path class="cls-10" d="M361.84,286.37l-8.59-4.94c-.69-.4-.6-1.09.19-1.55l8.49-4.9a3,3,0,0,1,2.69-.11l8.56,4.94c.69.4.6,1.09-.19,1.55l-8.49,4.9A3,3,0,0,1,361.84,286.37Z" transform="translate(0.03 0.1)"/><path class="cls-10" d="M348.25,278.54l-8.54-4.87c-.68-.4-.6-1.09.2-1.55l8.48-4.9a3,3,0,0,1,2.69-.11l8.56,4.94c.69.4.61,1.09-.19,1.55L351,278.5A3,3,0,0,1,348.25,278.54Z" transform="translate(0.03 0.1)"/><path class="cls-10" d="M334.72,270.72l-8.56-5c-.69-.4-.61-1.09.19-1.55l8.49-4.9a3,3,0,0,1,2.68-.11l8.57,5c.68.39.6,1.09-.2,1.55l-8.48,4.9A3,3,0,0,1,334.72,270.72Z" transform="translate(0.03 0.1)"/><path class="cls-10" d="M388.62,301.84l-8.56-5c-.69-.4-.6-1.09.19-1.55l8.49-4.9a3,3,0,0,1,2.68-.11l8.57,5c.69.39.6,1.09-.19,1.55l-8.49,4.9A3,3,0,0,1,388.62,301.84Z" transform="translate(0.03 0.1)"/><path class="cls-10" d="M401.85,309.48l-8.6-5c-.69-.4-.6-1.09.19-1.55l8.49-4.9a3,3,0,0,1,2.68-.11l8.57,4.94c.68.4.6,1.1-.2,1.55l-8.48,4.9A3,3,0,0,1,401.85,309.48Z" transform="translate(0.03 0.1)"/><path class="cls-10" d="M415.05,317.11l-8.56-4.94c-.69-.4-.61-1.09.19-1.55l8.49-4.9a3,3,0,0,1,2.68-.11l8.57,4.94c.68.4.6,1.09-.2,1.55l-8.48,4.9A3,3,0,0,1,415.05,317.11Z" transform="translate(0.03 0.1)"/><path class="cls-10" d="M428.31,324.75l-8.57-4.95c-.68-.39-.6-1.09.2-1.54l8.48-4.9a3,3,0,0,1,2.69-.12l8.56,4.95c.69.4.61,1.09-.19,1.55l-8.49,4.9A3,3,0,0,1,428.31,324.75Z" transform="translate(0.03 0.1)"/><path class="cls-10" d="M441.54,332.39l-8.57-5c-.68-.39-.6-1.09.2-1.55l8.48-4.9a3,3,0,0,1,2.69-.11l8.56,5c.69.39.6,1.09-.19,1.55l-8.49,4.9A3,3,0,0,1,441.54,332.39Z" transform="translate(0.03 0.1)"/><path class="cls-10" d="M454.77,340l-8.57-5c-.69-.4-.6-1.09.19-1.55l8.49-4.9a3,3,0,0,1,2.69-.11l8.56,5c.69.39.6,1.09-.19,1.54l-8.49,4.9A3,3,0,0,1,454.77,340Z" transform="translate(0.03 0.1)"/><path class="cls-10" d="M468.05,347.67l-8.62-5c-.69-.4-.6-1.09.19-1.55l8.49-4.9a3,3,0,0,1,2.68-.11l8.57,4.94c.69.4.6,1.09-.19,1.55l-8.49,4.9A3,3,0,0,1,468.05,347.67Z" transform="translate(0.03 0.1)"/><path class="cls-10" d="M481.25,355.3l-8.57-4.94c-.69-.4-.6-1.1.19-1.55l8.49-4.9a3,3,0,0,1,2.68-.12l8.57,4.95c.69.4.6,1.09-.19,1.55l-8.49,4.9A3,3,0,0,1,481.25,355.3Z" transform="translate(0.03 0.1)"/><path class="cls-10" d="M494.45,362.94,485.89,358c-.69-.39-.6-1.09.19-1.55l8.49-4.9a3,3,0,0,1,2.68-.11l8.57,4.95c.69.39.6,1.09-.19,1.55l-8.49,4.9A3,3,0,0,1,494.45,362.94Z" transform="translate(0.03 0.1)"/><path class="cls-10" d="M368.43,275.31l-8.57-4.95c-.68-.39-.6-1.09.2-1.55l8.48-4.9a3,3,0,0,1,2.69-.11l8.56,4.95c.69.4.6,1.09-.19,1.55l-8.49,4.9A3,3,0,0,1,368.43,275.31Z" transform="translate(0.03 0.1)"/><path class="cls-10" d="M355.25,267.67l-8.57-5c-.69-.39-.6-1.09.19-1.55l8.49-4.9a3,3,0,0,1,2.68-.11l8.57,5c.69.4.6,1.09-.19,1.55l-8.47,5A3,3,0,0,1,355.25,267.67Z" transform="translate(0.03 0.1)"/><path class="cls-10" d="M342.1,260.11l-8.56-5c-.69-.39-.6-1.09.19-1.55l8.49-4.9a3,3,0,0,1,2.68-.11l8.57,5c.69.4.6,1.09-.2,1.55l-8.48,4.9A3,3,0,0,1,342.1,260.11Z" transform="translate(0.03 0.1)"/><path class="cls-10" d="M328.94,252.51l-8.57-4.95c-.68-.39-.6-1.09.2-1.54l8.48-4.91a3,3,0,0,1,2.69-.11L340.3,246c.69.4.61,1.09-.19,1.55l-8.49,4.9A3,3,0,0,1,328.94,252.51Z" transform="translate(0.03 0.1)"/><path class="cls-10" d="M342.48,244.67l-8.57-4.95c-.69-.4-.6-1.09.19-1.55l2.81-1.62a3,3,0,0,1,2.68-.11l8.57,4.94c.69.4.6,1.1-.19,1.55l-2.81,1.74A3,3,0,0,1,342.48,244.67Z" transform="translate(0.03 0.1)"/><path class="cls-10" d="M359.65,254.67l-8.6-5c-.69-.4-.6-1.09.19-1.55l2.81-1.62a3,3,0,0,1,2.68-.11l8.57,4.94c.68.4.6,1.09-.2,1.55l-2.8,1.62A3,3,0,0,1,359.65,254.67Z" transform="translate(0.03 0.1)"/><path class="cls-10" d="M372.76,262.18l-8.51-4.95c-.69-.39-.61-1.09.19-1.54l2.8-1.62a3,3,0,0,1,2.69-.12l8.56,5c.69.4.61,1.09-.19,1.55l-2.8,1.62A3,3,0,0,1,372.76,262.18Z" transform="translate(0.03 0.1)"/><path class="cls-10" d="M385.87,269.75l-8.57-4.95c-.68-.39-.6-1.09.2-1.55l2.8-1.62a3,3,0,0,1,2.69-.11l8.56,5c.69.4.6,1.09-.19,1.55l-2.81,1.6A3,3,0,0,1,385.87,269.75Z" transform="translate(0.03 0.1)"/><path class="cls-10" d="M399,277.32l-8.57-4.95c-.69-.4-.6-1.09.19-1.55l2.81-1.62a3,3,0,0,1,2.68-.11l8.57,5c.69.39.6,1.09-.19,1.55l-2.81,1.62A3,3,0,0,1,399,277.32Z" transform="translate(0.03 0.1)"/><path class="cls-10" d="M472.16,319.67l-8.57-5c-.69-.4-.6-1.09.2-1.55l2.8-1.62a3,3,0,0,1,2.68-.11l8.57,4.95c.69.39.6,1.09-.19,1.55l-2.81,1.62A3,3,0,0,1,472.16,319.67Z" transform="translate(0.03 0.1)"/><path class="cls-10" d="M485.25,327.14l-8.57-5c-.69-.4-.6-1.09.19-1.55l2.81-1.62a3,3,0,0,1,2.68-.11l8.57,4.94c.69.4.6,1.1-.19,1.55L487.93,327A3,3,0,0,1,485.25,327.14Z" transform="translate(0.03 0.1)"/><path class="cls-10" d="M498.37,334.67l-8.56-4.94c-.69-.4-.6-1.09.19-1.55l2.81-1.62a3,3,0,0,1,2.68-.11l8.57,4.94c.68.4.6,1.09-.2,1.55l-2.8,1.62A3,3,0,0,1,498.37,334.67Z" transform="translate(0.03 0.1)"/><path class="cls-10" d="M511.48,342.27l-8.56-4.94c-.69-.4-.6-1.1.19-1.55l2.81-1.62a3,3,0,0,1,2.68-.11l8.56,4.94c.69.4.61,1.09-.19,1.55l-2.8,1.62A3,3,0,0,1,511.48,342.27Z" transform="translate(0.03 0.1)"/><path class="cls-10" d="M381.66,283,373.05,278c-.69-.4-.6-1.09.19-1.55l8.49-4.9a3,3,0,0,1,2.69-.11l8.56,5c.69.39.6,1.09-.19,1.54l-8.49,4.91A3,3,0,0,1,381.66,283Z" transform="translate(0.03 0.1)"/><path class="cls-10" d="M394.89,290.67l-8.57-5c-.69-.4-.6-1.09.19-1.55l8.49-4.9a3,3,0,0,1,2.68-.11l8.57,5c.69.4.6,1.09-.19,1.55l-8.49,4.9A3,3,0,0,1,394.89,290.67Z" transform="translate(0.03 0.1)"/><path class="cls-10" d="M408.12,298.22l-8.57-4.94c-.69-.4-.6-1.09.19-1.55l8.49-4.9a3,3,0,0,1,2.68-.11l8.57,4.94c.69.4.6,1.09-.19,1.55l-8.49,4.9A3,3,0,0,1,408.12,298.22Z" transform="translate(0.03 0.1)"/><path class="cls-10" d="M421.34,305.86l-8.56-4.95c-.69-.39-.6-1.09.19-1.55l8.49-4.9a3,3,0,0,1,2.68-.11l8.57,4.95c.69.4.6,1.09-.19,1.55l-8.49,4.9A3,3,0,0,1,421.34,305.86Z" transform="translate(0.03 0.1)"/><path class="cls-10" d="M434.57,313.5l-8.52-4.95c-.69-.4-.6-1.09.19-1.55l8.49-4.9a3,3,0,0,1,2.68-.11l8.57,4.95c.68.39.6,1.09-.2,1.55l-8.48,4.9A3,3,0,0,1,434.57,313.5Z" transform="translate(0.03 0.1)"/><path class="cls-10" d="M447.8,321.13l-8.55-4.94c-.69-.4-.61-1.09.19-1.55l8.49-4.9a3,3,0,0,1,2.68-.11l8.57,4.94c.68.4.6,1.09-.2,1.55L450.5,321A3,3,0,0,1,447.8,321.13Z" transform="translate(0.03 0.1)"/><path class="cls-10" d="M461.05,328.77l-8.57-4.94c-.68-.4-.6-1.09.2-1.55l8.49-4.9a3,3,0,0,1,2.68-.11l8.56,4.94c.69.4.61,1.09-.19,1.55l-8.49,4.9A3,3,0,0,1,461.05,328.77Z" transform="translate(0.03 0.1)"/><path class="cls-10" d="M474.25,336.41l-8.57-5c-.68-.39-.6-1.09.2-1.55l8.48-4.9a3,3,0,0,1,2.69-.11l8.56,5c.69.4.6,1.09-.19,1.55l-8.49,4.9A3,3,0,0,1,474.25,336.41Z" transform="translate(0.03 0.1)"/><path class="cls-10" d="M487.49,344.05l-8.57-4.95c-.69-.4-.6-1.09.19-1.55l8.49-4.9a3,3,0,0,1,2.69-.11l8.56,4.95c.69.39.6,1.09-.19,1.55l-8.49,4.9A3,3,0,0,1,487.49,344.05Z" transform="translate(0.03 0.1)"/><path class="cls-10" d="M306.05,283.89l-25.23-14.57c-.69-.39-.6-1.09.19-1.55l8.49-4.9a3,3,0,0,1,2.68-.11l25.23,14.57c.69.4.6,1.09-.19,1.55l-8.49,4.9A3,3,0,0,1,306.05,283.89Z" transform="translate(0.03 0.1)"/><path class="cls-10" d="M468.55,377.72l-25.23-14.57c-.69-.39-.6-1.09.19-1.55l8.54-4.93a3,3,0,0,1,2.68-.11L480,371.13c.69.4.6,1.09-.19,1.55l-8.52,5A3,3,0,0,1,468.55,377.72Z" transform="translate(0.03 0.1)"/><path class="cls-10" d="M415.64,364.05l-8.59-4.95c-.69-.4-.61-1.09.19-1.55l10.14-5.88a3,3,0,0,1,2.68-.11l8.57,4.95c.69.4.6,1.09-.19,1.55l-10.11,5.84A3,3,0,0,1,415.64,364.05Z" transform="translate(0.03 0.1)"/><path class="cls-10" d="M319.57,308.67l-13.69-8c-.69-.39-.61-1.09.19-1.55l10.11-5.83a3,3,0,0,1,2.68-.12l13.7,7.91c.69.4.6,1.09-.19,1.55l-10.12,5.8A3,3,0,0,1,319.57,308.67Z" transform="translate(0.03 0.1)"/><path class="cls-10" d="M402.9,356.67l-13.65-7.91c-.69-.4-.61-1.09.19-1.55l10.11-5.84a3,3,0,0,1,2.68-.11l13.7,7.91c.69.4.6,1.09-.19,1.55l-10.16,5.95A3,3,0,0,1,402.9,356.67Z" transform="translate(0.03 0.1)"/><path class="cls-10" d="M338.66,319.67l-13.7-8c-.69-.4-.6-1.09.19-1.55l10.1-5.86a3,3,0,0,1,2.68-.11l13.7,7.91c.69.4.6,1.09-.19,1.55l-10.12,5.84A3,3,0,0,1,338.66,319.67Z" transform="translate(0.03 0.1)"/><path class="cls-10" d="M338.05,304.25l59.55,34.42c.74.42.74,1.11,0,1.54l-10.35,6a2.92,2.92,0,0,1-2.67,0l-59.53-34.46Z" transform="translate(0.03 0.1)"/><path class="cls-10" d="M452.61,377.89l9.55,5.51c.56.33.49.9-.16,1.27l-4.14,2.39a2.44,2.44,0,0,1-2.2.09l-9.54-5.48c-.56-.32-.49-.89.16-1.27l4.13-2.38A2.44,2.44,0,0,1,452.61,377.89Z" transform="translate(0.03 0.1)"/><path class="cls-10" d="M439.25,370.19l9.54,5.51c.56.33.49.9-.16,1.27l-4.14,2.39a2.44,2.44,0,0,1-2.2.09l-9.54-5.51c-.56-.32-.49-.89.16-1.27l4.14-2.39A2.44,2.44,0,0,1,439.25,370.19Z" transform="translate(0.03 0.1)"/><path class="cls-10" d="M426.05,362.56l9.54,5.5c.56.33.49.9-.16,1.27l-4.13,2.39a2.44,2.44,0,0,1-2.2.09l-9.55-5.51c-.56-.32-.49-.89.16-1.27l4.14-2.36A2.41,2.41,0,0,1,426.05,362.56Z" transform="translate(0.03 0.1)"/><path class="cls-10" d="M446.58,366l9.54,5.5c.57.33.5.9-.15,1.27l-4.14,2.39a2.44,2.44,0,0,1-2.2.09l-9.58-5.51c-.57-.32-.5-.89.16-1.27l4.13-2.38A2.43,2.43,0,0,1,446.58,366Z" transform="translate(0.03 0.1)"/></g><path class="cls-12" d="M339.32,392.25a12.42,12.42,0,0,1-6.15-1.44h0l-66.48-38.38a4.77,4.77,0,0,1-2.73-4.1c0-1.88,1.33-3.74,3.66-5.08l34.22-19.76c4.19-2.41,10.32-2.65,14-.54l66.49,38.38a4.84,4.84,0,0,1,2.73,4.1c0,1.89-1.34,3.74-3.67,5.08l-34.24,19.76A16,16,0,0,1,339.32,392.25Zm-29.62-68.8a14.19,14.19,0,0,0-6.9,1.7l-34.22,19.76c-1.72,1-2.71,2.24-2.71,3.42a3,3,0,0,0,1.78,2.43l66.48,38.39c3,1.74,8.54,1.49,12.06-.54l34.22-19.76c1.72-1,2.71-2.24,2.71-3.42a3,3,0,0,0-1.77-2.43l-66.49-38.33a10.51,10.51,0,0,0-5.16-1.17Z" transform="translate(0.03 0.1)"/><path class="cls-13" d="M413.87,48.74a5.09,5.09,0,0,1,2.64.67L594.62,151.67" transform="translate(0.03 0.1)"/><path class="cls-14" d="M584.25,344,339.05,202.38c-3.8-2.19-5.79-7.55-4.43-12L389.25,13c1.35-4.4,5.53-6.19,9.34-4L643.75,150.67c3.8,2.19,5.79,7.54,4.43,12l-54.64,177.4C592.19,344.43,588.05,346.22,584.25,344Z" transform="translate(0.03 0.1)"/><line class="cls-15" x1="419.73" y1="68.89" x2="381.03" y2="197.25"/><path class="cls-2" d="M419.81,51.11,604.05,157.49,563.7,293.81l6.83,4.09s4.27,2.72,8.46-1.59c0,0,2.07-1.45,3.47-6.09l37.83-125.17a16.72,16.72,0,0,0-1.58-12.33,14.53,14.53,0,0,0-5.69-6.16L433.85,42.9a15.18,15.18,0,0,0-7.49-1.85c-3.78.28-4.25,2.27-4.52,2.89S419.81,51.11,419.81,51.11Z" transform="translate(0.03 0.1)"/><path class="cls-16" d="M602.05,150.79,416.93,44.2a4.58,4.58,0,0,0-5.2.19,4.9,4.9,0,0,1,2.67.67L599.52,151.67a8.2,8.2,0,0,1,3.4,9.1l-41.71,135.9a5.53,5.53,0,0,1-1.93,2.88,4.89,4.89,0,0,0,4.47-3.75l41.68-135.86A8.22,8.22,0,0,0,602.05,150.79Z" transform="translate(0.03 0.1)"/><path class="cls-17" d="M409.8,47.3a4.93,4.93,0,0,1,1.93-2.87,6.12,6.12,0,0,1,2.31.48l185.71,106.9a8.2,8.2,0,0,1,3.16,9l-3.26,10.62-194-110.57Z" transform="translate(0.03 0.1)"/><path class="cls-18" d="M454.88,77.24l8.37,4.82a2.17,2.17,0,0,1,.93,2.41h0a1.23,1.23,0,0,1-1.42,1h0a1.28,1.28,0,0,1-.42-.17l-8.36-4.82a2.17,2.17,0,0,1-.93-2.4h0a1.23,1.23,0,0,1,1.42-1h0A1.21,1.21,0,0,1,454.88,77.24Z" transform="translate(0.03 0.1)"/><path class="cls-19" d="M438.93,68.06l8.37,4.81a2.17,2.17,0,0,1,.93,2.4h0a1.25,1.25,0,0,1-1.45,1h0a1.18,1.18,0,0,1-.4-.17L438,71.29a2.18,2.18,0,0,1-.92-2.41h0a1.23,1.23,0,0,1,1.46-.95,1.32,1.32,0,0,1,.41.17Z" transform="translate(0.03 0.1)"/><path class="cls-20" d="M423,58.87l8.4,4.82a2.19,2.19,0,0,1,.94,2.4h0a1.24,1.24,0,0,1-1.44,1h0a1.28,1.28,0,0,1-.42-.17l-8.37-4.87a2.19,2.19,0,0,1-.94-2.4h0a1.24,1.24,0,0,1,1.49-.92h0A1.42,1.42,0,0,1,423,58.87Z" transform="translate(0.03 0.1)"/><path class="cls-21" d="M405.63,60.84l13,7.43L380.75,197.59l-9.24-5.32a7.58,7.58,0,0,1-3.4-9.11Z" transform="translate(0.03 0.1)"/><path class="cls-22" d="M416.05,54.93l.07.29a2.2,2.2,0,0,1-1,2.36h0a1.23,1.23,0,0,1-1.7-.37v0a1.13,1.13,0,0,1-.17-.39l-.07-.29a2.19,2.19,0,0,1,1-2.36h0a1.24,1.24,0,0,1,1.71.37h0A1.16,1.16,0,0,1,416.05,54.93Z" transform="translate(0.03 0.1)"/><text class="cls-23" transform="translate(402.53 86.47) rotate(19.99)">1.</text><text class="cls-23" transform="translate(399.09 98.5) rotate(19.99)">2.</text><text class="cls-23" transform="translate(395.63 109.88) rotate(19.99)">3.</text><text class="cls-23" transform="translate(391.9 122.75) rotate(19.99)">4.</text><text class="cls-23" transform="translate(387.97 134.7) rotate(19.99)">5.</text><text class="cls-23" transform="translate(384.04 146.82) rotate(19.99)">6.</text><text class="cls-23" transform="translate(380.44 159.75) rotate(19.99)">7.</text><text class="cls-23" transform="translate(376.92 172.36) rotate(19.99)">8.</text></svg>