<svg id="Layer_1" data-name="Layer 1" xmlns="http://www.w3.org/2000/svg" xmlns:xlink="http://www.w3.org/1999/xlink" viewBox="0 0 770.3 514.18"><defs><style>.cls-1{fill:url(#linear-gradient);}.cls-2{fill:#37069c;}.cls-3{fill:#83d2f9;}.cls-4{fill:#10151b;}.cls-5{fill:url(#radial-gradient);}.cls-22,.cls-25,.cls-6{fill:#fff;}.cls-10,.cls-7{opacity:0.4;}.cls-10,.cls-8{fill:#06033e;}.cls-9{opacity:0.37;}.cls-10,.cls-12,.cls-22,.cls-28{isolation:isolate;}.cls-11,.cls-23,.cls-24{fill:none;}.cls-12,.cls-28{opacity:0.6;}.cls-13{fill:url(#radial-gradient-2);}.cls-14{fill:url(#linear-gradient-2);}.cls-15{fill:url(#linear-gradient-3);}.cls-16{fill:url(#linear-gradient-4);}.cls-17{fill:url(#linear-gradient-5);}.cls-18{fill:url(#radial-gradient-3);}.cls-19{fill:#0c0a78;}.cls-20{fill:url(#linear-gradient-6);}.cls-21{fill:#e8975b;}.cls-22{opacity:0.5;}.cls-23{stroke:#021b4a;}.cls-23,.cls-24{stroke-miterlimit:10;}.cls-24{stroke:#606163;stroke-width:0.25px;}.cls-25{opacity:0.64;}.cls-26{fill:#8ebad5;}.cls-27{fill:#e9f763;}.cls-28{fill:#ff0b0b;}.cls-29{fill:#077b94;}.cls-30{fill:#2b2b2b;}.cls-31{fill:#f8359e;}.cls-32{font-size:9.11px;fill:#a8a8a8;font-family:MyriadPro-Regular, Myriad Pro;}</style><linearGradient id="linear-gradient" x1="348.16" y1="211.86" x2="662.55" y2="211.86" gradientUnits="userSpaceOnUse"><stop offset="0" stop-color="#3919bb"/><stop offset="1" stop-color="#6507fa"/></linearGradient><radialGradient id="radial-gradient" cx="216.01" cy="169.94" r="427.63" gradientTransform="matrix(1, 0, 0, -1, -44.76, 512.01)" gradientUnits="userSpaceOnUse"><stop offset="0" stop-color="#e39a65"/><stop offset="0.47" stop-color="#a92ffb"/><stop offset="0.57" stop-color="#891cfb"/><stop offset="0.68" stop-color="#6507fa"/><stop offset="0.74" stop-color="#0d0c6f"/></radialGradient><radialGradient id="radial-gradient-2" cx="201.57" cy="303.34" r="171.46" gradientTransform="matrix(1, 0, 0, -1, -44.76, 512.01)" gradientUnits="userSpaceOnUse"><stop offset="0" stop-color="#e39a65"/><stop offset="0.15" stop-color="#a92ffb"/><stop offset="0.41" stop-color="#3919bb"/><stop offset="0.93" stop-color="#3919bb"/></radialGradient><linearGradient id="linear-gradient-2" x1="204.6" y1="324.61" x2="266.11" y2="324.61" gradientTransform="matrix(1, 0, 0, -1, -44.76, 512.01)" gradientUnits="userSpaceOnUse"><stop offset="0" stop-color="#e39a65"/><stop offset="0.25" stop-color="#a92ffb"/><stop offset="0.56" stop-color="#3919bb"/></linearGradient><linearGradient id="linear-gradient-3" x1="165.62" y1="338.98" x2="215.58" y2="338.98" gradientTransform="matrix(1, 0, 0, -1, -13.96, 480.35)" gradientUnits="userSpaceOnUse"><stop offset="0" stop-color="#4f1fec"/><stop offset="1" stop-color="#a92ffb"/></linearGradient><linearGradient id="linear-gradient-4" x1="164.43" y1="338.98" x2="214.39" y2="338.98" xlink:href="#linear-gradient-3"/><linearGradient id="linear-gradient-5" x1="210.37" y1="334.3" x2="273.37" y2="334.3" gradientTransform="matrix(1, 0, 0, -1, -44.76, 512.01)" gradientUnits="userSpaceOnUse"><stop offset="0" stop-color="#131060"/><stop offset="0.19" stop-color="#141062"/><stop offset="0.28" stop-color="#19106a"/><stop offset="0.36" stop-color="#221078"/><stop offset="0.42" stop-color="#2e0f8b"/><stop offset="0.48" stop-color="#3e0fa3"/><stop offset="0.54" stop-color="#510ec2"/><stop offset="0.58" stop-color="#680de5"/><stop offset="0.61" stop-color="#740df8"/><stop offset="0.62" stop-color="#7a14f0"/><stop offset="0.68" stop-color="#9b3cc3"/><stop offset="0.75" stop-color="#b75d9d"/><stop offset="0.81" stop-color="#cc7680"/><stop offset="0.88" stop-color="#dc886c"/><stop offset="0.94" stop-color="#e5935f"/><stop offset="1" stop-color="#e8975b"/></linearGradient><radialGradient id="radial-gradient-3" cx="196.93" cy="341.98" r="112.16" gradientTransform="matrix(1, 0, 0, -1, -44.76, 512.01)" gradientUnits="userSpaceOnUse"><stop offset="0" stop-color="#e39a65"/><stop offset="0.25" stop-color="#a92ffb"/><stop offset="0.74" stop-color="#3919bb"/></radialGradient><linearGradient id="linear-gradient-6" x1="231.4" y1="313.96" x2="240.11" y2="313.96" xlink:href="#linear-gradient-5"/></defs><path class="cls-1" d="M598.2,379.36,353,237.71c-3.8-2.19-5.79-7.55-4.43-12L403.2,48.36c1.35-4.4,5.53-6.19,9.34-4L657.7,186c3.8,2.19,5.79,7.54,4.43,12l-54.64,177.4C606.14,379.76,602,381.55,598.2,379.36ZM431,81.23c-2.87-1.68-6-.32-7,3l-41.17,134.2a8.1,8.1,0,0,0,3.36,9L569,332.72c2.88,1.66,6,.35,7.06-3l41.17-134.18a8.1,8.1,0,0,0-3.36-9Z" transform="translate(-13.96 -42.92)"/><path class="cls-2" d="M657.7,186c3.8,2.19,5.79,7.54,4.43,12l-54.64,177.4c-1.35,4.4-5.53,6.19-9.29,4L353,237.71c-3.8-2.19-5.79-7.55-4.43-12L403.2,48.36c1.35-4.4,5.53-6.19,9.34-4Zm-40.46,9.51a8.1,8.1,0,0,0-3.36-9L431,81.23c-2.87-1.68-6-.32-7,3l-41.17,134.2a8.1,8.1,0,0,0,3.36,9L569,332.72c2.88,1.66,6,.35,7.06-3Z" transform="translate(-13.96 -42.92)"/><path class="cls-3" d="M755.62,476.59A12.28,12.28,0,0,1,749.5,475l-20.62-11.9a3.8,3.8,0,0,1-1.41-5.2,3.67,3.67,0,0,1,1.41-1.41l20.62-11.91a12.25,12.25,0,0,1,12.23,0l20.62,11.91a3.81,3.81,0,0,1,1.4,5.2,3.86,3.86,0,0,1-1.4,1.41L761.73,475A12.27,12.27,0,0,1,755.62,476.59Zm0-30.42a8.79,8.79,0,0,0-4.48,1.19l-20.62,11.91a.5.5,0,0,0-.28.47.52.52,0,0,0,.28.48l20.62,11.9h0a9,9,0,0,0,9,0l20.62-11.9a.56.56,0,0,0,.27-.48.52.52,0,0,0-.27-.47L760.1,447.36A8.84,8.84,0,0,0,755.62,446.17Z" transform="translate(-13.96 -42.92)"/><path class="cls-3" d="M696.65,409a19.92,19.92,0,0,1-9.94-2.66L651.2,386a5.39,5.39,0,0,1-2-7.36,5.23,5.23,0,0,1,2-2l35.48-20.49a19.92,19.92,0,0,1,19.87,0L742,376.61a5.41,5.41,0,0,1,0,9.34l-35.49,20.48A19.88,19.88,0,0,1,696.65,409Zm-8.3-5.49a16.63,16.63,0,0,0,16.6,0l35.48-20.48a2.13,2.13,0,0,0,0-3.68L705,359a16.67,16.67,0,0,0-16.6,0l-35.49,20.49a2.13,2.13,0,0,0,0,3.68Z" transform="translate(-13.96 -42.92)"/><path class="cls-3" d="M62.07,441.28a19.85,19.85,0,0,1-9.93-2.65L16.65,418.14a5.4,5.4,0,0,1-2-7.38,5.27,5.27,0,0,1,2-2l35.49-20.49a19.92,19.92,0,0,1,19.87,0l35.48,20.49a5.4,5.4,0,0,1,0,9.34L72,438.63A20.07,20.07,0,0,1,62.07,441.28Zm0-52.35a16.63,16.63,0,0,0-8.3,2.21L18.29,411.63a2.13,2.13,0,0,0,0,3.68L53.77,435.8h0a16.69,16.69,0,0,0,16.61,0l35.48-20.49a2.13,2.13,0,0,0,0-3.68L70.37,391.14a16.56,16.56,0,0,0-8.3-2.19Z" transform="translate(-13.96 -42.92)"/><path class="cls-4" d="M421.41,530.65,167.68,384.16c-3.7-2.13-3.23-5.86,1-8.33l162.84-94c4.27-2.46,10.73-2.73,14.43-.59L599.72,427.71c3.69,2.13,3.23,5.86-1,8.33L435.88,530C431.57,532.52,425.11,532.79,421.41,530.65Z" transform="translate(-13.96 -42.92)"/><path class="cls-3" d="M427.2,557.1a16.23,16.23,0,0,1-8-1.87h0L129.66,388c-2.37-1.36-3.67-3.33-3.67-5.54,0-2.54,1.77-5,4.85-6.8L328.2,260.05c5.41-3.13,13.36-3.43,18.11-.69L635.92,426.55c2.37,1.37,3.67,3.34,3.67,5.55,0,2.54-1.77,5-4.85,6.79L437.35,554.54A20.93,20.93,0,0,1,427.2,557.1ZM338.4,260.78a17.43,17.43,0,0,0-8.52,2.1L132.49,378.53c-2,1.17-3.23,2.65-3.23,4a3.38,3.38,0,0,0,2,2.71L420.87,552.4h0c3.7,2.13,10.49,1.82,14.83-.69L633.1,436.06c2-1.16,3.22-2.64,3.22-4a3.48,3.48,0,0,0-2-2.72L344.71,262.19A13,13,0,0,0,338.4,260.78Z" transform="translate(-13.96 -42.92)"/><path class="cls-5" d="M595.8,391.28l.09.1L346.26,247.26c-3.68-2.12-10.09-1.86-14.33.59L166.78,346.46h0a4.49,4.49,0,0,0,2.42,3L421.14,495c3.67,2.12,10.09,1.85,14.33-.6L597.2,401c2-1.16,3.15-2.59,3.43-4h0l1.54-7.34Z" transform="translate(-13.96 -42.92)"/><path class="cls-6" d="M598.69,397.65,436.43,486c-4.26,2.31-10.69,2.56-14.38.56L169.2,349a4.56,4.56,0,0,1-2.3-2.47c-.49,1.6.23,3.2,2.3,4.33L422.05,488.38c3.69,2,10.12,1.76,14.38-.56l162.26-88.31c2.81-1.53,3.93-3.56,3.33-5.35A6.46,6.46,0,0,1,598.69,397.65Z" transform="translate(-13.96 -42.92)"/><g class="cls-7"><path class="cls-8" d="M288.71,318l-8.57-4.94c-.69-.4-.6-1.09.19-1.55l10.11-5.84a3,3,0,0,1,2.69-.11l8.56,5c.69.39.6,1.09-.19,1.55L291.39,318A3,3,0,0,1,288.71,318Z" transform="translate(-13.96 -42.92)"/><path class="cls-8" d="M301.93,325.67l-8.56-4.94c-.69-.4-.6-1.09.19-1.55l10.11-5.84a3,3,0,0,1,2.68-.11l8.57,4.94c.69.4.6,1.1-.19,1.55l-10.11,5.84A3,3,0,0,1,301.93,325.67Z" transform="translate(-13.96 -42.92)"/><path class="cls-8" d="M315.2,333.31l-8.56-4.95c-.69-.39-.61-1.09.19-1.54L316.9,321a3,3,0,0,1,2.68-.11l8.57,4.94c.69.4.6,1.09-.19,1.55l-10.11,5.84A3,3,0,0,1,315.2,333.31Z" transform="translate(-13.96 -42.92)"/><path class="cls-8" d="M333.46,327l-8.57-4.94c-.69-.4-.6-1.09.2-1.55l8.48-4.9a3,3,0,0,1,2.69-.11l8.56,4.94c.69.4.6,1.09-.19,1.55l-8.49,4.9A3,3,0,0,1,333.46,327Z" transform="translate(-13.96 -42.92)"/><path class="cls-8" d="M346.69,334.64l-8.57-4.95c-.69-.39-.6-1.09.19-1.54l8.49-4.9a3,3,0,0,1,2.68-.12l8.57,4.95c.69.4.6,1.09-.19,1.55l-8.49,4.9A3,3,0,0,1,346.69,334.64Z" transform="translate(-13.96 -42.92)"/><path class="cls-8" d="M359.92,342.28l-8.57-4.95c-.69-.39-.6-1.09.19-1.55l8.49-4.9a3,3,0,0,1,2.68-.11l8.57,5c.69.39.6,1.09-.19,1.55l-8.49,4.9A3,3,0,0,1,359.92,342.28Z" transform="translate(-13.96 -42.92)"/><path class="cls-8" d="M373.14,350l-8.56-5c-.69-.4-.6-1.09.19-1.55l8.49-4.9a3,3,0,0,1,2.68-.11l8.57,4.94c.69.4.6,1.1-.19,1.55l-8.49,4.9A3,3,0,0,1,373.14,350Z" transform="translate(-13.96 -42.92)"/><path class="cls-8" d="M386.37,357.55l-8.56-4.94c-.69-.4-.6-1.09.19-1.55l8.49-4.9a3,3,0,0,1,2.68-.11l8.57,4.94c.68.4.6,1.09-.2,1.55l-8.48,4.9A3,3,0,0,1,386.37,357.55Z" transform="translate(-13.96 -42.92)"/><path class="cls-8" d="M399.6,365.19,391,360.25c-.69-.4-.61-1.1.19-1.55l8.49-4.9a3,3,0,0,1,2.68-.12l8.57,4.95c.68.4.6,1.09-.2,1.55l-8.48,4.9A3,3,0,0,1,399.6,365.19Z" transform="translate(-13.96 -42.92)"/><path class="cls-8" d="M412.83,372.83l-8.57-4.95c-.68-.39-.6-1.09.2-1.55l8.49-4.9a3,3,0,0,1,2.68-.11l8.56,4.95c.69.39.61,1.09-.19,1.55l-8.49,4.9A3,3,0,0,1,412.83,372.83Z" transform="translate(-13.96 -42.92)"/><path class="cls-8" d="M426.06,380.47l-8.57-5c-.68-.4-.6-1.09.2-1.55l8.48-4.9a3,3,0,0,1,2.69-.11l8.56,5c.69.39.6,1.09-.19,1.54l-8.49,4.9A3,3,0,0,1,426.06,380.47Z" transform="translate(-13.96 -42.92)"/><path class="cls-8" d="M439.29,388.1l-8.57-4.94c-.69-.4-.6-1.09.2-1.55l8.48-4.9a3,3,0,0,1,2.69-.11l8.56,4.94c.69.4.6,1.09-.19,1.55L442,388A3,3,0,0,1,439.29,388.1Z" transform="translate(-13.96 -42.92)"/><path class="cls-8" d="M452.52,395.74,444,390.8c-.69-.4-.6-1.1.19-1.55l8.49-4.9a3,3,0,0,1,2.68-.12l8.57,5c.69.4.6,1.09-.19,1.55l-8.49,4.9A3,3,0,0,1,452.52,395.74Z" transform="translate(-13.96 -42.92)"/><path class="cls-8" d="M353,323.39l-8.57-4.95c-.68-.4-.6-1.09.2-1.55l8.48-4.9a3,3,0,0,1,2.69-.11l8.56,4.95c.69.39.61,1.09-.19,1.55l-8.49,4.9A3,3,0,0,1,353,323.39Z" transform="translate(-13.96 -42.92)"/><path class="cls-8" d="M339.52,315.64,331,310.69c-.69-.4-.6-1.09.19-1.55l8.49-4.9a3,3,0,0,1,2.68-.11l8.57,4.94c.69.4.6,1.1-.19,1.55l-8.49,4.9A3,3,0,0,1,339.52,315.64Z" transform="translate(-13.96 -42.92)"/><path class="cls-8" d="M326.08,307.87l-18.45-10.65c-.69-.4-.6-1.09.19-1.55l8.49-4.9a3,3,0,0,1,2.68-.11l18.45,10.65c.69.4.6,1.09-.19,1.55l-8.49,4.9A3,3,0,0,1,326.08,307.87Z" transform="translate(-13.96 -42.92)"/><path class="cls-8" d="M335.48,298.43l-15-8.65c-.68-.39-.6-1.09.2-1.54l8.48-4.91a3,3,0,0,1,2.69-.11l15,8.65c.69.39.6,1.09-.19,1.55l-8.49,4.9A3,3,0,0,1,335.48,298.43Z" transform="translate(-13.96 -42.92)"/><path class="cls-8" d="M366.2,331l-8.57-4.94c-.68-.4-.6-1.09.2-1.55l8.48-4.9a3,3,0,0,1,2.69-.11l8.56,4.94c.69.4.6,1.09-.19,1.55l-8.49,4.9A3,3,0,0,1,366.2,331Z" transform="translate(-13.96 -42.92)"/><path class="cls-8" d="M379.41,338.66l-8.57-4.94c-.69-.4-.6-1.09.19-1.55l8.49-4.9a3,3,0,0,1,2.69-.11l8.56,4.94c.69.4.6,1.09-.19,1.55l-8.49,4.9A3,3,0,0,1,379.41,338.66Z" transform="translate(-13.96 -42.92)"/><path class="cls-8" d="M392.64,346.3l-8.57-5c-.69-.39-.6-1.09.19-1.55l8.49-4.9a3,3,0,0,1,2.68-.11l8.57,5c.69.4.6,1.09-.19,1.55l-8.49,4.9A3,3,0,0,1,392.64,346.3Z" transform="translate(-13.96 -42.92)"/><path class="cls-8" d="M405.87,354l-8.57-5c-.69-.4-.6-1.09.19-1.55l8.49-4.9a3,3,0,0,1,2.68-.11l8.57,4.95c.69.39.6,1.09-.19,1.55l-8.49,4.9A3,3,0,0,1,405.87,354Z" transform="translate(-13.96 -42.92)"/><path class="cls-8" d="M419.09,361.57l-8.56-4.94c-.69-.4-.6-1.09.19-1.55l8.49-4.9a3,3,0,0,1,2.68-.11l8.57,4.94c.69.4.6,1.09-.19,1.55l-8.49,4.9A3,3,0,0,1,419.09,361.57Z" transform="translate(-13.96 -42.92)"/><path class="cls-8" d="M432.32,369.21l-8.56-4.94c-.69-.4-.6-1.09.19-1.55l8.49-4.9a3,3,0,0,1,2.68-.11l8.57,4.94c.68.4.6,1.09-.2,1.55L435,369.1A3,3,0,0,1,432.32,369.21Z" transform="translate(-13.96 -42.92)"/><path class="cls-8" d="M445.55,376.85,437,372c-.69-.39-.61-1.09.19-1.54l8.49-4.91a3,3,0,0,1,2.68-.11l8.57,4.95c.68.4.6,1.09-.2,1.55l-8.49,4.9A3,3,0,0,1,445.55,376.85Z" transform="translate(-13.96 -42.92)"/><path class="cls-8" d="M458.78,384.49l-8.57-5c-.68-.39-.6-1.09.2-1.55l8.48-4.9a3,3,0,0,1,2.69-.11l8.56,5c.69.39.61,1.09-.19,1.55l-8.49,4.9A3,3,0,0,1,458.78,384.49Z" transform="translate(-13.96 -42.92)"/><path class="cls-8" d="M472,392.13l-8.57-4.95c-.68-.4-.6-1.09.2-1.55l8.48-4.9a3,3,0,0,1,2.69-.11l8.56,4.94c.69.4.6,1.1-.19,1.55l-8.49,4.9A3,3,0,0,1,472,392.13Z" transform="translate(-13.96 -42.92)"/><path class="cls-8" d="M495.53,405.7,476.84,395c-.69-.39-.61-1.09.19-1.55l8.49-4.9a3,3,0,0,1,2.68-.11l18.69,10.79c.69.4.6,1.09-.19,1.55l-8.49,4.9A3,3,0,0,1,495.53,405.7Z" transform="translate(-13.96 -42.92)"/><path class="cls-8" d="M521.28,390.83l-15.77-9.1c-.69-.4-.61-1.09.19-1.55l8.49-4.9a3,3,0,0,1,2.68-.12l15.78,9.11c.68.4.6,1.09-.2,1.55l-8.49,4.9A3,3,0,0,1,521.28,390.83Z" transform="translate(-13.96 -42.92)"/><path class="cls-8" d="M389.35,329.53l-8.57-4.95c-.69-.39-.6-1.09.19-1.54l8.49-4.91a3,3,0,0,1,2.68-.11l8.57,5c.69.4.6,1.09-.19,1.55l-8.49,4.9A3,3,0,0,1,389.35,329.53Z" transform="translate(-13.96 -42.92)"/><path class="cls-8" d="M375.79,321.7l-8.59-4.94c-.69-.4-.6-1.09.19-1.55l8.49-4.9a3,3,0,0,1,2.69-.11l8.56,4.94c.69.4.6,1.09-.19,1.55l-8.49,4.9A3,3,0,0,1,375.79,321.7Z" transform="translate(-13.96 -42.92)"/><path class="cls-8" d="M362.2,313.87,353.66,309c-.68-.4-.6-1.09.2-1.55l8.48-4.9a3,3,0,0,1,2.69-.11l8.56,4.94c.69.4.61,1.09-.19,1.55l-8.49,4.9A3,3,0,0,1,362.2,313.87Z" transform="translate(-13.96 -42.92)"/><path class="cls-8" d="M348.67,306.05l-8.56-5c-.69-.4-.61-1.09.19-1.55l8.49-4.9a3,3,0,0,1,2.68-.11l8.57,5c.68.39.6,1.09-.2,1.55l-8.48,4.9A3,3,0,0,1,348.67,306.05Z" transform="translate(-13.96 -42.92)"/><path class="cls-8" d="M402.57,337.17l-8.56-5c-.69-.4-.6-1.09.19-1.55l8.49-4.9a3,3,0,0,1,2.68-.11l8.57,5c.69.39.6,1.09-.19,1.55l-8.49,4.9A3,3,0,0,1,402.57,337.17Z" transform="translate(-13.96 -42.92)"/><path class="cls-8" d="M415.8,344.81l-8.6-4.95c-.69-.4-.6-1.09.19-1.55l8.49-4.9a3,3,0,0,1,2.68-.11l8.57,4.94c.68.4.6,1.1-.2,1.55l-8.48,4.9A3,3,0,0,1,415.8,344.81Z" transform="translate(-13.96 -42.92)"/><path class="cls-8" d="M429,352.44l-8.56-4.94c-.69-.4-.61-1.09.19-1.55l8.49-4.9a3,3,0,0,1,2.68-.11l8.57,4.94c.68.4.6,1.09-.2,1.55l-8.48,4.9A3,3,0,0,1,429,352.44Z" transform="translate(-13.96 -42.92)"/><path class="cls-8" d="M442.26,360.08l-8.57-4.95c-.68-.39-.6-1.09.2-1.54l8.48-4.9a3,3,0,0,1,2.69-.12l8.56,4.95c.69.4.61,1.09-.19,1.55l-8.49,4.9A3,3,0,0,1,442.26,360.08Z" transform="translate(-13.96 -42.92)"/><path class="cls-8" d="M455.49,367.72l-8.57-5c-.68-.39-.6-1.09.2-1.55l8.48-4.9a3,3,0,0,1,2.69-.11l8.56,5c.69.39.6,1.09-.19,1.55l-8.49,4.9A3,3,0,0,1,455.49,367.72Z" transform="translate(-13.96 -42.92)"/><path class="cls-8" d="M468.72,375.36l-8.57-5c-.69-.4-.6-1.09.19-1.55l8.49-4.9a3,3,0,0,1,2.69-.11l8.56,5c.69.39.6,1.09-.19,1.54l-8.49,4.9A3,3,0,0,1,468.72,375.36Z" transform="translate(-13.96 -42.92)"/><path class="cls-8" d="M482,383,473.38,378c-.69-.4-.6-1.09.19-1.55l8.49-4.9a3,3,0,0,1,2.68-.11l8.57,4.94c.69.4.6,1.09-.19,1.55l-8.49,4.9A3,3,0,0,1,482,383Z" transform="translate(-13.96 -42.92)"/><path class="cls-8" d="M495.2,390.63l-8.57-4.94c-.69-.4-.6-1.1.19-1.55l8.49-4.9a3,3,0,0,1,2.68-.12l8.57,4.95c.69.4.6,1.09-.19,1.55l-8.49,4.9A3,3,0,0,1,495.2,390.63Z" transform="translate(-13.96 -42.92)"/><path class="cls-8" d="M508.4,398.27l-8.56-4.95c-.69-.39-.6-1.09.19-1.55l8.49-4.9a3,3,0,0,1,2.68-.11l8.57,4.95c.69.39.6,1.09-.19,1.55l-8.49,4.9A3,3,0,0,1,508.4,398.27Z" transform="translate(-13.96 -42.92)"/><path class="cls-8" d="M382.38,310.64l-8.57-4.95c-.68-.39-.6-1.09.2-1.55l8.48-4.9a3,3,0,0,1,2.69-.11l8.56,4.95c.69.4.6,1.09-.19,1.55l-8.49,4.9A3,3,0,0,1,382.38,310.64Z" transform="translate(-13.96 -42.92)"/><path class="cls-8" d="M369.2,303l-8.57-5c-.69-.39-.6-1.09.19-1.55l8.49-4.9a3,3,0,0,1,2.68-.11l8.57,5c.69.4.6,1.09-.19,1.55L371.9,303A3,3,0,0,1,369.2,303Z" transform="translate(-13.96 -42.92)"/><path class="cls-8" d="M356.05,295.44l-8.56-4.95c-.69-.39-.6-1.09.19-1.55l8.49-4.9a3,3,0,0,1,2.68-.11l8.57,4.95c.69.4.6,1.09-.2,1.55l-8.48,4.9A3,3,0,0,1,356.05,295.44Z" transform="translate(-13.96 -42.92)"/><path class="cls-8" d="M342.89,287.84l-8.57-4.95c-.68-.39-.6-1.09.2-1.54l8.48-4.91a3,3,0,0,1,2.69-.11l8.56,4.95c.69.4.61,1.09-.19,1.55l-8.49,4.9A3,3,0,0,1,342.89,287.84Z" transform="translate(-13.96 -42.92)"/><path class="cls-8" d="M356.43,280l-8.57-4.95c-.69-.4-.6-1.09.19-1.55l2.81-1.62a3,3,0,0,1,2.68-.11l8.57,4.94c.69.4.6,1.1-.19,1.55L359.11,280A3,3,0,0,1,356.43,280Z" transform="translate(-13.96 -42.92)"/><path class="cls-8" d="M373.6,290,365,285c-.69-.4-.6-1.09.19-1.55l2.81-1.62a3,3,0,0,1,2.68-.11l8.57,4.94c.68.4.6,1.09-.2,1.55l-2.8,1.62A3,3,0,0,1,373.6,290Z" transform="translate(-13.96 -42.92)"/><path class="cls-8" d="M386.71,297.51l-8.51-4.95c-.69-.39-.61-1.09.19-1.54l2.8-1.62a3,3,0,0,1,2.69-.12l8.56,5c.69.4.61,1.09-.19,1.55l-2.8,1.62A3,3,0,0,1,386.71,297.51Z" transform="translate(-13.96 -42.92)"/><path class="cls-8" d="M399.82,305.08l-8.57-4.95c-.68-.39-.6-1.09.2-1.55l2.8-1.62a3,3,0,0,1,2.69-.11l8.56,5c.69.4.6,1.09-.19,1.55L402.5,305A3,3,0,0,1,399.82,305.08Z" transform="translate(-13.96 -42.92)"/><path class="cls-8" d="M412.93,312.65l-8.57-4.95c-.69-.4-.6-1.09.19-1.55l2.81-1.62a3,3,0,0,1,2.68-.11l8.57,4.95c.69.39.6,1.09-.19,1.55l-2.81,1.62A3,3,0,0,1,412.93,312.65Z" transform="translate(-13.96 -42.92)"/><path class="cls-8" d="M486.11,355l-8.57-5c-.69-.4-.6-1.09.2-1.55l2.8-1.62a3,3,0,0,1,2.68-.11l8.57,4.95c.69.39.6,1.09-.19,1.55l-2.81,1.62A3,3,0,0,1,486.11,355Z" transform="translate(-13.96 -42.92)"/><path class="cls-8" d="M499.2,362.47l-8.57-5c-.69-.4-.6-1.09.19-1.55l2.81-1.62a3,3,0,0,1,2.68-.11l8.57,4.94c.69.4.6,1.1-.19,1.55l-2.81,1.62A3,3,0,0,1,499.2,362.47Z" transform="translate(-13.96 -42.92)"/><path class="cls-8" d="M512.32,370l-8.56-4.94c-.69-.4-.6-1.09.19-1.55l2.81-1.62a3,3,0,0,1,2.68-.11l8.57,4.94c.68.4.6,1.09-.2,1.55l-2.8,1.62A3,3,0,0,1,512.32,370Z" transform="translate(-13.96 -42.92)"/><path class="cls-8" d="M525.43,377.6l-8.56-4.94c-.69-.4-.6-1.1.19-1.55l2.81-1.62a3,3,0,0,1,2.68-.11l8.56,4.94c.69.4.61,1.09-.19,1.55l-2.8,1.62A3,3,0,0,1,525.43,377.6Z" transform="translate(-13.96 -42.92)"/><path class="cls-8" d="M395.61,318.28,387,313.33c-.69-.4-.6-1.09.19-1.55l8.49-4.9a3,3,0,0,1,2.69-.11l8.56,5c.69.39.6,1.09-.19,1.54l-8.49,4.91A3,3,0,0,1,395.61,318.28Z" transform="translate(-13.96 -42.92)"/><path class="cls-8" d="M408.84,326l-8.57-5c-.69-.4-.6-1.09.19-1.55l8.49-4.9a3,3,0,0,1,2.68-.11l8.57,5c.69.4.6,1.09-.19,1.55l-8.49,4.9A3,3,0,0,1,408.84,326Z" transform="translate(-13.96 -42.92)"/><path class="cls-8" d="M422.07,333.55l-8.57-4.94c-.69-.4-.6-1.09.19-1.55l8.49-4.9a3,3,0,0,1,2.68-.11l8.57,4.94c.69.4.6,1.09-.19,1.55l-8.49,4.9A3,3,0,0,1,422.07,333.55Z" transform="translate(-13.96 -42.92)"/><path class="cls-8" d="M435.29,341.19l-8.56-4.95c-.69-.39-.6-1.09.19-1.55l8.49-4.9a3,3,0,0,1,2.68-.11l8.57,4.95c.69.4.6,1.09-.19,1.55l-8.49,4.9A3,3,0,0,1,435.29,341.19Z" transform="translate(-13.96 -42.92)"/><path class="cls-8" d="M448.52,348.83,440,343.88c-.69-.4-.6-1.09.19-1.55l8.49-4.9a3,3,0,0,1,2.68-.11l8.57,4.95c.68.39.6,1.09-.2,1.55l-8.48,4.9A3,3,0,0,1,448.52,348.83Z" transform="translate(-13.96 -42.92)"/><path class="cls-8" d="M461.75,356.46l-8.55-4.94c-.69-.4-.61-1.09.19-1.55l8.49-4.9a3,3,0,0,1,2.68-.11l8.57,4.94c.68.4.6,1.09-.2,1.55l-8.48,4.9A3,3,0,0,1,461.75,356.46Z" transform="translate(-13.96 -42.92)"/><path class="cls-8" d="M475,364.1l-8.57-4.94c-.68-.4-.6-1.09.2-1.55l8.49-4.9a3,3,0,0,1,2.68-.11l8.56,4.94c.69.4.61,1.09-.19,1.55l-8.49,4.9A3,3,0,0,1,475,364.1Z" transform="translate(-13.96 -42.92)"/><path class="cls-8" d="M488.2,371.74l-8.57-5c-.68-.39-.6-1.09.2-1.55l8.48-4.9a3,3,0,0,1,2.69-.11l8.56,5c.69.4.6,1.09-.19,1.55l-8.49,4.9A3,3,0,0,1,488.2,371.74Z" transform="translate(-13.96 -42.92)"/><path class="cls-8" d="M501.44,379.38l-8.57-4.95c-.69-.4-.6-1.09.19-1.55l8.49-4.9a3,3,0,0,1,2.69-.11l8.56,4.95c.69.39.6,1.09-.19,1.55l-8.49,4.9A3,3,0,0,1,501.44,379.38Z" transform="translate(-13.96 -42.92)"/><path class="cls-8" d="M320,319.22l-25.23-14.57c-.69-.39-.6-1.09.19-1.55l8.49-4.9a3,3,0,0,1,2.68-.11l25.23,14.57c.69.4.6,1.09-.19,1.55l-8.49,4.9A3,3,0,0,1,320,319.22Z" transform="translate(-13.96 -42.92)"/><path class="cls-8" d="M482.5,413.05l-25.23-14.57c-.69-.39-.6-1.09.19-1.55L466,392a3,3,0,0,1,2.68-.11l25.23,14.57c.69.4.6,1.09-.19,1.55L485.2,413A3,3,0,0,1,482.5,413.05Z" transform="translate(-13.96 -42.92)"/><path class="cls-8" d="M429.59,399.38,421,394.43c-.69-.4-.61-1.09.19-1.55L431.33,387a3,3,0,0,1,2.68-.11l8.57,4.95c.69.4.6,1.09-.19,1.55l-10.11,5.84A3,3,0,0,1,429.59,399.38Z" transform="translate(-13.96 -42.92)"/><path class="cls-8" d="M333.52,344,319.83,336c-.69-.39-.61-1.09.19-1.55l10.11-5.83a3,3,0,0,1,2.68-.12l13.7,7.91c.69.4.6,1.09-.19,1.55l-10.12,5.8A3,3,0,0,1,333.52,344Z" transform="translate(-13.96 -42.92)"/><path class="cls-8" d="M416.85,392l-13.65-7.91c-.69-.4-.61-1.09.19-1.55l10.11-5.84a3,3,0,0,1,2.68-.11l13.7,7.91c.69.4.6,1.09-.19,1.55L419.53,392A3,3,0,0,1,416.85,392Z" transform="translate(-13.96 -42.92)"/><path class="cls-8" d="M352.61,355,338.91,347c-.69-.4-.6-1.09.19-1.55l10.1-5.86a3,3,0,0,1,2.68-.11l13.7,7.91c.69.4.6,1.09-.19,1.55l-10.12,5.84A3,3,0,0,1,352.61,355Z" transform="translate(-13.96 -42.92)"/><path class="cls-8" d="M352,339.58,411.55,374c.74.42.74,1.11,0,1.54l-10.35,6a2.92,2.92,0,0,1-2.67,0L339,347.08Z" transform="translate(-13.96 -42.92)"/><path class="cls-8" d="M466.56,413.22l9.55,5.51c.56.33.49.9-.16,1.27l-4.14,2.39a2.44,2.44,0,0,1-2.2.09L460.07,417c-.56-.32-.49-.89.16-1.27l4.13-2.38A2.41,2.41,0,0,1,466.56,413.22Z" transform="translate(-13.96 -42.92)"/><path class="cls-8" d="M453.2,405.52l9.54,5.51c.56.33.49.9-.16,1.27l-4.14,2.39a2.44,2.44,0,0,1-2.2.09l-9.54-5.51c-.56-.32-.49-.89.16-1.27l4.14-2.39A2.44,2.44,0,0,1,453.2,405.52Z" transform="translate(-13.96 -42.92)"/><path class="cls-8" d="M440,397.89l9.54,5.5c.56.33.49.9-.16,1.27l-4.13,2.39a2.44,2.44,0,0,1-2.2.09l-9.55-5.51c-.56-.32-.49-.89.16-1.27L437.8,398A2.41,2.41,0,0,1,440,397.89Z" transform="translate(-13.96 -42.92)"/><path class="cls-8" d="M460.53,401.31l9.54,5.5c.57.33.5.9-.15,1.27l-4.14,2.39a2.44,2.44,0,0,1-2.2.09L454,405.05c-.57-.32-.5-.89.16-1.27l4.13-2.38A2.41,2.41,0,0,1,460.53,401.31Z" transform="translate(-13.96 -42.92)"/></g><g class="cls-9"><path class="cls-8" d="M288.71,318l-8.57-4.94c-.69-.4-.6-1.09.19-1.55l10.11-5.84a3,3,0,0,1,2.69-.11l8.56,5c.69.39.6,1.09-.19,1.55L291.39,318A3,3,0,0,1,288.71,318Z" transform="translate(-13.96 -42.92)"/><path class="cls-8" d="M301.93,325.67l-8.56-4.94c-.69-.4-.6-1.09.19-1.55l10.11-5.84a3,3,0,0,1,2.68-.11l8.57,4.94c.69.4.6,1.1-.19,1.55l-10.11,5.84A3,3,0,0,1,301.93,325.67Z" transform="translate(-13.96 -42.92)"/><path class="cls-8" d="M315.2,333.31l-8.56-4.95c-.69-.39-.61-1.09.19-1.54L316.9,321a3,3,0,0,1,2.68-.11l8.57,4.94c.69.4.6,1.09-.19,1.55l-10.11,5.84A3,3,0,0,1,315.2,333.31Z" transform="translate(-13.96 -42.92)"/><path class="cls-8" d="M333.46,327l-8.57-4.94c-.69-.4-.6-1.09.2-1.55l8.48-4.9a3,3,0,0,1,2.69-.11l8.56,4.94c.69.4.6,1.09-.19,1.55l-8.49,4.9A3,3,0,0,1,333.46,327Z" transform="translate(-13.96 -42.92)"/><path class="cls-8" d="M346.69,334.64l-8.57-4.95c-.69-.39-.6-1.09.19-1.54l8.49-4.9a3,3,0,0,1,2.68-.12l8.57,4.95c.69.4.6,1.09-.19,1.55l-8.49,4.9A3,3,0,0,1,346.69,334.64Z" transform="translate(-13.96 -42.92)"/><path class="cls-8" d="M359.92,342.28l-8.57-4.95c-.69-.39-.6-1.09.19-1.55l8.49-4.9a3,3,0,0,1,2.68-.11l8.57,5c.69.39.6,1.09-.19,1.55l-8.49,4.9A3,3,0,0,1,359.92,342.28Z" transform="translate(-13.96 -42.92)"/><path class="cls-8" d="M373.14,350l-8.56-5c-.69-.4-.6-1.09.19-1.55l8.49-4.9a3,3,0,0,1,2.68-.11l8.57,4.94c.69.4.6,1.1-.19,1.55l-8.49,4.9A3,3,0,0,1,373.14,350Z" transform="translate(-13.96 -42.92)"/><path class="cls-8" d="M386.37,357.55l-8.56-4.94c-.69-.4-.6-1.09.19-1.55l8.49-4.9a3,3,0,0,1,2.68-.11l8.57,4.94c.68.4.6,1.09-.2,1.55l-8.48,4.9A3,3,0,0,1,386.37,357.55Z" transform="translate(-13.96 -42.92)"/><path class="cls-8" d="M399.6,365.19,391,360.25c-.69-.4-.61-1.1.19-1.55l8.49-4.9a3,3,0,0,1,2.68-.12l8.57,4.95c.68.4.6,1.09-.2,1.55l-8.48,4.9A3,3,0,0,1,399.6,365.19Z" transform="translate(-13.96 -42.92)"/><path class="cls-8" d="M412.83,372.83l-8.57-4.95c-.68-.39-.6-1.09.2-1.55l8.49-4.9a3,3,0,0,1,2.68-.11l8.56,4.95c.69.39.61,1.09-.19,1.55l-8.49,4.9A3,3,0,0,1,412.83,372.83Z" transform="translate(-13.96 -42.92)"/><path class="cls-8" d="M426.06,380.47l-8.57-5c-.68-.4-.6-1.09.2-1.55l8.48-4.9a3,3,0,0,1,2.69-.11l8.56,5c.69.39.6,1.09-.19,1.54l-8.49,4.9A3,3,0,0,1,426.06,380.47Z" transform="translate(-13.96 -42.92)"/><path class="cls-8" d="M439.29,388.1l-8.57-4.94c-.69-.4-.6-1.09.2-1.55l8.48-4.9a3,3,0,0,1,2.69-.11l8.56,4.94c.69.4.6,1.09-.19,1.55L442,388A3,3,0,0,1,439.29,388.1Z" transform="translate(-13.96 -42.92)"/><path class="cls-8" d="M452.52,395.74,444,390.8c-.69-.4-.6-1.1.19-1.55l8.49-4.9a3,3,0,0,1,2.68-.12l8.57,5c.69.4.6,1.09-.19,1.55l-8.49,4.9A3,3,0,0,1,452.52,395.74Z" transform="translate(-13.96 -42.92)"/><path class="cls-8" d="M353,323.39l-8.57-4.95c-.68-.4-.6-1.09.2-1.55l8.48-4.9a3,3,0,0,1,2.69-.11l8.56,4.95c.69.39.61,1.09-.19,1.55l-8.49,4.9A3,3,0,0,1,353,323.39Z" transform="translate(-13.96 -42.92)"/><path class="cls-8" d="M339.52,315.64,331,310.69c-.69-.4-.6-1.09.19-1.55l8.49-4.9a3,3,0,0,1,2.68-.11l8.57,4.94c.69.4.6,1.1-.19,1.55l-8.49,4.9A3,3,0,0,1,339.52,315.64Z" transform="translate(-13.96 -42.92)"/><path class="cls-8" d="M326.08,307.87l-18.45-10.65c-.69-.4-.6-1.09.19-1.55l8.49-4.9a3,3,0,0,1,2.68-.11l18.45,10.65c.69.4.6,1.09-.19,1.55l-8.49,4.9A3,3,0,0,1,326.08,307.87Z" transform="translate(-13.96 -42.92)"/><path class="cls-8" d="M335.48,298.43l-15-8.65c-.68-.39-.6-1.09.2-1.54l8.48-4.91a3,3,0,0,1,2.69-.11l15,8.65c.69.39.6,1.09-.19,1.55l-8.49,4.9A3,3,0,0,1,335.48,298.43Z" transform="translate(-13.96 -42.92)"/><path class="cls-8" d="M366.2,331l-8.57-4.94c-.68-.4-.6-1.09.2-1.55l8.48-4.9a3,3,0,0,1,2.69-.11l8.56,4.94c.69.4.6,1.09-.19,1.55l-8.49,4.9A3,3,0,0,1,366.2,331Z" transform="translate(-13.96 -42.92)"/><path class="cls-8" d="M379.41,338.66l-8.57-4.94c-.69-.4-.6-1.09.19-1.55l8.49-4.9a3,3,0,0,1,2.69-.11l8.56,4.94c.69.4.6,1.09-.19,1.55l-8.49,4.9A3,3,0,0,1,379.41,338.66Z" transform="translate(-13.96 -42.92)"/><path class="cls-8" d="M392.64,346.3l-8.57-5c-.69-.39-.6-1.09.19-1.55l8.49-4.9a3,3,0,0,1,2.68-.11l8.57,5c.69.4.6,1.09-.19,1.55l-8.49,4.9A3,3,0,0,1,392.64,346.3Z" transform="translate(-13.96 -42.92)"/><path class="cls-8" d="M405.87,354l-8.57-5c-.69-.4-.6-1.09.19-1.55l8.49-4.9a3,3,0,0,1,2.68-.11l8.57,4.95c.69.39.6,1.09-.19,1.55l-8.49,4.9A3,3,0,0,1,405.87,354Z" transform="translate(-13.96 -42.92)"/><path class="cls-8" d="M419.09,361.57l-8.56-4.94c-.69-.4-.6-1.09.19-1.55l8.49-4.9a3,3,0,0,1,2.68-.11l8.57,4.94c.69.4.6,1.09-.19,1.55l-8.49,4.9A3,3,0,0,1,419.09,361.57Z" transform="translate(-13.96 -42.92)"/><path class="cls-8" d="M432.32,369.21l-8.56-4.94c-.69-.4-.6-1.09.19-1.55l8.49-4.9a3,3,0,0,1,2.68-.11l8.57,4.94c.68.4.6,1.09-.2,1.55L435,369.1A3,3,0,0,1,432.32,369.21Z" transform="translate(-13.96 -42.92)"/><path class="cls-8" d="M445.55,376.85,437,372c-.69-.39-.61-1.09.19-1.54l8.49-4.91a3,3,0,0,1,2.68-.11l8.57,4.95c.68.4.6,1.09-.2,1.55l-8.49,4.9A3,3,0,0,1,445.55,376.85Z" transform="translate(-13.96 -42.92)"/><path class="cls-8" d="M458.78,384.49l-8.57-5c-.68-.39-.6-1.09.2-1.55l8.48-4.9a3,3,0,0,1,2.69-.11l8.56,5c.69.39.61,1.09-.19,1.55l-8.49,4.9A3,3,0,0,1,458.78,384.49Z" transform="translate(-13.96 -42.92)"/><path class="cls-8" d="M472,392.13l-8.57-4.95c-.68-.4-.6-1.09.2-1.55l8.48-4.9a3,3,0,0,1,2.69-.11l8.56,4.94c.69.4.6,1.1-.19,1.55l-8.49,4.9A3,3,0,0,1,472,392.13Z" transform="translate(-13.96 -42.92)"/><path class="cls-8" d="M495.53,405.7,476.84,395c-.69-.39-.61-1.09.19-1.55l8.49-4.9a3,3,0,0,1,2.68-.11l18.69,10.79c.69.4.6,1.09-.19,1.55l-8.49,4.9A3,3,0,0,1,495.53,405.7Z" transform="translate(-13.96 -42.92)"/><path class="cls-8" d="M521.28,390.83l-15.77-9.1c-.69-.4-.61-1.09.19-1.55l8.49-4.9a3,3,0,0,1,2.68-.12l15.78,9.11c.68.4.6,1.09-.2,1.55l-8.49,4.9A3,3,0,0,1,521.28,390.83Z" transform="translate(-13.96 -42.92)"/><path class="cls-8" d="M389.35,329.53l-8.57-4.95c-.69-.39-.6-1.09.19-1.54l8.49-4.91a3,3,0,0,1,2.68-.11l8.57,5c.69.4.6,1.09-.19,1.55l-8.49,4.9A3,3,0,0,1,389.35,329.53Z" transform="translate(-13.96 -42.92)"/><path class="cls-8" d="M375.79,321.7l-8.59-4.94c-.69-.4-.6-1.09.19-1.55l8.49-4.9a3,3,0,0,1,2.69-.11l8.56,4.94c.69.4.6,1.09-.19,1.55l-8.49,4.9A3,3,0,0,1,375.79,321.7Z" transform="translate(-13.96 -42.92)"/><path class="cls-8" d="M362.2,313.87,353.66,309c-.68-.4-.6-1.09.2-1.55l8.48-4.9a3,3,0,0,1,2.69-.11l8.56,4.94c.69.4.61,1.09-.19,1.55l-8.49,4.9A3,3,0,0,1,362.2,313.87Z" transform="translate(-13.96 -42.92)"/><path class="cls-8" d="M348.67,306.05l-8.56-5c-.69-.4-.61-1.09.19-1.55l8.49-4.9a3,3,0,0,1,2.68-.11l8.57,5c.68.39.6,1.09-.2,1.55l-8.48,4.9A3,3,0,0,1,348.67,306.05Z" transform="translate(-13.96 -42.92)"/><path class="cls-8" d="M402.57,337.17l-8.56-5c-.69-.4-.6-1.09.19-1.55l8.49-4.9a3,3,0,0,1,2.68-.11l8.57,5c.69.39.6,1.09-.19,1.55l-8.49,4.9A3,3,0,0,1,402.57,337.17Z" transform="translate(-13.96 -42.92)"/><path class="cls-8" d="M415.8,344.81l-8.6-4.95c-.69-.4-.6-1.09.19-1.55l8.49-4.9a3,3,0,0,1,2.68-.11l8.57,4.94c.68.4.6,1.1-.2,1.55l-8.48,4.9A3,3,0,0,1,415.8,344.81Z" transform="translate(-13.96 -42.92)"/><path class="cls-8" d="M429,352.44l-8.56-4.94c-.69-.4-.61-1.09.19-1.55l8.49-4.9a3,3,0,0,1,2.68-.11l8.57,4.94c.68.4.6,1.09-.2,1.55l-8.48,4.9A3,3,0,0,1,429,352.44Z" transform="translate(-13.96 -42.92)"/><path class="cls-8" d="M442.26,360.08l-8.57-4.95c-.68-.39-.6-1.09.2-1.54l8.48-4.9a3,3,0,0,1,2.69-.12l8.56,4.95c.69.4.61,1.09-.19,1.55l-8.49,4.9A3,3,0,0,1,442.26,360.08Z" transform="translate(-13.96 -42.92)"/><path class="cls-8" d="M455.49,367.72l-8.57-5c-.68-.39-.6-1.09.2-1.55l8.48-4.9a3,3,0,0,1,2.69-.11l8.56,5c.69.39.6,1.09-.19,1.55l-8.49,4.9A3,3,0,0,1,455.49,367.72Z" transform="translate(-13.96 -42.92)"/><path class="cls-8" d="M468.72,375.36l-8.57-5c-.69-.4-.6-1.09.19-1.55l8.49-4.9a3,3,0,0,1,2.69-.11l8.56,5c.69.39.6,1.09-.19,1.54l-8.49,4.9A3,3,0,0,1,468.72,375.36Z" transform="translate(-13.96 -42.92)"/><path class="cls-8" d="M482,383,473.38,378c-.69-.4-.6-1.09.19-1.55l8.49-4.9a3,3,0,0,1,2.68-.11l8.57,4.94c.69.4.6,1.09-.19,1.55l-8.49,4.9A3,3,0,0,1,482,383Z" transform="translate(-13.96 -42.92)"/><path class="cls-8" d="M495.2,390.63l-8.57-4.94c-.69-.4-.6-1.1.19-1.55l8.49-4.9a3,3,0,0,1,2.68-.12l8.57,4.95c.69.4.6,1.09-.19,1.55l-8.49,4.9A3,3,0,0,1,495.2,390.63Z" transform="translate(-13.96 -42.92)"/><path class="cls-8" d="M508.4,398.27l-8.56-4.95c-.69-.39-.6-1.09.19-1.55l8.49-4.9a3,3,0,0,1,2.68-.11l8.57,4.95c.69.39.6,1.09-.19,1.55l-8.49,4.9A3,3,0,0,1,508.4,398.27Z" transform="translate(-13.96 -42.92)"/><path class="cls-8" d="M382.38,310.64l-8.57-4.95c-.68-.39-.6-1.09.2-1.55l8.48-4.9a3,3,0,0,1,2.69-.11l8.56,4.95c.69.4.6,1.09-.19,1.55l-8.49,4.9A3,3,0,0,1,382.38,310.64Z" transform="translate(-13.96 -42.92)"/><path class="cls-8" d="M369.2,303l-8.57-5c-.69-.39-.6-1.09.19-1.55l8.49-4.9a3,3,0,0,1,2.68-.11l8.57,5c.69.4.6,1.09-.19,1.55L371.9,303A3,3,0,0,1,369.2,303Z" transform="translate(-13.96 -42.92)"/><path class="cls-8" d="M356.05,295.44l-8.56-4.95c-.69-.39-.6-1.09.19-1.55l8.49-4.9a3,3,0,0,1,2.68-.11l8.57,4.95c.69.4.6,1.09-.2,1.55l-8.48,4.9A3,3,0,0,1,356.05,295.44Z" transform="translate(-13.96 -42.92)"/><path class="cls-8" d="M342.89,287.84l-8.57-4.95c-.68-.39-.6-1.09.2-1.54l8.48-4.91a3,3,0,0,1,2.69-.11l8.56,4.95c.69.4.61,1.09-.19,1.55l-8.49,4.9A3,3,0,0,1,342.89,287.84Z" transform="translate(-13.96 -42.92)"/><path class="cls-8" d="M356.43,280l-8.57-4.95c-.69-.4-.6-1.09.19-1.55l2.81-1.62a3,3,0,0,1,2.68-.11l8.57,4.94c.69.4.6,1.1-.19,1.55L359.11,280A3,3,0,0,1,356.43,280Z" transform="translate(-13.96 -42.92)"/><path class="cls-8" d="M373.6,290,365,285c-.69-.4-.6-1.09.19-1.55l2.81-1.62a3,3,0,0,1,2.68-.11l8.57,4.94c.68.4.6,1.09-.2,1.55l-2.8,1.62A3,3,0,0,1,373.6,290Z" transform="translate(-13.96 -42.92)"/><path class="cls-8" d="M386.71,297.51l-8.51-4.95c-.69-.39-.61-1.09.19-1.54l2.8-1.62a3,3,0,0,1,2.69-.12l8.56,5c.69.4.61,1.09-.19,1.55l-2.8,1.62A3,3,0,0,1,386.71,297.51Z" transform="translate(-13.96 -42.92)"/><path class="cls-8" d="M399.82,305.08l-8.57-4.95c-.68-.39-.6-1.09.2-1.55l2.8-1.62a3,3,0,0,1,2.69-.11l8.56,5c.69.4.6,1.09-.19,1.55L402.5,305A3,3,0,0,1,399.82,305.08Z" transform="translate(-13.96 -42.92)"/><path class="cls-8" d="M412.93,312.65l-8.57-4.95c-.69-.4-.6-1.09.19-1.55l2.81-1.62a3,3,0,0,1,2.68-.11l8.57,4.95c.69.39.6,1.09-.19,1.55l-2.81,1.62A3,3,0,0,1,412.93,312.65Z" transform="translate(-13.96 -42.92)"/><path class="cls-8" d="M486.11,355l-8.57-5c-.69-.4-.6-1.09.2-1.55l2.8-1.62a3,3,0,0,1,2.68-.11l8.57,4.95c.69.39.6,1.09-.19,1.55l-2.81,1.62A3,3,0,0,1,486.11,355Z" transform="translate(-13.96 -42.92)"/><path class="cls-8" d="M499.2,362.47l-8.57-5c-.69-.4-.6-1.09.19-1.55l2.81-1.62a3,3,0,0,1,2.68-.11l8.57,4.94c.69.4.6,1.1-.19,1.55l-2.81,1.62A3,3,0,0,1,499.2,362.47Z" transform="translate(-13.96 -42.92)"/><path class="cls-8" d="M512.32,370l-8.56-4.94c-.69-.4-.6-1.09.19-1.55l2.81-1.62a3,3,0,0,1,2.68-.11l8.57,4.94c.68.4.6,1.09-.2,1.55l-2.8,1.62A3,3,0,0,1,512.32,370Z" transform="translate(-13.96 -42.92)"/><path class="cls-8" d="M525.43,377.6l-8.56-4.94c-.69-.4-.6-1.1.19-1.55l2.81-1.62a3,3,0,0,1,2.68-.11l8.56,4.94c.69.4.61,1.09-.19,1.55l-2.8,1.62A3,3,0,0,1,525.43,377.6Z" transform="translate(-13.96 -42.92)"/><path class="cls-8" d="M395.61,318.28,387,313.33c-.69-.4-.6-1.09.19-1.55l8.49-4.9a3,3,0,0,1,2.69-.11l8.56,5c.69.39.6,1.09-.19,1.54l-8.49,4.91A3,3,0,0,1,395.61,318.28Z" transform="translate(-13.96 -42.92)"/><path class="cls-8" d="M408.84,326l-8.57-5c-.69-.4-.6-1.09.19-1.55l8.49-4.9a3,3,0,0,1,2.68-.11l8.57,5c.69.4.6,1.09-.19,1.55l-8.49,4.9A3,3,0,0,1,408.84,326Z" transform="translate(-13.96 -42.92)"/><path class="cls-8" d="M422.07,333.55l-8.57-4.94c-.69-.4-.6-1.09.19-1.55l8.49-4.9a3,3,0,0,1,2.68-.11l8.57,4.94c.69.4.6,1.09-.19,1.55l-8.49,4.9A3,3,0,0,1,422.07,333.55Z" transform="translate(-13.96 -42.92)"/><path class="cls-8" d="M435.29,341.19l-8.56-4.95c-.69-.39-.6-1.09.19-1.55l8.49-4.9a3,3,0,0,1,2.68-.11l8.57,4.95c.69.4.6,1.09-.19,1.55l-8.49,4.9A3,3,0,0,1,435.29,341.19Z" transform="translate(-13.96 -42.92)"/><path class="cls-8" d="M448.52,348.83,440,343.88c-.69-.4-.6-1.09.19-1.55l8.49-4.9a3,3,0,0,1,2.68-.11l8.57,4.95c.68.39.6,1.09-.2,1.55l-8.48,4.9A3,3,0,0,1,448.52,348.83Z" transform="translate(-13.96 -42.92)"/><path class="cls-8" d="M461.75,356.46l-8.55-4.94c-.69-.4-.61-1.09.19-1.55l8.49-4.9a3,3,0,0,1,2.68-.11l8.57,4.94c.68.4.6,1.09-.2,1.55l-8.48,4.9A3,3,0,0,1,461.75,356.46Z" transform="translate(-13.96 -42.92)"/><path class="cls-8" d="M475,364.1l-8.57-4.94c-.68-.4-.6-1.09.2-1.55l8.49-4.9a3,3,0,0,1,2.68-.11l8.56,4.94c.69.4.61,1.09-.19,1.55l-8.49,4.9A3,3,0,0,1,475,364.1Z" transform="translate(-13.96 -42.92)"/><path class="cls-8" d="M488.2,371.74l-8.57-5c-.68-.39-.6-1.09.2-1.55l8.48-4.9a3,3,0,0,1,2.69-.11l8.56,5c.69.4.6,1.09-.19,1.55l-8.49,4.9A3,3,0,0,1,488.2,371.74Z" transform="translate(-13.96 -42.92)"/><path class="cls-8" d="M501.44,379.38l-8.57-4.95c-.69-.4-.6-1.09.19-1.55l8.49-4.9a3,3,0,0,1,2.69-.11l8.56,4.95c.69.39.6,1.09-.19,1.55l-8.49,4.9A3,3,0,0,1,501.44,379.38Z" transform="translate(-13.96 -42.92)"/><path class="cls-8" d="M320,319.22l-25.23-14.57c-.69-.39-.6-1.09.19-1.55l8.49-4.9a3,3,0,0,1,2.68-.11l25.23,14.57c.69.4.6,1.09-.19,1.55l-8.49,4.9A3,3,0,0,1,320,319.22Z" transform="translate(-13.96 -42.92)"/><path class="cls-8" d="M482.5,413.05l-25.23-14.57c-.69-.39-.6-1.09.19-1.55L466,392a3,3,0,0,1,2.68-.11l25.23,14.57c.69.4.6,1.09-.19,1.55L485.2,413A3,3,0,0,1,482.5,413.05Z" transform="translate(-13.96 -42.92)"/><path class="cls-8" d="M429.59,399.38,421,394.43c-.69-.4-.61-1.09.19-1.55L431.33,387a3,3,0,0,1,2.68-.11l8.57,4.95c.69.4.6,1.09-.19,1.55l-10.11,5.84A3,3,0,0,1,429.59,399.38Z" transform="translate(-13.96 -42.92)"/><path class="cls-8" d="M333.52,344,319.83,336c-.69-.39-.61-1.09.19-1.55l10.11-5.83a3,3,0,0,1,2.68-.12l13.7,7.91c.69.4.6,1.09-.19,1.55l-10.12,5.8A3,3,0,0,1,333.52,344Z" transform="translate(-13.96 -42.92)"/><path class="cls-8" d="M416.85,392l-13.65-7.91c-.69-.4-.61-1.09.19-1.55l10.11-5.84a3,3,0,0,1,2.68-.11l13.7,7.91c.69.4.6,1.09-.19,1.55L419.53,392A3,3,0,0,1,416.85,392Z" transform="translate(-13.96 -42.92)"/><path class="cls-8" d="M352.61,355,338.91,347c-.69-.4-.6-1.09.19-1.55l10.1-5.86a3,3,0,0,1,2.68-.11l13.7,7.91c.69.4.6,1.09-.19,1.55l-10.12,5.84A3,3,0,0,1,352.61,355Z" transform="translate(-13.96 -42.92)"/><path class="cls-8" d="M352,339.58,411.55,374c.74.42.74,1.11,0,1.54l-10.35,6a2.92,2.92,0,0,1-2.67,0L339,347.08Z" transform="translate(-13.96 -42.92)"/><path class="cls-8" d="M466.56,413.22l9.55,5.51c.56.33.49.9-.16,1.27l-4.14,2.39a2.44,2.44,0,0,1-2.2.09L460.07,417c-.56-.32-.49-.89.16-1.27l4.13-2.38A2.41,2.41,0,0,1,466.56,413.22Z" transform="translate(-13.96 -42.92)"/><path class="cls-8" d="M453.2,405.52l9.54,5.51c.56.33.49.9-.16,1.27l-4.14,2.39a2.44,2.44,0,0,1-2.2.09l-9.54-5.51c-.56-.32-.49-.89.16-1.27l4.14-2.39A2.44,2.44,0,0,1,453.2,405.52Z" transform="translate(-13.96 -42.92)"/><path class="cls-8" d="M440,397.89l9.54,5.5c.56.33.49.9-.16,1.27l-4.13,2.39a2.44,2.44,0,0,1-2.2.09l-9.55-5.51c-.56-.32-.49-.89.16-1.27L437.8,398A2.41,2.41,0,0,1,440,397.89Z" transform="translate(-13.96 -42.92)"/><path class="cls-8" d="M460.53,401.31l9.54,5.5c.57.33.5.9-.15,1.27l-4.14,2.39a2.44,2.44,0,0,1-2.2.09L454,405.05c-.57-.32-.5-.89.16-1.27l4.13-2.38A2.41,2.41,0,0,1,460.53,401.31Z" transform="translate(-13.96 -42.92)"/></g><path class="cls-10" d="M353.27,427.58a12.52,12.52,0,0,1-6.15-1.44h0l-66.48-38.38a4.79,4.79,0,0,1-2.73-4.1c0-1.88,1.33-3.74,3.66-5.08l34.22-19.76c4.19-2.41,10.32-2.65,14-.54l66.49,38.38a4.83,4.83,0,0,1,2.73,4.1c0,1.89-1.34,3.74-3.67,5.08L361.1,425.6A16,16,0,0,1,353.27,427.58Zm-29.62-68.8a14.19,14.19,0,0,0-6.9,1.7l-34.22,19.76c-1.72,1-2.71,2.24-2.71,3.42a3,3,0,0,0,1.78,2.43l66.48,38.39c3,1.74,8.54,1.49,12.06-.54l34.22-19.76c1.72-1,2.71-2.24,2.71-3.42a3,3,0,0,0-1.77-2.43L328.81,360a10.43,10.43,0,0,0-5.16-1.17Z" transform="translate(-13.96 -42.92)"/><path class="cls-3" d="M190.59,300a17.82,17.82,0,0,1-8.85-2.36h0l-32.43-18.73a4.47,4.47,0,0,1,0-7.77l32.42-18.72a17.75,17.75,0,0,1,17.72,0l32.43,18.72a4.49,4.49,0,0,1,1.64,6.13,4.55,4.55,0,0,1-1.64,1.65l-32.42,18.68A17.86,17.86,0,0,1,190.59,300Zm-7.8-4.19a15.65,15.65,0,0,0,15.61,0L230.83,277a2.39,2.39,0,0,0,.86-3.26,2.36,2.36,0,0,0-.86-.86L198.4,254.15a15.65,15.65,0,0,0-15.61,0l-32.43,18.73a2.37,2.37,0,0,0-.87,3.25,2.34,2.34,0,0,0,.87.87Z" transform="translate(-13.96 -42.92)"/><path class="cls-11" d="M427.82,84.07a5.12,5.12,0,0,1,2.64.67L608.57,187" transform="translate(-13.96 -42.92)"/><ellipse class="cls-12" cx="175.45" cy="231.08" rx="20.37" ry="11.76"/><path class="cls-13" d="M219.6,190.2h-58L167,253h0c0,3.49,2.31,7,6.92,9.64,9.22,5.33,24.17,5.33,33.39,0,4.61-2.66,6.91-6.15,6.91-9.64Z" transform="translate(-13.96 -42.92)"/><path class="cls-10" d="M219.6,190.2h-58l.89,10.34a22.09,22.09,0,0,0,5.37,4.83c11.09,7.36,29.38,8.77,41.86,3.48l-1.93,45.94a9.17,9.17,0,0,1-2.07,5.48c-1.88,2.21-5.5,4.81-12.46,6.28a32.87,32.87,0,0,0,14-3.9c4.61-2.66,6.91-6.15,6.91-9.64l4.33-50.37h0Z" transform="translate(-13.96 -42.92)"/><ellipse class="cls-10" cx="176.64" cy="147.27" rx="29.01" ry="16.75"/><ellipse class="cls-10" cx="176.64" cy="141.37" rx="24.98" ry="14.42"/><path class="cls-14" d="M221.32,189.42h0v-.14l-.56-5.62v.06c-.25-4.25-3.19-8.47-8.81-11.72-11.78-6.8-30.87-6.8-42.65,0-5.77,3.33-8.71,7.68-8.82,12h0l-.53,5v.47h0c-.32,4.77,2.67,9.6,9,13.24,12,6.93,31.48,6.93,43.49,0C218.69,199.09,221.68,194.22,221.32,189.42Z" transform="translate(-13.96 -42.92)"/><ellipse class="cls-15" cx="176.64" cy="141.37" rx="24.98" ry="14.42"/><ellipse class="cls-16" cx="175.45" cy="141.37" rx="24.98" ry="14.42"/><path class="cls-10" d="M175.89,176.25c9.76-5.63,25.58-5.63,35.33,0,.13.07.23.15.35.22a21.27,21.27,0,0,0-3.31-2.37c-9.76-5.63-25.58-5.63-35.33,0s-9.74,14.53-.35,20.18C166.31,188.69,167.41,181.15,175.89,176.25Z" transform="translate(-13.96 -42.92)"/><path class="cls-17" d="M172.93,176.61c9.75-5.64,25.57-5.64,35.33,0,4.33,2.49,6.73,5.68,7.22,8.94.61-4.09-1.79-8.31-7.22-11.45-9.76-5.63-25.58-5.63-35.33,0-5.43,3.14-7.84,7.36-7.22,11.45C166.2,182.29,168.6,179.1,172.93,176.61Z" transform="translate(-13.96 -42.92)"/><path class="cls-18" d="M212.1,172.13c-11.76-6.92-30.92-7.09-42.8-.37s-12,17.78-.22,24.71,30.93,7.1,42.81.38S223.86,179.06,212.1,172.13Zm-3.84,22.37a32.93,32.93,0,0,1-11.36,3.75l-.45-1.49a1.42,1.42,0,0,0-1.37-1h-9a1.41,1.41,0,0,0-1.37,1l-.45,1.49a32.79,32.79,0,0,1-11.36-3.75c-9.76-5.63-9.76-14.76,0-20.4s25.57-5.63,35.33,0,9.79,14.77,0,20.4Z" transform="translate(-13.96 -42.92)"/><path class="cls-6" d="M208.26,173c-9.76-5.63-25.58-5.63-35.33,0-5.12,3-7.54,6.87-7.3,10.74.23-3.51,2.65-7,7.3-9.67,9.75-5.63,25.57-5.63,35.33,0,4.64,2.68,7.07,6.16,7.29,9.67C215.8,180,213.37,176,208.26,173Z" transform="translate(-13.96 -42.92)"/><path class="cls-6" d="M211.89,195.78c-11.88,6.72-31,6.55-42.81-.38-5.59-3.3-8.5-7.53-8.73-11.79-.23,4.61,2.67,9.29,8.73,12.86,11.76,6.93,30.93,7.1,42.81.38,6.22-3.53,9.21-8.24,9-12.93C220.62,188.25,217.64,192.52,211.89,195.78Z" transform="translate(-13.96 -42.92)"/><rect class="cls-19" x="173.28" y="154.64" width="6.72" height="1.45" rx="0.65"/><path class="cls-20" d="M193.27,197.57h-5.36a.67.67,0,0,0-.68.68v.09a.28.28,0,0,0,0,.18.66.66,0,0,1,.64-.49h5.36a.68.68,0,0,1,.65.49v-.27A.68.68,0,0,0,193.27,197.57Z" transform="translate(-13.96 -42.92)"/><path class="cls-21" d="M191.41,246.56a4.65,4.65,0,0,1-9-2.38c.65-2.47,3-3.17,5.46-2.52S192.07,244.09,191.41,246.56Z" transform="translate(-13.96 -42.92)"/><path class="cls-21" d="M195.06,241.68a2.06,2.06,0,0,1-2.91,0,2,2,0,0,1,0-2.9c.94-.91,2.71-1.36,3.5-.55S196,240.77,195.06,241.68Z" transform="translate(-13.96 -42.92)"/><path class="cls-21" d="M190.2,237.8a2.05,2.05,0,0,1-4.1-.19,1.91,1.91,0,0,1,.1-.53c.22-1.28,1.41-2.68,2.52-2.48S190.44,236.52,190.2,237.8Z" transform="translate(-13.96 -42.92)"/><path class="cls-21" d="M184.2,237.21a2,2,0,0,1-3.79,1.56c-.5-1.21-.25-3,.8-3.45S183.75,236,184.2,237.21Z" transform="translate(-13.96 -42.92)"/><path class="cls-22" d="M187.94,135s-8.07,12.07-.53,28.4,9.2,14.45,9.11,22.26a14.1,14.1,0,0,1-7.6,12.64h3.57s16.22-5.44,9.65-24.07" transform="translate(-13.96 -42.92)"/><path class="cls-22" d="M202.72,115.21s-9.25,20.66-6.22,30.85c0,0-2.45-6.48-2.55-8.46" transform="translate(-13.96 -42.92)"/><path class="cls-23" d="M598.2,379.36,353,237.71c-3.8-2.19-5.79-7.55-4.43-12L403.2,48.36c1.35-4.4,5.53-6.19,9.34-4L657.7,186c3.8,2.19,5.79,7.54,4.43,12l-54.64,177.4C606.14,379.76,602,381.55,598.2,379.36Z" transform="translate(-13.96 -42.92)"/><line class="cls-24" x1="418.74" y1="62.14" x2="381.35" y2="189.74"/><path class="cls-4" d="M433.76,86.44,618,192.82,577.65,329.14l6.83,4.09s4.27,2.72,8.46-1.59c0,0,2.07-1.45,3.47-6.09l37.83-125.17a16.7,16.7,0,0,0-1.58-12.33,14.45,14.45,0,0,0-5.69-6.16L447.8,78.23a15.1,15.1,0,0,0-7.49-1.85c-3.78.28-4.25,2.27-4.52,2.89S433.76,86.44,433.76,86.44Z" transform="translate(-13.96 -42.92)"/><path class="cls-25" d="M616,186.12,430.88,79.53a4.58,4.58,0,0,0-5.2.19,4.88,4.88,0,0,1,2.67.67L613.47,187a8.2,8.2,0,0,1,3.4,9.1L575.16,332a5.53,5.53,0,0,1-1.93,2.88,4.89,4.89,0,0,0,4.47-3.75l41.68-135.86A8.21,8.21,0,0,0,616,186.12Z" transform="translate(-13.96 -42.92)"/><path class="cls-26" d="M423.75,82.63a4.93,4.93,0,0,1,1.93-2.87,5.94,5.94,0,0,1,2.31.48L613.7,187.14a8.21,8.21,0,0,1,3.16,9l-3.26,10.62-194-110.57Z" transform="translate(-13.96 -42.92)"/><path class="cls-27" d="M468.83,112.57l8.37,4.82a2.17,2.17,0,0,1,.93,2.41h0a1.23,1.23,0,0,1-1.46,1,1.28,1.28,0,0,1-.42-.17l-8.36-4.82a2.17,2.17,0,0,1-.93-2.4h0a1.23,1.23,0,0,1,1.46-1A1.15,1.15,0,0,1,468.83,112.57Z" transform="translate(-13.96 -42.92)"/><path class="cls-28" d="M452.88,103.39l8.37,4.81a2.18,2.18,0,0,1,.93,2.4h0a1.25,1.25,0,0,1-1.48,1,1.18,1.18,0,0,1-.4-.17l-8.37-4.81a2.18,2.18,0,0,1-.92-2.41h0a1.23,1.23,0,0,1,1.87-.78Z" transform="translate(-13.96 -42.92)"/><path class="cls-29" d="M436.92,94.2l8.4,4.82a2.19,2.19,0,0,1,.94,2.4h0a1.24,1.24,0,0,1-1.47,1,1.28,1.28,0,0,1-.42-.17L436,97.38a2.19,2.19,0,0,1-.94-2.4h0a1.24,1.24,0,0,1,1.5-.92A1.51,1.51,0,0,1,436.92,94.2Z" transform="translate(-13.96 -42.92)"/><path class="cls-30" d="M419.58,96.17l13,7.43L394.7,232.92l-9.24-5.32a7.59,7.59,0,0,1-3.4-9.11Z" transform="translate(-13.96 -42.92)"/><path class="cls-31" d="M430,90.26l.07.29a2.2,2.2,0,0,1-1,2.36h0a1.23,1.23,0,0,1-1.71-.39,1.13,1.13,0,0,1-.17-.39l-.07-.29a2.18,2.18,0,0,1,1-2.36h0a1.24,1.24,0,0,1,1.72.38A1.18,1.18,0,0,1,430,90.26Z" transform="translate(-13.96 -42.92)"/><text class="cls-32" transform="translate(401.96 79.05) rotate(18.95)">1.</text><text class="cls-32" transform="translate(398.38 90.41) rotate(18.95)">2.</text><text class="cls-32" transform="translate(394.97 101.66) rotate(18.95)">3.</text><text class="cls-32" transform="translate(390.91 114.46) rotate(18.95)">4.</text><text class="cls-32" transform="translate(387.14 126.78) rotate(18.95)">5.</text><text class="cls-32" transform="translate(383.44 138.76) rotate(18.95)">6.</text><text class="cls-32" transform="translate(379.62 151.78) rotate(18.95)">7.</text><text class="cls-32" transform="translate(376.15 164.3) rotate(18.95)">8.</text></svg>