<svg id="Layer_1" data-name="Layer 1" xmlns="http://www.w3.org/2000/svg" viewBox="0 0 294.98 190.95"><defs><style>.cls-1{fill:#465763;opacity:0.49;}</style></defs><path class="cls-1" d="M56.63,134.93a6,6,0,1,1,5.92,6.26h-.49A5.88,5.88,0,0,1,56.63,134.93Z" transform="translate(-0.02 0)"/><path class="cls-1" d="M96.26,60.88A5.53,5.53,0,0,1,91,66.68h-.57a6,6,0,0,1-6.08-5.92h0v-.08a6.4,6.4,0,0,1,6.23-6A6,6,0,0,1,96.26,60.88Z" transform="translate(-0.02 0)"/><path class="cls-1" d="M90.38,39.69A6.06,6.06,0,0,1,84.32,34a6.34,6.34,0,0,1,5.94-6.23,6.09,6.09,0,0,1,6,6.12A5.56,5.56,0,0,1,91,39.7Z" transform="translate(-0.02 0)"/><path class="cls-1" d="M34.41,141.24a5.79,5.79,0,0,1-5.9-5.68h0v-.13a6.08,6.08,0,0,1,6-6.12,6.15,6.15,0,0,1,5.92,5.95,5.93,5.93,0,0,1-5.86,6h0Z" transform="translate(-0.02 0)"/><path class="cls-1" d="M62.41,117.06a5.54,5.54,0,0,1-5.8-5.27h0a5,5,0,0,1,0-.55,6.06,6.06,0,0,1,5.68-6.1,6.27,6.27,0,0,1,6.23,5.92A6.07,6.07,0,0,1,62.41,117.06Z" transform="translate(-0.02 0)"/><path class="cls-1" d="M90.59,129.29A6,6,0,1,1,92,141.21a5.57,5.57,0,0,1-1.29,0,6,6,0,0,1-.34-11.92Z" transform="translate(-0.02 0)"/><path class="cls-1" d="M6.42,141.25a5.86,5.86,0,0,1-6-5.72h0v-.21a6,6,0,0,1,11.91-.17,5.89,5.89,0,0,1-5.65,6.1Z" transform="translate(-0.02 0)"/><path class="cls-1" d="M90.62,117.05a5.77,5.77,0,0,1-5.91-5.62v-.17a5.86,5.86,0,0,1,5.58-6.13h.24a6.22,6.22,0,0,1,6,5.83,6,6,0,0,1-5.9,6.1h0Z" transform="translate(-0.02 0)"/><path class="cls-1" d="M.34,60.88a5.29,5.29,0,0,1,5-5.56,4.69,4.69,0,0,1,.75,0,6,6,0,0,1,6,5.93h0a6.62,6.62,0,0,1-5.84,5.92,6,6,0,0,1-6-5.94A2,2,0,0,0,.34,60.88Z" transform="translate(-0.02 0)"/><path class="cls-1" d="M62.12,39.69a6.06,6.06,0,0,1-5.92-5.84,6.62,6.62,0,0,1,5.94-6,6,6,0,0,1,6,6v.28a5.55,5.55,0,0,1-5.47,5.62A5.14,5.14,0,0,1,62.12,39.69Z" transform="translate(-0.02 0)"/><path class="cls-1" d="M34.35,28.08a5.36,5.36,0,0,1,5.66,5,6.58,6.58,0,0,1-5.77,6.8,6.47,6.47,0,0,1-6.14-6.07A6.06,6.06,0,0,1,34.35,28.08Z" transform="translate(-0.02 0)"/><path class="cls-1" d="M96.26,87a5.53,5.53,0,0,1-5.14,5.9h-.57A6.08,6.08,0,0,1,84.39,87a6.32,6.32,0,0,1,6.16-6A5.89,5.89,0,0,1,96.26,87Z" transform="translate(-0.02 0)"/><path class="cls-1" d="M56.57,87.07A6,6,0,0,1,62.29,81a6.41,6.41,0,0,1,6.1,6.12,5.91,5.91,0,0,1-6,5.81h0a5.55,5.55,0,0,1-5.81-5.27A5.81,5.81,0,0,1,56.57,87.07Z" transform="translate(-0.02 0)"/><path class="cls-1" d="M68.13,61.15a5.54,5.54,0,0,1-5.51,5.57h-.5a6,6,0,0,1-5.86-5.95,6.67,6.67,0,0,1,6.12-6A6,6,0,0,1,68.15,61v.1h0Z" transform="translate(-0.02 0)"/><path class="cls-1" d="M11.87,34.15A6,6,0,0,1,6,40.08,6.62,6.62,0,0,1,0,34a6,6,0,0,1,6-5.85h.2a5.51,5.51,0,0,1,5.67,5.35h0c0,.22,0,.43,0,.65Z" transform="translate(-0.02 0)"/><path class="cls-1" d="M40,61.08a5.32,5.32,0,0,1-4.89,5.72h0a5.57,5.57,0,0,1-1,0,5.85,5.85,0,0,1-6-5.7h0V61h0a6.29,6.29,0,0,1,6.15-6A5.86,5.86,0,0,1,40,61Z" transform="translate(-0.02 0)"/><path class="cls-1" d="M6,93A5.55,5.55,0,0,1,.34,87.58V87a5.86,5.86,0,0,1,5.84-5.88h0a6.47,6.47,0,0,1,6,6A6,6,0,0,1,6.06,93Z" transform="translate(-0.02 0)"/><path class="cls-1" d="M37.11,106.06a5.66,5.66,0,0,1,3.16,6,5.9,5.9,0,0,1-5,5,5.54,5.54,0,0,1-6.28-3.8c2.14-2.44,4.56-4.59,6.87-6.84A1.14,1.14,0,0,1,37.11,106.06Z" transform="translate(-0.02 0)"/><path class="cls-1" d="M2.43,115.6a5.3,5.3,0,0,1-1.68-6.15,5.53,5.53,0,0,1,5.19-4.12A4.78,4.78,0,0,1,11,107.88v.24c-.5,1.51-6.8,7.39-8.26,7.69a.26.26,0,0,1-.32-.15A.35.35,0,0,1,2.43,115.6Z" transform="translate(-0.02 0)"/><path class="cls-1" d="M38.09,82.78a5.67,5.67,0,0,1,.83,8,6.51,6.51,0,0,1-.83.83,5.83,5.83,0,0,1-8.22-.53,4.63,4.63,0,0,1-.43-.56A42.17,42.17,0,0,1,38.09,82.78Z" transform="translate(-0.02 0)"/><path class="cls-1" d="M38.09,82.78a55.23,55.23,0,0,1-8.58,7.73,5.82,5.82,0,0,1,.65-7.6C32.5,80.54,34.76,80.49,38.09,82.78Z" transform="translate(-0.02 0)"/><path class="cls-1" d="M2.43,115.6c.35-.13.83-.16,1-.42,2.29-2.68,5.44-4.46,7.56-7.4a5.28,5.28,0,0,1-.37,7.45l-.16.13C8.07,117.73,5.2,117.73,2.43,115.6Z" transform="translate(-0.02 0)"/><path class="cls-1" d="M37.11,106.06c-1.85,1.76-3.7,3.48-5.55,5.27a8.15,8.15,0,0,1-2.68,1.85c-.94-2.9-.54-4.9,1.63-6.58A5.13,5.13,0,0,1,37.11,106.06Z" transform="translate(-0.02 0)"/><path class="cls-1" d="M169.45,134.93a6,6,0,1,1,6,6.26h-.51A5.9,5.9,0,0,1,169.45,134.93Z" transform="translate(-0.02 0)"/><path class="cls-1" d="M209.08,60.88a5.53,5.53,0,0,1-5.25,5.8h-.57a6.06,6.06,0,0,1-6.1-6,6.41,6.41,0,0,1,6.25-6A6.08,6.08,0,0,1,209.08,60.88Z" transform="translate(-0.02 0)"/><path class="cls-1" d="M203.26,39.69A6.08,6.08,0,0,1,197.18,34a6.36,6.36,0,0,1,5.94-6.23,6.08,6.08,0,0,1,6,6.12,5.55,5.55,0,0,1-5.27,5.81Z" transform="translate(-0.02 0)"/><path class="cls-1" d="M147.26,141.24a5.82,5.82,0,0,1-5.92-5.72h0v-.08a6.08,6.08,0,0,1,6-6.12,6.15,6.15,0,0,1,5.94,5.95,5.93,5.93,0,0,1-5.86,6h0Z" transform="translate(-0.02 0)"/><path class="cls-1" d="M175.26,117.06a5.54,5.54,0,0,1-5.82-5.25h0a5.42,5.42,0,0,1,0-.57,6.08,6.08,0,0,1,5.69-6.1,6.26,6.26,0,0,1,6.22,5.92,6,6,0,0,1-6,6Z" transform="translate(-0.02 0)"/><path class="cls-1" d="M203.41,129.29a6,6,0,1,1,1.4,11.92,7,7,0,0,1-1.29,0,5.93,5.93,0,0,1-6-5.81,5.85,5.85,0,0,1,5.58-6.11h.26Z" transform="translate(-0.02 0)"/><path class="cls-1" d="M119.26,141.25a5.88,5.88,0,0,1-6-5.74v-.19a6,6,0,0,1,11.93-.17,5.91,5.91,0,0,1-5.71,6.1Z" transform="translate(-0.02 0)"/><path class="cls-1" d="M203.44,117.05a5.75,5.75,0,0,1-5.89-5.6v-.19a5.83,5.83,0,0,1,5.51-6.13h.31a6.22,6.22,0,0,1,6,5.87,6,6,0,0,1-5.9,6.1h-.08Z" transform="translate(-0.02 0)"/><path class="cls-1" d="M113.16,60.88a5.32,5.32,0,0,1,5.06-5.57h0a4.69,4.69,0,0,1,.75,0,6,6,0,0,1,6,5.9h0a6.61,6.61,0,0,1-5.83,5.92,6,6,0,0,1-6-5.93A.69.69,0,0,0,113.16,60.88Z" transform="translate(-0.02 0)"/><path class="cls-1" d="M175,39.69A6.08,6.08,0,0,1,169,33.85a6.66,6.66,0,0,1,5.94-6,6,6,0,0,1,6,6v.28a5.55,5.55,0,0,1-5.47,5.62A4.78,4.78,0,0,1,175,39.69Z" transform="translate(-0.02 0)"/><path class="cls-1" d="M147.17,28.08a5.36,5.36,0,0,1,5.68,5,6.17,6.17,0,0,1,0,.86,5.88,5.88,0,0,1-5.76,6h0A6.47,6.47,0,0,1,141,33.87a6,6,0,0,1,6.2-5.79Z" transform="translate(-0.02 0)"/><path class="cls-1" d="M209.1,87A5.54,5.54,0,0,1,204,92.91h-.57A6.07,6.07,0,0,1,197.23,87a6.3,6.3,0,0,1,6.16-6A5.91,5.91,0,0,1,209.1,87Z" transform="translate(-0.02 0)"/><path class="cls-1" d="M169.41,87.07A5.93,5.93,0,0,1,175.12,81a6.41,6.41,0,0,1,6.1,6.12,5.91,5.91,0,0,1-6,5.81h0a5.55,5.55,0,0,1-5.79-5.29A5.43,5.43,0,0,1,169.41,87.07Z" transform="translate(-0.02 0)"/><path class="cls-1" d="M181,61.15a5.54,5.54,0,0,1-5.51,5.57H175a6.06,6.06,0,0,1-5.9-5.93,6.69,6.69,0,0,1,6.12-6A6.08,6.08,0,0,1,181,61.15Z" transform="translate(-0.02 0)"/><path class="cls-1" d="M225.78,134.93a6,6,0,1,1,5.93,6.26h-.5A5.86,5.86,0,0,1,225.78,134.93Z" transform="translate(-0.02 0)"/><path class="cls-1" d="M265.39,60.88a5.53,5.53,0,0,1-5.25,5.8h-.57a6,6,0,0,1-6.08-5.92h0v-.08a6.39,6.39,0,0,1,6.23-6A6,6,0,0,1,265.39,60.88Z" transform="translate(-0.02 0)"/><path class="cls-1" d="M259.55,39.69A6,6,0,0,1,253.47,34a6.33,6.33,0,0,1,5.91-6.3,6,6,0,0,1,6,6v.12a5.55,5.55,0,0,1-5.19,5.87h0C260,39.7,259.75,39.7,259.55,39.69Z" transform="translate(-0.02 0)"/><path class="cls-1" d="M231.65,117.06a5.54,5.54,0,0,1-5.8-5.27h0a5,5,0,0,1,0-.55,6.06,6.06,0,0,1,5.68-6.1,6.27,6.27,0,0,1,6.23,5.92A6.07,6.07,0,0,1,231.65,117.06Z" transform="translate(-0.02 0)"/><path class="cls-1" d="M259.73,129.29a6,6,0,0,1,1.39,11.92,7,7,0,0,1-1.29,0,6,6,0,0,1-.34-11.92Z" transform="translate(-0.02 0)"/><path class="cls-1" d="M259.77,117.05a5.77,5.77,0,0,1-5.91-5.62v-.17a5.85,5.85,0,0,1,5.56-6.13h.26a6.2,6.2,0,0,1,6,5.83,6,6,0,0,1-5.9,6.1h0Z" transform="translate(-0.02 0)"/><path class="cls-1" d="M231.26,39.69a6.06,6.06,0,0,1-5.92-5.84,6.62,6.62,0,0,1,5.93-6,6,6,0,0,1,6,6v.28a5.55,5.55,0,0,1-5.48,5.62h0A4.78,4.78,0,0,1,231.26,39.69Z" transform="translate(-0.02 0)"/><path class="cls-1" d="M265.41,87a5.54,5.54,0,0,1-5.14,5.91h-.57A6.08,6.08,0,0,1,253.54,87a6.32,6.32,0,0,1,6.16-6A5.89,5.89,0,0,1,265.41,87Z" transform="translate(-0.02 0)"/><path class="cls-1" d="M225.72,87.07A6,6,0,0,1,231.43,81a6.41,6.41,0,0,1,6.1,6.12,5.9,5.9,0,0,1-6,5.81h0a5.55,5.55,0,0,1-5.81-5.27A5.81,5.81,0,0,1,225.72,87.07Z" transform="translate(-0.02 0)"/><path class="cls-1" d="M237.2,61.15a5.54,5.54,0,0,1-5.51,5.57h-.5a6,6,0,0,1-5.88-5.93,6.67,6.67,0,0,1,6.12-6A6,6,0,0,1,237.21,61v.15Z" transform="translate(-0.02 0)"/><path class="cls-1" d="M124.71,34.15A6,6,0,0,1,118.89,40a6.63,6.63,0,0,1-6-6.08A6,6,0,0,1,119,28.08h.12A5.79,5.79,0,0,1,124.76,34a.57.57,0,0,0,0,.13Z" transform="translate(-0.02 0)"/><path class="cls-1" d="M152.85,61.08A5.32,5.32,0,0,1,148,66.8h0a5,5,0,0,1-1,0A5.88,5.88,0,0,1,141,61v0h0a6.28,6.28,0,0,1,6.17-6,5.87,5.87,0,0,1,5.66,6.07Z" transform="translate(-0.02 0)"/><path class="cls-1" d="M96.86,6.37a5.76,5.76,0,0,1-5.47,6h-.57a6.26,6.26,0,0,1-6.31-6.19A6.62,6.62,0,0,1,91,0,6.29,6.29,0,0,1,96.86,6.37Z" transform="translate(-0.02 0)"/><path class="cls-1" d="M.34,6.37A5.3,5.3,0,0,1,5.21.69h0a4.31,4.31,0,0,1,.88,0,6,6,0,0,1,6.05,5.94h0A6.61,6.61,0,0,1,6.3,12.54a6,6,0,0,1-6-5.95A.64.64,0,0,0,.34,6.37Z" transform="translate(-0.02 0)"/><path class="cls-1" d="M68.13,6.59a5.56,5.56,0,0,1-5.53,5.57h-.48a6,6,0,0,1-5.88-5.94,6.69,6.69,0,0,1,6.12-6,6.06,6.06,0,0,1,5.77,6.34h0Z" transform="translate(-0.02 0)"/><path class="cls-1" d="M40,6.52a5.32,5.32,0,0,1-4.89,5.72h0a5.57,5.57,0,0,1-1,0,5.86,5.86,0,0,1-5.86-5.79,6.27,6.27,0,0,1,6.15-6A5.87,5.87,0,0,1,40,6.52Z" transform="translate(-0.02 0)"/><path class="cls-1" d="M209.08,6.37a5.53,5.53,0,0,1-5.25,5.8h-.57a6.06,6.06,0,0,1-6.1-6A6.4,6.4,0,0,1,203.41.22,6.09,6.09,0,0,1,209.08,6.37Z" transform="translate(-0.02 0)"/><path class="cls-1" d="M113.16,6.37A5.33,5.33,0,0,1,118.09.68a6.61,6.61,0,0,1,.89,0,6,6,0,0,1,6,5.9v.06a6.61,6.61,0,0,1-5.83,5.91,6,6,0,0,1-6-5.93A2.09,2.09,0,0,1,113.16,6.37Z" transform="translate(-0.02 0)"/><path class="cls-1" d="M181,6.59a5.56,5.56,0,0,1-5.53,5.57H175a6.07,6.07,0,0,1-6-5.94,6.7,6.7,0,0,1,6.12-6A6.07,6.07,0,0,1,181,6.49Z" transform="translate(-0.02 0)"/><path class="cls-1" d="M265.39,6.37a5.53,5.53,0,0,1-5.25,5.8h-.57a6,6,0,0,1-6.08-5.92h0V6.17A6.39,6.39,0,0,1,259.72.22,6,6,0,0,1,265.39,6.37Z" transform="translate(-0.02 0)"/><path class="cls-1" d="M237.2,6.59a5.56,5.56,0,0,1-5.53,5.57h-.48a6,6,0,0,1-5.88-5.94,6.69,6.69,0,0,1,6.12-6,6.06,6.06,0,0,1,5.77,6.34h0Z" transform="translate(-0.02 0)"/><path class="cls-1" d="M152.85,6.52A5.32,5.32,0,0,1,148,12.24h0a5,5,0,0,1-1,0,5.88,5.88,0,0,1-5.94-5.79,6.28,6.28,0,0,1,6.18-6A5.88,5.88,0,0,1,152.85,6.52Z" transform="translate(-0.02 0)"/><path class="cls-1" d="M118.89,93a5.55,5.55,0,0,1-5.69-5.4V87A5.88,5.88,0,0,1,119,81H119a6.49,6.49,0,0,1,6,6,6,6,0,0,1-6,6h-.13Z" transform="translate(-0.02 0)"/><path class="cls-1" d="M149.93,106.06a5.56,5.56,0,0,1,3.16,6.12,5.86,5.86,0,0,1-5,5,5.43,5.43,0,0,1-6.26-3.81c2.12-2.44,4.56-4.59,6.85-6.84A1.18,1.18,0,0,1,149.93,106.06Z" transform="translate(-0.02 0)"/><path class="cls-1" d="M115.19,115.6a5.33,5.33,0,0,1-1.68-6.15,5.56,5.56,0,0,1,5.19-4.11,4.8,4.8,0,0,1,5.09,2.54c0,.09.09.16,0,.24-.52,1.51-6.8,7.39-8.26,7.69C115.41,115.88,115.26,115.71,115.19,115.6Z" transform="translate(-0.02 0)"/><path class="cls-1" d="M150.93,82.78a5.67,5.67,0,0,1,.83,8,6.51,6.51,0,0,1-.83.83,5.83,5.83,0,0,1-8.22-.53c-.16-.18-.3-.37-.44-.56A41.65,41.65,0,0,1,150.93,82.78Z" transform="translate(-0.02 0)"/><path class="cls-1" d="M150.93,82.78a57.22,57.22,0,0,1-8.58,7.73,5.83,5.83,0,0,1,.57-7.6C145.32,80.54,147.6,80.49,150.93,82.78Z" transform="translate(-0.02 0)"/><path class="cls-1" d="M115.19,115.6c.35-.13.83-.16,1.06-.42,2.29-2.68,5.43-4.46,7.54-7.4a5.24,5.24,0,0,1-.32,7.4l-.21.19C120.9,117.73,118,117.73,115.19,115.6Z" transform="translate(-0.02 0)"/><path class="cls-1" d="M149.93,106.06c-1.85,1.76-3.7,3.48-5.55,5.27a8.15,8.15,0,0,1-2.68,1.85c-1-2.9-.53-4.9,1.63-6.58A5.12,5.12,0,0,1,149.93,106.06Z" transform="translate(-0.02 0)"/><path class="cls-1" d="M56.63,184.59a6,6,0,1,1,5.92,6.26,4,4,0,0,1-.49,0A5.88,5.88,0,0,1,56.63,184.59Z" transform="translate(-0.02 0)"/><path class="cls-1" d="M34.41,190.9a5.79,5.79,0,0,1-5.9-5.68h0v-.13a6.08,6.08,0,0,1,6-6.12,6.15,6.15,0,0,1,5.92,5.95,5.93,5.93,0,0,1-5.86,6h0Z" transform="translate(-0.02 0)"/><path class="cls-1" d="M62.41,166.72a5.54,5.54,0,0,1-5.8-5.27h0a5,5,0,0,1,0-.55,6.06,6.06,0,0,1,5.68-6.1,6.28,6.28,0,0,1,6.23,5.92A6.07,6.07,0,0,1,62.41,166.72Z" transform="translate(-0.02 0)"/><path class="cls-1" d="M90.59,179A6,6,0,1,1,93,190.75a5.8,5.8,0,0,1-1,.12,7,7,0,0,1-1.29,0A6,6,0,0,1,90.34,179Z" transform="translate(-0.02 0)"/><path class="cls-1" d="M6.42,190.91a5.86,5.86,0,0,1-6-5.72h0V185a6,6,0,0,1,11.91-.17,5.89,5.89,0,0,1-5.65,6.1Z" transform="translate(-0.02 0)"/><path class="cls-1" d="M90.62,166.71a5.77,5.77,0,0,1-5.91-5.62v-.17a5.86,5.86,0,0,1,5.58-6.13h.24a6.22,6.22,0,0,1,6,5.83,6,6,0,0,1-5.9,6.1h0Z" transform="translate(-0.02 0)"/><path class="cls-1" d="M37.11,155.73a5.64,5.64,0,0,1,3.16,6,5.9,5.9,0,0,1-5,5,5.54,5.54,0,0,1-6.28-3.8c2.14-2.44,4.56-4.59,6.87-6.84A1.14,1.14,0,0,1,37.11,155.73Z" transform="translate(-0.02 0)"/><path class="cls-1" d="M2.43,165.26a5.3,5.3,0,0,1-1.68-6.15A5.53,5.53,0,0,1,5.94,155,4.78,4.78,0,0,1,11,157.54v.24c-.5,1.51-6.8,7.39-8.26,7.69a.26.26,0,0,1-.32-.15A.35.35,0,0,1,2.43,165.26Z" transform="translate(-0.02 0)"/><path class="cls-1" d="M2.43,165.26c.35-.13.83-.16,1-.42,2.29-2.68,5.44-4.46,7.56-7.4a5.28,5.28,0,0,1-.37,7.45l-.16.13C8.07,167.37,5.2,167.37,2.43,165.26Z" transform="translate(-0.02 0)"/><path class="cls-1" d="M37.11,155.73c-1.85,1.75-3.7,3.47-5.55,5.26a8.15,8.15,0,0,1-2.68,1.85c-.94-2.9-.54-4.9,1.63-6.58A5.12,5.12,0,0,1,37.11,155.73Z" transform="translate(-0.02 0)"/><path class="cls-1" d="M169.45,184.59a6,6,0,1,1,6,6.26,4.34,4.34,0,0,1-.51,0A5.9,5.9,0,0,1,169.45,184.59Z" transform="translate(-0.02 0)"/><path class="cls-1" d="M147.26,190.9a5.82,5.82,0,0,1-5.92-5.72h0v-.08a6.08,6.08,0,0,1,6-6.12,6.15,6.15,0,0,1,5.94,5.95,5.93,5.93,0,0,1-5.86,6h0Z" transform="translate(-0.02 0)"/><path class="cls-1" d="M175.26,166.72a5.54,5.54,0,0,1-5.82-5.25h0a5.42,5.42,0,0,1,0-.57,6.08,6.08,0,0,1,5.69-6.1,6.26,6.26,0,0,1,6.22,5.92,6,6,0,0,1-6,6Z" transform="translate(-0.02 0)"/><path class="cls-1" d="M203.41,179a6,6,0,1,1,1.4,11.92,7,7,0,0,1-1.29,0,5.93,5.93,0,0,1-6-5.81,5.85,5.85,0,0,1,5.58-6.11h.26Z" transform="translate(-0.02 0)"/><path class="cls-1" d="M119.26,190.91a5.88,5.88,0,0,1-6-5.74V185a6,6,0,0,1,11.93-.17,5.91,5.91,0,0,1-5.71,6.1h-.22Z" transform="translate(-0.02 0)"/><path class="cls-1" d="M203.44,166.71a5.75,5.75,0,0,1-5.89-5.6v-.19a5.83,5.83,0,0,1,5.51-6.13h.31a6.22,6.22,0,0,1,6,5.83,6,6,0,0,1-5.9,6.1h-.08Z" transform="translate(-0.02 0)"/><path class="cls-1" d="M225.78,184.59a6,6,0,1,1,5.93,6.26,4.17,4.17,0,0,1-.5,0A5.86,5.86,0,0,1,225.78,184.59Z" transform="translate(-0.02 0)"/><path class="cls-1" d="M231.65,166.72a5.54,5.54,0,0,1-5.8-5.27h0a5,5,0,0,1,0-.55,6.06,6.06,0,0,1,5.68-6.1,6.28,6.28,0,0,1,6.23,5.92A6.07,6.07,0,0,1,231.65,166.72Z" transform="translate(-0.02 0)"/><path class="cls-1" d="M259.73,179a6,6,0,0,1,1.39,11.92,7,7,0,0,1-1.29,0,6,6,0,0,1-.34-11.92Z" transform="translate(-0.02 0)"/><path class="cls-1" d="M259.77,166.71a5.77,5.77,0,0,1-5.91-5.62v-.17a5.85,5.85,0,0,1,5.56-6.13h.26a6.2,6.2,0,0,1,6,5.83,6,6,0,0,1-5.9,6.1h0Z" transform="translate(-0.02 0)"/><path class="cls-1" d="M293.91,60.88a5.55,5.55,0,0,1-5.28,5.8h-.55A6,6,0,0,1,282,60.76v-.08a6.4,6.4,0,0,1,6.23-6A6.06,6.06,0,0,1,293.91,60.88Z" transform="translate(-0.02 0)"/><path class="cls-1" d="M288.07,39.69A6.06,6.06,0,0,1,282,34a6.34,6.34,0,0,1,5.92-6.3,6.06,6.06,0,0,1,6,6.12h0a5.55,5.55,0,0,1-5.2,5.87C288.49,39.7,288.27,39.7,288.07,39.69Z" transform="translate(-0.02 0)"/><path class="cls-1" d="M288.26,129.29a6,6,0,0,1,1.48,11.91h-.1a7,7,0,0,1-1.29,0A6,6,0,0,1,288,129.3Z" transform="translate(-0.02 0)"/><path class="cls-1" d="M288.26,117.05a5.79,5.79,0,0,1-5.92-5.62v-.17a5.86,5.86,0,0,1,5.58-6.13h.24a6.22,6.22,0,0,1,6,5.83,6,6,0,0,1-5.9,6.1h-.05Z" transform="translate(-0.02 0)"/><path class="cls-1" d="M293.93,87a5.56,5.56,0,0,1-5.17,5.91h-.55A6.09,6.09,0,0,1,282,87a6.31,6.31,0,0,1,6.15-6A5.9,5.9,0,0,1,293.93,87Z" transform="translate(-0.02 0)"/><path class="cls-1" d="M293.91,6.37a5.55,5.55,0,0,1-5.28,5.8h-.55A6,6,0,0,1,282,6.25V6.17a6.42,6.42,0,0,1,6.26-5.9A6.06,6.06,0,0,1,293.91,6.37Z" transform="translate(-0.02 0)"/><path class="cls-1" d="M288.26,179a6,6,0,0,1,1.38,11.92,7,7,0,0,1-1.29,0A6,6,0,0,1,288,179Z" transform="translate(-0.02 0)"/><path class="cls-1" d="M288.26,166.71a5.79,5.79,0,0,1-5.92-5.62v-.17a5.86,5.86,0,0,1,5.58-6.13h.24a6.22,6.22,0,0,1,6,5.83,6,6,0,0,1-5.9,6.1h-.05Z" transform="translate(-0.02 0)"/><path class="cls-1" d="M149.93,155.73a5.55,5.55,0,0,1,3.16,6.11,5.86,5.86,0,0,1-5,5,5.43,5.43,0,0,1-6.26-3.81c2.12-2.44,4.56-4.59,6.85-6.84A1.17,1.17,0,0,1,149.93,155.73Z" transform="translate(-0.02 0)"/><path class="cls-1" d="M115.19,165.26a5.33,5.33,0,0,1-1.68-6.15A5.56,5.56,0,0,1,118.7,155a4.8,4.8,0,0,1,5.09,2.54c0,.09.09.16,0,.24-.52,1.51-6.8,7.39-8.26,7.69C115.41,165.54,115.26,165.37,115.19,165.26Z" transform="translate(-0.02 0)"/><path class="cls-1" d="M115.19,165.26c.35-.13.83-.16,1.06-.42,2.29-2.68,5.43-4.46,7.54-7.4a5.24,5.24,0,0,1-.32,7.4l-.22.18C120.9,167.37,118,167.37,115.19,165.26Z" transform="translate(-0.02 0)"/><path class="cls-1" d="M149.93,155.73c-1.85,1.75-3.7,3.47-5.55,5.26a8.15,8.15,0,0,1-2.68,1.85c-1-2.9-.53-4.9,1.63-6.58A5.11,5.11,0,0,1,149.93,155.73Z" transform="translate(-0.02 0)"/></svg>