<svg id="Layer_1" data-name="Layer 1" xmlns="http://www.w3.org/2000/svg" viewBox="0 0 133.97 69.62"><defs><style>.cls-1{fill:#1e2a39;}.cls-2{opacity:0.21;}.cls-3{fill:#02dac5;stroke:#02dac5;stroke-miterlimit:10;}</style></defs><circle class="cls-1" cx="99.15" cy="34.81" r="34.81"/><g class="cls-2"><path class="cls-3" d="M399.35,278.36c.64-.92,1.59-.64,2.26-1.46h1.87a2.71,2.71,0,0,1,0,2.36,8,8,0,0,0-4.12,1.56A2.86,2.86,0,0,1,399.35,278.36Z" transform="translate(-354.21 -262.91)"/><path class="cls-3" d="M434.81,277.83c.45-.5,1.08-.27,1.5-.93h2.44a2.78,2.78,0,0,1,0,2.36,8.69,8.69,0,0,0-3.93,1A2.69,2.69,0,0,1,434.81,277.83Z" transform="translate(-354.21 -262.91)"/><path class="cls-3" d="M403.48,279.26V276.9h1.88c.65.54,1.45.46,2.06,1.18.3.89.4,1.69-.37,2.11A8.54,8.54,0,0,0,403.48,279.26Z" transform="translate(-354.21 -262.91)"/><path class="cls-3" d="M370.66,276.9c.92.61,1.94.74,2.81,1.54.24.87.6,1.76-.21,2.38a10.35,10.35,0,0,0-3.54-1.55,2.77,2.77,0,0,1,0-2.37Z" transform="translate(-354.21 -262.91)"/><path class="cls-3" d="M470.07,277.54c.35-.31.81-.16,1.12-.64h.38c1.5,0,1.5,0,1.5,2.39-1-.13-2,.46-3,.64A2.71,2.71,0,0,1,470.07,277.54Z" transform="translate(-354.21 -262.91)"/><path class="cls-3" d="M369.72,276.9v2.37l-2.61.27a3.1,3.1,0,0,1,0-2.32l.19-.32Z" transform="translate(-354.21 -262.91)"/><path class="cls-3" d="M438.75,279.26V276.9h1.31c.23.55.71.06.95.58a10.34,10.34,0,0,1,0,2.36Z" transform="translate(-354.21 -262.91)"/><path class="cls-3" d="M356.55,289.12c2-2.2,3.36-5.48,5.29-7.79a4,4,0,0,1,0,3,40,40,0,0,1-4,6.13c-.26.32-.5.77-.88.74A3,3,0,0,1,356.55,289.12Z" transform="translate(-354.21 -262.91)"/><path class="cls-3" d="M361.84,284.37v-3c1.47-2.29,3.18-3.8,5.26-4.11,0,.77,0,1.54,0,2.32C365,280.13,363.38,282.15,361.84,284.37Z" transform="translate(-354.21 -262.91)"/><path class="cls-3" d="M411.78,282.84c1.37,2,2.58,4.26,4.08,6a2.45,2.45,0,0,1-.19,2.44c-1.85-1.49-3.13-4-4.5-6.33C411.38,284.27,411.05,283.18,411.78,282.84Z" transform="translate(-354.21 -262.91)"/><path class="cls-3" d="M391.69,288.58c1.53-1.83,2.68-4.28,4.11-6.29.69.69.5,1.69.37,2.67a24.94,24.94,0,0,1-3.92,5.75C391.69,290.25,391.83,289.31,391.69,288.58Z" transform="translate(-354.21 -262.91)"/><path class="cls-3" d="M447.39,284.31a26.52,26.52,0,0,0,4.48,5.76,2.84,2.84,0,0,1-.38,2.16,12.58,12.58,0,0,1-4.31-5.13A3.77,3.77,0,0,1,447.39,284.31Z" transform="translate(-354.21 -262.91)"/><path class="cls-3" d="M411.78,282.84c-.55.46.17,1.85-.61,2.14a18.24,18.24,0,0,0-4.12-4.79,3.43,3.43,0,0,0,.37-2.11C409.25,278.79,410.55,280.73,411.78,282.84Z" transform="translate(-354.21 -262.91)"/><path class="cls-3" d="M429.38,284.12a15.36,15.36,0,0,1,3.35-4.59,3.51,3.51,0,0,1,.2,2.46l-3.39,5.06C428.76,286.18,429.14,285.14,429.38,284.12Z" transform="translate(-354.21 -262.91)"/><path class="cls-3" d="M378.93,285.82a22.67,22.67,0,0,0,3.92,4.57c.16.84.28,1.65-.39,2.09a10.14,10.14,0,0,1-3.94-4.2C378.7,287.48,378.52,286.53,378.93,285.82Z" transform="translate(-354.21 -262.91)"/><path class="cls-3" d="M429.38,284.12a10.22,10.22,0,0,0,.16,2.93,13.11,13.11,0,0,1-3.74,4.79,3.34,3.34,0,0,1,0-2.65A34.13,34.13,0,0,0,429.38,284.12Z" transform="translate(-354.21 -262.91)"/><path class="cls-3" d="M396.17,285c-.28-.83,0-1.86-.37-2.67a11.29,11.29,0,0,1,3.55-3.93c0,.82,0,1.64,0,2.46A33.81,33.81,0,0,0,396.17,285Z" transform="translate(-354.21 -262.91)"/><path class="cls-3" d="M425.8,289.19v2.65a6.44,6.44,0,0,1-3.93,1.76,2.65,2.65,0,0,1,0-2.33A8.56,8.56,0,0,0,425.8,289.19Z" transform="translate(-354.21 -262.91)"/><path class="cls-3" d="M464.05,284.3a14.14,14.14,0,0,1,2.82-4.17c.48.52.37,1.41.52,2.15l-2.94,4.5c-.5.3-.54-.32-.62-.82A4,4,0,0,1,464.05,284.3Z" transform="translate(-354.21 -262.91)"/><path class="cls-3" d="M447.39,284.31l-.21,2.79c-1-1.52-2-3-3-4.55-.28-.93-.54-1.86.15-2.63A20.08,20.08,0,0,1,447.39,284.31Z" transform="translate(-354.21 -262.91)"/><path class="cls-3" d="M455.06,291.29a7.71,7.71,0,0,0,3.94-.89,8.29,8.29,0,0,0,.58,2.07,5.84,5.84,0,0,1-4.34,1.14A2.13,2.13,0,0,1,455.06,291.29Z" transform="translate(-354.21 -262.91)"/><path class="cls-3" d="M373.26,280.82c.42-.71.13-1.59.21-2.38a11,11,0,0,1,3.21,3.77c.2,1,.51,2-.4,2.48A29.94,29.94,0,0,0,373.26,280.82Z" transform="translate(-354.21 -262.91)"/><path class="cls-3" d="M382.46,292.48c.34-.6.18-1.43.39-2.09,1.19.34,2.34,1,3.57.91a2.69,2.69,0,0,1,0,2.32A5.57,5.57,0,0,1,382.46,292.48Z" transform="translate(-354.21 -262.91)"/><path class="cls-3" d="M444.34,279.92a9.21,9.21,0,0,0-.15,2.63,10.32,10.32,0,0,0-3.2-2.71,3.31,3.31,0,0,1,0-2.36A5.83,5.83,0,0,1,444.34,279.92Z" transform="translate(-354.21 -262.91)"/><path class="cls-3" d="M455.06,291.29a7.56,7.56,0,0,0,.18,2.33,5.68,5.68,0,0,1-3.75-1.39,12.66,12.66,0,0,1,.38-2.16A10.76,10.76,0,0,0,455.06,291.29Z" transform="translate(-354.21 -262.91)"/><path class="cls-3" d="M421.87,291.27v2.33a5.46,5.46,0,0,1-3.57-.54c-.4-1.47-.33-1.87.4-2.11A12.55,12.55,0,0,0,421.87,291.27Z" transform="translate(-354.21 -262.91)"/><path class="cls-3" d="M391.69,288.58c.69.37.13,1.58.56,2.13a6.29,6.29,0,0,1-3.21,2.35,8.48,8.48,0,0,1-.4-2.12A15.44,15.44,0,0,0,391.69,288.58Z" transform="translate(-354.21 -262.91)"/><path class="cls-3" d="M467.39,282.28c-.55-.49-.28-1.47-.52-2.15a7.06,7.06,0,0,1,3.2-2.59v2.39C469.21,280.79,468.12,281,467.39,282.28Z" transform="translate(-354.21 -262.91)"/><path class="cls-3" d="M464.05,284.3c.2.8-.37,1.92.4,2.48a14.24,14.24,0,0,1-2.48,3.56c-.94-.5-.56-1.48-.35-2.4Z" transform="translate(-354.21 -262.91)"/><path class="cls-3" d="M376.28,284.69c.52-.66.34-1.62.4-2.48a32,32,0,0,1,2.25,3.61c-.19.8.38,1.92-.41,2.46A28.34,28.34,0,0,1,376.28,284.69Z" transform="translate(-354.21 -262.91)"/><path class="cls-3" d="M461.62,287.94c.11.8-.25,1.78.35,2.4a5.91,5.91,0,0,1-2.39,2.13c-1-.13-.5-1.3-.58-2.07A16.27,16.27,0,0,0,461.62,287.94Z" transform="translate(-354.21 -262.91)"/><path class="cls-3" d="M418.7,291c-.73.42-.26,1.41-.4,2.11a4.65,4.65,0,0,1-2.63-1.75,9.86,9.86,0,0,0,.19-2.44Z" transform="translate(-354.21 -262.91)"/><path class="cls-3" d="M388.64,290.94c.73.42.27,1.41.4,2.12a4.25,4.25,0,0,1-2.62.56v-2.33Z" transform="translate(-354.21 -262.91)"/><path class="cls-3" d="M432.93,282a11.15,11.15,0,0,1-.2-2.46,4.73,4.73,0,0,1,2.08-1.7c0,.8,0,1.61,0,2.41Z" transform="translate(-354.21 -262.91)"/><path class="cls-3" d="M356.55,289.12c.38.59.2,1.45.42,2.12-.7.61-1.3,1.53-2.16,1.6C354.65,290,354.4,290.82,356.55,289.12Z" transform="translate(-354.21 -262.91)"/></g><g class="cls-2"><path class="cls-3" d="M399.35,299.2c.64-.93,1.59-.65,2.26-1.47h1.87a2.71,2.71,0,0,1,0,2.36,8,8,0,0,0-4.12,1.56A2.84,2.84,0,0,1,399.35,299.2Z" transform="translate(-354.21 -262.91)"/><path class="cls-3" d="M434.81,298.66c.45-.5,1.08-.27,1.5-.93h2.44a2.78,2.78,0,0,1,0,2.36,8.69,8.69,0,0,0-3.93,1A2.69,2.69,0,0,1,434.81,298.66Z" transform="translate(-354.21 -262.91)"/><path class="cls-3" d="M403.48,300.09v-2.36h1.88c.65.54,1.45.46,2.06,1.18.3.89.4,1.69-.37,2.11A8.54,8.54,0,0,0,403.48,300.09Z" transform="translate(-354.21 -262.91)"/><path class="cls-3" d="M370.66,297.73c.92.61,1.94.74,2.81,1.54.24.87.6,1.76-.21,2.38a10.35,10.35,0,0,0-3.54-1.55,2.77,2.77,0,0,1,0-2.37Z" transform="translate(-354.21 -262.91)"/><path class="cls-3" d="M470.07,298.38c.35-.32.81-.17,1.12-.65h.38c1.5,0,1.5,0,1.5,2.39-1-.13-2,.46-3,.64A2.69,2.69,0,0,1,470.07,298.38Z" transform="translate(-354.21 -262.91)"/><path class="cls-3" d="M369.72,297.73v2.37l-2.61.27a3.1,3.1,0,0,1,0-2.32l.19-.32Z" transform="translate(-354.21 -262.91)"/><path class="cls-3" d="M438.75,300.09v-2.36h1.31c.23.55.71.06.95.58a10.34,10.34,0,0,1,0,2.36Z" transform="translate(-354.21 -262.91)"/><path class="cls-3" d="M356.55,310c2-2.2,3.36-5.48,5.29-7.79a4,4,0,0,1,0,3,40,40,0,0,1-4,6.13c-.26.32-.5.77-.88.74A3,3,0,0,1,356.55,310Z" transform="translate(-354.21 -262.91)"/><path class="cls-3" d="M361.84,305.2v-3c1.47-2.29,3.18-3.79,5.26-4.11,0,.77,0,1.55,0,2.32C365,301,363.38,303,361.84,305.2Z" transform="translate(-354.21 -262.91)"/><path class="cls-3" d="M411.78,303.67c1.37,2,2.58,4.26,4.08,6a2.47,2.47,0,0,1-.19,2.45c-1.85-1.5-3.13-4-4.5-6.34C411.38,305.1,411.05,304,411.78,303.67Z" transform="translate(-354.21 -262.91)"/><path class="cls-3" d="M391.69,309.41c1.53-1.83,2.68-4.28,4.11-6.29.69.69.5,1.69.37,2.67a24.94,24.94,0,0,1-3.92,5.75C391.69,311.08,391.83,310.14,391.69,309.41Z" transform="translate(-354.21 -262.91)"/><path class="cls-3" d="M447.39,305.15a26.69,26.69,0,0,0,4.48,5.75,2.88,2.88,0,0,1-.38,2.17,12.68,12.68,0,0,1-4.31-5.14A3.74,3.74,0,0,1,447.39,305.15Z" transform="translate(-354.21 -262.91)"/><path class="cls-3" d="M411.78,303.67c-.55.46.17,1.85-.61,2.14a18.24,18.24,0,0,0-4.12-4.79,3.43,3.43,0,0,0,.37-2.11C409.25,299.62,410.55,301.56,411.78,303.67Z" transform="translate(-354.21 -262.91)"/><path class="cls-3" d="M429.38,305a15.36,15.36,0,0,1,3.35-4.59,3.51,3.51,0,0,1,.2,2.46l-3.39,5.06C428.76,307,429.14,306,429.38,305Z" transform="translate(-354.21 -262.91)"/><path class="cls-3" d="M378.93,306.65a22.67,22.67,0,0,0,3.92,4.57c.16.84.28,1.65-.39,2.09a10.07,10.07,0,0,1-3.94-4.2C378.7,308.31,378.52,307.36,378.93,306.65Z" transform="translate(-354.21 -262.91)"/><path class="cls-3" d="M429.38,305a10.22,10.22,0,0,0,.16,2.93,13.11,13.11,0,0,1-3.74,4.79,3.34,3.34,0,0,1,0-2.65A34.13,34.13,0,0,0,429.38,305Z" transform="translate(-354.21 -262.91)"/><path class="cls-3" d="M396.17,305.79c-.28-.83,0-1.86-.37-2.67a11.16,11.16,0,0,1,3.55-3.92c0,.81,0,1.63,0,2.45A33.81,33.81,0,0,0,396.17,305.79Z" transform="translate(-354.21 -262.91)"/><path class="cls-3" d="M425.8,310v2.65a6.44,6.44,0,0,1-3.93,1.76,2.65,2.65,0,0,1,0-2.33A8.56,8.56,0,0,0,425.8,310Z" transform="translate(-354.21 -262.91)"/><path class="cls-3" d="M464.05,305.13a14.14,14.14,0,0,1,2.82-4.17c.48.52.37,1.41.52,2.15l-2.94,4.5c-.5.3-.54-.32-.62-.82A4,4,0,0,1,464.05,305.13Z" transform="translate(-354.21 -262.91)"/><path class="cls-3" d="M447.39,305.15l-.21,2.78c-1-1.52-2-3-3-4.55-.28-.93-.54-1.85.15-2.63A19.91,19.91,0,0,1,447.39,305.15Z" transform="translate(-354.21 -262.91)"/><path class="cls-3" d="M455.06,312.12a7.71,7.71,0,0,0,3.94-.89,8.29,8.29,0,0,0,.58,2.07,5.89,5.89,0,0,1-4.34,1.15A2.15,2.15,0,0,1,455.06,312.12Z" transform="translate(-354.21 -262.91)"/><path class="cls-3" d="M373.26,301.65c.42-.71.13-1.59.21-2.38a11,11,0,0,1,3.21,3.77c.2,1,.51,2-.4,2.48A29.94,29.94,0,0,0,373.26,301.65Z" transform="translate(-354.21 -262.91)"/><path class="cls-3" d="M382.46,313.31c.34-.6.18-1.43.39-2.09,1.19.34,2.34,1,3.57.91a2.69,2.69,0,0,1,0,2.32A5.57,5.57,0,0,1,382.46,313.31Z" transform="translate(-354.21 -262.91)"/><path class="cls-3" d="M444.34,300.75a9.21,9.21,0,0,0-.15,2.63,10.32,10.32,0,0,0-3.2-2.71,3.31,3.31,0,0,1,0-2.36A5.83,5.83,0,0,1,444.34,300.75Z" transform="translate(-354.21 -262.91)"/><path class="cls-3" d="M455.06,312.12a7.56,7.56,0,0,0,.18,2.33,5.68,5.68,0,0,1-3.75-1.39,12.66,12.66,0,0,1,.38-2.16A10.5,10.5,0,0,0,455.06,312.12Z" transform="translate(-354.21 -262.91)"/><path class="cls-3" d="M421.87,312.1v2.33a5.46,5.46,0,0,1-3.57-.54c-.4-1.47-.33-1.87.4-2.11A12.55,12.55,0,0,0,421.87,312.1Z" transform="translate(-354.21 -262.91)"/><path class="cls-3" d="M391.69,309.41c.69.37.13,1.58.56,2.13a6.29,6.29,0,0,1-3.21,2.35,8.48,8.48,0,0,1-.4-2.12A15.44,15.44,0,0,0,391.69,309.41Z" transform="translate(-354.21 -262.91)"/><path class="cls-3" d="M467.39,303.11c-.55-.49-.28-1.47-.52-2.15a7.06,7.06,0,0,1,3.2-2.59v2.39C469.21,301.62,468.12,301.85,467.39,303.11Z" transform="translate(-354.21 -262.91)"/><path class="cls-3" d="M464.05,305.13c.2.8-.37,1.92.4,2.48a14.24,14.24,0,0,1-2.48,3.56c-.94-.5-.56-1.48-.35-2.4Z" transform="translate(-354.21 -262.91)"/><path class="cls-3" d="M376.28,305.52c.52-.66.34-1.62.4-2.48a32,32,0,0,1,2.25,3.61c-.19.8.38,1.92-.41,2.46A28.34,28.34,0,0,1,376.28,305.52Z" transform="translate(-354.21 -262.91)"/><path class="cls-3" d="M461.62,308.77c.11.8-.25,1.78.35,2.4a5.83,5.83,0,0,1-2.39,2.13c-1-.13-.5-1.3-.58-2.07A16.27,16.27,0,0,0,461.62,308.77Z" transform="translate(-354.21 -262.91)"/><path class="cls-3" d="M418.7,311.78c-.73.42-.26,1.41-.4,2.11a4.65,4.65,0,0,1-2.63-1.75,9.86,9.86,0,0,0,.19-2.44Z" transform="translate(-354.21 -262.91)"/><path class="cls-3" d="M388.64,311.77c.73.42.27,1.41.4,2.12a4.25,4.25,0,0,1-2.62.56v-2.32Z" transform="translate(-354.21 -262.91)"/><path class="cls-3" d="M432.93,302.82a11.15,11.15,0,0,1-.2-2.46,4.73,4.73,0,0,1,2.08-1.7c0,.8,0,1.61,0,2.41Z" transform="translate(-354.21 -262.91)"/><path class="cls-3" d="M356.55,310c.38.59.2,1.45.42,2.12-.7.61-1.3,1.53-2.16,1.6C354.65,310.8,354.4,311.65,356.55,310Z" transform="translate(-354.21 -262.91)"/></g></svg>