<svg id="Layer_1" data-name="Layer 1" xmlns="http://www.w3.org/2000/svg" viewBox="0 0 121.39 949.01"><defs><style>.cls-1,.cls-3{opacity:0.21;}.cls-2,.cls-3{fill:#02dac5;stroke:#02dac5;stroke-miterlimit:10;}.cls-3{isolation:isolate;}</style></defs><g class="cls-1"><circle class="cls-2" cx="94.16" cy="7.78" r="7.28"/><circle class="cls-2" cx="94.16" cy="31.97" r="7.28"/><circle class="cls-2" cx="94.16" cy="56.15" r="7.28"/><circle class="cls-2" cx="94.16" cy="80.33" r="7.28"/><circle class="cls-2" cx="94.16" cy="104.52" r="7.28"/><circle class="cls-2" cx="94.16" cy="128.7" r="7.28"/><circle class="cls-2" cx="94.16" cy="177.06" r="7.28"/><circle class="cls-2" cx="64.94" cy="31.97" r="7.28"/><circle class="cls-2" cx="64.94" cy="56.15" r="7.28"/><circle class="cls-2" cx="64.94" cy="80.33" r="7.28"/><circle class="cls-2" cx="64.94" cy="104.52" r="7.28"/><circle class="cls-2" cx="64.94" cy="128.7" r="7.28"/><circle class="cls-2" cx="7.78" cy="31.97" r="7.28"/><circle class="cls-2" cx="7.78" cy="56.15" r="7.28"/><circle class="cls-2" cx="7.78" cy="80.33" r="7.28"/><circle class="cls-2" cx="7.78" cy="104.52" r="7.28"/><circle class="cls-2" cx="7.78" cy="128.7" r="7.28"/><circle class="cls-2" cx="35.9" cy="31.97" r="7.28"/><circle class="cls-2" cx="35.9" cy="7.78" r="7.28"/><circle class="cls-2" cx="35.9" cy="56.15" r="7.28"/><circle class="cls-2" cx="35.9" cy="80.33" r="7.28"/><circle class="cls-2" cx="35.9" cy="104.52" r="7.28"/><circle class="cls-2" cx="35.9" cy="128.7" r="7.28"/><circle class="cls-2" cx="35.9" cy="152.88" r="7.28"/><circle class="cls-2" cx="35.9" cy="177.06" r="7.28"/></g><polygon class="cls-3" points="120.89 702.16 46.05 745.03 46.05 833.97 120.89 875.74 120.89 901.57 24.53 849.36 24.53 733.67 120.89 678.61 120.89 702.16"/><polygon class="cls-3" points="120.89 948.19 65.75 919.71 65.75 855.22 120.89 824.81 120.89 847.47 86.69 865.61 86.69 909.3 120.89 928.13 120.89 948.19"/></svg>