<svg id="Layer_1" data-name="Layer 1" xmlns="http://www.w3.org/2000/svg" viewBox="0 0 55.84 486.57"><defs><style>.cls-1{fill:#4b4a4c;}.cls-2{fill:#5baad1;}.cls-3{fill:#83d1f8;}.cls-4{fill:#80caf4;}.cls-5{fill:#76c5eb;}.cls-6{fill:#60add4;}.cls-7{fill:#7dc7f1;}.cls-8{fill:#66b3db;}.cls-9{fill:#7cc8f0;}.cls-10{fill:#6fbce3;}.cls-11{fill:#77c0ea;}.cls-12{fill:#5ca7d0;}.cls-13{fill:#66b1d9;}.cls-14{fill:#60add5;}.cls-15{fill:#65b0d7;}.cls-16{fill:#6fc1e9;}.cls-17{fill:#6db9e1;}.cls-18{fill:#6eb7dd;}.cls-19{fill:#72badf;}.cls-20{fill:#5facd4;}.cls-21{fill:#60afd6;}.cls-22{fill:#59a6ce;}.cls-23{fill:#57a3cb;}.cls-24{fill:#5ba8d0;}.cls-25{fill:#57a4cc;}.cls-26{fill:#d3fefe;}.cls-27{fill:#8ee9fe;}.cls-28{fill:#a8f9fe;}.cls-29{fill:#64beea;}.cls-30{fill:#83cff7;}.cls-31{fill:#89d7f6;}.cls-32{fill:#97cfeb;}.cls-33{fill:#6fbee5;}.cls-34{fill:#7ac7ed;}.cls-35{fill:#73c2e9;}.cls-36{fill:#71bfe6;}.cls-37{fill:#7ad2f8;}.cls-38{fill:#6fb9e2;}.cls-39{fill:#79c3ed;}.cls-40{fill:#76c3eb;}.cls-41{fill:#6fbce4;}.cls-42{fill:#6cb8e0;}.cls-43{fill:#75c2e9;}.cls-44{fill:#6bb5de;}.cls-45{fill:#519cc5;}.cls-46{fill:#61abd4;}.cls-47{fill:#a2fbfe;}.cls-48{fill:#94f4fe;}.cls-49{fill:#7ce2fe;}.cls-50{fill:#d1fefe;}.cls-51{fill:#85e7fd;}.cls-52{fill:#7bc8ef;}.cls-53{fill:#61add5;}.cls-54{fill:#64b3da;}.cls-55{fill:#56a5cc;}.cls-56{fill:#53a0c8;}.cls-57{fill:#6bbae1;}.cls-58{fill:#6dbee6;}.cls-59{fill:#73bde7;}.cls-60{fill:#71bde5;}.cls-61{fill:#67b6dd;}.cls-62{fill:#4d99c1;}.cls-63{fill:#4a96be;}.cls-64{fill:#4894bc;}</style></defs><path class="cls-1" d="M2543.56,263.38c0-.56,0-1.12,0-1.68V-150.14c0-.56,0-1.12,0-1.68h1a2.6,2.6,0,0,1,.11,1.3V262C2544.59,263.52,2544.59,263.52,2543.56,263.38Z" transform="translate(-2507.69 151.82)"/><path class="cls-2" d="M2535.86,279.63c2.15-.94,3.1-3,4.39-4.73.23-.31.43-.66.64-1a1,1,0,0,1,.9-.23,25.47,25.47,0,0,0,4.34.78,5.41,5.41,0,0,1,3,1.64c1.69,1.75,3.52,3.38,4.4,5.73.8,2.15,1.71,4.28,1.19,6.7-.36,1.7.43,3.3.75,4.93.13.71.29,1.41.39,2.12a4.58,4.58,0,0,1-.45,2.74,17.1,17.1,0,0,0-1.48,4.15c-.09.47-.13,1-.8,1a1.32,1.32,0,0,1-.27-1.23,7.43,7.43,0,0,0,.08-3.66.89.89,0,0,1,.19-.79c1.2-1.55,1-3.22.42-4.89a30,30,0,0,1-1.11-5.46c0-.76.2-1.51.15-2.27a2.17,2.17,0,0,0-.21-1.17c-.9-1.17-1.24-2.68-2.31-3.75-.76-.77-.94-1.92-1.74-2.7-1.37-1.32-1.7-1.4-3.28-.36-.47.3-1,.59-1.44.86a1.87,1.87,0,0,0-1.06,2.58,5.29,5.29,0,0,0,1,2c.93,1.07,1.25,2.5,2.17,3.57a.58.58,0,0,1,.06.57c-.67.32-1-.25-1.23-.61-1.42-1.84-3.09-3.45-4.55-5.24-.62-.76-1.29-1.33-2.34-.66-.3.19-.62,0-.92-.11Z" transform="translate(-2507.69 151.82)"/><path class="cls-3" d="M2508.5,330.75c-.74-.19-.85-.71-.79-1.38a16.69,16.69,0,0,1,1.89-5.76,30.76,30.76,0,0,1,5.38-8.29c.56-.59,1.19-1.25,2.16-.65a1.55,1.55,0,0,1,.19.92,16.85,16.85,0,0,1-1.75,5.5,1.74,1.74,0,0,0-.85.92,7.33,7.33,0,0,0-.49,1.16c.08.4-.77.68-.15,1.15a.61.61,0,0,1,0,.46,8.47,8.47,0,0,1-1,1.27,2.56,2.56,0,0,0-.88.85c-.46.72-1,1.38-1.5,2.07C2510.08,329.63,2509.53,330.5,2508.5,330.75Z" transform="translate(-2507.69 151.82)"/><path class="cls-4" d="M2561.45,309.18a35.76,35.76,0,0,1-9.3,14.64c-.26-.3-.1-.61,0-.91s.22-.67,0-.92a2.25,2.25,0,0,1-.24-2.56,2.22,2.22,0,0,0-.15-1.75,2.57,2.57,0,0,1,0-2.2,13.32,13.32,0,0,1,1.68-3.55,15.09,15.09,0,0,1,4.42-4.26c.26.14.27.38.26.63a1.1,1.1,0,0,1-.12.33,12.85,12.85,0,0,1-2.75,3.13c-.86.64-1,1.67-1.54,2.53a.47.47,0,0,0,0,.56c.77.83.47,1.7.1,2.57a1.26,1.26,0,0,0-.12.58c0,.24.05.5.32.58s.42-.17.59-.33a14.49,14.49,0,0,0,3.29-4.61,20.68,20.68,0,0,0,1.61-6.58,8.66,8.66,0,0,0,.21-2.27c.23-1-.08-2,.69-2.86.71.59.46,1.38.33,2.07-.24,1.38,0,2.77-.24,4.14C2560.4,308.85,2561,308.92,2561.45,309.18Z" transform="translate(-2507.69 151.82)"/><path class="cls-5" d="M2545.41,264.13a37.88,37.88,0,0,1,16.08,20.4,1.39,1.39,0,0,1,0,.35,30,30,0,0,1,1,5.21c-.19,1.62-.14,3.24-.2,4.86a4.39,4.39,0,0,0,.27,1.52,1.21,1.21,0,0,1,0,.38c-.16,1.6,0,3.2-.07,4.79a2.47,2.47,0,0,1-.51,1.68c-.19.21-.41.41-.72.33s-.37-.36-.41-.66a18.24,18.24,0,0,1,.07-3.22,18.11,18.11,0,0,0-.94-6.58c-.16-.49-.27-1-.91-1.14-.65-.32-.62-.81-.2-1.25s.78-.09,1.09.25a8,8,0,0,0,1.08,1.23,18.42,18.42,0,0,0-.18-6.58,1.75,1.75,0,0,1-.12-.32c-.17-.54-.26-1.1-.47-1.63a19.09,19.09,0,0,0-2.08-4.46A42.4,42.4,0,0,0,2547.4,267a2.21,2.21,0,0,0-1.52-.55c-.25-.24-.25-.62-.46-.89C2545.16,265.11,2544.63,264.62,2545.41,264.13Z" transform="translate(-2507.69 151.82)"/><path class="cls-6" d="M2515.25,320.94c.13-.08.34-.14.37-.25.54-2,1.42-3.91,1.52-6a20.91,20.91,0,0,0,15,.7c.49,0,.38.24.21.47s-.68.36-1,.56c-3.09,1.24-6.34,1.27-9.72,1.32a19.47,19.47,0,0,0,12.77-.66,2.64,2.64,0,0,0,1.73-.69,2.68,2.68,0,0,1,1.68-.7.55.55,0,0,1,.46.3.93.93,0,0,1-.52.62,18.83,18.83,0,0,1-13.12,2.78,45.22,45.22,0,0,0-5.45-.62c-1.63-.05-2,.25-2.72,1.7-.39.79-.29,2-1.54,2.19A1.8,1.8,0,0,1,2515.25,320.94Z" transform="translate(-2507.69 151.82)"/><path class="cls-7" d="M2557.91,307.74c-2.5,2.16-4.85,4.42-5.86,7.71a2.27,2.27,0,0,0,0,2.15,2.41,2.41,0,0,1,.07,2.26c-.25.67-.47,1.25.3,1.88s-.21,1.36-.24,2.08a34.71,34.71,0,0,1-14.63,8.89.4.4,0,0,1-.05-.32c.28-.43.76-.48,1.18-.65a6.57,6.57,0,0,0,1.52-.65c.93-.3,1.66-1,2.58-1.3a13.83,13.83,0,0,0,4.35-3.1,16.9,16.9,0,0,1,1.36-1.18,3.21,3.21,0,0,0,1.37-2.65,3.07,3.07,0,0,1,.49-1.34,3.1,3.1,0,0,0,.16-2.66,2,2,0,0,1,0-1.52c.26-.87.47-1.77.77-2.64a58.74,58.74,0,0,1,3.19-5.42c.7-1.12,2.08-1.57,3-2.48.68-.29.53-1.44,1.48-1.46.35.64-.1,1.12-.33,1.64A2,2,0,0,1,2557.91,307.74Z" transform="translate(-2507.69 151.82)"/><path class="cls-8" d="M2537.76,315.9a2.69,2.69,0,0,0-1.44.71.59.59,0,0,1-.66.05c-.08-.79.74-.75,1.07-1.17a24.44,24.44,0,0,0,5.6-3.9,14.77,14.77,0,0,0,5.21-10.12,24,24,0,0,0-1.46-11.15,9.68,9.68,0,0,0-4.76-5.61l-2.09-2.42c.31-.61.76-.46,1.19-.19a7.37,7.37,0,0,1,1.49,1.18c1.68,1.84,3.6,3.45,4.94,5.6a26.41,26.41,0,0,1,2.14,11.06,16.5,16.5,0,0,1-8.75,14.82A11.36,11.36,0,0,1,2537.76,315.9Z" transform="translate(-2507.69 151.82)"/><path class="cls-9" d="M2562.23,290.22c.07-1.82-.6-3.54-.7-5.34a26.16,26.16,0,0,1,1.83,8.34,36.26,36.26,0,0,1-1.91,16c-1.16.3-1.42,0-1.31-1.32.17-2,.27-3.92.41-5.88a1.52,1.52,0,0,1-.35-1.22A39.38,39.38,0,0,0,2560,296a25,25,0,0,1,.14,3.35c0,.45.06,1-.52,1.21a.9.9,0,0,1-.37-.83q-.06-2.75,0-5.49c0-.35,0-.81.44-.88s.6.35.71.68a14.77,14.77,0,0,1,.73,5.15c0,1.78-.4,3.55,0,5.33,0,.22,0,.48.34.67a13.07,13.07,0,0,0,1-4c0-1.51,0-3,0-4.53v-.24c-.17-1.78-.08-3.55-.1-5.33A1.49,1.49,0,0,0,2562.23,290.22Z" transform="translate(-2507.69 151.82)"/><path class="cls-10" d="M2541.32,284.71c.81-.37,1.29.28,1.74.69,2.75,2.49,3.9,5.76,4.56,9.32a22.29,22.29,0,0,1-.08,8.84,11.48,11.48,0,0,1-2.86,6c-.78.76-1.16,1.95-2.36,2.26-.15-.66.52-.88.71-1.36a2.48,2.48,0,0,1,.19-.26,3.72,3.72,0,0,0,.82-1.1,1.82,1.82,0,0,1,.29-.38,4.87,4.87,0,0,0,1.13-1.7l.15-.31a14.77,14.77,0,0,0,1.51-5.37,1.55,1.55,0,0,1,.08-.36,24.82,24.82,0,0,0-.07-5,26,26,0,0,1-1-3.79,12,12,0,0,0-1.93-3.93,19.08,19.08,0,0,1,1.35,4.39,1.36,1.36,0,0,1-.09,1.15.41.41,0,0,1-.51,0A19.82,19.82,0,0,0,2541.32,284.71Z" transform="translate(-2507.69 151.82)"/><path class="cls-11" d="M2537.52,332.45v.26a31.37,31.37,0,0,1-10.27,2,36.76,36.76,0,0,1-13.41-1.76,20.3,20.3,0,0,1-3.67-1.45c.42-.84.8-.94,1.75-.46a32,32,0,0,0,9.77,2.77,3.84,3.84,0,0,0,.48,0h.41a21.78,21.78,0,0,0,6,.1,40.15,40.15,0,0,0,4.47-.77,9,9,0,0,0,2.81-.58l.33-.13a2.86,2.86,0,0,1,.69-.2A.76.76,0,0,1,2537.52,332.45Z" transform="translate(-2507.69 151.82)"/><path class="cls-12" d="M2508.5,330.75l2.13-1.9a2,2,0,0,1,2.22.46c2.3,2.13,5.25,2.55,8.09,3.27a10.12,10.12,0,0,0,1.65.26,29.1,29.1,0,0,0,7,.16,2.37,2.37,0,0,1,.36-.09,6.68,6.68,0,0,0,1.26-.16,8.39,8.39,0,0,1,1.8-.18.31.31,0,0,1,.23.27.48.48,0,0,1-.2.32,26.43,26.43,0,0,1-11.7.51,48.54,48.54,0,0,1-5.57-1.34,7.49,7.49,0,0,1-2.48-1.14,3.13,3.13,0,0,0-4.14-.12Z" transform="translate(-2507.69 151.82)"/><path class="cls-13" d="M2509.19,331.07a2.54,2.54,0,0,1,3.78-.5,11.72,11.72,0,0,0,4.3,1.87,32.21,32.21,0,0,0,8.17,1.38,22.44,22.44,0,0,0,7.76-.89.74.74,0,0,1,.92-.08c.11.87-.75.16-.92.56a19,19,0,0,1-4.56.72,19.27,19.27,0,0,1-5.2-.05,1.41,1.41,0,0,0-1,.05h-.24c-2-.46-4-.77-5.88-1.34a13,13,0,0,1-3.74-1.44,2.42,2.42,0,0,0-2.86-.09C2509.5,331.26,2509.31,331.27,2509.19,331.07Z" transform="translate(-2507.69 151.82)"/><path class="cls-14" d="M2546.63,288.78a42.77,42.77,0,0,0-5.14-5.45c-.59-.55-1.1-1.61-2.26-1l-2.5-2.12c.31-.05.73,0,.92-.15,1-1,1.7-.22,2.31.47,1.69,1.9,3.32,3.84,5,5.75a7.12,7.12,0,0,0,.72.62c.59.26.77.84,1.06,1.33a.64.64,0,0,1,0,.47Z" transform="translate(-2507.69 151.82)"/><path class="cls-15" d="M2531.28,316.14c.15-.24.4-.21.62-.26s.61-.11.27-.51a22.62,22.62,0,0,0,8.27-5.69c.21,0,.29.09.33.26a.72.72,0,0,1-.08.32c-.29.44-.75.76-1,1.23a2.61,2.61,0,0,1-.19.27,31.09,31.09,0,0,1-3.69,2.89c-1.3.56-2.38,1.58-3.85,1.77A.88.88,0,0,1,2531.28,316.14Z" transform="translate(-2507.69 151.82)"/><path class="cls-16" d="M2545.41,264.13c-.45.56,0,.95.27,1.37.11.59-.38.95-.54,1.44-.09.19-.18.37-.28.56a7.49,7.49,0,0,0-.63,1.42,4.75,4.75,0,0,1-.52,1c-.18.26-.35.53-.5.8-.2.46-.52.91-.06,1.39,0,.67-.36,1.17-1,1.1s-.15-.8-.33-1.18a23.85,23.85,0,0,0,2.87-7.65,2.62,2.62,0,0,1,.22-.52Z" transform="translate(-2507.69 151.82)"/><path class="cls-17" d="M2509.69,331.26a1.81,1.81,0,0,1,2.42-.4,25.7,25.7,0,0,0,9,2.79,1.56,1.56,0,0,1,1.05.48,28.84,28.84,0,0,1-10.45-2.89c-.59-.31-1.13-.42-1.55.25A.51.51,0,0,1,2509.69,331.26Z" transform="translate(-2507.69 151.82)"/><path class="cls-18" d="M2540.64,310.14c-.07-.16-.13-.31-.2-.46a28.37,28.37,0,0,0,3.1-4.81c.35,0,.37.22.4.46a3.13,3.13,0,0,1-.47,1.32,21.25,21.25,0,0,1-1.83,2.85C2541.39,309.83,2541.19,310.27,2540.64,310.14Z" transform="translate(-2507.69 151.82)"/><path class="cls-19" d="M2543.76,305.34a.51.51,0,0,0-.22-.47,33.4,33.4,0,0,0,1.62-5.33l.15.13a2.84,2.84,0,0,1,.21,1.35,12.23,12.23,0,0,1-1,3.56C2544.39,304.92,2544.3,305.37,2543.76,305.34Z" transform="translate(-2507.69 151.82)"/><path class="cls-19" d="M2545,293.82h.46a1,1,0,0,1,.31.76c0,1.51.06,3,0,4.54a1.37,1.37,0,0,1-.15.38.28.28,0,0,1-.36.09l-.05,0C2545.16,297.63,2545.45,295.71,2545,293.82Z" transform="translate(-2507.69 151.82)"/><path class="cls-20" d="M2553.11,303.42c.86-.75.44-2,1-2.83s.76-2.18,1.35-3.23c.44-.78.05-2.11-.17-3.15-.5-2.27-1.29-4.45-.82-6.88.34-1.83-.63-3.53-1.22-5.24-1-2.77-3.24-4.53-5.17-6.55a3.1,3.1,0,0,0-2-.74c-1.79-.15-3.49-.66-5.25-.9l.47-.72c.47,0,1,.29,1.39-.26a.54.54,0,0,1,.55-.17c1.87.47,3.8.55,5.45,1.91,3.75,3.1,5.89,7.14,7.33,11.65a2.14,2.14,0,0,1,.11,1.06,14.24,14.24,0,0,0,.49,7.18c.8,3.06.78,3.07-.9,5.77a10,10,0,0,0-1.24,2.32,17.18,17.18,0,0,0-.75,2.23c-.31.41-.22,1.13-.94,1.22a1.25,1.25,0,0,1-.25-1,1.6,1.6,0,0,1,.07-.33,1.93,1.93,0,0,0,.29-1.05A.46.46,0,0,1,2553.11,303.42Z" transform="translate(-2507.69 151.82)"/><path class="cls-21" d="M2553.59,304.86a3.8,3.8,0,0,1,.72-2.16,31.2,31.2,0,0,1,2.37-3.86,2.59,2.59,0,0,0,.43-2.13c-.45-1.66-.83-3.33-1.21-5a7.52,7.52,0,0,1-.05-2.72,6.58,6.58,0,0,0,.14-1.66,33.17,33.17,0,0,0-2.37-6.17,12.84,12.84,0,0,0-2.48-3.7c-1.82-1.8-3.39-4.07-6.41-4.08-.88,0-1.76-.79-2.62.19-.26.29-.5-.26-.75-.4a2.93,2.93,0,0,1,.49-1.18c.49.23-.11.75.33,1.08a1.39,1.39,0,0,0,.85-1.1c-.09-.31.08-.48.31-.61a7.9,7.9,0,0,1,5,1.62,20.81,20.81,0,0,1,5.32,6.08,24,24,0,0,1,3.44,9.22c.28,1.72.39,3.45.65,5.16.21,1.33.66,2.62.84,4a2.67,2.67,0,0,1-.23,2,25.57,25.57,0,0,1-2.86,3.13c-.59.44-.72,1.29-1.05,2-.19.4-.23,1-.91.89A.41.41,0,0,1,2553.59,304.86Z" transform="translate(-2507.69 151.82)"/><path class="cls-22" d="M2546.63,288.3a5.18,5.18,0,0,1-1-1.44c-.87-1.26-1.37-2.73-2.35-3.93a6.36,6.36,0,0,1-1.2-2.58,2,2,0,0,1,1.21-2.54,12.79,12.79,0,0,0,2.23-1.36,1.57,1.57,0,0,1,2.24.19,3.76,3.76,0,0,1,1.08,1.1c.65,1.58,2.15,2.63,2.59,4.32a.9.9,0,0,0,.25.39c1.41,1.43,1.36,3.12.91,4.89a16.94,16.94,0,0,0,.77,4.84c.33,1.12.14,2.31.5,3.44.11.37-.37.68-.69.92a1.22,1.22,0,0,0-.42,1.67,3.59,3.59,0,0,1,.22,1.87,28,28,0,0,1-1.42,7.72c-.42,1.13-.53,2.64-2,3.11-.42-.56-.11-1.08.12-1.57a13.38,13.38,0,0,0,1.46-6.51c-.33.76-.42,1.57-.73,2.3s-.74,1.51-1.12,2.25c-.65,1.3-.8,2.79-1.8,4a10.94,10.94,0,0,1-2.05,2.14c-1.83,1.28-3.68,2.53-5.47,3.88a12,12,0,0,1-3.33,1.56,37.57,37.57,0,0,1-4.3,1.34,1.82,1.82,0,0,1-1.79-.26c0-.78.72-.81,1.21-.88a17.66,17.66,0,0,0,5.91-2.13,54.34,54.34,0,0,0,8.06-5.58,3.48,3.48,0,0,0,.94-1.08c1.37-2.61,2.69-5.23,3-8.26a26.16,26.16,0,0,0-.51-7.8,8.73,8.73,0,0,0-.71-1.77,8.29,8.29,0,0,0-1.13-2.75c-.05-.1-.09-.2-.13-.3A4.36,4.36,0,0,0,2546.63,288.3Z" transform="translate(-2507.69 151.82)"/><path class="cls-12" d="M2549.51,310.86c1.35-1.17,1.6-2.87,2.16-4.43.83-2.31.68-4.77,1.17-7.13a1,1,0,0,0-.27-.88c-.66-.85-.45-1.52.38-2.13.36-.26,1.52-.53.17-1.12,0,0-.07-.22,0-.31.74-1.49-.24-2.87-.29-4.3,0-1.08-.62-2.12-.17-3.22.56,1.06.36,2.27.64,3.4.32,1.31.77,2.6,1,4a3.56,3.56,0,0,1-.55,2.67c-.42.65-.71,1.2-.25,1.95s-.09,1.4-.16,2.09a19.23,19.23,0,0,0-.17,2v.24c-.14.3,0,.69-.24,1v.24c-.24.38-.08.79-.11,1.19a7.06,7.06,0,0,1-.93,3.2c-.18.46-.43.91-.61,1.39a2.2,2.2,0,0,1-.15.31c-.55.64-1,1.36-1.47,2.05a36,36,0,0,1-7.53,7.25c-1.18.88-2.32,1.81-3.55,2.63a2.43,2.43,0,0,0-1.06,2.72,15.37,15.37,0,0,1,0,4.39c0,.8-.76,1.1-1.29,1.48-.87.62-1.65,1.54-2.93,1.22h0c-.1-.77.56-1,1-1.33s1.39-.69,1.29-1.28c-.16-1,0-2.09-.74-2.94-.21-.24-.44-.47-.65-.71a2.77,2.77,0,0,1,1.35-4.69,14.22,14.22,0,0,0,5-2.63c1.77-1.35,3.58-2.66,5.28-4.1a22,22,0,0,0,3-3.51C2549,311.23,2549,310.78,2549.51,310.86Z" transform="translate(-2507.69 151.82)"/><path class="cls-23" d="M2549.51,310.86a23.9,23.9,0,0,1-7.21,7.23,32.47,32.47,0,0,1-4.72,3.22,7.18,7.18,0,0,1-1.66.6,2.37,2.37,0,0,0-1.92,1.23c-.81,1.59-.79,2,.48,3.26a7,7,0,0,1,1.12,2.31c.88,2-.56,2.34-1.59,3.12a6.63,6.63,0,0,0-.81.86,4.82,4.82,0,0,1-1.92.24l0-.17c.68-.6,1.49-1,2.19-1.63.95-.82,1-1.31,0-2.11a24.59,24.59,0,0,1-2.91-2.48,2,2,0,0,0-.25-.25c-2.33-2.37-2.36-2.64-.56-5.37-.31-.29-.69-.19-1-.16-1.78.17-3.57.17-5.34.42a6.8,6.8,0,0,0-3.34,1.47,40.17,40.17,0,0,1-6.07,3.56c-.3.16-.6.42-1,.25a.39.39,0,0,1,.05-.49,2.48,2.48,0,0,1,.94-1.2,1.92,1.92,0,0,1,2.07-1.79,3.68,3.68,0,0,0,2.27-1.45,6.88,6.88,0,0,1,6.83-2.1,17.1,17.1,0,0,0,3.93.24,1.8,1.8,0,0,1,1.47.31,8,8,0,0,0,5.05-1.08c.73-.5,1.61-.3,2.38-.69a54.08,54.08,0,0,0,5-3.42,16.06,16.06,0,0,1,1.59-1c1.7-.85,2.51-2.51,3.58-3.91.37-.48.19-1.26.54-1.93a25.61,25.61,0,0,0,2.46-6.05,10.34,10.34,0,0,1,0,4.36C2550.81,307.85,2549.87,309.25,2549.51,310.86Z" transform="translate(-2507.69 151.82)"/><path class="cls-24" d="M2530.56,320a44,44,0,0,1-6.38-.43,5.69,5.69,0,0,0-5.13,1.75,12,12,0,0,1-2.33,1.83c-.17.11-.39.31-.52.27-1.33-.48-1.64.65-2.21,1.37,0-.17,0-.34,0-.5s0-.54.12-.8.05-.83.55-1a.36.36,0,0,1,.3.11c.86-.6.93-1.64,1.31-2.49a2.75,2.75,0,0,1,3-1.75c2.85.09,5.6,1,8.47.9a18.93,18.93,0,0,0,10.5-3.37,15.3,15.3,0,0,1,2.75-1.65,16.82,16.82,0,0,0,7.84-11.75,21.07,21.07,0,0,0-.32-8.52,3,3,0,0,1-.16-1.29.54.54,0,0,1,.2-.31,3.79,3.79,0,0,1,.95,2.27c.16,1.69.7,3.31.57,5.08-.19,2.48-.29,5-1.4,7.24a21.89,21.89,0,0,0-1,2.27c-.73,2-2.48,3.09-4.06,4.24a35.71,35.71,0,0,1-6.21,4c-1.77.8-3.5,1.83-5.55,1.9A1.59,1.59,0,0,0,2530.56,320Z" transform="translate(-2507.69 151.82)"/><path class="cls-25" d="M2522.41,333.17a39.63,39.63,0,0,1-7.09-1.88,5.17,5.17,0,0,1-1.61-.94,5.47,5.47,0,0,0-3.08-1.5l1.47-2.14c.29-.09.59-.24.83.1-.28,1.54.32,2.6,2,3.6a28.24,28.24,0,0,0,5.81,1.77c.6.12,1.3,0,1.73.64A.37.37,0,0,1,2522.41,333.17Z" transform="translate(-2507.69 151.82)"/><path class="cls-26" d="M2514.27,323.61l-.27.66-.79.49.8-1.66C2514.48,323.07,2514.37,323.35,2514.27,323.61Z" transform="translate(-2507.69 151.82)"/><path class="cls-27" d="M2515,322.61h-.25c-.27-.18-.07-.5-.22-.71.19-.37.27-.82.75-1C2515.16,321.5,2515.06,322.06,2515,322.61Z" transform="translate(-2507.69 151.82)"/><path class="cls-28" d="M2514.5,321.91c.28.17.22.45.22.71l-.45,1c0-.2,0-.41-.26-.51Z" transform="translate(-2507.69 151.82)"/><path class="cls-29" d="M2512.81,326.7a.65.65,0,0,1-.71,0,1.09,1.09,0,0,1,1-.74v.48A.3.3,0,0,1,2512.81,326.7Z" transform="translate(-2507.69 151.82)"/><path class="cls-30" d="M2559.83,307.26a22.39,22.39,0,0,1-1.6,6.38,13.77,13.77,0,0,1-3.31,4.71c-.36.32-.58,1-1.16.61a1.19,1.19,0,0,1-.23-1.63c.31-.49.62-1.16.41-1.55-1.33-2.38.39-3.5,1.79-4.84.79-.76,1.46-1.65,2.18-2.48.37.42.1.82,0,1.21a25.77,25.77,0,0,1-1.42,3.28,2,2,0,0,0-.2,1.5c1.35-1.23,1.77-2.81,2.31-4.32.24-.67.4-1.37.61-2.06C2559.26,307.74,2559.25,307.23,2559.83,307.26Z" transform="translate(-2507.69 151.82)"/><path class="cls-31" d="M2559.83,307.26c-.81,1.71-1,3.65-1.91,5.33-.36.66-.77,1.29-1.18,1.92-.15.23-.37.46-.69.37s-.2-.42-.21-.68a3.14,3.14,0,0,1,.47-1.68,16.91,16.91,0,0,0,1.6-4.06h0c.21-.47.14-1,.48-1.44,0-.6.58-1,.48-1.68-.14-.47-.09-.86.46-1,.46.36.13.88.27,1.37,0-.4-.12-.84.47-.84A9.28,9.28,0,0,1,2559.83,307.26Z" transform="translate(-2507.69 151.82)"/><path class="cls-32" d="M2560.07,304.86l-.72,1.31v-1.79a6,6,0,0,1,.24-3.84c.5-1.06.13-2.18.23-3.27,0-.59,0-1.18.11-1.77.88,2.09.54,4.31.62,6.48A14,14,0,0,0,2560.07,304.86Z" transform="translate(-2507.69 151.82)"/><path class="cls-30" d="M2558.39,307a2.29,2.29,0,0,1-.48,1.44v-.72A.72.72,0,0,1,2558.39,307Z" transform="translate(-2507.69 151.82)"/><path class="cls-33" d="M2545.91,266.46c.52-.8,1-.18,1.36.11a42,42,0,0,1,5.95,5.43,34.59,34.59,0,0,1,5,6.63c.08.17.13.37.2.55.4,1.18,1.46,2.12,1.32,3.51-.54.36-.6-.2-.76-.44a17,17,0,0,1-1.26-2.57,12.3,12.3,0,0,0-1.84-2.92A47.59,47.59,0,0,0,2550,271a51,51,0,0,0-4.47-3.57A.65.65,0,0,1,2545.91,266.46Z" transform="translate(-2507.69 151.82)"/><path class="cls-34" d="M2559.59,300.54a24.68,24.68,0,0,1-.24,3.84l-.48,1c-.57.44-.51,1.33-1.2,1.68-.39-.48-.13-.91.12-1.3a5.3,5.3,0,0,0,.76-2.34c0-.56.25-1.1.34-1.65a3.8,3.8,0,0,0,.13-1.34c0-.63,0-1.25,0-1.88a30.58,30.58,0,0,0-.19-4.78,2,2,0,0,1,.29-1.83c.73-.58.93.1,1.08.54a21.06,21.06,0,0,1,1,9.25,12.88,12.88,0,0,1-.05,2,2,2,0,0,0,1.07-1.82c0-1.35,0-2.71,0-4.07,0-.38-.13-.81.24-1.12a19.14,19.14,0,0,1-.07,6.58c-.14.66-.28,1.32-.44,2-.09.37-.3.74-.7.7-.55-.06-.44-.57-.47-.95-.17-2.24.34-4.46.21-6.68-.1-1.56-.07-3.19-1-4.59a2.24,2.24,0,0,0-.42-.34Z" transform="translate(-2507.69 151.82)"/><path class="cls-35" d="M2559.11,291.9c0,2.24.41,4.47.24,6.72-.56-.06-.56-.52-.55-.89,0-2.18-.3-4.33-.47-6.5,0-.6-.35-1.53.83-1.57.52.11.77.68,1.44.87a12.43,12.43,0,0,0,.07-3.65c-.11-.54-.33-1.11.36-1.46a.88.88,0,0,1,.34.73c.14,2,.26,3.94.33,5.92,0,.41-.39.66-.76.89-.37-.56-.72-1.13-1.12-1.65-.16-.21-.26-.73-.68-.43A.61.61,0,0,0,2559.11,291.9Z" transform="translate(-2507.69 151.82)"/><path class="cls-36" d="M2561,285.42c-.14.28-.35.59-.21.9.55,1.18.14,2.41.2,3.61,0,.41.16,1-.38,1.13s-.63-.38-.88-.67a5.29,5.29,0,0,0-.41-.41,1.74,1.74,0,0,0,.87-2c-.31-1.5-.21-3.06-.66-4.54a.8.8,0,0,1,0-.69c0-1.35-1.11-2.3-1.2-3.6a11.24,11.24,0,0,1,2.16,4.56A5.87,5.87,0,0,0,2561,285.42Z" transform="translate(-2507.69 151.82)"/><path class="cls-34" d="M2562.23,290.22c.61.35.3,1,.31,1.41a17.36,17.36,0,0,1-.07,4.83c-.92-1-.26-2.24-.41-3.36A14.75,14.75,0,0,1,2562.23,290.22Z" transform="translate(-2507.69 151.82)"/><path class="cls-37" d="M2545.91,266.46a1.7,1.7,0,0,0-.24,1,.26.26,0,0,1-.29,0c-.13-.17-.08-.52-.43-.5a3.25,3.25,0,0,1,.73-1.43C2546,265.75,2545.88,266.13,2545.91,266.46Z" transform="translate(-2507.69 151.82)"/><path class="cls-35" d="M2561,285.42c-.56-.45-.48-1.08-.48-1.68A3.67,3.67,0,0,1,2561,285.42Z" transform="translate(-2507.69 151.82)"/><path class="cls-14" d="M2548.55,292.62c.18.89.38,1.78.53,2.68,1,6.05,0,11.52-4.35,16.17a17.48,17.48,0,0,1-6.49,4.43h-.48c1.54-1.12,3.29-1.9,4.79-3.1a15.71,15.71,0,0,0,6-11.48,31.23,31.23,0,0,0-1-9.73,19.24,19.24,0,0,1-.92-2.81h0c.62-.14.49.47.72.72A14.58,14.58,0,0,1,2548.55,292.62Z" transform="translate(-2507.69 151.82)"/><path class="cls-8" d="M2531.28,316.14h.72c.1.55-.34.66-.7.77a12,12,0,0,0-2,.92,26.07,26.07,0,0,0,3.91-.8c.46-.1.92-.31,1.38,0a.29.29,0,0,1,.08.32,19.28,19.28,0,0,1-8.69,1.44c-1.63-.08-3.2-.55-4.81-.74-.23,0-.4-.18-.26-.4a.9.9,0,0,1,.91-.46c2.81.55,5.53-.13,8.26-.6A8.22,8.22,0,0,0,2531.28,316.14Z" transform="translate(-2507.69 151.82)"/><path class="cls-14" d="M2534.64,317.34v-.24l.09-.14a1.36,1.36,0,0,1,.71-.35h.88A2.47,2.47,0,0,1,2534.64,317.34Z" transform="translate(-2507.69 151.82)"/><path class="cls-38" d="M2537.52,332.45h-.72c-.06-.54.41-.63.73-.79a17,17,0,0,0,3.8-2.87,15.77,15.77,0,0,0,4-7.18,12.39,12.39,0,0,1,1.94-3.9,1.07,1.07,0,0,1,.77-.51.52.52,0,0,1,.33.12.65.65,0,0,1,.06.69,8.19,8.19,0,0,0-1,3.3,14.09,14.09,0,0,1-6.21,9,13,13,0,0,0-1.38.95,8.34,8.34,0,0,0-1.15.69Z" transform="translate(-2507.69 151.82)"/><path class="cls-11" d="M2542.8,330.05c-.94.29-1.58,1.22-2.64,1.2a.84.84,0,0,1,0-.17c1.1-1.08,2.48-1.81,3.67-2.79a19.8,19.8,0,0,0,3.39-3.82,4.92,4.92,0,0,0,.9-3.25,10.21,10.21,0,0,1,1.4-5,1.59,1.59,0,0,1,1.07-.88.28.28,0,0,1,.29.17,2.28,2.28,0,0,1-.29,1.38,7,7,0,0,0-.54,3c.26,2.6-1.08,4.53-2.57,6.44C2546.17,328,2544.4,328.9,2542.8,330.05Z" transform="translate(-2507.69 151.82)"/><path class="cls-39" d="M2542.8,330.05c.65-1.14,2-1.39,2.89-2.23a14.63,14.63,0,0,0,4.07-6.32,9.64,9.64,0,0,0-.08-2.32,17.61,17.61,0,0,1,1-3.76c.11-.38.19-.78.72-.72-.16.69-.3,1.38-.49,2.07s-.59,1.54,0,2.35a1.15,1.15,0,0,1,0,1c-.73,2.28-.81,4.75-3.19,6.39-1.32.91-2.54,2.09-3.9,3A2.16,2.16,0,0,1,2542.8,330.05Z" transform="translate(-2507.69 151.82)"/><path class="cls-40" d="M2551.43,314.7l-.72.72h0a.7.7,0,0,1,0-1c.86-1.12,1.26-2.5,2.15-3.59.21-.34.37-.71.56-1.05a7.57,7.57,0,0,1,3.23-3.7c1.05-.57,1.26-1.79,1.87-2.7a.26.26,0,0,1,.32,0c.09,1.36-1.07,2.31-1.2,3.6-.73.54-1.49,1.05-2.2,1.62-1.32,1.07-1.82,2.72-2.79,4.05C2552.22,313.32,2551.85,314,2551.43,314.7Z" transform="translate(-2507.69 151.82)"/><path class="cls-11" d="M2538.72,332a1.14,1.14,0,0,1,1-.72.34.34,0,0,1,.48,0h0C2539.85,331.84,2539.23,331.81,2538.72,332Z" transform="translate(-2507.69 151.82)"/><path class="cls-41" d="M2535.84,314.45l3.6-2.88c.33.52-.09.82-.37,1.12a20.05,20.05,0,0,1-1.9,1.82,16.33,16.33,0,0,0,4.77-3.31c.38-.35.65-.95,1.34-.82,0,.68-.75.89-1,1.44a15.28,15.28,0,0,1-5.52,3.84c-.51.38-1.19.51-1.61,1-.19.12-.36.28-.61.21a1.23,1.23,0,0,0-.47,0c-.32.06-.66.14-.8-.27a.69.69,0,0,1,.35-.82A13,13,0,0,1,2535.84,314.45Z" transform="translate(-2507.69 151.82)"/><path class="cls-42" d="M2535.12,316.61a2.61,2.61,0,0,1,1.68-.95c-.21.55-.9.51-1.2,1h0A.34.34,0,0,1,2535.12,316.61Z" transform="translate(-2507.69 151.82)"/><path class="cls-43" d="M2543.28,310.38c-1.73,1.51-3.32,3.21-5.47,4.17l-.54.26c-.18.08-.41.18-.54,0s.07-.4.25-.55a7.8,7.8,0,0,0,2.46-2.68v-.23a4.16,4.16,0,0,0,1.2-1.2h0c1.17-1,1.76-2.4,2.64-3.6.42.52.07,1-.16,1.43a16.6,16.6,0,0,1-2.14,3.27c5.34-5,6.42-11.16,5-18a2,2,0,0,1-.21,1.31.22.22,0,0,1-.31,0v-.71c-.14-2.19-1.07-4.17-1.62-6.28a6.8,6.8,0,0,1,2.08,3c.57,1.71,1,3.48,1.45,5.22a25.47,25.47,0,0,1,0,5.52h0a22.79,22.79,0,0,1-1.68,5.76h0c-.4.63-.81,1.27-1.2,1.92l-.23.24C2544,309.61,2543.54,309.93,2543.28,310.38Z" transform="translate(-2507.69 151.82)"/><path class="cls-41" d="M2545.67,307l1.68-5.76A11,11,0,0,1,2545.67,307Z" transform="translate(-2507.69 151.82)"/><path class="cls-41" d="M2547.35,301.26v-5.52A12.85,12.85,0,0,1,2547.35,301.26Z" transform="translate(-2507.69 151.82)"/><path class="cls-41" d="M2544.47,308.94a3.48,3.48,0,0,1,1.2-1.92A3.44,3.44,0,0,1,2544.47,308.94Z" transform="translate(-2507.69 151.82)"/><path class="cls-41" d="M2543.28,310.38c0-.61.51-.9,1-1.2C2544.18,309.79,2543.72,310.08,2543.28,310.38Z" transform="translate(-2507.69 151.82)"/><path class="cls-13" d="M2553.59,305.34c.66-.36.57-1.1.84-1.65.87-1.77,2.53-2.86,3.72-4.35.58,0,.36.46.34.76a10.58,10.58,0,0,1-.32,1.35c-.07.23-.17.51-.37.59-1.42.52-1.91,1.94-2.88,2.9a6.34,6.34,0,0,0-1.16,2.32c-.55,1.41-1.32,2.71-1.89,4.11-.52,1-1.07,2-1.64,2.95-.54.56-1.3.95-1.55,1.77a1.68,1.68,0,0,1-.15.3,28.31,28.31,0,0,0-3.64,4.38,16.16,16.16,0,0,0-1,2.15c-.73,1.76-1.87,3.3-2.53,5.1a6.91,6.91,0,0,1-3.58,3.52c-.55.29-1.21.47-1.45,1.15h-.24a1.83,1.83,0,0,1-1.08.13c-.31-.22-.14-.43.05-.57a10.54,10.54,0,0,1,1.64-1.19,3.94,3.94,0,0,0,2.36-3.23,13.5,13.5,0,0,1,3.55-7c2-2.35,4.25-4.53,6.27-6.89a2.7,2.7,0,0,0,.48-.68,13.88,13.88,0,0,0,1.6-2.37c1.07-1.5,1.39-3.34,2.28-4.92C2553.35,305.73,2553.39,305.49,2553.59,305.34Z" transform="translate(-2507.69 151.82)"/><path class="cls-44" d="M2536.32,332.69c-.37-.81.45-.87.79-1.06a9.2,9.2,0,0,0,3.46-2.82c.13-.2.41-.35.44-.55.32-1.86,1.66-3.23,2.32-4.93a17.29,17.29,0,0,1,5.22-7.19c.36.6-.17.85-.48,1.2-.71,1-1.72,1.74-2,3a23,23,0,0,1-2.82,6.64c-1.2,2.11-3.24,3.47-5.26,4.76-.4.26-.9.34-1.22.73Z" transform="translate(-2507.69 151.82)"/><path class="cls-17" d="M2522.41,334.13a.79.79,0,0,1,.87-.22c1.78.43,3.58.14,5.36.22a15.41,15.41,0,0,1-5.29.11C2523,334.22,2522.72,334.17,2522.41,334.13Z" transform="translate(-2507.69 151.82)"/><path class="cls-38" d="M2534.88,332.69h1.2a5.39,5.39,0,0,1-2.88.72c.21-.38.75-.09,1-.48A.54.54,0,0,1,2534.88,332.69Z" transform="translate(-2507.69 151.82)"/><path class="cls-45" d="M2522.41,332.93c-1.77-.63-3.68-.72-5.44-1.42a7.11,7.11,0,0,1-2.24-1c-2.19-1.78-2.16-2.78.11-4.41a26.17,26.17,0,0,1,4.58-2.3,1.69,1.69,0,0,1,1.59.23,75.41,75.41,0,0,0,10.47,4.67,2.86,2.86,0,0,1,1.35.94,1.29,1.29,0,0,1-.08,1.92,5.29,5.29,0,0,1-2.19,1.37,1.4,1.4,0,0,0-.48.22h-.24A25.7,25.7,0,0,1,2522.41,332.93Z" transform="translate(-2507.69 151.82)"/><path class="cls-46" d="M2534.88,332.69l-.72.24h-1v-.24c1.6-.22,2.61-1.42,3.82-2.28.22-.16.12-.42.13-.65a19.45,19.45,0,0,0-.06-4.82,2.34,2.34,0,0,1,1.14-2.23,69.1,69.1,0,0,0,7.23-5.64,33.54,33.54,0,0,0,4.05-4.29.31.31,0,0,1,0,.48,8.67,8.67,0,0,1-2,2.59c-2.17,2.38-4.32,4.76-6.34,7.28a8.71,8.71,0,0,0-1.63,4c-.38,2-1,3.53-3,4.34A7.58,7.58,0,0,0,2534.88,332.69Z" transform="translate(-2507.69 151.82)"/><path class="cls-23" d="M2522.41,332.93a59.45,59.45,0,0,0,7.43.24,16.77,16.77,0,0,1-5.91.13c-.51-.07-1-.1-1.52-.13Z" transform="translate(-2507.69 151.82)"/><path class="cls-23" d="M2530.08,333.17l.24-.24a.94.94,0,0,1,1,0h0C2531,333.33,2530.49,333.12,2530.08,333.17Z" transform="translate(-2507.69 151.82)"/><path class="cls-2" d="M2547.35,289.5l-.72-.72v-.48A1.14,1.14,0,0,1,2547.35,289.5Z" transform="translate(-2507.69 151.82)"/><path class="cls-42" d="M2535.84,314.45l-1.84,1.48c-.22.18-.67.29-.48.69s.55.07.83.07c.1,0,.19.11.29.16s.11.11.08.16,0,.09-.08.09c-2,.19-4,1.09-6.16,1.1a5.5,5.5,0,0,1,2.53-1.53c.37-.12.81-.08,1-.53a9.81,9.81,0,0,0,2.55-1.16C2535,314.77,2535.3,314.35,2535.84,314.45Z" transform="translate(-2507.69 151.82)"/><path class="cls-18" d="M2540.64,310.14a1.44,1.44,0,0,1-1.2,1.2A3.45,3.45,0,0,1,2540.64,310.14Z" transform="translate(-2507.69 151.82)"/><path class="cls-47" d="M2544,268.86a3,3,0,0,1,.71-1.45c.35-.08.4.18.49.4a1.63,1.63,0,0,1,0,.54,1.47,1.47,0,0,1-.62,1,.43.43,0,0,1-.31.06C2544,269.3,2544.14,269,2544,268.86Z" transform="translate(-2507.69 151.82)"/><path class="cls-48" d="M2543,270.54l.46-.75a.86.86,0,0,1,.4.55,1,1,0,0,1,0,.53c-.15.29-.33.53-.71.49A.55.55,0,0,1,2543,270.54Z" transform="translate(-2507.69 151.82)"/><path class="cls-49" d="M2543,270.54c0,.27-.05.56.25.73.06.05.09.1.07.16s0,.08-.06.08l-.27.47c-.2,0-.49.21-.46-.19A1.92,1.92,0,0,1,2543,270.54Z" transform="translate(-2507.69 151.82)"/><path class="cls-50" d="M2543.76,270.3c-.22-.1-.24-.3-.26-.51.16-.31.32-.62.49-.93.22.09.25.29.26.5A.73.73,0,0,1,2543.76,270.3Z" transform="translate(-2507.69 151.82)"/><path class="cls-51" d="M2545,267.91a.57.57,0,0,0-.27-.5.56.56,0,0,1,.25-.48c.56-.24.48.16.48.48S2545.36,268,2545,267.91Z" transform="translate(-2507.69 151.82)"/><path class="cls-52" d="M2545.67,294.54a7.11,7.11,0,0,0-.25-2.46c3,4.08,1.29,16.57-5.39,19.95.84-1.2,1.53-2.16,2.2-3.13a4.73,4.73,0,0,0,1.05-2.36l.48-1.2a10.53,10.53,0,0,0,1.44-4.32c.31-.44-.07-1,.24-1.44h0c.27-.47,0-1,.16-1.47a13.35,13.35,0,0,0,0-3A.55.55,0,0,1,2545.67,294.54Z" transform="translate(-2507.69 151.82)"/><path class="cls-10" d="M2545.44,299.58c-.08.48.18,1-.24,1.44,0-.48,0-.95,0-1.43Z" transform="translate(-2507.69 151.82)"/><path class="cls-10" d="M2545.67,294.54V295a9.08,9.08,0,0,1,0,3.12c-.08.48.19,1-.24,1.44v-5.05Z" transform="translate(-2507.69 151.82)"/><path class="cls-53" d="M2556,287.34c.6.6,0,1.22,0,1.8a14.24,14.24,0,0,0,1.06,6.2c.9,2.31-.17,3.9-1.31,5.58-.43.62-.93,1.19-1.4,1.78.2-1.61,1.36-2.75,2.11-4.07a2.63,2.63,0,0,0,.43-2.09c-.4-1.65-.94-3.28-1.2-5A8.68,8.68,0,0,1,2556,287.34Z" transform="translate(-2507.69 151.82)"/><path class="cls-53" d="M2553.59,305.34c-.33,1.63-1.27,3-1.74,4.6a1.76,1.76,0,0,1-.9.92c.05-1.34,1.12-2.29,1.33-3.58.07-.4.4-.76.35-1.22q.12-.18.24,0c.38-.32.26-.94.72-1.2Z" transform="translate(-2507.69 151.82)"/><path class="cls-2" d="M2552.87,304.62c0-.34-.11-.71.24-1C2553.35,304.06,2553.38,304.4,2552.87,304.62Z" transform="translate(-2507.69 151.82)"/><path class="cls-2" d="M2552.87,306.06h-.24c.06-.41-.16-.87.24-1.2Z" transform="translate(-2507.69 151.82)"/><path class="cls-54" d="M2543.3,271.51v-.24l.45-.51c.28-.36.24-.94.77-1.14a8.66,8.66,0,0,1,4.41,2.19,40,40,0,0,1,6,6,7.3,7.3,0,0,1,1.85,4.37,31.3,31.3,0,0,0,1.11,7c.28,1-.13,2.08.39,3a1.31,1.31,0,0,1,.05.39c.14,2.11.64,4.18.63,6.3,0,.95.15,2-1,2.53-.1-.74.62-1.39.24-2.16.58-1.62-.15-3.12-.42-4.65a34.09,34.09,0,0,1-.6-4.63,18.41,18.41,0,0,0-.73-3.54,26.94,26.94,0,0,0-2.21-5.81,30.34,30.34,0,0,0-3.45-5.07A10.25,10.25,0,0,0,2543.3,271.51Z" transform="translate(-2507.69 151.82)"/><path class="cls-55" d="M2543.92,280.43c.08-1.17.72-1.79,2.48-2.33.91-.28,1.24.44,1.5,1,.66,1.45,2,2.37,2.69,3.87s-.19,2.2-.58,3.18c-.25.65-.54,1.08-.14,1.84s-.2,1.5-.78,1.95-1-.11-1-.58c-.1-1.32-1.15-2.05-1.73-3.06A21.93,21.93,0,0,1,2543.92,280.43Z" transform="translate(-2507.69 151.82)"/><path class="cls-2" d="M2548.55,292.62a11.39,11.39,0,0,1-1.2-3.12,4.42,4.42,0,0,1,1.2,2.88Z" transform="translate(-2507.69 151.82)"/><path class="cls-53" d="M2549.51,313.26v-.48a4.65,4.65,0,0,1,1.44-1.92A3.82,3.82,0,0,1,2549.51,313.26Z" transform="translate(-2507.69 151.82)"/><path class="cls-56" d="M2531.28,332.93h-1a8.39,8.39,0,0,0,1.87-1.23c1.06-1.1,1-2.07-.49-2.56-2-.68-3.9-1.61-5.86-2.39a46.88,46.88,0,0,1-4.93-2.42c-.43-.23-.85-.53-1.33-.28-1.79.91-3.76,1.48-5.28,2.91-1.11,1-1.21,1.3-.34,2.52l.77,1c-1.24-.29-1.57-1.59-2.47-2.28-.37-.29.61-.92.55-1.55l.24-.25c1-.53,1.93-1.08,2.91-1.6a38.63,38.63,0,0,0,4.83-3.07,7.37,7.37,0,0,1,4.5-1.08,37.92,37.92,0,0,1,4.52-.24c.23,0,.52-.07.62.22s-.15.33-.29.47c-1.8,1.78-1.86,2.53-.15,4.35a14.66,14.66,0,0,0,3.29,2.94,3.84,3.84,0,0,1,1,1,.93.93,0,0,1-.13,1.46A12.7,12.7,0,0,1,2531.28,332.93Z" transform="translate(-2507.69 151.82)"/><path class="cls-57" d="M2545,267.91l.46-.5h.24a5.47,5.47,0,0,1,2.53,1.5c1.82,1.67,3.86,3.12,5.51,4.9,1.94,2.1,4,4.24,4.89,7.08a12.45,12.45,0,0,0,1,1.88c.86,1.66.58,3.53,1,5.28-.38,1.17-.54,1.18-1.93.11-.47,1.4,0,2.8-.16,4.18a.26.26,0,0,1-.31,0c-.56-1.28-.19-2.68-.58-4-.08-.29-.12-.61-.22-.92a1.74,1.74,0,0,1,.41-2,2,2,0,0,0,.45-1.76c-.3-3.05-2-5.31-4-7.45a84.59,84.59,0,0,0-6.67-6.17c-.79-.69-1.85-.95-2.57-1.73Z" transform="translate(-2507.69 151.82)"/><path class="cls-58" d="M2558.39,292.38c.08-1.31-.4-2.57-.24-3.88,0-.34-.13-.81.27-1s.55.32.73.61c.52.82,1,.75,1.4-.09-.09.83.34,2-1.2,1.92-.49-.27-.68-.16-.74.43a16,16,0,0,0,.3,3.18c.16,1.51.17,3,.21,4.51a1.8,1.8,0,0,0,.23.52v1.92c-.3.35,0,.84-.24,1.2l-.24,1.68h-.24a.21.21,0,0,1-.32-.1,8.54,8.54,0,0,1,.05-1.6c.67-2.1.38-4.22.17-6.34C2558.43,294.38,2558,293.4,2558.39,292.38Z" transform="translate(-2507.69 151.82)"/><path class="cls-40" d="M2559.11,301.74c.06-.41-.16-.87.24-1.2C2559.29,300.94,2559.51,301.4,2559.11,301.74Z" transform="translate(-2507.69 151.82)"/><path class="cls-8" d="M2534.64,317.1v-.25l.48-.24h.48A1.32,1.32,0,0,1,2534.64,317.1Z" transform="translate(-2507.69 151.82)"/><path class="cls-59" d="M2540.16,331.25h-.48c1.1-1.26,2.65-2,3.83-3.18a12.9,12.9,0,0,0,3.82-8c.1-1,.89-1.75,1-2.74a32,32,0,0,1,2.67-4.13c.5-.75.62-1.75,1.46-2.28a1,1,0,0,1,.51-.14l.16.07c-.65,1.16-1.27,2.35-2,3.49-.21.35-.48.63-.43,1.07a4.57,4.57,0,0,0-1.73,2.81,13.79,13.79,0,0,0-.61,4.14c0,1.51-1.18,2.63-2.06,3.78a17,17,0,0,1-5,4.16C2540.92,330.57,2540.41,330.76,2540.16,331.25Z" transform="translate(-2507.69 151.82)"/><path class="cls-17" d="M2552.63,311.1c-.83,1.26-1.69,2.51-2.48,3.8a12.5,12.5,0,0,1-1.84,2.44h-.24l.48-1.2c.31-.77,1-1.25,1.44-1.92l1.68-2.88a31.24,31.24,0,0,0,1.74-3.41,18.35,18.35,0,0,1,2.29-3.92c.25-.32.49-.73.89-.75,1,0,1.27-1,2-1.28a2.57,2.57,0,0,1-.24,1.44,2.29,2.29,0,0,1-1.68,2c-1.31.46-1.74,1.95-2.48,3-.28.42-.43.93-.73,1.34a2.82,2.82,0,0,1-.23.42C2553.08,310.53,2552.82,310.79,2552.63,311.1Z" transform="translate(-2507.69 151.82)"/><path class="cls-60" d="M2553.35,309.9a14.65,14.65,0,0,1,2.3-4.1c.2-.24.47-.61.7-.61,1.25,0,1.53-1,2-1.77h.24A5,5,0,0,1,2556,307a4.33,4.33,0,0,0-1.84,2.21c-.13.3-.2.6-.53.74A.15.15,0,0,1,2553.35,309.9Z" transform="translate(-2507.69 151.82)"/><path class="cls-59" d="M2553.35,309.9h.24a1.34,1.34,0,0,1-.48,1,.57.57,0,0,1,0-.72Z" transform="translate(-2507.69 151.82)"/><path class="cls-61" d="M2558.63,302a3,3,0,0,1-1.89,1.55c-1.37.44-1.72,2.05-2.44,3.21-.94,1.49-1.35,3.29-2.63,4.6a43,43,0,0,0,2.22-5.08c.42-1.4,1.72-2.08,2.18-3.4.27-.77,1.52-.49,1.84-1.36,1.07-1.37.76-2.95.61-4.47-.12-1.29-.41-2.57-.58-3.86a2.16,2.16,0,0,1,.21-.79h.24a44.31,44.31,0,0,1,.49,7.72A7.47,7.47,0,0,1,2558.63,302Z" transform="translate(-2507.69 151.82)"/><path class="cls-44" d="M2550,314.22a4.33,4.33,0,0,1-1.44,1.92C2548.44,315.05,2549.45,314.81,2550,314.22Z" transform="translate(-2507.69 151.82)"/><path class="cls-62" d="M2519.53,331.49a9.3,9.3,0,0,1-4.76-1.68,1.44,1.44,0,0,1,0-2.43,9.71,9.71,0,0,1,3.62-1.95,2.06,2.06,0,0,1,1.6.07c3.1,1.8,6.57,2.74,9.8,4.26.57.27,1.22.54,1.16,1.17a1.82,1.82,0,0,1-1.33,1.69c-3.41.71-6.69,0-9.95-.95-.07,0-.11-.12-.16-.18.46-.43,1-.25,1.47-.1a32,32,0,0,0,5.42.94,1.09,1.09,0,0,0,.36,0c.55-.07,1.28-.06,1.44-.63s-.6-.71-1-.95a36.56,36.56,0,0,0-4.71-2.07,6.93,6.93,0,0,1-2.06-.95c-1.4-1.2-2.75-1-4.14-.05-.42.28-1,.43-1,1.09a1.19,1.19,0,0,0,1.13,1.19,7.38,7.38,0,0,1,1.66.63C2518.48,331.08,2519.39,330.69,2519.53,331.49Z" transform="translate(-2507.69 151.82)"/><path class="cls-61" d="M2545,268.38c1.83.43,3.09,1.77,4.43,2.93a47.22,47.22,0,0,1,7.16,7.32,12.26,12.26,0,0,1,2.06,5.75,1.26,1.26,0,0,1-.56,1.24,1.67,1.67,0,0,0-.53,1.93,28,28,0,0,1,.62,4.83.81.81,0,0,1-.48-.88c.14-2-.66-3.83-.83-5.75-.12-1.46-.47-2.9-.45-4.41a5.51,5.51,0,0,0-1.66-3.29,49.75,49.75,0,0,0-6-6,10.14,10.14,0,0,0-4.28-2.24.35.35,0,0,1,0-.49Z" transform="translate(-2507.69 151.82)"/><path class="cls-37" d="M2544.47,269.33v.49l-.73.94c0-.15,0-.31,0-.46.17-.31.33-.63.49-.94Z" transform="translate(-2507.69 151.82)"/><path class="cls-43" d="M2545.68,298.14V295A4.36,4.36,0,0,1,2545.68,298.14Z" transform="translate(-2507.69 151.82)"/><path class="cls-60" d="M2553.11,310.14v.72l-.48.24A1.32,1.32,0,0,1,2553.11,310.14Z" transform="translate(-2507.69 151.82)"/><path class="cls-63" d="M2519.53,331.49c-.36-.47-1.21,0-1.44-.72.62-.48,1.29-.19,1.94-.11a26.17,26.17,0,0,0,3.89.46c-2.08-1.08-4.05-2.42-6.32-3-1-.26-1.48.56-1.18,1.62a.71.71,0,0,1,0,.57,1.5,1.5,0,0,1-1.43-1.49c-.07-.81.55-1.07,1.13-1.36s1.28-.62,1.91-.95a.78.78,0,0,1,.89,0c2.75,1.88,6.07,2.53,8.91,4.22.39.23,1,.28,1,.88s-.65.74-1.13.86c-1.72.45-3.36-.17-5-.36-1.07-.12-2-.71-3.14-.62Z" transform="translate(-2507.69 151.82)"/><path class="cls-64" d="M2516.41,330.29a2.35,2.35,0,0,1-.21-.42c-.13-.47-.82-1-.32-1.38s1.3-1.1,2.16-.72c1.94.87,3.84,1.82,5.76,2.75.34.16.81.39.64.86s-.64.24-1,.18a36.7,36.7,0,0,0-5.32-.79C2517.44,330.92,2517.06,330.15,2516.41,330.29Z" transform="translate(-2507.69 151.82)"/><path class="cls-3" d="M2544.72,264.35s-.08-1.4-1.16-1" transform="translate(-2507.69 151.82)"/><path class="cls-3" d="M2544.93,263.81v0a9.41,9.41,0,0,1-1,4.39,27.16,27.16,0,0,1-1.77,3.79c-.23.39-.44.79-.64,1.2s-.31.59-.46.89a32.93,32.93,0,0,1-2.95,4.19,2.93,2.93,0,0,1-2.27,1.34c-1-.66-.55-1.59-.35-2.37a34.53,34.53,0,0,1,5.48-11.05,30,30,0,0,1,2.57-2.82,1.53,1.53,0,0,0,.65,0l.56.11h0A1.21,1.21,0,0,0,2544.93,263.81Z" transform="translate(-2507.69 151.82)"/><path class="cls-1" d="M2544.78,263.48h0l-.56-.11h0c.27-.08.41-.33.34-.84a7.69,7.69,0,0,1,0-1V243.7c.06-2.28.11-3.88.17-4.12V262.2A4.21,4.21,0,0,0,2544.78,263.48Z" transform="translate(-2507.69 151.82)"/><path class="cls-1" d="M2544.72-151.82q0,155.31,0,310.6,0,40.4,0,80.79h0c-.06.24-.11,1.84-.17,4.12q0-196.92,0-393.84c0-.56,0-1.12-.06-1.68Z" transform="translate(-2507.69 151.82)"/></svg>