<?xml version="1.0" encoding="UTF-8"?>
<svg id="Layer_1" data-name="Layer 1" xmlns="http://www.w3.org/2000/svg" viewBox="0 0 2.54 2.53">
  <defs>
    <style>
      .cls-1 {
        fill: #fff;
      }

      .cls-2 {
        fill: #3178c6;
      }
    </style>
  </defs>
  <path class="cls-2" d="m.11,2.48s-.04-.04-.06-.06c-.04-.03-.05-.07-.05-.12,0-.02,0-.05,0-.07,0-.06,0-.13,0-.19,0-.06,0-.13,0-.19,0-.06,0-.13,0-.19C0,1.59,0,1.52,0,1.46,0,1.39,0,1.33,0,1.26,0,1.2,0,1.13,0,1.07c0-.06,0-.13,0-.19,0-.06,0-.13,0-.19,0-.06,0-.13,0-.19,0-.06,0-.13,0-.19,0-.05,0-.09.01-.14.01-.02.02-.05.04-.06.02-.02.03-.03.05-.05C.15.02.2,0,.26,0c.01,0,.03,0,.04,0,.06,0,.13,0,.19,0h.19c.06,0,.13,0,.19,0,.06,0,.13,0,.19,0,.06,0,.13,0,.19,0,.06,0,.13,0,.19,0,.06,0,.13,0,.19,0,.06,0,.13,0,.19,0,.06,0,.13,0,.19,0,.06,0,.13,0,.19,0,.06,0,.12,0,.17.04,0,0,.01,0,.02.01.02.02.04.04.06.06.02.02.03.04.04.06.01.04.02.08.01.13,0,.06,0,.13,0,.19,0,.06,0,.13,0,.19,0,.06,0,.13,0,.19,0,.06,0,.13,0,.19,0,.06,0,.13,0,.19,0,.06,0,.13,0,.19,0,.06,0,.13,0,.19,0,.06,0,.13,0,.19,0,.06,0,.13,0,.19,0,.06,0,.13,0,.19,0,.05,0,.1-.02.15,0,.02-.01.03-.03.04-.02.02-.03.04-.05.05-.03.02-.07.04-.11.05-.03,0-.06,0-.09,0H.3s-.09,0-.13-.01c-.02,0-.04-.02-.06-.03Z"/>
  <path class="cls-1" d="m2.05,1.99s-.03-.06-.06-.08c-.06-.04-.13-.07-.2-.1-.09-.04-.17-.09-.21-.19-.01-.03-.02-.06-.02-.09,0,0,0-.02,0-.02v-.03s0-.02,0-.03c0-.08.04-.14.1-.19.07-.06.15-.08.23-.09,0,0,.02,0,.03,0,0,0,.02,0,.03,0,.03,0,.07,0,.1,0,0,0,0,0,0,0,.01,0,.02,0,.03,0,.05,0,.1.01.15.03.02,0,.03.02.03.04,0,.06,0,.11,0,.17,0,.01,0,.02,0,.03-.04-.02-.07-.04-.11-.05-.03,0-.06-.02-.09-.02,0,0,0,0-.01,0-.02,0-.05,0-.07,0-.05,0-.1.01-.13.05-.01.01-.02.02-.02.04,0,.01,0,.03,0,.04.02.05.05.07.09.09.05.03.11.05.17.08.07.04.14.08.19.15.03.04.04.08.04.12,0,.01,0,.02,0,.03,0,.01,0,.03,0,.04,0,.12-.07.21-.19.26-.05.02-.1.03-.15.03,0,0-.02,0-.02,0-.01,0-.03,0-.04,0-.02,0-.03,0-.05,0h0s-.02,0-.03,0c0,0-.02,0-.02,0-.08,0-.15-.02-.22-.06,0-.02,0-.05,0-.07,0-.04,0-.09,0-.13,0,0,0-.02,0-.02.05.04.11.06.17.08.02,0,.05.01.07.01,0,0,.02,0,.02,0,.01,0,.03,0,.04,0,0,0,.01,0,.01,0,.04,0,.08-.01.11-.04.02-.01.03-.03.03-.06,0-.01,0-.02,0-.04Z"/>
  <path class="cls-1" d="m.9,1.41s-.02,0-.03,0c-.09,0-.19,0-.28,0,0,0,0-.01,0-.02,0-.06,0-.11,0-.17,0,0,0-.01,0-.02,0,0,.01,0,.02,0,.28,0,.56,0,.84,0,0,0,0,0,.01,0,0,.03,0,.06,0,.09,0,.04,0,.08,0,.11,0,0-.02,0-.03,0-.09,0-.18,0-.27,0,0,0,0,0-.01,0,0,0,0,.02,0,.03,0,.28,0,.56,0,.84,0,0,0,.02,0,.03-.02,0-.04,0-.07,0-.06,0-.12,0-.18,0,0-.01,0-.02,0-.03,0-.28,0-.55,0-.83,0,0,0-.02,0-.03,0,0,0,0,0,0Z"/>
</svg>