<svg id="Layer_1" data-name="Layer 1" xmlns="http://www.w3.org/2000/svg" viewBox="0 0 517.2 561.44"><defs><style>.cls-1{fill:#21b890;}.cls-2{fill:none;stroke:#89d0c2;stroke-miterlimit:10;stroke-width:3px;}</style></defs><path class="cls-1" d="M561.45,119.22c-19.83-.11-39.67-.18-59.5-.39-2.15,0-3,1.11-4,2.6-9.43,13.74-22.37,21.66-39,23.37a5.9,5.9,0,0,1-1.1-.09c-10.86.64-21.72.18-32.58.23-.38,0-.68-.2-.81-1.36,9.37-.13,18.7,0,28-.07q-12.62,0-25.22,0c-1.08,0-3-.2-1.9-1.56,2-2.38,2-6.32,6.47-7.15-2.35-1.63-5.73-1.16-5.36-5.39-2.3,3.89-2.3,3.89-7.82.87,2,2.88,2.12,5-1.05,6.55-1.53.75-1.81,2.63-2.11,4.24-.33,1.83-1.31,3.28-3.18,3-3.3-.53-6.23,1.07-9.47,1.05-19.74-.15-39.48-.07-59.22-.09-1.36,0-2.75.28-4.07-.29-16.09-1.07-28.73-8.5-38.16-21.29-2.48-3.37-4.83-4.69-9.07-4.6-15.48.31-31,.56-46.47,0-17.39-.65-28.73,12.74-28.43,28.13.46,23.85.12,47.72.11,71.59,0,1.37-.09,2.74-.14,4.11-3.15.48-6.27.84-7.7-3.07-1.49,3.25-2.26,3.54-4.63,1.21a9.69,9.69,0,0,0-4.78-2.63l-.15-74.19a41.81,41.81,0,0,1,.75-7.8c3.62-19.6,21.53-34.76,41.59-34.92,15.49-.12,31-.07,46.47,0,2.4,0,3.47-.24,2.49-3-.88-2.49-.68-5.21-.4-7.81a10.84,10.84,0,0,1,11.09-9.55q27.54-.08,55.09,0c2.55,0,3.6-.35,3.79-3.28.69-10.45,2-20.86,2.65-31.31,1.45-22.68,25.28-39.09,45.8-31.36.4,2.39-.63,4.61-.8,6.94-.07.92-.69,1.87-1.6,1.81-3.68-.24-6.92,3.82-10.82.68-.89,3,5.7,4.34,1.24,7.59-1.58,1-3.54,1.11-5.19,2-5.64,3.2-7.52,8.3-7.4,14.44-.21,3-1.76,3.55-4.3,2.35a28.21,28.21,0,0,0-4.4-2c-2.19-.59-3.36.47-2.47,2.51a55.82,55.82,0,0,0,4.93,10c-.1-6.16,3.84-6.58,7.79-7,1.32.21,2.15,1.19,3.11,2,8.71,7.19,20.46,3.24,23-7.76.79-3.35-.24-6.42-1.8-9.33a25.73,25.73,0,0,1-2.06-3.56c-.31-3.25,1.55-6.52-.22-9.83-.51-1,.63-1.76,1.52-1.36,3.71,1.68,6.43.07,9-2.34a2.21,2.21,0,0,1,2.45-.4c8.07,6.63,11.76,15.45,12.69,25.6s1.81,20.06,2.57,30.1c.2,2.68,1,3.67,3.92,3.6,8.58-.2,17.17,0,25.76.06,3.51,3.3,4.71,8,7,12,1.29-.3,1.05-1.14.95-1.82-.43-3,1.3-4.39,3.85-5,1.47-.35,2.93-.26,2.94-2.48,0-1.15,1.36-1.25,2.34-1.43A14.41,14.41,0,0,0,488.15,81c2.24,0,4.48-.14,6.72-.13,7.56,0,12,4.53,12,12.06,0,.88-.11,1.75,0,2.62.15,1.89-1.92,4.16-.3,5.42,1.18.91,3.6.22,5.47.22,14.7,0,29.41-.05,44.11,0a36.42,36.42,0,0,1,15.24,3c1.77,4.85,6.27,7.21,9.63,10.85,1.07-1.24-.37-4.14,2.62-3.56,9.43,7.44,15,17.36,15.31,29.13.61,22,.14,44.13.12,66.2-2.57,1.8-3.28,4-1.27,6.64,1.24,1.64.68,3.61,1.27,5.36q.08,32.6.18,65.2c0,1.81-.53,2.35-2.32,2.29-4-.13-8-.22-12,0-2.77.18-3.22-.88-3.21-3.37q.12-49.47,0-98.95c0-12.37-.13-24.74,0-37.11.15-10.57-3.93-18.79-12.73-24.66-.07-2.8,1.75-2.14,3.27-1.68,2.31.7,4.07.12,5.89-2.29-2.38.28-4.31,1.48-6.08-.06s-1.47-3.48-.4-5.61c-1.16.46-1.3,1.22-1.71,1.77-1.22,1.59.1,4.78-2.75,5.14A19,19,0,0,1,561.45,119.22Z" transform="translate(-200.08 -13.01)"/><path class="cls-1" d="M492.65,574.29c-6.73.06-13.46.16-20.2.16q-109.51,0-219,0c-1,0-2-.1-3-.15-.24-1.33,1-1.57,1.67-2.19,2.63-2.39,2.71-3.53.22-6.2-2-2.09-4.1-4-5.91-6.24-.6-.74-1.61-1.29-1.23-2.51h6.74c.5,1.87-.26,3.88,1.46,5.65,2.47,2.53,4.72,2.87,7.29.36a4.46,4.46,0,0,0,1.39-1.72c.91-3.28,3.31-4.24,6.36-4.29,5,0,10-.15,15-.15H503.56c.86,0,1.73.1,2.6.15,2.72,1.21,4.4,3.63,6.49,5.57,2.76,2.56,4.18,2.32,6-1.06.81-1.52,1-3.38,2.52-4.52,11,0,22-.12,33-.15,16.71,0,27.67-10.91,27.59-27.69,0-3,.54-4.2,3.8-3.92a106.85,106.85,0,0,0,11.6,0c1.55,0,2,.31,2.15,2,1.7,26.07-17.83,47-44,47-17.1,0-34.2-.08-51.3-.13-2.44-.5-3.93-2.33-5.63-3.93-1.28-1.2-2.23-2.9-4.64-3.41C494.34,569.75,495.76,572.46,492.65,574.29Z" transform="translate(-200.08 -13.01)"/><path class="cls-1" d="M217.36,224.88c0,2.12.13,4.24.13,6.36q0,114.75,0,229.51c0,1.37-.09,2.74-.14,4.11-1.17,1.23-.85,2.72-.74,4.19.07,1,.18,2.13-1,2.56s-1.85-.34-2.6-1-1.42-2.05-3.11-2.23c-.06,2.64,2.22,3.6,3.52,5.12s3.07,2.86,3.87,4.88v1.5c-1,.87-2.37.66-3.43,1.36-1.45,1-3,1.36-4.46,0s-1.18-2.9-.62-4.51a2.71,2.71,0,0,0,.2-1.8c-2,.94-2.47,2.51-2.47,4.43,0,4.2,0,4.19-4,3a4.46,4.46,0,0,1-2.35-1c-.06-4.36-.15-8.72-.15-13.09q0-110.44,0-220.91c0-1.49.1-3,.16-4.48.34-4.5.52-9.11,6.74-9.45.39,0,.78-.59.9-1.19-.43-.84-1-.23-1.44,0a3.27,3.27,0,0,1-4.11-.49,2.86,2.86,0,0,1-.87-4c1-1.71-.36-2.13-1.22-2.9v-4.49c2.33-.16,3.44,1.65,4.78,3a41.44,41.44,0,0,0,4.84,4.62,1.42,1.42,0,0,0,1.33.42C211.1,223.9,211.58,223.62,217.36,224.88Z" transform="translate(-200.08 -13.01)"/><path class="cls-1" d="M246.68,574.29l-2.25,0c-1.87-.89-4-1-5.82-2.09-2.28-1.41-4.32-1.33-6.18.69-14.31-2.34-28.28-16.82-31.49-32.47a62.48,62.48,0,0,1-.85-13c0-9.84.1-19.68.15-29.53.89-1,1.15-2,0-3v-1.49a3.72,3.72,0,0,1,2.36-1c3-.36,4.71-2.09,4.85-5.13.12-2.59,1.2-4.05,3.93-3.61,2.26.36,3.8-1.8,6-1.54q.07,23,.14,45.94c0,17.73,9.23,27.7,26.93,29.09.2,3.61,1.43,7.11-.12,10.84C243.33,570.34,246.59,571.89,246.68,574.29Z" transform="translate(-200.08 -13.01)"/><path class="cls-1" d="M461.87,479.85c.15,1.12,1.66,2.53-1.27,2.52-29.1-.1-58.2-.05-87.3-.07-3.92,0-6.33-2.06-6.49-5.26s2.37-5.81,6.36-5.82q41.77-.08,83.56-.05c1.25,0,2.29,0,2.29,1.65C458.83,475.63,459.37,478.14,461.87,479.85Z" transform="translate(-200.08 -13.01)"/><path class="cls-1" d="M412.79,354.82c13.11,0,26.22.06,39.33-.06,2.66,0,3.28.41,2.18,3.06-3.37,8.09-3.28,8.14-12,8.14H374.09c-4.7,0-7.31-2-7.29-5.56s2.76-5.58,7.4-5.59q19.31,0,38.59,0Z" transform="translate(-200.08 -13.01)"/><path class="cls-1" d="M532.05,239c3.5.57,4.35,3.1,4,6-.32,2.78-2.24,4.4-5.07,4.56-2.24.13-4.49.05-6.73,0l-74.36-.13c-1.23-1.83-.64-3.87-.64-5.82,0-1.1.6-2.08,1.77-2,3.51.11,6.67-1.53,10.24-1.5,19.84.18,39.68.08,59.52.1a10.87,10.87,0,0,1,2.46,0H457.63c.8-1.86,1.81-1.45,2.58-1.45q35,0,70,0A5.44,5.44,0,0,1,532.05,239Z" transform="translate(-200.08 -13.01)"/><path class="cls-1" d="M431.9,249.53l-59.34.14a5.21,5.21,0,0,1-5.64-4.84c-.35-2.74.79-5.09,3.92-5.79a7.59,7.59,0,0,1,3-.27q39.3,0,78.62,0c1.05,0,2.21-.36,3.41.7-1.21,1.63-3,1.66-4.58,1.5-9.56-.93-19.15-.73-28.73-.73q-23.14,0-46.27,0c22.43,0,44.87,0,67.68.53-4.23,1.81-2.52,6.17-4.52,8.76h-1.5a7.69,7.69,0,0,0-2.53-2C433.46,246.9,432,247,431.9,249.53Z" transform="translate(-200.08 -13.01)"/><path class="cls-1" d="M439.41,249.54v-4.12c0-2.48.14-4.82,3.63-4.81H372.71V240H455V239H370.84c1.23-.91,2.65-.53,4-.53q76.8,0,153.62,0c1.21,0,2.51-.34,3.6.56H458.37v.73H527l0,.86H461.13c-1.75,0-3.72-.57-4.8,1.59-.13.26-.64.36-1,.47-4.51,1.48-4.51,1.47-5.43,6.84Z" transform="translate(-200.08 -13.01)"/><path class="cls-1" d="M339.51,144.7c21.48,0,43,.07,64.46-.22,3,0,6.06-1.66,9.33-1.43,1.56.1.74-1.59,1-2.38.81-2.47.92-5.29,4.31-5.83,1.37-.21,1.21-1,.5-1.84-.49-.57-1.1-1-1.53-1.64-.55-.77-1.52-1.64-.66-2.62,1-1.14,2-.3,2.94.39s1.93,1.11,2.45,2.22c.25.54.68,1.13,1.44.88s.59-1,.65-1.59a12.29,12.29,0,0,1,.1-1.49c.23-1,.79-2.07,1.89-2s1.05,1.27,1,2.15c-.09,1.9,0,3.59,2.65,3.32,1.57-.16,3.53.1,3.53,1.85s-1.94,1.94-3.51,1.89a12.33,12.33,0,0,0-1.42.16c.94,1.74,1,3.34-1,4.15-.95.37-2.15.66-1.74,1.92.33,1,1.53.48,2.33.49,8.24,0,16.49,0,24.73,0a3.16,3.16,0,0,1,2.16.64h-29.7v.92h32.42c-1.4.78-2.93.51-4.4.52q-54.56,0-109.11,0C342.69,145.23,341,145.42,339.51,144.7Z" transform="translate(-200.08 -13.01)"/><path class="cls-1" d="M421.47,21.63a13,13,0,0,0-3.1,2c-2.65,3.14-5.6,3.28-9.92.57,3.15,4.25,1.26,7.72.85,11.21-4-1.26-7.94-2.69-11.89-4.12.79-1,1.51-1.86-.2-2.86a8.76,8.76,0,0,1-2.51-2.72c-.58-.84,0-1.63.6-2.32.84-.94,1.56-.58,2.17.19,1.33,1.69,2.72.49,4.2.52,6.86.12,6.24-5.26,7.74-9.17A25.88,25.88,0,0,1,421.47,21.63Z" transform="translate(-200.08 -13.01)"/><path class="cls-1" d="M539,526.4c1.53-.49,2.17-2,3.05-3.06,1.7-2.12,3.39-3.42,6.34-2.58,2.72.77,1.89-1.6,1.94-2.83.08-2.33-.05-4.66,3.07-5a2.34,2.34,0,0,1,1.73.41c.5.51,0,1.14-.45,1.58-1.45,1.43-1.92,3-.3,4.53,1.78,1.73,3.05.73,4.29-.8a1.47,1.47,0,0,1,2-.11c.92.64.68,1.42.29,2.3a5.14,5.14,0,0,1-6.78,2.59c-.66-.33-1.19-1.08-1.89-.33-.54.58.11,1.11.43,1.61,1.82,2.81-.69,4.59-1.62,6.74Z" transform="translate(-200.08 -13.01)"/><path class="cls-1" d="M319.49,296.85q-22.26,0-44.52.06c-1.82,0-3.46-.08-5.08,1.51-1.78,1.75-4.48.34-6.79.51,1.2,3.48-.27,8.16-3.83,9.65-2.39,1-2.06,2.41-2.06,4.05q-.09,23.39-.12,46.76c-.79-.82-.61-1.86-.61-2.84,0-16.87,0-33.74,0-50.6,0-6.13,3.41-9.57,9.49-9.61,17-.1,34,0,51-.06A3.4,3.4,0,0,1,319.49,296.85Z" transform="translate(-200.08 -13.01)"/><path class="cls-1" d="M217.36,482.11c-2,1.56-3.89,3.42-6.9,2.38-1.34-.47-1.86.48-2,1.84-.86,6.33-1.71,7-8.19,7v-12c1.89,0,3.85-.3,6.16,2-1.2-4-1.34-6.85,1.28-9.09.8-.68,1.48-1.32,2.55-.43s.86,1.58,0,2.45c-1.3,1.3-1.6,3-.41,4.33,1.4,1.59,2.95.71,4.12-.6s2.29-.11,3.43-.12Z" transform="translate(-200.08 -13.01)"/><path class="cls-1" d="M488.15,81A4.86,4.86,0,0,1,484,83.14c-1.35.08-2.91-.35-1.62,2.14.67,1.29-1.12,1.47-2.23,1.62-2.86.4-6.63-.05-4.33,5,.51,1.11-.91,2-1.8,2.56-1.17.76-1.56-.44-1.78-1.18-1.3-4.42-4.38-8-5.87-12.29Z" transform="translate(-200.08 -13.01)"/><path class="cls-1" d="M318.18,413H280.72c.5,2.15,1.84,1.23,2.74,1.84-1.9.68-2.73,2.31-3.59,3.85-1.57,2.79-4.13,3-6.79,2.57a4.79,4.79,0,0,1-4.05-4.36c-.22-3.77-2.38-4.05-5.2-3.86,4.42-1,8.89-.27,13.33-.32,12.83-.13,25.66-.08,38.49-.07A18.31,18.31,0,0,1,318.18,413Z" transform="translate(-200.08 -13.01)"/><path class="cls-1" d="M246.68,574.29c-3.13-2.76-4.69-5.85-2.32-9.94.37-.64.88-1.7,0-2.38-2.16-1.68-.7-3.23.07-4.83h.76c2.57,2.67,5.11,5.36,7.7,8,3.65,3.75,3.39,5.48-1.28,8.24a14.3,14.3,0,0,0-1.17.88Z" transform="translate(-200.08 -13.01)"/><path class="cls-1" d="M644.88,293.13c-2.13,1-1.36,2,.15,2.65,2.7,1.2,3.86,3.88,5.57,5.92s-1,3.77-2.12,5.25c-1.44,1.94-3.89,1.63-5.82.62-3.64-1.89-4.53-4.65-3-8.46.53-1.31,1.16-2.55.14-3.86-1.23-1.57-.28-2.71.69-3.87A11.83,11.83,0,0,1,644.88,293.13Z" transform="translate(-200.08 -13.01)"/><path class="cls-1" d="M217.36,224.88c-1.73.88-3.54.45-5.24.11-.19.41-.41.65-.36.82.37,1.32,2.2,2.66.55,3.94s-2.66-.72-3.73-1.52c-3.05-2.31-5-5.77-8.34-7.84v-2.26c2.79-2,3.86.57,5.37,2,.6.58,1.1,1.58,2.06,1.35,1.15-.28.67-1.42.76-2.22.13-1,.09-2.25,1.39-2.21s.84,1.32.85,2.09c0,2.14,1.19,2.82,3.11,2.72a5.7,5.7,0,0,1,3.57.74Z" transform="translate(-200.08 -13.01)"/><path class="cls-1" d="M268.43,557.16c-2.53.66-4.44,1.61-5.49,4.54A6.16,6.16,0,0,1,256.3,566c-2.63-.35-3.47-2.73-4.81-4.68s.73-2.73.44-4.12Z" transform="translate(-200.08 -13.01)"/><path class="cls-1" d="M521.15,557.15c-2.94,10.09-4.74,10.59-12,3.31-1.05-1.05-2-2.2-3-3.3Z" transform="translate(-200.08 -13.01)"/><path class="cls-1" d="M561.45,119.22c1.81,0,3.49-1.19,5.45-.3,1,.47,1.41-.57,1.49-1.55.1-1.19-.26-2.44.77-3.51s1.39-3.94,3.6-2.69c1.7,1-.62,2.18-1,3.32a2.57,2.57,0,0,0,.63,3,2.62,2.62,0,0,0,3.4.45c1.17-.7,2.6-2,3.48-.32s-1,2.61-2.17,3.42c-1.56,1.13-3.41,1.76-5.18.43-1.45-1.08-2.23-.54-2.88.83Z" transform="translate(-200.08 -13.01)"/><path class="cls-1" d="M583.62,111.55c-1.42.57-1.92,1.45-1.08,2.9.36.63.74,1.34-.29,1.84a1.3,1.3,0,0,1-1.65-.34c-3.26-3.21-6.79-6.13-9.75-9.67-1-1.17.14-1.41.52-2A30.17,30.17,0,0,1,583.62,111.55Z" transform="translate(-200.08 -13.01)"/><path class="cls-1" d="M200.24,224.88c1.68.35,6-1.09,2,3.06a1.79,1.79,0,0,0,.33,2.91c.94.62,1.73,2.08,3.19.81,1.1-1,2.44-2.56,3.65-.63,1.06,1.71-1.29,3.35-2,3.33-6.15-.16-5.68,4.94-7.15,8.51Z" transform="translate(-200.08 -13.01)"/><path class="cls-1" d="M217.35,478.35c-2.6-2.51-5.21-5-7.81-7.53-1.09-1.06-1.74-2.47-.53-3.61s2.2.3,3.14,1a6.59,6.59,0,0,1,1,1.08c.61.76,1.11,2.08,2.21,1.64s.58-1.76.31-2.64c-.52-1.73-.22-2.93,1.66-3.44Q217.36,471.6,217.35,478.35Z" transform="translate(-200.08 -13.01)"/><path class="cls-1" d="M492.65,574.29c.65-2,2.59-3.89-.14-5.87-.92-.66-.2-1.55.44-2.21,1.13-1.18,1.95-.46,2.83.37,2.69,2.59,5.41,5.15,8.12,7.71Z" transform="translate(-200.08 -13.01)"/><path class="cls-1" d="M232.43,572.87c.82-2.94,2.39-3.91,5.18-2.07,2.14,1.4,5.07,1.28,6.82,3.47A26.18,26.18,0,0,1,232.43,572.87Z" transform="translate(-200.08 -13.01)"/><path class="cls-1" d="M599.05,218.88a33.34,33.34,0,0,0-2.8-6.29c-1.8-3.2-.93-4.82,2.8-5.71Z" transform="translate(-200.08 -13.01)"/><path class="cls-1" d="M431.9,249.53c-1.88-1.27-1.35-2.45.29-3.31,1.87-1,5.12,1,5.72,3.32Z" transform="translate(-200.08 -13.01)"/><path class="cls-1" d="M657.72,298.34c-3.75,2-6.49-.86-9.5-2.13-1.31-.55.38-1,.4-1.52A41.93,41.93,0,0,1,657.72,298.34Z" transform="translate(-200.08 -13.01)"/><path class="cls-1" d="M317.93,365.8c1.78-2.35,3.91-4.16,7-4.33A6.17,6.17,0,0,1,317.93,365.8Z" transform="translate(-200.08 -13.01)"/><path class="cls-1" d="M461.87,479.85c-3.76-1.33-4.5-3.16-2.85-7A20,20,0,0,1,461.87,479.85Z" transform="translate(-200.08 -13.01)"/><path class="cls-1" d="M200.24,494.85c.69.09,1.75-.22,1.86.71a1.94,1.94,0,0,1-1.86,2.29Z" transform="translate(-200.08 -13.01)"/><path class="cls-1" d="M657.72,298.34c3.29.48,1.42,2.78,1.14,4Q655.78,316.2,652.3,330c-.49,1.94-.34,3.11,1.33,4.42a76.1,76.1,0,0,1,10.7,10.46,3.24,3.24,0,0,0,3.86,1.1c9.75-2.58,19.59-4.82,29.34-7.4,2-.52,2.6,0,3.3,1.62q7.9,18.77,16,37.45c.83,1.91.51,2.79-1.26,3.85-8.46,5.06-16.81,10.3-25.25,15.39a3.88,3.88,0,0,0-2.23,4.15,124.92,124.92,0,0,1,.17,14.22,4.44,4.44,0,0,0,2.53,4.72c8.2,4.76,16.25,9.77,24.44,14.54,1.93,1.12,2.58,1.95,1.61,4.28-5.12,12.3-10.05,24.68-15,37.05-.73,1.86-1.32,2.67-3.7,2-9.27-2.42-18.64-4.43-27.94-6.74-2.46-.61-4.09-.31-5.74,1.85a57.28,57.28,0,0,1-9.75,9.81,3.09,3.09,0,0,0-1.18,3.82c2.56,9.75,4.83,19.58,7.4,29.34.51,1.91.14,2.54-1.61,3.27q-18.78,7.88-37.46,16c-1.86.81-2.78.54-3.82-1.19-5.07-8.45-10.31-16.81-15.38-25.27a4.52,4.52,0,0,0-4.74-2.57,129.16,129.16,0,0,1-13.49.06,4,4,0,0,0-4.13,2.34c-5,8.5-10.17,16.89-15.14,25.41-1.16,2-2.16,2.59-4.36,1.51-3.12-1.54-6.42-2.72-9.64-4.05,0-2.63,1.58-5,.54-7.93-.54-1.52,1.49-1.47,2.73-1.08,2.43.77,4.24.17,5.84-2.82-2.5.94-4.41,2.29-6.35.47s-1.16-3.59-.29-6.08a3.39,3.39,0,0,0-2.29,3.65c0,2.87-.86,4.4-4.18,4-2.95-.34-4.47,2.07-5.76,4.22-.77,1.28-1.51.76-2.39.53-5.33-2.06-10.63-4.2-16-6.13-1.91-.68-1.56-1.71-1.22-3.15,2.35-9.8,4.54-19.65,7-29.43.49-2,.31-3.14-1.32-4.44a70.27,70.27,0,0,1-10.13-10c-1.11-1.33-2.08-1.56-3.82-1.1-9.74,2.59-19.56,4.91-29.31,7.45-2.08.54-3.08.15-3.94-1.9q-7.69-18.45-15.66-36.78c-1-2.3-.36-3.26,1.56-4.41,8.23-4.95,16.35-10.09,24.59-15,2-1.21,3-2.38,2.78-5a116.56,116.56,0,0,1-.07-13.48,3.7,3.7,0,0,0-2.12-3.84c-8.6-5.05-17.07-10.33-25.72-15.3-2.13-1.23-2.36-2.26-1.48-4.38,5-12.2,10-24.42,14.8-36.71,1-2.52,2.19-2.72,4.46-2.16,9.31,2.29,18.68,4.35,28,6.71,2.27.58,3.56.27,5.11-1.53a105.71,105.71,0,0,1,9.43-9.62c1.64-1.48,1.93-2.65,1.37-4.78-2.48-9.37-4.56-18.85-7.1-28.21-.68-2.5-.27-3.42,2.07-4.39q18.27-7.58,36.4-15.51c2.23-1,3.23-.53,4.41,1.45,5,8.34,10.21,16.56,15.21,24.9,1,1.74,2.13,2.46,4.16,2.21a54.28,54.28,0,0,1,6-.14c3.73-.07,8.18,1.09,11-.55s4-6.1,5.89-9.31c3.57-6,7.18-12,10.75-18,.74-1.25,1.32-2.15,3.13-1.37,7.07,3,14.21,5.91,21.33,8.84-.1,3.58.49,7.11-.42,10.77-.56,2.29,1.73,4,4,4.79,2,.7,3.59-.18,4.81-1.9,1.11-1.56,1.13-2.88-.21-4.33s-2.61-3.32-4.45-4.48a2.14,2.14,0,0,1-1-2.58c.28-.92.91-1.08,1.7-.52a8,8,0,0,1,3.74,1.56C650.94,297.68,654.36,297.94,657.72,298.34ZM529.55,417.22a20.87,20.87,0,0,1,.22,3.35,4.14,4.14,0,0,0,1.2,3.76c.15.19.38.36.45.58,8.14,27.14,29.17,44.09,57,45.37a57.23,57.23,0,0,0,43-15.71c3.44-3.31,6.62-7,6.62-7,.5-.54,1-1,1.49-1.62,5.69-7.32,9-15.72,11.32-24.61,2.1-6.68,1-13.48.77-20.24-.27-1.21-.58-2.41-.8-3.63-6.62-35.62-44-58.17-78.42-46.83-26,8.55-39.81,27.36-43.16,54.22-.55,1.95-.12,3.94-.26,5.92" transform="translate(-200.08 -13.01)"/><path class="cls-1" d="M671.85,400.41c-.93-3.2-1.12-5.63.7-7.77.76-.89,1.68-1.7,2.88-.89,1.44,1,.54,1.94-.3,2.73-1.43,1.37-1,2.73.09,3.94,1.28,1.42,2.54,1.12,3.78-.24.89-1,2-1.12,2.89,0s.16,1.94-.74,2.82c-2,2-5.38.63-6.81,2.06s0,4.48-1.8,6.63c-2.16,2.6-4.65,1.51-6.8.86-2.91-.88-3.66-3.94-3.3-6.42a5.27,5.27,0,0,1,4.85-4.5A10.19,10.19,0,0,1,671.85,400.41Z" transform="translate(-200.08 -13.01)"/><path class="cls-1" d="M643.86,310.48c-.27,1.18-1.23,1.36-2.27,1.38-3.62.09-6.69.65-5.08,5.56a1.46,1.46,0,0,1-2.73.89,55.61,55.61,0,0,1-5.13-12.09c-.55-1.67,2-3.44,3.58-2.3,3.18,2.31,6.93,3.11,10.27,4.9C643.16,309.18,643.84,309.52,643.86,310.48Z" transform="translate(-200.08 -13.01)"/><path class="cls-1" d="M674.68,384.79c1.54.25,2.15,1.64,3.21,2.45.75.57,1.21,1.85,2.37,1.44s.47-1.52.64-2.31a9.56,9.56,0,0,1,.44-1.79c.28-.69.66-1.44,1.59-1.26s1,1.06.92,1.78c-.55,3.41,1,4.46,4.2,4.06,1.15-.15,2.43.22,2.28,1.73a2,2,0,0,1-2.29,2c-1.82-.11-3.41-.34-2.47,2.62.33,1-1.34,2.5-2.88,1-3.05-2.93-6-5.94-9-8.95C672.19,386,673.73,385.49,674.68,384.79Z" transform="translate(-200.08 -13.01)"/><path class="cls-1" d="M563.5,513.34c-.2,1.67,2.81,2.38.68,4s-2.63-.26-3.76-1.42c-2.24-2.31-4.72-4.38-7.09-6.57-1-.88-1.85-1.74-.51-3.1s2.18-.5,3.1.45c.61.63,1.24,1.24,1.86,1.85,1.47,1.45,2.33,1.38,2.38-.92,0-1.23-.1-2.89,1.67-2.72,1.4.13,1.2,1.45,1,2.68-.4,2.46,1.37,2.72,3.24,3,1.25.2,3.66-1.09,3.48,1.3-.15,1.84-2.46,1.64-4.07,1.63A15.91,15.91,0,0,1,563.5,513.34Z" transform="translate(-200.08 -13.01)"/><path class="cls-1" d="M650.91,421.36a97.88,97.88,0,0,0,.77-20.24,41.7,41.7,0,0,1,.71,15.22c4.61-2.77,7.77-1.9,8.67,2.13.58,2.63-2.95,6.82-5.57,6.63a2,2,0,0,1-1.91-.94c-.5-1,.43-1.26,1-1.68.7-.52,1.45-1,2.15-1.48.52-.4.9-.92.55-1.6a1.42,1.42,0,0,0-1.84-.87C653.85,419.35,652.41,420.4,650.91,421.36Z" transform="translate(-200.08 -13.01)"/><path class="cls-1" d="M658,406.26c1.15.1,3.29,0,3.59,3.08a3.8,3.8,0,0,0,3.43,3c1.14.19,2.54.44,1.92,2-.47,1.14-1.08,2.62-2.87,2.5-2.16-.14-9-6.47-9.24-8.6C654.61,406.43,655.2,405.58,658,406.26Z" transform="translate(-200.08 -13.01)"/><path class="cls-1" d="M330.71,109.41c0,1.49,0,3,0,4.48-2.62-.19-5,1.4-7.87.43-1.52-.52-.87,1.19-.67,2.08.68,3.08-.23,5.37-3.32,6.55s-5.67,0-7.32-2.65-1.27-5.47,1.31-7.64c.47-.39,1.14-1,1.56-.88,3.84,1,4.79-1.11,5-4.34a4.87,4.87,0,0,1,1.16-2.31c.81-1.11,1.79-2.4,3.34-1.23s.19,2-.55,2.74a2.56,2.56,0,0,0,3.22,3.92A6.48,6.48,0,0,1,330.71,109.41Z" transform="translate(-200.08 -13.01)"/><path class="cls-1" d="M384,48.53c.81,2,1.62,4,2.44,6-.3.22-.58.62-.89.65-3.91.29-6.64,1.47-5.91,6.29.16,1.08-1.19,1.63-1.92.18-1.91-3.75-4.09-7.42-5.46-11.36-.7-2,1-3.58,3.4-2.75a30.74,30.74,0,0,1,5.67,2.64C383.52,51.53,383.88,50.36,384,48.53Z" transform="translate(-200.08 -13.01)"/><path class="cls-1" d="M315.45,125.93a4.79,4.79,0,0,1-2.1,2.52,1.84,1.84,0,0,1-2.65-.45,17.2,17.2,0,0,0-5.86-4c-2-.9-1.69-3.59-2.22-5.54-.08-.31.44-1,.81-1.15,1.5-.52,1.88,1.89,3.56,1.38,1.88-.56,2.18.28,2.13,2.16-.07,2.45,2.17,3.06,4.12,3.55C314.23,124.59,315.23,124.65,315.45,125.93Z" transform="translate(-200.08 -13.01)"/><path class="cls-1" d="M507.35,572.85c-4.67-.27-6.68-2.36-6.44-6.67.16-3,2.32-4.75,5.6-4.58,3.64.19,6,3,5.61,6.84C511.83,571.17,511,573.62,507.35,572.85Z" transform="translate(-200.08 -13.01)"/><path class="cls-1" d="M326.21,198.11c7.84-6.84,15-13.1,22.12-19.29,3.68-3.18,8.15-2,8.94,2.25.45,2.41-.84,4-2.52,5.45-8.76,7.61-17.45,15.3-26.28,22.84a5.89,5.89,0,0,0-2.31,5.09c.12,8.48.07,17,0,25.47,0,6.42-3.27,9.73-9.58,9.74q-25.29,0-50.57,0c-6,0-9.51-3.43-9.53-9.46q-.09-25.27,0-50.56c0-6,3.59-9.62,9.52-9.63q25.28-.07,50.56,0c6.31,0,9.57,3.45,9.62,9.83C326.23,192.29,326.21,194.76,326.21,198.11Zm-24.93,35c-3.77,3.27-6.48,3-9.2-1.18-4.8-7.29-9.53-14.64-14.26-22-2.1-3.26-1.86-6.26.56-8,2.66-1.89,5.46-1,7.78,2.47,3.58,5.41,7.17,10.82,10.58,16.33,1.05,1.7,1.67,1.61,3,.4,5-4.51,10.1-8.94,15.22-13.32a3.63,3.63,0,0,0,1.58-3.11c-.08-4.37-.09-8.75,0-13.12,0-1.72-.61-2.06-2.17-2q-23.06.06-46.1,0c-1.52,0-2.2.31-2.2,2,.07,15.37.05,30.74,0,46.1,0,1.43.12,2.31,2,2.3q23.24-.09,46.48,0c1.76,0,2-.78,2-2.26-.05-5.72,0-11.44,0-18C311,224.64,306.16,228.9,301.28,233.14Z" transform="translate(-200.08 -13.01)"/><path class="cls-1" d="M319.49,296.85c4.19,1.08,6.47,3.7,6.68,7.76.08,1.5,0,3,0,4.5s0,2.95,0,5.26c5.47-4.73,10.41-9,15.33-13.28,2.26-2,4.47-4,6.75-5.93,3-2.55,5.82-2.58,7.88-.14s1.57,5.22-1.38,7.81c-8.83,7.73-17.64,15.48-26.57,23.09a5.13,5.13,0,0,0-2,4.4c.08,8.74,0,17.49,0,26.23,0,1.74.13,3.52-1.24,4.92-2.3,1.52-4.78,2.74-7,4.33-17.81.05-35.61.15-53.42.11-3.86,0-6.36-2.45-7.42-6.52-.57-3.21-.24-6.46-.25-9.68,0-12.59,0-25.17,0-37.76,0-2,.38-3.55,2.13-4.79a7.52,7.52,0,0,0,3.37-6.73,2.11,2.11,0,0,1,2.16-2.47c5.05-.4,9.94-1.68,15.11-1.55,12.08.31,24.17.09,36.26.12C317,296.53,318.31,296.22,319.49,296.85Zm-18.65,52.93c-3,2.61-6,2.58-8-.42q-8-12-15.67-24.18c-1.59-2.52-1.18-5.2,1.47-6.89s5-.9,6.9,1.49c.69.88,1.2,1.89,1.81,2.83L298,339c2.92-2.52,5.39-5.31,8.44-7.15,8.86-5.34,11.68-13,10.22-22.92-.3-2.07-.39-3-2.84-3q-22.49.17-45,0c-2.12,0-2.74.58-2.72,2.72q.14,22.66,0,45.34c0,1.82.32,2.54,2.4,2.52,15.24-.1,30.48-.12,45.72,0,2.26,0,2.34-.93,2.33-2.6,0-5.62,0-11.24,0-17.73C311,341,305.92,345.44,300.84,349.78Z" transform="translate(-200.08 -13.01)"/><path class="cls-1" d="M318.18,413c4.92.4,7.82,3.25,8,8,.11,2.93,0,5.87,0,9.66l18.89-16.41c1.13-1,2.23-2,3.39-3,2.86-2.38,5.65-2.42,7.65-.16s1.68,5.2-1,7.6c-5.68,5.06-11.46,10-17.18,15.05-3.85,3.37-9.12,6.11-11.08,10.36s-.6,10-.64,15.13c0,4.75,0,9.5,0,14.25-.08,5.26-3.39,8.62-8.69,8.64q-26.06.09-52.11,0c-5.67,0-8.86-3.51-8.88-9.73-.06-15.49,0-31,0-46.48,0-1.62-.09-3.26,0-4.87.39-4.6,2.79-7.21,7.3-8.09,3.25-1,5.19-.27,6.3,3.41,1.37,4.56,5.86,5.14,8.88,1.36.76-.95,3-1.6,1.35-3.92-.74-1.05,1.15-1.15,2.05-1.15,4.47,0,8.95-.08,13.43,0C303.29,412.89,310.74,412.39,318.18,413ZM265,425.25c-.54,3.8.84,7.4.82,11.15-.08,11-.06,22,0,33,0,1.41-.84,3.49,1.84,3.67,1.24-.07,2.48-.19,3.72-.19,14,0,28,0,42,0,1.09,0,3,.77,3.07-1.07.19-6.23.07-12.47.07-19.27-5.57,4.84-10.46,9.12-15.39,13.34-3.77,3.23-6.46,2.84-9.21-1.37q-7.15-11-14.22-22c-2.1-3.28-1.72-6.23.86-7.86s5.39-.79,7.52,2.42c3.38,5.1,6.75,10.2,9.92,15.42,1.38,2.28,2.34,3.18,4.51.77a27.68,27.68,0,0,1,6.2-5.4c8.49-5.05,11.25-12.33,10-21.91-.41-3.09-1.06-3.8-4-3.78-14.24.11-28.49,0-42.73-.09C266.28,421.1,265.53,421.68,265,425.25Z" transform="translate(-200.08 -13.01)"/><path class="cls-1" d="M269.93,422.05c-2.9-.25-3.91.77-3.86,4,.23,14.47.09,28.94.14,43.4,0,1.33-.77,3.15,1.48,3.64-2.2,0-2.24,0-2.25-2.92q0-15.69,0-31.38c0-2.49.2-4.92-1.5-7.14-2.31-3-3-6.89-5.25-10s1.42-4.07,2.81-6.8C262.44,420.15,267.86,418.83,269.93,422.05Z" transform="translate(-200.08 -13.01)"/><path class="cls-1" d="M529.3,404.88s-1.19,10.46,2.12,20l-4.07,3.61-5.91-22.58Z" transform="translate(-200.08 -13.01)"/><circle class="cls-2" cx="198.21" cy="32.81" r="13.4"/></svg>